<?xml version="1.0" encoding="UTF-8"?>
<!--Generator: Apple Native CoreSVG 232.5-->
<!DOCTYPE svg
PUBLIC "-//W3C//DTD SVG 1.1//EN"
       "http://www.w3.org/Graphics/SVG/1.1/DTD/svg11.dtd">
<svg version="1.1" xmlns="http://www.w3.org/2000/svg" xmlns:xlink="http://www.w3.org/1999/xlink" width="10.4456" height="9.88893">
 <g>
  <rect height="9.88893" opacity="0" width="10.4456" x="0" y="0"/>
  <path d="M0.137335 9.75159C0.327765 9.93226 0.630499 9.93226 0.816046 9.75159L4.93714 5.62562L9.06312 9.75159C9.24378 9.93226 9.55628 9.93714 9.73694 9.75159C9.92249 9.56116 9.92249 9.25843 9.73694 9.07776L5.61585 4.95179L9.73694 0.825812C9.92249 0.645148 9.92737 0.337531 9.73694 0.151984C9.5514-0.0286804 9.24378-0.0286804 9.06312 0.151984L4.93714 4.27796L0.816046 0.151984C0.630499-0.0286804 0.322882-0.0335632 0.137335 0.151984C-0.0433289 0.342413-0.0433289 0.645148 0.137335 0.825812L4.26331 4.95179L0.137335 9.07776C-0.0433289 9.25843-0.0482117 9.56605 0.137335 9.75159Z" fill="#000000" fill-opacity="0.85"/>
 </g>
</svg>
