<svg width="520" height="40" viewBox="0 0 520 40" fill="none" xmlns="http://www.w3.org/2000/svg">
<path d="M1.75 32H6.3V19.225C6.3 17.79 6.265 16.285 6.125 15.235C6.615 15.97 7.175 16.635 7.735 17.265L20.125 32H23.31V7.5H18.83V19.715C18.83 21.15 18.865 22.655 19.005 23.705C18.515 22.97 17.955 22.305 17.395 21.675L5.46 7.5H1.75V32ZM35.8687 32.455C39.4737 32.455 42.5187 30.845 43.9887 28.57L40.3137 25.805C39.4737 27.205 37.8987 28.255 35.8687 28.255C33.4887 28.255 31.8787 26.75 31.3537 24.615H44.9687C45.0737 24.02 45.1087 23.46 45.1087 22.935C45.1087 17.685 41.3287 13.345 35.8687 13.345C30.4087 13.345 26.4537 17.685 26.4537 22.935C26.4537 28.185 30.2337 32.455 35.8687 32.455ZM31.3537 21.08C31.8787 18.91 33.5587 17.405 35.7987 17.405C38.1087 17.405 39.8237 19.05 40.3487 21.08H31.3537ZM54.0944 32H56.6844V27.8H54.7244C53.8144 27.8 53.2544 27.275 53.2544 26.12V17.825H57.1044V13.8H53.2544V9.635L48.5294 10.125V13.8H45.9744V17.825H48.5294V26.365C48.5294 30.32 50.4894 32 54.0944 32ZM63.6431 32H69.0681L71.7981 21.64C72.0431 20.765 72.2181 19.82 72.3581 18.91C72.4981 19.82 72.7081 20.765 72.9881 21.64L75.9631 32H81.0731L86.7431 13.8H81.5981L79.0781 24.125C78.8681 25 78.6581 25.98 78.5181 26.89C78.3781 25.98 78.1681 24.965 77.9231 24.09L75.0881 13.8H69.6631L67.0031 24.09C66.7581 24.965 66.5481 25.98 66.4081 26.89C66.2681 25.98 66.0581 25 65.8481 24.125L63.5031 13.8H57.9731L63.6431 32ZM96.5934 32.455C102.228 32.455 106.288 28.185 106.288 22.935C106.288 17.685 102.228 13.38 96.5934 13.38C90.9584 13.38 86.8984 17.685 86.8984 22.935C86.8984 28.185 90.9584 32.455 96.5934 32.455ZM91.6234 22.935C91.6234 20.1 93.5834 17.685 96.5934 17.685C99.6034 17.685 101.563 20.1 101.563 22.935C101.563 25.77 99.6034 28.15 96.5934 28.15C93.5834 28.15 91.6234 25.77 91.6234 22.935ZM109.08 32H113.805V22.69C113.805 19.645 115.905 17.825 118.635 17.825H119.3V13.38C116.15 13.205 114.295 14.64 113.665 17.265V13.8H109.08V32ZM133.612 32H139.877L131.267 22.27L139.842 13.8H133.122L126.297 21.15V6.45H121.572V32H126.297V23.355L133.612 32ZM141.907 36.865L142.887 36.515C145.477 35.605 147.227 33.54 147.227 30.845C147.227 28.325 145.827 26.785 143.727 26.785C142.187 26.785 140.857 28.045 140.857 29.55C140.857 31.09 142.187 32.35 143.587 32.35C143.867 32.35 144.112 32.315 144.392 32.245C144.077 33.19 143.377 33.68 141.942 34.17L140.962 34.52L141.907 36.865ZM156.834 32H161.734V7.5H156.834V32ZM171.717 32H176.617V11.91H183.617V7.5H164.717V11.91H171.717V32ZM183.091 36.865L184.071 36.515C186.661 35.605 188.411 33.54 188.411 30.845C188.411 28.325 187.011 26.785 184.911 26.785C183.371 26.785 182.041 28.045 182.041 29.55C182.041 31.09 183.371 32.35 184.771 32.35C185.051 32.35 185.296 32.315 185.576 32.245C185.261 33.19 184.561 33.68 183.126 34.17L182.146 34.52L183.091 36.865ZM198.018 32H202.918V23.11H206.278C211.773 23.11 215.133 20.415 215.133 15.235C215.133 10.09 211.773 7.5 206.278 7.5H198.018V32ZM202.918 18.7V11.875H205.998C208.658 11.875 210.163 12.96 210.163 15.27C210.163 17.615 208.658 18.7 205.998 18.7H202.918ZM217.577 32H222.302V22.69C222.302 19.645 224.402 17.825 227.132 17.825H227.797V13.38C224.647 13.205 222.792 14.64 222.162 17.265V13.8H217.577V32ZM238.175 32.455C243.81 32.455 247.87 28.185 247.87 22.935C247.87 17.685 243.81 13.38 238.175 13.38C232.54 13.38 228.48 17.685 228.48 22.935C228.48 28.185 232.54 32.455 238.175 32.455ZM233.205 22.935C233.205 20.1 235.165 17.685 238.175 17.685C241.185 17.685 243.145 20.1 243.145 22.935C243.145 25.77 241.185 28.15 238.175 28.15C235.165 28.15 233.205 25.77 233.205 22.935ZM259.346 39.455C264.911 39.455 268.831 35.99 268.831 30.39V13.8H264.176V16.285C263.231 14.5 261.621 13.345 258.611 13.345C253.606 13.345 249.791 17.475 249.791 22.725C249.791 27.975 253.606 32.105 258.611 32.105C261.551 32.105 263.126 30.985 264.106 29.305V30.11C264.106 33.015 261.901 35.08 259.381 35.08C257.106 35.08 255.286 34.52 253.571 32.56L250.631 36.025C252.801 38.58 255.671 39.455 259.346 39.455ZM254.516 22.725C254.516 19.89 256.301 17.65 259.381 17.65C262.496 17.65 264.316 19.89 264.316 22.725C264.316 25.56 262.496 27.8 259.381 27.8C256.301 27.8 254.516 25.49 254.516 22.725ZM272.314 32H277.039V22.69C277.039 19.645 279.139 17.825 281.869 17.825H282.534V13.38C279.384 13.205 277.529 14.64 276.899 17.265V13.8H272.314V32ZM292.212 32.455C295.467 32.455 297.112 31.09 298.092 29.025V32H302.677V13.8H297.987V16.67C297.007 14.71 295.362 13.415 292.212 13.415C287.207 13.415 283.217 17.72 283.217 22.97C283.217 28.22 287.207 32.455 292.212 32.455ZM287.942 22.935C287.942 20.1 289.972 17.685 292.982 17.685C296.097 17.685 298.092 20.135 298.092 22.97C298.092 25.805 296.097 28.185 292.982 28.185C289.972 28.185 287.942 25.7 287.942 22.935ZM306.184 32H310.909V22.025C310.909 18.875 312.694 17.51 314.689 17.51C317.034 17.51 318.609 18.875 318.609 22.025V32H323.334V22.025C323.334 18.525 324.839 17.51 327.044 17.51C329.179 17.51 330.684 18.875 330.684 22.025V32H335.409V20.87C335.409 16.285 332.399 13.38 328.479 13.38C325.294 13.38 323.544 14.605 322.319 16.81C321.129 14.605 318.959 13.38 316.404 13.38C313.604 13.38 311.784 14.43 310.839 16.46V13.8H306.184V32ZM338.74 32H343.465V22.025C343.465 18.875 345.25 17.51 347.245 17.51C349.59 17.51 351.165 18.875 351.165 22.025V32H355.89V22.025C355.89 18.525 357.395 17.51 359.6 17.51C361.735 17.51 363.24 18.875 363.24 22.025V32H367.965V20.87C367.965 16.285 364.955 13.38 361.035 13.38C357.85 13.38 356.1 14.605 354.875 16.81C353.685 14.605 351.515 13.38 348.96 13.38C346.16 13.38 344.34 14.43 343.395 16.46V13.8H338.74V32ZM371.295 32H376.02V13.8H371.295V32ZM370.805 9.495C370.805 11.035 372.03 12.295 373.64 12.295C375.285 12.295 376.475 11.07 376.475 9.495C376.475 7.99 375.285 6.73 373.64 6.73C372.03 6.73 370.805 7.99 370.805 9.495ZM379.515 32H384.24V22.025C384.24 18.875 386.025 17.51 388.02 17.51C390.365 17.51 391.94 18.875 391.94 22.025V32H396.665V20.87C396.665 16.285 393.655 13.38 389.735 13.38C386.935 13.38 385.115 14.43 384.17 16.46V13.8H379.515V32ZM408.86 39.455C414.425 39.455 418.345 35.99 418.345 30.39V13.8H413.69V16.285C412.745 14.5 411.135 13.345 408.125 13.345C403.12 13.345 399.305 17.475 399.305 22.725C399.305 27.975 403.12 32.105 408.125 32.105C411.065 32.105 412.64 30.985 413.62 29.305V30.11C413.62 33.015 411.415 35.08 408.895 35.08C406.62 35.08 404.8 34.52 403.085 32.56L400.145 36.025C402.315 38.58 405.185 39.455 408.86 39.455ZM404.03 22.725C404.03 19.89 405.815 17.65 408.895 17.65C412.01 17.65 413.83 19.89 413.83 22.725C413.83 25.56 412.01 27.8 408.895 27.8C405.815 27.8 404.03 25.49 404.03 22.725Z" fill="#1C274C"/>
<rect opacity="0.3" x="440" y="10" width="2" height="15" rx="1" fill="#1C274C"/>
<rect x="462" y="2.29907" width="57.495" height="30.402" rx="15.201" fill="#1C274C"/>
<path d="M477 22.5191H480.654C482.782 22.5191 484.126 21.4551 484.126 19.8171C484.126 18.5991 483.594 17.7311 481.998 17.3531C483.202 16.9051 483.58 16.2331 483.58 15.2951C483.58 13.7691 482.432 12.7191 480.304 12.7191H477V22.5191ZM478.96 20.7551V18.3611H480.472C481.536 18.3611 482.138 18.7951 482.138 19.5091C482.138 20.3631 481.536 20.7551 480.472 20.7551H478.96ZM478.96 16.7651V14.4691H480.122C481.186 14.4691 481.592 14.9311 481.592 15.6031C481.592 16.3871 481.186 16.7651 480.122 16.7651H478.96Z" fill="white"/>
<path d="M488.709 22.7011C490.963 22.7011 492.587 20.9931 492.587 18.8931C492.587 16.7931 490.963 15.0711 488.709 15.0711C486.455 15.0711 484.831 16.7931 484.831 18.8931C484.831 20.9931 486.455 22.7011 488.709 22.7011ZM486.721 18.8931C486.721 17.7591 487.505 16.7931 488.709 16.7931C489.913 16.7931 490.697 17.7591 490.697 18.8931C490.697 20.0271 489.913 20.9791 488.709 20.9791C487.505 20.9791 486.721 20.0271 486.721 18.8931Z" fill="white"/>
<path d="M493.703 22.5191H495.593V12.2991H493.703V22.5191Z" fill="white"/>
<path d="M500.309 22.7011C501.611 22.7011 502.269 22.1551 502.661 21.3291V22.5191H504.495V12.2991H502.605V16.3591C502.213 15.5891 501.555 15.0851 500.309 15.0851C498.307 15.0851 496.711 16.8071 496.711 18.9071C496.711 21.0071 498.307 22.7011 500.309 22.7011ZM498.601 18.8931C498.601 17.7591 499.413 16.7931 500.617 16.7931C501.863 16.7931 502.661 17.7731 502.661 18.9071C502.661 20.0411 501.863 20.9931 500.617 20.9931C499.413 20.9931 498.601 19.9991 498.601 18.8931Z" fill="white"/>
</svg>
