<svg width="428" height="40" viewBox="0 0 428 40" fill="none" xmlns="http://www.w3.org/2000/svg">
<path d="M9.73 32.455C15.295 32.455 18.69 29.445 18.69 25C18.69 19.4 13.65 18.14 10.78 17.23C8.645 16.565 6.895 15.97 6.895 14.15C6.895 12.505 8.33 11.455 10.29 11.455C12.11 11.455 13.23 12.33 14.42 14.22L18.62 11.63C16.8 8.76 14.35 7.08 10.535 7.08C5.355 7.08 1.89 9.985 1.89 14.395C1.89 18.105 4.305 20.31 8.085 21.29C11.095 22.06 13.685 22.83 13.685 25.28C13.685 26.96 12.285 28.08 10.01 28.08C7.875 28.08 5.845 26.995 4.585 24.475L0.35 27.17C2.485 30.915 5.845 32.455 9.73 32.455ZM30.0923 32.455C33.6973 32.455 36.7423 30.845 38.2123 28.57L34.5373 25.805C33.6973 27.205 32.1223 28.255 30.0923 28.255C27.7123 28.255 26.1023 26.75 25.5773 24.615H39.1923C39.2973 24.02 39.3323 23.46 39.3323 22.935C39.3323 17.685 35.5523 13.345 30.0923 13.345C24.6323 13.345 20.6773 17.685 20.6773 22.935C20.6773 28.185 24.4573 32.455 30.0923 32.455ZM25.5773 21.08C26.1023 18.91 27.7823 17.405 30.0223 17.405C32.3323 17.405 34.0473 19.05 34.5723 21.08H25.5773ZM48.318 32H50.908V27.8H48.948C48.038 27.8 47.478 27.275 47.478 26.12V17.825H51.328V13.8H47.478V9.635L42.753 10.125V13.8H40.198V17.825H42.753V26.365C42.753 30.32 44.713 32 48.318 32ZM60.8442 32H63.4342V27.8H61.4742C60.5642 27.8 60.0042 27.275 60.0042 26.12V17.825H63.8542V13.8H60.0042V9.635L55.2792 10.125V13.8H52.7242V17.825H55.2792V26.365C55.2792 30.32 57.2392 32 60.8442 32ZM66.1336 32H70.8586V13.8H66.1336V32ZM65.6436 9.495C65.6436 11.035 66.8686 12.295 68.4786 12.295C70.1236 12.295 71.3136 11.07 71.3136 9.495C71.3136 7.99 70.1236 6.73 68.4786 6.73C66.8686 6.73 65.6436 7.99 65.6436 9.495ZM74.3531 32H79.0781V22.025C79.0781 18.875 80.8631 17.51 82.8581 17.51C85.2031 17.51 86.7781 18.875 86.7781 22.025V32H91.5031V20.87C91.5031 16.285 88.4931 13.38 84.5731 13.38C81.7731 13.38 79.9531 14.43 79.0081 16.46V13.8H74.3531V32ZM103.698 39.455C109.263 39.455 113.183 35.99 113.183 30.39V13.8H108.528V16.285C107.583 14.5 105.973 13.345 102.963 13.345C97.9582 13.345 94.1432 17.475 94.1432 22.725C94.1432 27.975 97.9582 32.105 102.963 32.105C105.903 32.105 107.478 30.985 108.458 29.305V30.11C108.458 33.015 106.253 35.08 103.733 35.08C101.458 35.08 99.6382 34.52 97.9232 32.56L94.9832 36.025C97.1532 38.58 100.023 39.455 103.698 39.455ZM98.8682 22.725C98.8682 19.89 100.653 17.65 103.733 17.65C106.848 17.65 108.668 19.89 108.668 22.725C108.668 25.56 106.848 27.8 103.733 27.8C100.653 27.8 98.8682 25.49 98.8682 22.725ZM122.896 32.455C126.921 32.455 129.966 29.935 129.966 26.575C129.966 23.845 128.741 21.885 123.456 20.52C121.286 19.96 121.006 19.4 121.006 18.77C121.006 17.65 121.986 17.16 123.281 17.16C124.506 17.16 125.626 17.72 126.501 19.12L129.931 16.495C128.076 14.08 126.116 13.345 123.176 13.345C118.906 13.345 116.386 15.725 116.386 18.91C116.386 21.22 117.121 23.425 121.986 24.58C124.856 25.245 125.311 25.77 125.311 26.715C125.311 27.8 124.401 28.605 122.791 28.605C121.251 28.605 119.851 27.87 118.521 26.365L115.336 29.27C117.331 31.405 119.816 32.455 122.896 32.455ZM132.798 36.865L133.778 36.515C136.368 35.605 138.118 33.54 138.118 30.845C138.118 28.325 136.718 26.785 134.618 26.785C133.078 26.785 131.748 28.045 131.748 29.55C131.748 31.09 133.078 32.35 134.478 32.35C134.758 32.35 135.003 32.315 135.283 32.245C134.968 33.19 134.268 33.68 132.833 34.17L131.853 34.52L132.798 36.865ZM147.725 32H152.625V21.99H161.935V17.65H152.625V11.91H162.11V7.5H147.725V32ZM165.438 32H170.163V13.8H165.438V32ZM164.948 9.495C164.948 11.035 166.173 12.295 167.783 12.295C169.428 12.295 170.618 11.07 170.618 9.495C170.618 7.99 169.428 6.73 167.783 6.73C166.173 6.73 164.948 7.99 164.948 9.495ZM173.657 32H178.382V22.025C178.382 18.875 180.167 17.51 182.162 17.51C184.507 17.51 186.082 18.875 186.082 22.025V32H190.807V20.87C190.807 16.285 187.797 13.38 183.877 13.38C181.077 13.38 179.257 14.43 178.312 16.46V13.8H173.657V32ZM202.862 32.455C206.467 32.455 209.512 30.845 210.982 28.57L207.307 25.805C206.467 27.205 204.892 28.255 202.862 28.255C200.482 28.255 198.872 26.75 198.347 24.615H211.962C212.067 24.02 212.102 23.46 212.102 22.935C212.102 17.685 208.322 13.345 202.862 13.345C197.402 13.345 193.447 17.685 193.447 22.935C193.447 28.185 197.227 32.455 202.862 32.455ZM198.347 21.08C198.872 18.91 200.552 17.405 202.792 17.405C205.102 17.405 206.817 19.05 207.342 21.08H198.347ZM226.965 32H231.865V11.91H238.865V7.5H219.965V11.91H226.965V32ZM245.112 32.42C247.947 32.42 249.592 31.37 250.467 29.27V32H255.052V13.8H250.327V23.775C250.327 26.925 248.542 28.29 246.547 28.29C244.202 28.29 242.907 26.925 242.907 23.775V13.8H238.182V24.93C238.182 29.515 241.192 32.42 245.112 32.42ZM258.539 32H263.264V22.025C263.264 18.875 265.049 17.51 267.044 17.51C269.389 17.51 270.964 18.875 270.964 22.025V32H275.689V20.87C275.689 16.285 272.679 13.38 268.759 13.38C265.959 13.38 264.139 14.43 263.194 16.46V13.8H258.539V32ZM279.029 32H283.754V13.8H279.029V32ZM278.539 9.495C278.539 11.035 279.764 12.295 281.374 12.295C283.019 12.295 284.209 11.07 284.209 9.495C284.209 7.99 283.019 6.73 281.374 6.73C279.764 6.73 278.539 7.99 278.539 9.495ZM287.249 32H291.974V22.025C291.974 18.875 293.759 17.51 295.754 17.51C298.099 17.51 299.674 18.875 299.674 22.025V32H304.399V20.87C304.399 16.285 301.389 13.38 297.469 13.38C294.669 13.38 292.849 14.43 291.904 16.46V13.8H287.249V32ZM316.594 39.455C322.159 39.455 326.079 35.99 326.079 30.39V13.8H321.424V16.285C320.479 14.5 318.869 13.345 315.859 13.345C310.854 13.345 307.039 17.475 307.039 22.725C307.039 27.975 310.854 32.105 315.859 32.105C318.799 32.105 320.374 30.985 321.354 29.305V30.11C321.354 33.015 319.149 35.08 316.629 35.08C314.354 35.08 312.534 34.52 310.819 32.56L307.879 36.025C310.049 38.58 312.919 39.455 316.594 39.455ZM311.764 22.725C311.764 19.89 313.549 17.65 316.629 17.65C319.744 17.65 321.564 19.89 321.564 22.725C321.564 25.56 319.744 27.8 316.629 27.8C313.549 27.8 311.764 25.49 311.764 22.725Z" fill="#1C274C"/>
<rect opacity="0.3" x="348" y="10" width="2" height="15" rx="1" fill="#1C274C"/>
<rect x="370" y="2.29907" width="57.495" height="30.402" rx="15.201" fill="#1C274C"/>
<path d="M385 22.5191H388.654C390.782 22.5191 392.126 21.4551 392.126 19.8171C392.126 18.5991 391.594 17.7311 389.998 17.3531C391.202 16.9051 391.58 16.2331 391.58 15.2951C391.58 13.7691 390.432 12.7191 388.304 12.7191H385V22.5191ZM386.96 20.7551V18.3611H388.472C389.536 18.3611 390.138 18.7951 390.138 19.5091C390.138 20.3631 389.536 20.7551 388.472 20.7551H386.96ZM386.96 16.7651V14.4691H388.122C389.186 14.4691 389.592 14.9311 389.592 15.6031C389.592 16.3871 389.186 16.7651 388.122 16.7651H386.96Z" fill="white"/>
<path d="M396.709 22.7011C398.963 22.7011 400.587 20.9931 400.587 18.8931C400.587 16.7931 398.963 15.0711 396.709 15.0711C394.455 15.0711 392.831 16.7931 392.831 18.8931C392.831 20.9931 394.455 22.7011 396.709 22.7011ZM394.721 18.8931C394.721 17.7591 395.505 16.7931 396.709 16.7931C397.913 16.7931 398.697 17.7591 398.697 18.8931C398.697 20.0271 397.913 20.9791 396.709 20.9791C395.505 20.9791 394.721 20.0271 394.721 18.8931Z" fill="white"/>
<path d="M401.703 22.5191H403.593V12.2991H401.703V22.5191Z" fill="white"/>
<path d="M408.309 22.7011C409.611 22.7011 410.269 22.1551 410.661 21.3291V22.5191H412.495V12.2991H410.605V16.3591C410.213 15.5891 409.555 15.0851 408.309 15.0851C406.307 15.0851 404.711 16.8071 404.711 18.9071C404.711 21.0071 406.307 22.7011 408.309 22.7011ZM406.601 18.8931C406.601 17.7591 407.413 16.7931 408.617 16.7931C409.863 16.7931 410.661 17.7731 410.661 18.9071C410.661 20.0411 409.863 20.9931 408.617 20.9931C407.413 20.9931 406.601 19.9991 406.601 18.8931Z" fill="white"/>
</svg>
