<svg width="400" height="37" viewBox="0 0 400 37" fill="none" xmlns="http://www.w3.org/2000/svg">
<path d="M1.75 32H16.17V27.59H6.65V21.675H15.925V17.405H6.65V11.91H16.1V7.5H1.75V32ZM19.6342 32H24.3592V6.45H19.6342V32ZM36.5687 32.455C40.1737 32.455 43.2187 30.845 44.6887 28.57L41.0137 25.805C40.1737 27.205 38.5987 28.255 36.5687 28.255C34.1887 28.255 32.5787 26.75 32.0537 24.615H45.6687C45.7737 24.02 45.8087 23.46 45.8087 22.935C45.8087 17.685 42.0287 13.345 36.5687 13.345C31.1087 13.345 27.1537 17.685 27.1537 22.935C27.1537 28.185 30.9337 32.455 36.5687 32.455ZM32.0537 21.08C32.5787 18.91 34.2587 17.405 36.4987 17.405C38.8087 17.405 40.5237 19.05 41.0487 21.08H32.0537ZM57.0237 32.455C60.5937 32.455 63.1137 31.16 64.8287 28.955L61.3987 25.98C60.4537 27.24 59.2637 28.15 57.4437 28.15C54.4337 28.15 52.3687 25.735 52.3687 22.9C52.3687 20.065 54.3287 17.65 57.3387 17.65C58.9487 17.65 60.3487 18.455 61.1887 19.715L64.8287 16.74C63.2887 14.605 60.5937 13.31 57.2687 13.345C51.7037 13.38 47.6437 17.615 47.6437 22.9C47.6437 28.185 51.8087 32.455 57.0237 32.455ZM74.2932 32H76.8832V27.8H74.9232C74.0132 27.8 73.4532 27.275 73.4532 26.12V17.825H77.3032V13.8H73.4532V9.635L68.7282 10.125V13.8H66.1732V17.825H68.7282V26.365C68.7282 30.32 70.6882 32 74.2932 32ZM79.5826 32H84.3076V22.69C84.3076 19.645 86.4076 17.825 89.1376 17.825H89.8026V13.38C86.6526 13.205 84.7976 14.64 84.1676 17.265V13.8H79.5826V32ZM100.181 32.455C105.816 32.455 109.876 28.185 109.876 22.935C109.876 17.685 105.816 13.38 100.181 13.38C94.5459 13.38 90.4859 17.685 90.4859 22.935C90.4859 28.185 94.5459 32.455 100.181 32.455ZM95.2109 22.935C95.2109 20.1 97.1709 17.685 100.181 17.685C103.191 17.685 105.151 20.1 105.151 22.935C105.151 25.77 103.191 28.15 100.181 28.15C97.1709 28.15 95.2109 25.77 95.2109 22.935ZM112.667 32H117.392V22.025C117.392 18.875 119.177 17.51 121.172 17.51C123.517 17.51 125.092 18.875 125.092 22.025V32H129.817V20.87C129.817 16.285 126.807 13.38 122.887 13.38C120.087 13.38 118.267 14.43 117.322 16.46V13.8H112.667V32ZM133.157 32H137.882V13.8H133.157V32ZM132.667 9.495C132.667 11.035 133.892 12.295 135.502 12.295C137.147 12.295 138.337 11.07 138.337 9.495C138.337 7.99 137.147 6.73 135.502 6.73C133.892 6.73 132.667 7.99 132.667 9.495ZM150.057 32.455C153.627 32.455 156.147 31.16 157.862 28.955L154.432 25.98C153.487 27.24 152.297 28.15 150.477 28.15C147.467 28.15 145.402 25.735 145.402 22.9C145.402 20.065 147.362 17.65 150.372 17.65C151.982 17.65 153.382 18.455 154.222 19.715L157.862 16.74C156.322 14.605 153.627 13.31 150.302 13.345C144.737 13.38 140.677 17.615 140.677 22.9C140.677 28.185 144.842 32.455 150.057 32.455ZM161.131 36.865L162.111 36.515C164.701 35.605 166.451 33.54 166.451 30.845C166.451 28.325 165.051 26.785 162.951 26.785C161.411 26.785 160.081 28.045 160.081 29.55C160.081 31.09 161.411 32.35 162.811 32.35C163.091 32.35 163.336 32.315 163.616 32.245C163.301 33.19 162.601 33.68 161.166 34.17L160.186 34.52L161.131 36.865ZM176.058 32H184.808C193.278 32 197.373 26.785 197.373 19.785C197.373 12.75 193.278 7.5 184.808 7.5H176.058V32ZM180.958 27.59V11.91H184.213C190.023 11.91 192.298 15.34 192.298 19.785C192.298 24.23 190.023 27.59 184.213 27.59H180.958ZM208.707 32.455C212.312 32.455 215.357 30.845 216.827 28.57L213.152 25.805C212.312 27.205 210.737 28.255 208.707 28.255C206.327 28.255 204.717 26.75 204.192 24.615H217.807C217.912 24.02 217.947 23.46 217.947 22.935C217.947 17.685 214.167 13.345 208.707 13.345C203.247 13.345 199.292 17.685 199.292 22.935C199.292 28.185 203.072 32.455 208.707 32.455ZM204.192 21.08C204.717 18.91 206.397 17.405 208.637 17.405C210.947 17.405 212.662 19.05 213.187 21.08H204.192ZM225.332 32H230.092L237.652 13.8H232.157L228.517 24.195C228.202 25.07 227.922 26.155 227.747 27.1C227.572 26.155 227.292 25.07 226.977 24.195L223.337 13.8H217.737L225.332 32ZM239.229 32H243.954V13.8H239.229V32ZM238.739 9.495C238.739 11.035 239.964 12.295 241.574 12.295C243.219 12.295 244.409 11.07 244.409 9.495C244.409 7.99 243.219 6.73 241.574 6.73C239.964 6.73 238.739 7.99 238.739 9.495ZM256.129 32.455C259.699 32.455 262.219 31.16 263.934 28.955L260.504 25.98C259.559 27.24 258.369 28.15 256.549 28.15C253.539 28.15 251.474 25.735 251.474 22.9C251.474 20.065 253.434 17.65 256.444 17.65C258.054 17.65 259.454 18.455 260.294 19.715L263.934 16.74C262.394 14.605 259.699 13.31 256.374 13.345C250.809 13.38 246.749 17.615 246.749 22.9C246.749 28.185 250.914 32.455 256.129 32.455ZM274.056 32.455C277.661 32.455 280.706 30.845 282.176 28.57L278.501 25.805C277.661 27.205 276.086 28.255 274.056 28.255C271.676 28.255 270.066 26.75 269.541 24.615H283.156C283.261 24.02 283.296 23.46 283.296 22.935C283.296 17.685 279.516 13.345 274.056 13.345C268.596 13.345 264.641 17.685 264.641 22.935C264.641 28.185 268.421 32.455 274.056 32.455ZM269.541 21.08C270.066 18.91 271.746 17.405 273.986 17.405C276.296 17.405 278.011 19.05 278.536 21.08H269.541ZM291.788 32.455C295.813 32.455 298.858 29.935 298.858 26.575C298.858 23.845 297.633 21.885 292.348 20.52C290.178 19.96 289.898 19.4 289.898 18.77C289.898 17.65 290.878 17.16 292.173 17.16C293.398 17.16 294.518 17.72 295.393 19.12L298.823 16.495C296.968 14.08 295.008 13.345 292.068 13.345C287.798 13.345 285.278 15.725 285.278 18.91C285.278 21.22 286.013 23.425 290.878 24.58C293.748 25.245 294.203 25.77 294.203 26.715C294.203 27.8 293.293 28.605 291.683 28.605C290.143 28.605 288.743 27.87 287.413 26.365L284.228 29.27C286.223 31.405 288.708 32.455 291.788 32.455Z" fill="#1C274C"/>
<rect opacity="0.3" x="320" y="10" width="2" height="15" rx="1" fill="#1C274C"/>
<rect x="342" y="2.29883" width="57.495" height="30.402" rx="15.201" fill="#1C274C"/>
<path d="M357 22.5188H360.654C362.782 22.5188 364.126 21.4548 364.126 19.8168C364.126 18.5988 363.594 17.7308 361.998 17.3528C363.202 16.9048 363.58 16.2328 363.58 15.2948C363.58 13.7688 362.432 12.7188 360.304 12.7188H357V22.5188ZM358.96 20.7548V18.3608H360.472C361.536 18.3608 362.138 18.7948 362.138 19.5088C362.138 20.3628 361.536 20.7548 360.472 20.7548H358.96ZM358.96 16.7648V14.4688H360.122C361.186 14.4688 361.592 14.9308 361.592 15.6028C361.592 16.3868 361.186 16.7648 360.122 16.7648H358.96Z" fill="white"/>
<path d="M368.709 22.7008C370.963 22.7008 372.587 20.9928 372.587 18.8928C372.587 16.7928 370.963 15.0708 368.709 15.0708C366.455 15.0708 364.831 16.7928 364.831 18.8928C364.831 20.9928 366.455 22.7008 368.709 22.7008ZM366.721 18.8928C366.721 17.7588 367.505 16.7928 368.709 16.7928C369.913 16.7928 370.697 17.7588 370.697 18.8928C370.697 20.0268 369.913 20.9788 368.709 20.9788C367.505 20.9788 366.721 20.0268 366.721 18.8928Z" fill="white"/>
<path d="M373.703 22.5188H375.593V12.2988H373.703V22.5188Z" fill="white"/>
<path d="M380.309 22.7008C381.611 22.7008 382.269 22.1548 382.661 21.3288V22.5188H384.495V12.2988H382.605V16.3588C382.213 15.5888 381.555 15.0848 380.309 15.0848C378.307 15.0848 376.711 16.8068 376.711 18.9068C376.711 21.0068 378.307 22.7008 380.309 22.7008ZM378.601 18.8928C378.601 17.7588 379.413 16.7928 380.617 16.7928C381.863 16.7928 382.661 17.7728 382.661 18.9068C382.661 20.0408 381.863 20.9928 380.617 20.9928C379.413 20.9928 378.601 19.9988 378.601 18.8928Z" fill="white"/>
</svg>
