<svg width="161" height="35" viewBox="0 0 161 35" fill="none" xmlns="http://www.w3.org/2000/svg">
<path d="M13.65 32.455C17.92 32.455 21.07 30.81 22.925 28.57L19.355 25.525C17.92 27.1 16.135 27.905 13.755 27.905C8.925 27.905 5.95 24.265 5.95 19.785C5.95 15.305 8.925 11.595 13.65 11.595C15.855 11.595 17.675 12.365 19.145 13.905L22.61 10.895C20.405 8.27 17.64 7.045 13.65 7.045C6.09 7.045 0.875 12.75 0.875 19.785C0.875 26.785 6.37 32.455 13.65 32.455ZM32.5434 32.455C35.7984 32.455 37.4434 31.09 38.4234 29.025V32H43.0084V13.8H38.3184V16.67C37.3384 14.71 35.6934 13.415 32.5434 13.415C27.5384 13.415 23.5484 17.72 23.5484 22.97C23.5484 28.22 27.5384 32.455 32.5434 32.455ZM28.2734 22.935C28.2734 20.1 30.3034 17.685 33.3134 17.685C36.4284 17.685 38.4234 20.135 38.4234 22.97C38.4234 25.805 36.4284 28.185 33.3134 28.185C30.3034 28.185 28.2734 25.7 28.2734 22.935ZM46.5158 32H51.2408V6.45H46.5158V32ZM54.7354 32H59.4604V6.45H54.7354V32Z" fill="#1C274C"/>
<rect opacity="0.3" x="81" y="10" width="2" height="15" rx="1" fill="#1C274C"/>
<rect x="103" y="2.29883" width="57.495" height="30.402" rx="15.201" fill="#1C274C"/>
<path d="M118 22.5188H121.654C123.782 22.5188 125.126 21.4548 125.126 19.8168C125.126 18.5988 124.594 17.7308 122.998 17.3528C124.202 16.9048 124.58 16.2328 124.58 15.2948C124.58 13.7688 123.432 12.7188 121.304 12.7188H118V22.5188ZM119.96 20.7548V18.3608H121.472C122.536 18.3608 123.138 18.7948 123.138 19.5088C123.138 20.3628 122.536 20.7548 121.472 20.7548H119.96ZM119.96 16.7648V14.4688H121.122C122.186 14.4688 122.592 14.9308 122.592 15.6028C122.592 16.3868 122.186 16.7648 121.122 16.7648H119.96Z" fill="white"/>
<path d="M129.709 22.7008C131.963 22.7008 133.587 20.9928 133.587 18.8928C133.587 16.7928 131.963 15.0708 129.709 15.0708C127.455 15.0708 125.831 16.7928 125.831 18.8928C125.831 20.9928 127.455 22.7008 129.709 22.7008ZM127.721 18.8928C127.721 17.7588 128.505 16.7928 129.709 16.7928C130.913 16.7928 131.697 17.7588 131.697 18.8928C131.697 20.0268 130.913 20.9788 129.709 20.9788C128.505 20.9788 127.721 20.0268 127.721 18.8928Z" fill="white"/>
<path d="M134.703 22.5188H136.593V12.2988H134.703V22.5188Z" fill="white"/>
<path d="M141.309 22.7008C142.611 22.7008 143.269 22.1548 143.661 21.3288V22.5188H145.495V12.2988H143.605V16.3588C143.213 15.5888 142.555 15.0848 141.309 15.0848C139.307 15.0848 137.711 16.8068 137.711 18.9068C137.711 21.0068 139.307 22.7008 141.309 22.7008ZM139.601 18.8928C139.601 17.7588 140.413 16.7928 141.617 16.7928C142.863 16.7928 143.661 17.7728 143.661 18.9068C143.661 20.0408 142.863 20.9928 141.617 20.9928C140.413 20.9928 139.601 19.9988 139.601 18.8928Z" fill="white"/>
</svg>
