<svg width="251" height="35" viewBox="0 0 251 35" fill="none" xmlns="http://www.w3.org/2000/svg">
<path d="M1.75 32H6.545V22.095C6.545 18.77 6.44 17.125 6.195 14.99L14.35 32H16.73L24.885 14.99C24.64 17.125 24.535 18.77 24.535 22.095V32H29.33V7.5H23.45L18.34 18.315C16.555 22.095 15.96 23.67 15.645 24.86C15.295 23.67 14.7 22.095 12.915 18.315L7.84 7.5H1.75V32ZM41.8843 32.455C45.4893 32.455 48.5343 30.845 50.0043 28.57L46.3293 25.805C45.4893 27.205 43.9143 28.255 41.8843 28.255C39.5043 28.255 37.8943 26.75 37.3693 24.615H50.9843C51.0893 24.02 51.1243 23.46 51.1243 22.935C51.1243 17.685 47.3443 13.345 41.8843 13.345C36.4243 13.345 32.4693 17.685 32.4693 22.935C32.4693 28.185 36.2493 32.455 41.8843 32.455ZM37.3693 21.08C37.8943 18.91 39.5743 17.405 41.8143 17.405C44.1243 17.405 45.8393 19.05 46.3643 21.08H37.3693ZM61.9544 32.455C65.2094 32.455 66.8544 31.09 67.8344 29.025V32H72.4194V6.45H67.6944V16.6C66.7144 14.675 65.0694 13.415 61.9544 13.415C56.9494 13.415 52.9594 17.72 52.9594 22.97C52.9594 28.22 56.9494 32.455 61.9544 32.455ZM57.6844 22.935C57.6844 20.1 59.7144 17.685 62.7244 17.685C65.8394 17.685 67.8344 20.135 67.8344 22.97C67.8344 25.805 65.8394 28.185 62.7244 28.185C59.7144 28.185 57.6844 25.7 57.6844 22.935ZM75.9268 32H80.6518V13.8H75.9268V32ZM75.4368 9.495C75.4368 11.035 76.6618 12.295 78.2718 12.295C79.9168 12.295 81.1068 11.07 81.1068 9.495C81.1068 7.99 79.9168 6.73 78.2718 6.73C76.6618 6.73 75.4368 7.99 75.4368 9.495ZM92.8263 32.455C96.3963 32.455 98.9163 31.16 100.631 28.955L97.2013 25.98C96.2563 27.24 95.0663 28.15 93.2463 28.15C90.2363 28.15 88.1713 25.735 88.1713 22.9C88.1713 20.065 90.1313 17.65 93.1413 17.65C94.7513 17.65 96.1513 18.455 96.9913 19.715L100.631 16.74C99.0913 14.605 96.3963 13.31 93.0713 13.345C87.5063 13.38 83.4463 17.615 83.4463 22.9C83.4463 28.185 87.6113 32.455 92.8263 32.455ZM103.201 32H107.926V13.8H103.201V32ZM102.711 9.495C102.711 11.035 103.936 12.295 105.546 12.295C107.191 12.295 108.381 11.07 108.381 9.495C108.381 7.99 107.191 6.73 105.546 6.73C103.936 6.73 102.711 7.99 102.711 9.495ZM111.42 32H116.145V22.025C116.145 18.875 117.93 17.51 119.925 17.51C122.27 17.51 123.845 18.875 123.845 22.025V32H128.57V20.87C128.57 16.285 125.56 13.38 121.64 13.38C118.84 13.38 117.02 14.43 116.075 16.46V13.8H111.42V32ZM140.625 32.455C144.23 32.455 147.275 30.845 148.745 28.57L145.07 25.805C144.23 27.205 142.655 28.255 140.625 28.255C138.245 28.255 136.635 26.75 136.11 24.615H149.725C149.83 24.02 149.865 23.46 149.865 22.935C149.865 17.685 146.085 13.345 140.625 13.345C135.165 13.345 131.21 17.685 131.21 22.935C131.21 28.185 134.99 32.455 140.625 32.455ZM136.11 21.08C136.635 18.91 138.315 17.405 140.555 17.405C142.865 17.405 144.58 19.05 145.105 21.08H136.11Z" fill="#1C274C"/>
<rect opacity="0.3" x="171" y="10" width="2" height="15" rx="1" fill="#1C274C"/>
<rect x="193" y="2.29907" width="57.495" height="30.402" rx="15.201" fill="#1C274C"/>
<path d="M208 22.5191H211.654C213.782 22.5191 215.126 21.4551 215.126 19.8171C215.126 18.5991 214.594 17.7311 212.998 17.3531C214.202 16.9051 214.58 16.2331 214.58 15.2951C214.58 13.7691 213.432 12.7191 211.304 12.7191H208V22.5191ZM209.96 20.7551V18.3611H211.472C212.536 18.3611 213.138 18.7951 213.138 19.5091C213.138 20.3631 212.536 20.7551 211.472 20.7551H209.96ZM209.96 16.7651V14.4691H211.122C212.186 14.4691 212.592 14.9311 212.592 15.6031C212.592 16.3871 212.186 16.7651 211.122 16.7651H209.96Z" fill="white"/>
<path d="M219.709 22.7011C221.963 22.7011 223.587 20.9931 223.587 18.8931C223.587 16.7931 221.963 15.0711 219.709 15.0711C217.455 15.0711 215.831 16.7931 215.831 18.8931C215.831 20.9931 217.455 22.7011 219.709 22.7011ZM217.721 18.8931C217.721 17.7591 218.505 16.7931 219.709 16.7931C220.913 16.7931 221.697 17.7591 221.697 18.8931C221.697 20.0271 220.913 20.9791 219.709 20.9791C218.505 20.9791 217.721 20.0271 217.721 18.8931Z" fill="white"/>
<path d="M224.703 22.5191H226.593V12.2991H224.703V22.5191Z" fill="white"/>
<path d="M231.309 22.7011C232.611 22.7011 233.269 22.1551 233.661 21.3291V22.5191H235.495V12.2991H233.605V16.3591C233.213 15.5891 232.555 15.0851 231.309 15.0851C229.307 15.0851 227.711 16.8071 227.711 18.9071C227.711 21.0071 229.307 22.7011 231.309 22.7011ZM229.601 18.8931C229.601 17.7591 230.413 16.7931 231.617 16.7931C232.863 16.7931 233.661 17.7731 233.661 18.9071C233.661 20.0411 232.863 20.9931 231.617 20.9931C230.413 20.9931 229.601 19.9991 229.601 18.8931Z" fill="white"/>
</svg>
