<svg width="357" height="37" viewBox="0 0 357 37" fill="none" xmlns="http://www.w3.org/2000/svg">
<path d="M1.75 32H6.65V21.78H16.8V32H21.7V7.5H16.8V17.37H6.65V7.5H1.75V32ZM34.5423 32.455C40.1773 32.455 44.2373 28.185 44.2373 22.935C44.2373 17.685 40.1773 13.38 34.5423 13.38C28.9073 13.38 24.8473 17.685 24.8473 22.935C24.8473 28.185 28.9073 32.455 34.5423 32.455ZM29.5723 22.935C29.5723 20.1 31.5323 17.685 34.5423 17.685C37.5523 17.685 39.5123 20.1 39.5123 22.935C39.5123 25.77 37.5523 28.15 34.5423 28.15C31.5323 28.15 29.5723 25.77 29.5723 22.935ZM47.0285 32H51.7535V22.025C51.7535 18.875 53.5385 17.51 55.5335 17.51C57.8785 17.51 59.4535 18.875 59.4535 22.025V32H64.1785V22.025C64.1785 18.525 65.6835 17.51 67.8885 17.51C70.0235 17.51 71.5285 18.875 71.5285 22.025V32H76.2535V20.87C76.2535 16.285 73.2435 13.38 69.3235 13.38C66.1385 13.38 64.3885 14.605 63.1635 16.81C61.9735 14.605 59.8035 13.38 57.2485 13.38C54.4485 13.38 52.6285 14.43 51.6835 16.46V13.8H47.0285V32ZM88.299 32.455C91.904 32.455 94.949 30.845 96.419 28.57L92.744 25.805C91.904 27.205 90.329 28.255 88.299 28.255C85.919 28.255 84.309 26.75 83.784 24.615H97.399C97.504 24.02 97.539 23.46 97.539 22.935C97.539 17.685 93.759 13.345 88.299 13.345C82.839 13.345 78.884 17.685 78.884 22.935C78.884 28.185 82.664 32.455 88.299 32.455ZM83.784 21.08C84.309 18.91 85.989 17.405 88.229 17.405C90.539 17.405 92.254 19.05 92.779 21.08H83.784ZM100.33 36.865L101.31 36.515C103.9 35.605 105.65 33.54 105.65 30.845C105.65 28.325 104.25 26.785 102.15 26.785C100.61 26.785 99.2797 28.045 99.2797 29.55C99.2797 31.09 100.61 32.35 102.01 32.35C102.29 32.35 102.535 32.315 102.815 32.245C102.5 33.19 101.8 33.68 100.365 34.17L99.3847 34.52L100.33 36.865ZM115.257 32H120.157V21.99H129.467V17.65H120.157V11.91H129.642V7.5H115.257V32ZM139.725 32.42C142.56 32.42 144.205 31.37 145.08 29.27V32H149.665V13.8H144.94V23.775C144.94 26.925 143.155 28.29 141.16 28.29C138.815 28.29 137.52 26.925 137.52 23.775V13.8H132.795V24.93C132.795 29.515 135.805 32.42 139.725 32.42ZM153.152 32H157.877V22.69C157.877 19.645 159.977 17.825 162.707 17.825H163.372V13.38C160.222 13.205 158.367 14.64 157.737 17.265V13.8H153.152V32ZM165.644 32H170.369V22.025C170.369 18.875 172.154 17.51 174.149 17.51C176.494 17.51 178.069 18.875 178.069 22.025V32H182.794V20.87C182.794 16.285 179.784 13.38 175.864 13.38C173.064 13.38 171.244 14.43 170.299 16.46V13.8H165.644V32ZM186.134 32H190.859V13.8H186.134V32ZM185.644 9.495C185.644 11.035 186.869 12.295 188.479 12.295C190.124 12.295 191.314 11.07 191.314 9.495C191.314 7.99 190.124 6.73 188.479 6.73C186.869 6.73 185.644 7.99 185.644 9.495ZM201.249 32H203.839V27.8H201.879C200.969 27.8 200.409 27.275 200.409 26.12V17.825H204.259V13.8H200.409V9.635L195.684 10.125V13.8H193.129V17.825H195.684V26.365C195.684 30.32 197.644 32 201.249 32ZM213.293 32.42C216.128 32.42 217.773 31.37 218.648 29.27V32H223.233V13.8H218.508V23.775C218.508 26.925 216.723 28.29 214.728 28.29C212.383 28.29 211.088 26.925 211.088 23.775V13.8H206.363V24.93C206.363 29.515 209.373 32.42 213.293 32.42ZM226.721 32H231.446V22.69C231.446 19.645 233.546 17.825 236.276 17.825H236.941V13.38C233.791 13.205 231.936 14.64 231.306 17.265V13.8H226.721V32ZM247.039 32.455C250.644 32.455 253.689 30.845 255.159 28.57L251.484 25.805C250.644 27.205 249.069 28.255 247.039 28.255C244.659 28.255 243.049 26.75 242.524 24.615H256.139C256.244 24.02 256.279 23.46 256.279 22.935C256.279 17.685 252.499 13.345 247.039 13.345C241.579 13.345 237.624 17.685 237.624 22.935C237.624 28.185 241.404 32.455 247.039 32.455ZM242.524 21.08C243.049 18.91 244.729 17.405 246.969 17.405C249.279 17.405 250.994 19.05 251.519 21.08H242.524Z" fill="#1C274C"/>
<rect opacity="0.3" x="277" y="10" width="2" height="15" rx="1" fill="#1C274C"/>
<rect x="299" y="2.29907" width="57.495" height="30.402" rx="15.201" fill="#1C274C"/>
<path d="M314 22.5191H317.654C319.782 22.5191 321.126 21.4551 321.126 19.8171C321.126 18.5991 320.594 17.7311 318.998 17.3531C320.202 16.9051 320.58 16.2331 320.58 15.2951C320.58 13.7691 319.432 12.7191 317.304 12.7191H314V22.5191ZM315.96 20.7551V18.3611H317.472C318.536 18.3611 319.138 18.7951 319.138 19.5091C319.138 20.3631 318.536 20.7551 317.472 20.7551H315.96ZM315.96 16.7651V14.4691H317.122C318.186 14.4691 318.592 14.9311 318.592 15.6031C318.592 16.3871 318.186 16.7651 317.122 16.7651H315.96Z" fill="white"/>
<path d="M325.709 22.7011C327.963 22.7011 329.587 20.9931 329.587 18.8931C329.587 16.7931 327.963 15.0711 325.709 15.0711C323.455 15.0711 321.831 16.7931 321.831 18.8931C321.831 20.9931 323.455 22.7011 325.709 22.7011ZM323.721 18.8931C323.721 17.7591 324.505 16.7931 325.709 16.7931C326.913 16.7931 327.697 17.7591 327.697 18.8931C327.697 20.0271 326.913 20.9791 325.709 20.9791C324.505 20.9791 323.721 20.0271 323.721 18.8931Z" fill="white"/>
<path d="M330.703 22.5191H332.593V12.2991H330.703V22.5191Z" fill="white"/>
<path d="M337.309 22.7011C338.611 22.7011 339.269 22.1551 339.661 21.3291V22.5191H341.495V12.2991H339.605V16.3591C339.213 15.5891 338.555 15.0851 337.309 15.0851C335.307 15.0851 333.711 16.8071 333.711 18.9071C333.711 21.0071 335.307 22.7011 337.309 22.7011ZM335.601 18.8931C335.601 17.7591 336.413 16.7931 337.617 16.7931C338.863 16.7931 339.661 17.7731 339.661 18.9071C339.661 20.0411 338.863 20.9931 337.617 20.9931C336.413 20.9931 335.601 19.9991 335.601 18.8931Z" fill="white"/>
</svg>
