<svg width="320" height="37" viewBox="0 0 320 37" fill="none" xmlns="http://www.w3.org/2000/svg">
<path d="M1.75 32H6.65V21.99H15.96V17.65H6.65V11.91H16.135V7.5H1.75V32ZM28.4583 32.455C34.0933 32.455 38.1533 28.185 38.1533 22.935C38.1533 17.685 34.0933 13.38 28.4583 13.38C22.8233 13.38 18.7633 17.685 18.7633 22.935C18.7633 28.185 22.8233 32.455 28.4583 32.455ZM23.4883 22.935C23.4883 20.1 25.4483 17.685 28.4583 17.685C31.4683 17.685 33.4283 20.1 33.4283 22.935C33.4283 25.77 31.4683 28.15 28.4583 28.15C25.4483 28.15 23.4883 25.77 23.4883 22.935ZM49.7686 32.455C55.4036 32.455 59.4636 28.185 59.4636 22.935C59.4636 17.685 55.4036 13.38 49.7686 13.38C44.1336 13.38 40.0736 17.685 40.0736 22.935C40.0736 28.185 44.1336 32.455 49.7686 32.455ZM44.7986 22.935C44.7986 20.1 46.7586 17.685 49.7686 17.685C52.7786 17.685 54.7386 20.1 54.7386 22.935C54.7386 25.77 52.7786 28.15 49.7686 28.15C46.7586 28.15 44.7986 25.77 44.7986 22.935ZM70.379 32.455C73.634 32.455 75.279 31.09 76.259 29.025V32H80.844V6.45H76.119V16.6C75.139 14.675 73.494 13.415 70.379 13.415C65.374 13.415 61.384 17.72 61.384 22.97C61.384 28.22 65.374 32.455 70.379 32.455ZM66.109 22.935C66.109 20.1 68.139 17.685 71.149 17.685C74.264 17.685 76.259 20.135 76.259 22.97C76.259 25.805 74.264 28.185 71.149 28.185C68.139 28.185 66.109 25.7 66.109 22.935ZM85.0514 36.865L86.0314 36.515C88.6214 35.605 90.3714 33.54 90.3714 30.845C90.3714 28.325 88.9714 26.785 86.8714 26.785C85.3314 26.785 84.0014 28.045 84.0014 29.55C84.0014 31.09 85.3314 32.35 86.7314 32.35C87.0114 32.35 87.2564 32.315 87.5364 32.245C87.2214 33.19 86.5214 33.68 85.0864 34.17L84.1064 34.52L85.0514 36.865ZM113.348 32H119.613L109.428 18.98L118.913 7.5H112.508L104.878 17.615V7.5H99.9783V32H104.878V21.185L113.348 32ZM120.904 32H125.629V13.8H120.904V32ZM120.414 9.495C120.414 11.035 121.639 12.295 123.249 12.295C124.894 12.295 126.084 11.07 126.084 9.495C126.084 7.99 124.894 6.73 123.249 6.73C121.639 6.73 120.414 7.99 120.414 9.495ZM136.019 32H138.609V27.8H136.649C135.739 27.8 135.179 27.275 135.179 26.12V17.825H139.029V13.8H135.179V9.635L130.454 10.125V13.8H127.899V17.825H130.454V26.365C130.454 30.32 132.414 32 136.019 32ZM149.51 32.455C153.08 32.455 155.6 31.16 157.315 28.955L153.885 25.98C152.94 27.24 151.75 28.15 149.93 28.15C146.92 28.15 144.855 25.735 144.855 22.9C144.855 20.065 146.815 17.65 149.825 17.65C151.435 17.65 152.835 18.455 153.675 19.715L157.315 16.74C155.775 14.605 153.08 13.31 149.755 13.345C144.19 13.38 140.13 17.615 140.13 22.9C140.13 28.185 144.295 32.455 149.51 32.455ZM159.884 32H164.609V22.025C164.609 18.875 166.394 17.51 168.389 17.51C170.734 17.51 172.309 18.875 172.309 22.025V32H177.034V20.87C177.034 16.285 174.024 13.38 170.104 13.38C167.374 13.38 165.589 14.36 164.609 16.32V6.45H159.884V32ZM189.089 32.455C192.694 32.455 195.739 30.845 197.209 28.57L193.534 25.805C192.694 27.205 191.119 28.255 189.089 28.255C186.709 28.255 185.099 26.75 184.574 24.615H198.189C198.294 24.02 198.329 23.46 198.329 22.935C198.329 17.685 194.549 13.345 189.089 13.345C183.629 13.345 179.674 17.685 179.674 22.935C179.674 28.185 183.454 32.455 189.089 32.455ZM184.574 21.08C185.099 18.91 186.779 17.405 189.019 17.405C191.329 17.405 193.044 19.05 193.569 21.08H184.574ZM201.104 32H205.829V22.025C205.829 18.875 207.614 17.51 209.609 17.51C211.954 17.51 213.529 18.875 213.529 22.025V32H218.254V20.87C218.254 16.285 215.244 13.38 211.324 13.38C208.524 13.38 206.704 14.43 205.759 16.46V13.8H201.104V32Z" fill="#1C274C"/>
<rect opacity="0.3" x="240" y="10" width="2" height="15" rx="1" fill="#1C274C"/>
<rect x="262" y="2.29907" width="57.495" height="30.402" rx="15.201" fill="#1C274C"/>
<path d="M277 22.5191H280.654C282.782 22.5191 284.126 21.4551 284.126 19.8171C284.126 18.5991 283.594 17.7311 281.998 17.3531C283.202 16.9051 283.58 16.2331 283.58 15.2951C283.58 13.7691 282.432 12.7191 280.304 12.7191H277V22.5191ZM278.96 20.7551V18.3611H280.472C281.536 18.3611 282.138 18.7951 282.138 19.5091C282.138 20.3631 281.536 20.7551 280.472 20.7551H278.96ZM278.96 16.7651V14.4691H280.122C281.186 14.4691 281.592 14.9311 281.592 15.6031C281.592 16.3871 281.186 16.7651 280.122 16.7651H278.96Z" fill="white"/>
<path d="M288.709 22.7011C290.963 22.7011 292.587 20.9931 292.587 18.8931C292.587 16.7931 290.963 15.0711 288.709 15.0711C286.455 15.0711 284.831 16.7931 284.831 18.8931C284.831 20.9931 286.455 22.7011 288.709 22.7011ZM286.721 18.8931C286.721 17.7591 287.505 16.7931 288.709 16.7931C289.913 16.7931 290.697 17.7591 290.697 18.8931C290.697 20.0271 289.913 20.9791 288.709 20.9791C287.505 20.9791 286.721 20.0271 286.721 18.8931Z" fill="white"/>
<path d="M293.703 22.5191H295.593V12.2991H293.703V22.5191Z" fill="white"/>
<path d="M300.309 22.7011C301.611 22.7011 302.269 22.1551 302.661 21.3291V22.5191H304.495V12.2991H302.605V16.3591C302.213 15.5891 301.555 15.0851 300.309 15.0851C298.307 15.0851 296.711 16.8071 296.711 18.9071C296.711 21.0071 298.307 22.7011 300.309 22.7011ZM298.601 18.8931C298.601 17.7591 299.413 16.7931 300.617 16.7931C301.863 16.7931 302.661 17.7731 302.661 18.9071C302.661 20.0411 301.863 20.9931 300.617 20.9931C299.413 20.9931 298.601 19.9991 298.601 18.8931Z" fill="white"/>
</svg>
