<svg width="213" height="40" viewBox="0 0 213 40" fill="none" xmlns="http://www.w3.org/2000/svg">
<path d="M1.75 32H6.545V22.095C6.545 18.77 6.44 17.125 6.195 14.99L14.35 32H16.73L24.885 14.99C24.64 17.125 24.535 18.77 24.535 22.095V32H29.33V7.5H23.45L18.34 18.315C16.555 22.095 15.96 23.67 15.645 24.86C15.295 23.67 14.7 22.095 12.915 18.315L7.84 7.5H1.75V32ZM42.1643 32.455C47.7993 32.455 51.8593 28.185 51.8593 22.935C51.8593 17.685 47.7993 13.38 42.1643 13.38C36.5293 13.38 32.4693 17.685 32.4693 22.935C32.4693 28.185 36.5293 32.455 42.1643 32.455ZM37.1943 22.935C37.1943 20.1 39.1543 17.685 42.1643 17.685C45.1743 17.685 47.1343 20.1 47.1343 22.935C47.1343 25.77 45.1743 28.15 42.1643 28.15C39.1543 28.15 37.1943 25.77 37.1943 22.935ZM54.6506 32H59.3756V22.025C59.3756 18.875 61.1606 17.51 63.1556 17.51C65.5006 17.51 67.0756 18.875 67.0756 22.025V32H71.8006V20.87C71.8006 16.285 68.7906 13.38 64.8706 13.38C62.0706 13.38 60.2506 14.43 59.3056 16.46V13.8H54.6506V32ZM83.8556 32.455C87.4606 32.455 90.5056 30.845 91.9756 28.57L88.3006 25.805C87.4606 27.205 85.8856 28.255 83.8556 28.255C81.4756 28.255 79.8656 26.75 79.3406 24.615H92.9556C93.0606 24.02 93.0956 23.46 93.0956 22.935C93.0956 17.685 89.3156 13.345 83.8556 13.345C78.3956 13.345 74.4406 17.685 74.4406 22.935C74.4406 28.185 78.2206 32.455 83.8556 32.455ZM79.3406 21.08C79.8656 18.91 81.5456 17.405 83.7856 17.405C86.0956 17.405 87.8106 19.05 88.3356 21.08H79.3406ZM96.6312 39.315C100.901 39.315 103.176 36.83 104.716 33.155L112.766 13.8H107.166L103.631 24.195C103.316 25.07 103.036 26.155 102.861 27.1C102.686 26.155 102.406 25.07 102.091 24.195L98.5562 13.8H92.8512L100.061 31.16L99.8162 31.93C99.2912 33.54 98.1362 34.695 96.3162 34.695C95.5462 34.695 94.8812 34.625 94.1812 34.45L93.4812 38.965C94.4262 39.245 95.6862 39.315 96.6312 39.315Z" fill="#1C274C"/>
<rect opacity="0.3" x="133" y="10" width="2" height="15" rx="1" fill="#1C274C"/>
<rect x="155" y="2.29883" width="57.495" height="30.402" rx="15.201" fill="#1C274C"/>
<path d="M170 22.5188H173.654C175.782 22.5188 177.126 21.4548 177.126 19.8168C177.126 18.5988 176.594 17.7308 174.998 17.3528C176.202 16.9048 176.58 16.2328 176.58 15.2948C176.58 13.7688 175.432 12.7188 173.304 12.7188H170V22.5188ZM171.96 20.7548V18.3608H173.472C174.536 18.3608 175.138 18.7948 175.138 19.5088C175.138 20.3628 174.536 20.7548 173.472 20.7548H171.96ZM171.96 16.7648V14.4688H173.122C174.186 14.4688 174.592 14.9308 174.592 15.6028C174.592 16.3868 174.186 16.7648 173.122 16.7648H171.96Z" fill="white"/>
<path d="M181.709 22.7008C183.963 22.7008 185.587 20.9928 185.587 18.8928C185.587 16.7928 183.963 15.0708 181.709 15.0708C179.455 15.0708 177.831 16.7928 177.831 18.8928C177.831 20.9928 179.455 22.7008 181.709 22.7008ZM179.721 18.8928C179.721 17.7588 180.505 16.7928 181.709 16.7928C182.913 16.7928 183.697 17.7588 183.697 18.8928C183.697 20.0268 182.913 20.9788 181.709 20.9788C180.505 20.9788 179.721 20.0268 179.721 18.8928Z" fill="white"/>
<path d="M186.703 22.5188H188.593V12.2988H186.703V22.5188Z" fill="white"/>
<path d="M193.309 22.7008C194.611 22.7008 195.269 22.1548 195.661 21.3288V22.5188H197.495V12.2988H195.605V16.3588C195.213 15.5888 194.555 15.0848 193.309 15.0848C191.307 15.0848 189.711 16.8068 189.711 18.9068C189.711 21.0068 191.307 22.7008 193.309 22.7008ZM191.601 18.8928C191.601 17.7588 192.413 16.7928 193.617 16.7928C194.863 16.7928 195.661 17.7728 195.661 18.9068C195.661 20.0408 194.863 20.9928 193.617 20.9928C192.413 20.9928 191.601 19.9988 191.601 18.8928Z" fill="white"/>
</svg>
