<svg width="489" height="40" viewBox="0 0 489 40" fill="none" xmlns="http://www.w3.org/2000/svg">
<path d="M1.75 32H6.545V22.095C6.545 18.77 6.44 17.125 6.195 14.99L14.35 32H16.73L24.885 14.99C24.64 17.125 24.535 18.77 24.535 22.095V32H29.33V7.5H23.45L18.34 18.315C16.555 22.095 15.96 23.67 15.645 24.86C15.295 23.67 14.7 22.095 12.915 18.315L7.84 7.5H1.75V32ZM41.8843 32.455C45.4893 32.455 48.5343 30.845 50.0043 28.57L46.3293 25.805C45.4893 27.205 43.9143 28.255 41.8843 28.255C39.5043 28.255 37.8943 26.75 37.3693 24.615H50.9843C51.0893 24.02 51.1243 23.46 51.1243 22.935C51.1243 17.685 47.3443 13.345 41.8843 13.345C36.4243 13.345 32.4693 17.685 32.4693 22.935C32.4693 28.185 36.2493 32.455 41.8843 32.455ZM37.3693 21.08C37.8943 18.91 39.5743 17.405 41.8143 17.405C44.1243 17.405 45.8393 19.05 46.3643 21.08H37.3693ZM59.6159 32.455C63.6409 32.455 66.6859 29.935 66.6859 26.575C66.6859 23.845 65.4609 21.885 60.1759 20.52C58.0059 19.96 57.7259 19.4 57.7259 18.77C57.7259 17.65 58.7059 17.16 60.0009 17.16C61.2259 17.16 62.3459 17.72 63.2209 19.12L66.6509 16.495C64.7959 14.08 62.8359 13.345 59.8959 13.345C55.6259 13.345 53.1059 15.725 53.1059 18.91C53.1059 21.22 53.8409 23.425 58.7059 24.58C61.5759 25.245 62.0309 25.77 62.0309 26.715C62.0309 27.8 61.1209 28.605 59.5109 28.605C57.9709 28.605 56.5709 27.87 55.2409 26.365L52.0559 29.27C54.0509 31.405 56.5359 32.455 59.6159 32.455ZM75.4575 32.455C79.4825 32.455 82.5275 29.935 82.5275 26.575C82.5275 23.845 81.3025 21.885 76.0175 20.52C73.8475 19.96 73.5675 19.4 73.5675 18.77C73.5675 17.65 74.5475 17.16 75.8425 17.16C77.0675 17.16 78.1875 17.72 79.0625 19.12L82.4925 16.495C80.6375 14.08 78.6775 13.345 75.7375 13.345C71.4675 13.345 68.9475 15.725 68.9475 18.91C68.9475 21.22 69.6825 23.425 74.5475 24.58C77.4175 25.245 77.8725 25.77 77.8725 26.715C77.8725 27.8 76.9625 28.605 75.3525 28.605C73.8125 28.605 72.4125 27.87 71.0825 26.365L67.8975 29.27C69.8925 31.405 72.3775 32.455 75.4575 32.455ZM93.3641 32.455C96.6191 32.455 98.2641 31.09 99.2441 29.025V32H103.829V13.8H99.1391V16.67C98.1591 14.71 96.5141 13.415 93.3641 13.415C88.3591 13.415 84.3691 17.72 84.3691 22.97C84.3691 28.22 88.3591 32.455 93.3641 32.455ZM89.0941 22.935C89.0941 20.1 91.1241 17.685 94.1341 17.685C97.2491 17.685 99.2441 20.135 99.2441 22.97C99.2441 25.805 97.2491 28.185 94.1341 28.185C91.1241 28.185 89.0941 25.7 89.0941 22.935ZM116.192 39.455C121.757 39.455 125.677 35.99 125.677 30.39V13.8H121.022V16.285C120.077 14.5 118.467 13.345 115.457 13.345C110.452 13.345 106.637 17.475 106.637 22.725C106.637 27.975 110.452 32.105 115.457 32.105C118.397 32.105 119.972 30.985 120.952 29.305V30.11C120.952 33.015 118.747 35.08 116.227 35.08C113.952 35.08 112.132 34.52 110.417 32.56L107.477 36.025C109.647 38.58 112.517 39.455 116.192 39.455ZM111.362 22.725C111.362 19.89 113.147 17.65 116.227 17.65C119.342 17.65 121.162 19.89 121.162 22.725C121.162 25.56 119.342 27.8 116.227 27.8C113.147 27.8 111.362 25.49 111.362 22.725ZM137.875 32.455C141.48 32.455 144.525 30.845 145.995 28.57L142.32 25.805C141.48 27.205 139.905 28.255 137.875 28.255C135.495 28.255 133.885 26.75 133.36 24.615H146.975C147.08 24.02 147.115 23.46 147.115 22.935C147.115 17.685 143.335 13.345 137.875 13.345C132.415 13.345 128.46 17.685 128.46 22.935C128.46 28.185 132.24 32.455 137.875 32.455ZM133.36 21.08C133.885 18.91 135.565 17.405 137.805 17.405C140.115 17.405 141.83 19.05 142.355 21.08H133.36ZM155.606 32.455C159.631 32.455 162.676 29.935 162.676 26.575C162.676 23.845 161.451 21.885 156.166 20.52C153.996 19.96 153.716 19.4 153.716 18.77C153.716 17.65 154.696 17.16 155.991 17.16C157.216 17.16 158.336 17.72 159.211 19.12L162.641 16.495C160.786 14.08 158.826 13.345 155.886 13.345C151.616 13.345 149.096 15.725 149.096 18.91C149.096 21.22 149.831 23.425 154.696 24.58C157.566 25.245 158.021 25.77 158.021 26.715C158.021 27.8 157.111 28.605 155.501 28.605C153.961 28.605 152.561 27.87 151.231 26.365L148.046 29.27C150.041 31.405 152.526 32.455 155.606 32.455ZM165.508 36.865L166.488 36.515C169.078 35.605 170.828 33.54 170.828 30.845C170.828 28.325 169.428 26.785 167.328 26.785C165.788 26.785 164.458 28.045 164.458 29.55C164.458 31.09 165.788 32.35 167.188 32.35C167.468 32.35 167.713 32.315 167.993 32.245C167.678 33.19 166.978 33.68 165.543 34.17L164.563 34.52L165.508 36.865ZM188.457 32.455C192.027 32.455 194.547 31.16 196.262 28.955L192.832 25.98C191.887 27.24 190.697 28.15 188.877 28.15C185.867 28.15 183.802 25.735 183.802 22.9C183.802 20.065 185.762 17.65 188.772 17.65C190.382 17.65 191.782 18.455 192.622 19.715L196.262 16.74C194.722 14.605 192.027 13.31 188.702 13.345C183.137 13.38 179.077 17.615 179.077 22.9C179.077 28.185 183.242 32.455 188.457 32.455ZM206.664 32.455C212.299 32.455 216.359 28.185 216.359 22.935C216.359 17.685 212.299 13.38 206.664 13.38C201.029 13.38 196.969 17.685 196.969 22.935C196.969 28.185 201.029 32.455 206.664 32.455ZM201.694 22.935C201.694 20.1 203.654 17.685 206.664 17.685C209.674 17.685 211.634 20.1 211.634 22.935C211.634 25.77 209.674 28.15 206.664 28.15C203.654 28.15 201.694 25.77 201.694 22.935ZM219.151 32H223.876V22.025C223.876 18.875 225.661 17.51 227.656 17.51C230.001 17.51 231.576 18.875 231.576 22.025V32H236.301V20.87C236.301 16.285 233.291 13.38 229.371 13.38C226.571 13.38 224.751 14.43 223.806 16.46V13.8H219.151V32ZM244.251 32H249.011L256.571 13.8H251.076L247.436 24.195C247.121 25.07 246.841 26.155 246.666 27.1C246.491 26.155 246.211 25.07 245.896 24.195L242.256 13.8H236.656L244.251 32ZM265.701 32.455C269.306 32.455 272.351 30.845 273.821 28.57L270.146 25.805C269.306 27.205 267.731 28.255 265.701 28.255C263.321 28.255 261.711 26.75 261.186 24.615H274.801C274.906 24.02 274.941 23.46 274.941 22.935C274.941 17.685 271.161 13.345 265.701 13.345C260.241 13.345 256.286 17.685 256.286 22.935C256.286 28.185 260.066 32.455 265.701 32.455ZM261.186 21.08C261.711 18.91 263.391 17.405 265.631 17.405C267.941 17.405 269.656 19.05 270.181 21.08H261.186ZM277.715 32H282.44V22.69C282.44 19.645 284.54 17.825 287.27 17.825H287.935V13.38C284.785 13.205 282.93 14.64 282.3 17.265V13.8H277.715V32ZM295.993 32.455C300.018 32.455 303.063 29.935 303.063 26.575C303.063 23.845 301.838 21.885 296.553 20.52C294.383 19.96 294.103 19.4 294.103 18.77C294.103 17.65 295.083 17.16 296.378 17.16C297.603 17.16 298.723 17.72 299.598 19.12L303.028 16.495C301.173 14.08 299.213 13.345 296.273 13.345C292.003 13.345 289.483 15.725 289.483 18.91C289.483 21.22 290.218 23.425 295.083 24.58C297.953 25.245 298.408 25.77 298.408 26.715C298.408 27.8 297.498 28.605 295.888 28.605C294.348 28.605 292.948 27.87 291.618 26.365L288.433 29.27C290.428 31.405 292.913 32.455 295.993 32.455ZM313.9 32.455C317.155 32.455 318.8 31.09 319.78 29.025V32H324.365V13.8H319.675V16.67C318.695 14.71 317.05 13.415 313.9 13.415C308.895 13.415 304.905 17.72 304.905 22.97C304.905 28.22 308.895 32.455 313.9 32.455ZM309.63 22.935C309.63 20.1 311.66 17.685 314.67 17.685C317.785 17.685 319.78 20.135 319.78 22.97C319.78 25.805 317.785 28.185 314.67 28.185C311.66 28.185 309.63 25.7 309.63 22.935ZM334.767 32H337.357V27.8H335.397C334.487 27.8 333.927 27.275 333.927 26.12V17.825H337.777V13.8H333.927V9.635L329.202 10.125V13.8H326.647V17.825H329.202V26.365C329.202 30.32 331.162 32 334.767 32ZM340.056 32H344.781V13.8H340.056V32ZM339.566 9.495C339.566 11.035 340.791 12.295 342.401 12.295C344.046 12.295 345.236 11.07 345.236 9.495C345.236 7.99 344.046 6.73 342.401 6.73C340.791 6.73 339.566 7.99 339.566 9.495ZM357.271 32.455C362.906 32.455 366.966 28.185 366.966 22.935C366.966 17.685 362.906 13.38 357.271 13.38C351.636 13.38 347.576 17.685 347.576 22.935C347.576 28.185 351.636 32.455 357.271 32.455ZM352.301 22.935C352.301 20.1 354.261 17.685 357.271 17.685C360.281 17.685 362.241 20.1 362.241 22.935C362.241 25.77 360.281 28.15 357.271 28.15C354.261 28.15 352.301 25.77 352.301 22.935ZM369.757 32H374.482V22.025C374.482 18.875 376.267 17.51 378.262 17.51C380.607 17.51 382.182 18.875 382.182 22.025V32H386.907V20.87C386.907 16.285 383.897 13.38 379.977 13.38C377.177 13.38 375.357 14.43 374.412 16.46V13.8H369.757V32Z" fill="#1C274C"/>
<rect opacity="0.3" x="409" y="10" width="2" height="15" rx="1" fill="#1C274C"/>
<rect x="431" y="2.29883" width="57.495" height="30.402" rx="15.201" fill="#1C274C"/>
<path d="M446 22.5188H449.654C451.782 22.5188 453.126 21.4548 453.126 19.8168C453.126 18.5988 452.594 17.7308 450.998 17.3528C452.202 16.9048 452.58 16.2328 452.58 15.2948C452.58 13.7688 451.432 12.7188 449.304 12.7188H446V22.5188ZM447.96 20.7548V18.3608H449.472C450.536 18.3608 451.138 18.7948 451.138 19.5088C451.138 20.3628 450.536 20.7548 449.472 20.7548H447.96ZM447.96 16.7648V14.4688H449.122C450.186 14.4688 450.592 14.9308 450.592 15.6028C450.592 16.3868 450.186 16.7648 449.122 16.7648H447.96Z" fill="white"/>
<path d="M457.709 22.7008C459.963 22.7008 461.587 20.9928 461.587 18.8928C461.587 16.7928 459.963 15.0708 457.709 15.0708C455.455 15.0708 453.831 16.7928 453.831 18.8928C453.831 20.9928 455.455 22.7008 457.709 22.7008ZM455.721 18.8928C455.721 17.7588 456.505 16.7928 457.709 16.7928C458.913 16.7928 459.697 17.7588 459.697 18.8928C459.697 20.0268 458.913 20.9788 457.709 20.9788C456.505 20.9788 455.721 20.0268 455.721 18.8928Z" fill="white"/>
<path d="M462.703 22.5188H464.593V12.2988H462.703V22.5188Z" fill="white"/>
<path d="M469.309 22.7008C470.611 22.7008 471.269 22.1548 471.661 21.3288V22.5188H473.495V12.2988H471.605V16.3588C471.213 15.5888 470.555 15.0848 469.309 15.0848C467.307 15.0848 465.711 16.8068 465.711 18.9068C465.711 21.0068 467.307 22.7008 469.309 22.7008ZM467.601 18.8928C467.601 17.7588 468.413 16.7928 469.617 16.7928C470.863 16.7928 471.661 17.7728 471.661 18.9068C471.661 20.0408 470.863 20.9928 469.617 20.9928C468.413 20.9928 467.601 19.9988 467.601 18.8928Z" fill="white"/>
</svg>
