<svg width="488" height="39" viewBox="0 0 488 39" fill="none" xmlns="http://www.w3.org/2000/svg">
<path d="M7.525 32H12.425V11.91H19.425V7.5H0.525V11.91H7.525V32ZM18.9164 32H23.6414V22.69C23.6414 19.645 25.7414 17.825 28.4714 17.825H29.1364V13.38C25.9864 13.205 24.1314 14.64 23.5014 17.265V13.8H18.9164V32ZM38.8147 32.455C42.0697 32.455 43.7147 31.09 44.6947 29.025V32H49.2797V13.8H44.5897V16.67C43.6097 14.71 41.9647 13.415 38.8147 13.415C33.8097 13.415 29.8197 17.72 29.8197 22.97C29.8197 28.22 33.8097 32.455 38.8147 32.455ZM34.5447 22.935C34.5447 20.1 36.5747 17.685 39.5847 17.685C42.6997 17.685 44.6947 20.135 44.6947 22.97C44.6947 25.805 42.6997 28.185 39.5847 28.185C36.5747 28.185 34.5447 25.7 34.5447 22.935ZM52.7871 32H57.5121V22.025C57.5121 18.875 59.2971 17.51 61.2921 17.51C63.6371 17.51 65.2121 18.875 65.2121 22.025V32H69.9371V20.87C69.9371 16.285 66.9271 13.38 63.0071 13.38C60.2071 13.38 58.3871 14.43 57.4421 16.46V13.8H52.7871V32ZM79.5072 32.455C83.5322 32.455 86.5772 29.935 86.5772 26.575C86.5772 23.845 85.3522 21.885 80.0672 20.52C77.8972 19.96 77.6172 19.4 77.6172 18.77C77.6172 17.65 78.5972 17.16 79.8922 17.16C81.1172 17.16 82.2372 17.72 83.1122 19.12L86.5422 16.495C84.6872 14.08 82.7272 13.345 79.7872 13.345C75.5172 13.345 72.9972 15.725 72.9972 18.91C72.9972 21.22 73.7322 23.425 78.5972 24.58C81.4672 25.245 81.9222 25.77 81.9222 26.715C81.9222 27.8 81.0122 28.605 79.4022 28.605C77.8622 28.605 76.4622 27.87 75.1322 26.365L71.9472 29.27C73.9422 31.405 76.4272 32.455 79.5072 32.455ZM89.1188 39H93.8438V29.305C94.8238 31.195 96.4688 32.455 99.5838 32.455C104.589 32.455 108.579 28.22 108.579 22.97C108.579 17.72 104.589 13.415 99.5838 13.415C96.3988 13.415 94.7538 14.745 93.7738 16.74V13.8H89.1188V39ZM93.7038 22.97C93.7038 20.135 95.6988 17.685 98.8138 17.685C101.824 17.685 103.854 20.1 103.854 22.935C103.854 25.7 101.824 28.185 98.8138 28.185C95.6988 28.185 93.7038 25.805 93.7038 22.97ZM120.21 32.455C125.845 32.455 129.905 28.185 129.905 22.935C129.905 17.685 125.845 13.38 120.21 13.38C114.575 13.38 110.515 17.685 110.515 22.935C110.515 28.185 114.575 32.455 120.21 32.455ZM115.24 22.935C115.24 20.1 117.2 17.685 120.21 17.685C123.22 17.685 125.18 20.1 125.18 22.935C125.18 25.77 123.22 28.15 120.21 28.15C117.2 28.15 115.24 25.77 115.24 22.935ZM132.696 32H137.421V22.69C137.421 19.645 139.521 17.825 142.251 17.825H142.916V13.38C139.766 13.205 137.911 14.64 137.281 17.265V13.8H132.696V32ZM152.494 32H155.084V27.8H153.124C152.214 27.8 151.654 27.275 151.654 26.12V17.825H155.504V13.8H151.654V9.635L146.929 10.125V13.8H144.374V17.825H146.929V26.365C146.929 30.32 148.889 32 152.494 32ZM158.483 36.865L159.463 36.515C162.053 35.605 163.803 33.54 163.803 30.845C163.803 28.325 162.403 26.785 160.303 26.785C158.763 26.785 157.433 28.045 157.433 29.55C157.433 31.09 158.763 32.35 160.163 32.35C160.443 32.35 160.688 32.315 160.968 32.245C160.653 33.19 159.953 33.68 158.518 34.17L157.538 34.52L158.483 36.865ZM173.41 32H178.31V23.11H181.67C187.165 23.11 190.525 20.415 190.525 15.235C190.525 10.09 187.165 7.5 181.67 7.5H173.41V32ZM178.31 18.7V11.875H181.39C184.05 11.875 185.555 12.96 185.555 15.27C185.555 17.615 184.05 18.7 181.39 18.7H178.31ZM200.444 32.455C203.699 32.455 205.344 31.09 206.324 29.025V32H210.909V13.8H206.219V16.67C205.239 14.71 203.594 13.415 200.444 13.415C195.439 13.415 191.449 17.72 191.449 22.97C191.449 28.22 195.439 32.455 200.444 32.455ZM196.174 22.935C196.174 20.1 198.204 17.685 201.214 17.685C204.329 17.685 206.324 20.135 206.324 22.97C206.324 25.805 204.329 28.185 201.214 28.185C198.204 28.185 196.174 25.7 196.174 22.935ZM214.416 32H219.141V22.69C219.141 19.645 221.241 17.825 223.971 17.825H224.636V13.38C221.486 13.205 219.631 14.64 219.001 17.265V13.8H214.416V32ZM234.213 32H236.803V27.8H234.843C233.933 27.8 233.373 27.275 233.373 26.12V17.825H237.223V13.8H233.373V9.635L228.648 10.125V13.8H226.093V17.825H228.648V26.365C228.648 30.32 230.608 32 234.213 32ZM245.562 32.455C249.587 32.455 252.632 29.935 252.632 26.575C252.632 23.845 251.407 21.885 246.122 20.52C243.952 19.96 243.672 19.4 243.672 18.77C243.672 17.65 244.652 17.16 245.947 17.16C247.172 17.16 248.292 17.72 249.167 19.12L252.597 16.495C250.742 14.08 248.782 13.345 245.842 13.345C241.572 13.345 239.052 15.725 239.052 18.91C239.052 21.22 239.787 23.425 244.652 24.58C247.522 25.245 247.977 25.77 247.977 26.715C247.977 27.8 247.067 28.605 245.457 28.605C243.917 28.605 242.517 27.87 241.187 26.365L238.002 29.27C239.997 31.405 242.482 32.455 245.562 32.455ZM255.463 36.865L256.443 36.515C259.033 35.605 260.783 33.54 260.783 30.845C260.783 28.325 259.383 26.785 257.283 26.785C255.743 26.785 254.413 28.045 254.413 29.55C254.413 31.09 255.743 32.35 257.143 32.35C257.423 32.35 257.668 32.315 257.948 32.245C257.633 33.19 256.933 33.68 255.498 34.17L254.518 34.52L255.463 36.865ZM277.96 32.455C283.525 32.455 286.92 29.445 286.92 25C286.92 19.4 281.88 18.14 279.01 17.23C276.875 16.565 275.125 15.97 275.125 14.15C275.125 12.505 276.56 11.455 278.52 11.455C280.34 11.455 281.46 12.33 282.65 14.22L286.85 11.63C285.03 8.76 282.58 7.08 278.765 7.08C273.585 7.08 270.12 9.985 270.12 14.395C270.12 18.105 272.535 20.31 276.315 21.29C279.325 22.06 281.915 22.83 281.915 25.28C281.915 26.96 280.515 28.08 278.24 28.08C276.105 28.08 274.075 26.995 272.815 24.475L268.58 27.17C270.715 30.915 274.075 32.455 277.96 32.455ZM298.322 32.455C301.927 32.455 304.972 30.845 306.442 28.57L302.767 25.805C301.927 27.205 300.352 28.255 298.322 28.255C295.942 28.255 294.332 26.75 293.807 24.615H307.422C307.527 24.02 307.562 23.46 307.562 22.935C307.562 17.685 303.782 13.345 298.322 13.345C292.862 13.345 288.907 17.685 288.907 22.935C288.907 28.185 292.687 32.455 298.322 32.455ZM293.807 21.08C294.332 18.91 296.012 17.405 298.252 17.405C300.562 17.405 302.277 19.05 302.802 21.08H293.807ZM310.337 32H315.062V22.69C315.062 19.645 317.162 17.825 319.892 17.825H320.557V13.38C317.407 13.205 315.552 14.64 314.922 17.265V13.8H310.337V32ZM328.909 32H333.669L341.229 13.8H335.734L332.094 24.195C331.779 25.07 331.499 26.155 331.324 27.1C331.149 26.155 330.869 25.07 330.554 24.195L326.914 13.8H321.314L328.909 32ZM342.806 32H347.531V13.8H342.806V32ZM342.316 9.495C342.316 11.035 343.541 12.295 345.151 12.295C346.796 12.295 347.986 11.07 347.986 9.495C347.986 7.99 346.796 6.73 345.151 6.73C343.541 6.73 342.316 7.99 342.316 9.495ZM359.705 32.455C363.275 32.455 365.795 31.16 367.51 28.955L364.08 25.98C363.135 27.24 361.945 28.15 360.125 28.15C357.115 28.15 355.05 25.735 355.05 22.9C355.05 20.065 357.01 17.65 360.02 17.65C361.63 17.65 363.03 18.455 363.87 19.715L367.51 16.74C365.97 14.605 363.275 13.31 359.95 13.345C354.385 13.38 350.325 17.615 350.325 22.9C350.325 28.185 354.49 32.455 359.705 32.455ZM377.633 32.455C381.238 32.455 384.283 30.845 385.753 28.57L382.078 25.805C381.238 27.205 379.663 28.255 377.633 28.255C375.253 28.255 373.643 26.75 373.118 24.615H386.733C386.838 24.02 386.873 23.46 386.873 22.935C386.873 17.685 383.093 13.345 377.633 13.345C372.173 13.345 368.218 17.685 368.218 22.935C368.218 28.185 371.998 32.455 377.633 32.455ZM373.118 21.08C373.643 18.91 375.323 17.405 377.563 17.405C379.873 17.405 381.588 19.05 382.113 21.08H373.118Z" fill="#1C274C"/>
<rect opacity="0.3" x="408" y="10" width="2" height="15" rx="1" fill="#1C274C"/>
<rect x="430" y="2.29883" width="57.495" height="30.402" rx="15.201" fill="#1C274C"/>
<path d="M445 22.5188H448.654C450.782 22.5188 452.126 21.4548 452.126 19.8168C452.126 18.5988 451.594 17.7308 449.998 17.3528C451.202 16.9048 451.58 16.2328 451.58 15.2948C451.58 13.7688 450.432 12.7188 448.304 12.7188H445V22.5188ZM446.96 20.7548V18.3608H448.472C449.536 18.3608 450.138 18.7948 450.138 19.5088C450.138 20.3628 449.536 20.7548 448.472 20.7548H446.96ZM446.96 16.7648V14.4688H448.122C449.186 14.4688 449.592 14.9308 449.592 15.6028C449.592 16.3868 449.186 16.7648 448.122 16.7648H446.96Z" fill="white"/>
<path d="M456.709 22.7008C458.963 22.7008 460.587 20.9928 460.587 18.8928C460.587 16.7928 458.963 15.0708 456.709 15.0708C454.455 15.0708 452.831 16.7928 452.831 18.8928C452.831 20.9928 454.455 22.7008 456.709 22.7008ZM454.721 18.8928C454.721 17.7588 455.505 16.7928 456.709 16.7928C457.913 16.7928 458.697 17.7588 458.697 18.8928C458.697 20.0268 457.913 20.9788 456.709 20.9788C455.505 20.9788 454.721 20.0268 454.721 18.8928Z" fill="white"/>
<path d="M461.703 22.5188H463.593V12.2988H461.703V22.5188Z" fill="white"/>
<path d="M468.309 22.7008C469.611 22.7008 470.269 22.1548 470.661 21.3288V22.5188H472.495V12.2988H470.605V16.3588C470.213 15.5888 469.555 15.0848 468.309 15.0848C466.307 15.0848 464.711 16.8068 464.711 18.9068C464.711 21.0068 466.307 22.7008 468.309 22.7008ZM466.601 18.8928C466.601 17.7588 467.413 16.7928 468.617 16.7928C469.863 16.7928 470.661 17.7728 470.661 18.9068C470.661 20.0408 469.863 20.9928 468.617 20.9928C467.413 20.9928 466.601 19.9988 466.601 18.8928Z" fill="white"/>
</svg>
