<svg width="395" height="37" viewBox="0 0 395 37" fill="none" xmlns="http://www.w3.org/2000/svg">
<path d="M1.75 32H6.3V19.225C6.3 17.79 6.265 16.285 6.125 15.235C6.615 15.97 7.175 16.635 7.735 17.265L20.125 32H23.31V7.5H18.83V19.715C18.83 21.15 18.865 22.655 19.005 23.705C18.515 22.97 17.955 22.305 17.395 21.675L5.46 7.5H1.75V32ZM36.1487 32.455C41.7837 32.455 45.8437 28.185 45.8437 22.935C45.8437 17.685 41.7837 13.38 36.1487 13.38C30.5137 13.38 26.4537 17.685 26.4537 22.935C26.4537 28.185 30.5137 32.455 36.1487 32.455ZM31.1787 22.935C31.1787 20.1 33.1387 17.685 36.1487 17.685C39.1587 17.685 41.1187 20.1 41.1187 22.935C41.1187 25.77 39.1587 28.15 36.1487 28.15C33.1387 28.15 31.1787 25.77 31.1787 22.935ZM54.5388 32H57.1288V27.8H55.1688C54.2588 27.8 53.6988 27.275 53.6988 26.12V17.825H57.5488V13.8H53.6988V9.635L48.9738 10.125V13.8H46.4188V17.825H48.9738V26.365C48.9738 30.32 50.9338 32 54.5388 32ZM68.0646 32.455C71.6696 32.455 74.7146 30.845 76.1846 28.57L72.5096 25.805C71.6696 27.205 70.0946 28.255 68.0646 28.255C65.6846 28.255 64.0746 26.75 63.5496 24.615H77.1646C77.2696 24.02 77.3046 23.46 77.3046 22.935C77.3046 17.685 73.5246 13.345 68.0646 13.345C62.6046 13.345 58.6496 17.685 58.6496 22.935C58.6496 28.185 62.4296 32.455 68.0646 32.455ZM63.5496 21.08C64.0746 18.91 65.7546 17.405 67.9946 17.405C70.3046 17.405 72.0196 19.05 72.5446 21.08H63.5496ZM85.7962 32.455C89.8212 32.455 92.8662 29.935 92.8662 26.575C92.8662 23.845 91.6412 21.885 86.3562 20.52C84.1862 19.96 83.9062 19.4 83.9062 18.77C83.9062 17.65 84.8862 17.16 86.1812 17.16C87.4062 17.16 88.5262 17.72 89.4012 19.12L92.8312 16.495C90.9762 14.08 89.0162 13.345 86.0762 13.345C81.8062 13.345 79.2862 15.725 79.2862 18.91C79.2862 21.22 80.0212 23.425 84.8862 24.58C87.7562 25.245 88.2112 25.77 88.2112 26.715C88.2112 27.8 87.3012 28.605 85.6912 28.605C84.1512 28.605 82.7512 27.87 81.4212 26.365L78.2362 29.27C80.2312 31.405 82.7162 32.455 85.7962 32.455ZM95.6977 36.865L96.6777 36.515C99.2677 35.605 101.018 33.54 101.018 30.845C101.018 28.325 99.6177 26.785 97.5177 26.785C95.9777 26.785 94.6477 28.045 94.6477 29.55C94.6477 31.09 95.9777 32.35 97.3777 32.35C97.6577 32.35 97.9027 32.315 98.1827 32.245C97.8677 33.19 97.1677 33.68 95.7327 34.17L94.7527 34.52L95.6977 36.865ZM110.625 32H119.375C127.845 32 131.94 26.785 131.94 19.785C131.94 12.75 127.845 7.5 119.375 7.5H110.625V32ZM115.525 27.59V11.91H118.78C124.59 11.91 126.865 15.34 126.865 19.785C126.865 24.23 124.59 27.59 118.78 27.59H115.525ZM143.554 32.455C149.189 32.455 153.249 28.185 153.249 22.935C153.249 17.685 149.189 13.38 143.554 13.38C137.919 13.38 133.859 17.685 133.859 22.935C133.859 28.185 137.919 32.455 143.554 32.455ZM138.584 22.935C138.584 20.1 140.544 17.685 143.554 17.685C146.564 17.685 148.524 20.1 148.524 22.935C148.524 25.77 146.564 28.15 143.554 28.15C140.544 28.15 138.584 25.77 138.584 22.935ZM164.549 32.455C168.119 32.455 170.639 31.16 172.354 28.955L168.924 25.98C167.979 27.24 166.789 28.15 164.969 28.15C161.959 28.15 159.894 25.735 159.894 22.9C159.894 20.065 161.854 17.65 164.864 17.65C166.474 17.65 167.874 18.455 168.714 19.715L172.354 16.74C170.814 14.605 168.119 13.31 164.794 13.345C159.229 13.38 155.169 17.615 155.169 22.9C155.169 28.185 159.334 32.455 164.549 32.455ZM181.473 32.42C184.308 32.42 185.953 31.37 186.828 29.27V32H191.413V13.8H186.688V23.775C186.688 26.925 184.903 28.29 182.908 28.29C180.563 28.29 179.268 26.925 179.268 23.775V13.8H174.543V24.93C174.543 29.515 177.553 32.42 181.473 32.42ZM194.901 32H199.626V22.025C199.626 18.875 201.411 17.51 203.406 17.51C205.751 17.51 207.326 18.875 207.326 22.025V32H212.051V22.025C212.051 18.525 213.556 17.51 215.761 17.51C217.896 17.51 219.401 18.875 219.401 22.025V32H224.126V20.87C224.126 16.285 221.116 13.38 217.196 13.38C214.011 13.38 212.261 14.605 211.036 16.81C209.846 14.605 207.676 13.38 205.121 13.38C202.321 13.38 200.501 14.43 199.556 16.46V13.8H194.901V32ZM236.171 32.455C239.776 32.455 242.821 30.845 244.291 28.57L240.616 25.805C239.776 27.205 238.201 28.255 236.171 28.255C233.791 28.255 232.181 26.75 231.656 24.615H245.271C245.376 24.02 245.411 23.46 245.411 22.935C245.411 17.685 241.631 13.345 236.171 13.345C230.711 13.345 226.756 17.685 226.756 22.935C226.756 28.185 230.536 32.455 236.171 32.455ZM231.656 21.08C232.181 18.91 233.861 17.405 236.101 17.405C238.411 17.405 240.126 19.05 240.651 21.08H231.656ZM248.186 32H252.911V22.025C252.911 18.875 254.696 17.51 256.691 17.51C259.036 17.51 260.611 18.875 260.611 22.025V32H265.336V20.87C265.336 16.285 262.326 13.38 258.406 13.38C255.606 13.38 253.786 14.43 252.841 16.46V13.8H248.186V32ZM275.263 32H277.853V27.8H275.893C274.983 27.8 274.423 27.275 274.423 26.12V17.825H278.273V13.8H274.423V9.635L269.698 10.125V13.8H267.143V17.825H269.698V26.365C269.698 30.32 271.658 32 275.263 32ZM286.611 32.455C290.636 32.455 293.681 29.935 293.681 26.575C293.681 23.845 292.456 21.885 287.171 20.52C285.001 19.96 284.721 19.4 284.721 18.77C284.721 17.65 285.701 17.16 286.996 17.16C288.221 17.16 289.341 17.72 290.216 19.12L293.646 16.495C291.791 14.08 289.831 13.345 286.891 13.345C282.621 13.345 280.101 15.725 280.101 18.91C280.101 21.22 280.836 23.425 285.701 24.58C288.571 25.245 289.026 25.77 289.026 26.715C289.026 27.8 288.116 28.605 286.506 28.605C284.966 28.605 283.566 27.87 282.236 26.365L279.051 29.27C281.046 31.405 283.531 32.455 286.611 32.455Z" fill="#1C274C"/>
<rect opacity="0.3" x="315" y="10" width="2" height="15" rx="1" fill="#1C274C"/>
<rect x="337" y="2.29883" width="57.495" height="30.402" rx="15.201" fill="#1C274C"/>
<path d="M352 22.5188H355.654C357.782 22.5188 359.126 21.4548 359.126 19.8168C359.126 18.5988 358.594 17.7308 356.998 17.3528C358.202 16.9048 358.58 16.2328 358.58 15.2948C358.58 13.7688 357.432 12.7188 355.304 12.7188H352V22.5188ZM353.96 20.7548V18.3608H355.472C356.536 18.3608 357.138 18.7948 357.138 19.5088C357.138 20.3628 356.536 20.7548 355.472 20.7548H353.96ZM353.96 16.7648V14.4688H355.122C356.186 14.4688 356.592 14.9308 356.592 15.6028C356.592 16.3868 356.186 16.7648 355.122 16.7648H353.96Z" fill="white"/>
<path d="M363.709 22.7008C365.963 22.7008 367.587 20.9928 367.587 18.8928C367.587 16.7928 365.963 15.0708 363.709 15.0708C361.455 15.0708 359.831 16.7928 359.831 18.8928C359.831 20.9928 361.455 22.7008 363.709 22.7008ZM361.721 18.8928C361.721 17.7588 362.505 16.7928 363.709 16.7928C364.913 16.7928 365.697 17.7588 365.697 18.8928C365.697 20.0268 364.913 20.9788 363.709 20.9788C362.505 20.9788 361.721 20.0268 361.721 18.8928Z" fill="white"/>
<path d="M368.703 22.5188H370.593V12.2988H368.703V22.5188Z" fill="white"/>
<path d="M375.309 22.7008C376.611 22.7008 377.269 22.1548 377.661 21.3288V22.5188H379.495V12.2988H377.605V16.3588C377.213 15.5888 376.555 15.0848 375.309 15.0848C373.307 15.0848 371.711 16.8068 371.711 18.9068C371.711 21.0068 373.307 22.7008 375.309 22.7008ZM373.601 18.8928C373.601 17.7588 374.413 16.7928 375.617 16.7928C376.863 16.7928 377.661 17.7728 377.661 18.9068C377.661 20.0408 376.863 20.9928 375.617 20.9928C374.413 20.9928 373.601 19.9988 373.601 18.8928Z" fill="white"/>
</svg>
