<svg width="309" height="40" viewBox="0 0 309 40" fill="none" xmlns="http://www.w3.org/2000/svg">
<path d="M1.75 32H10.5C18.97 32 23.065 26.785 23.065 19.785C23.065 12.75 18.97 7.5 10.5 7.5H1.75V32ZM6.65 27.59V11.91H9.905C15.715 11.91 17.99 15.34 17.99 19.785C17.99 24.23 15.715 27.59 9.905 27.59H6.65ZM34.399 32.455C38.004 32.455 41.049 30.845 42.519 28.57L38.844 25.805C38.004 27.205 36.429 28.255 34.399 28.255C32.019 28.255 30.409 26.75 29.884 24.615H43.499C43.604 24.02 43.639 23.46 43.639 22.935C43.639 17.685 39.859 13.345 34.399 13.345C28.939 13.345 24.984 17.685 24.984 22.935C24.984 28.185 28.764 32.455 34.399 32.455ZM29.884 21.08C30.409 18.91 32.089 17.405 34.329 17.405C36.639 17.405 38.354 19.05 38.879 21.08H29.884ZM52.1306 32.455C56.1556 32.455 59.2006 29.935 59.2006 26.575C59.2006 23.845 57.9756 21.885 52.6906 20.52C50.5206 19.96 50.2406 19.4 50.2406 18.77C50.2406 17.65 51.2206 17.16 52.5156 17.16C53.7406 17.16 54.8606 17.72 55.7356 19.12L59.1656 16.495C57.3106 14.08 55.3506 13.345 52.4106 13.345C48.1406 13.345 45.6206 15.725 45.6206 18.91C45.6206 21.22 46.3556 23.425 51.2206 24.58C54.0906 25.245 54.5456 25.77 54.5456 26.715C54.5456 27.8 53.6356 28.605 52.0256 28.605C50.4856 28.605 49.0856 27.87 47.7556 26.365L44.5706 29.27C46.5656 31.405 49.0506 32.455 52.1306 32.455ZM61.7422 32H66.4672V13.8H61.7422V32ZM61.2522 9.495C61.2522 11.035 62.4772 12.295 64.0872 12.295C65.7322 12.295 66.9222 11.07 66.9222 9.495C66.9222 7.99 65.7322 6.73 64.0872 6.73C62.4772 6.73 61.2522 7.99 61.2522 9.495ZM78.8167 39.455C84.3817 39.455 88.3017 35.99 88.3017 30.39V13.8H83.6467V16.285C82.7017 14.5 81.0917 13.345 78.0817 13.345C73.0767 13.345 69.2617 17.475 69.2617 22.725C69.2617 27.975 73.0767 32.105 78.0817 32.105C81.0217 32.105 82.5967 30.985 83.5767 29.305V30.11C83.5767 33.015 81.3717 35.08 78.8517 35.08C76.5767 35.08 74.7567 34.52 73.0417 32.56L70.1017 36.025C72.2717 38.58 75.1417 39.455 78.8167 39.455ZM73.9867 22.725C73.9867 19.89 75.7717 17.65 78.8517 17.65C81.9667 17.65 83.7867 19.89 83.7867 22.725C83.7867 25.56 81.9667 27.8 78.8517 27.8C75.7717 27.8 73.9867 25.49 73.9867 22.725ZM91.7848 32H96.5098V22.025C96.5098 18.875 98.2948 17.51 100.29 17.51C102.635 17.51 104.21 18.875 104.21 22.025V32H108.935V20.87C108.935 16.285 105.925 13.38 102.005 13.38C99.2048 13.38 97.3848 14.43 96.4398 16.46V13.8H91.7848V32ZM112.975 36.865L113.955 36.515C116.545 35.605 118.295 33.54 118.295 30.845C118.295 28.325 116.895 26.785 114.795 26.785C113.255 26.785 111.925 28.045 111.925 29.55C111.925 31.09 113.255 32.35 114.655 32.35C114.935 32.35 115.18 32.315 115.46 32.245C115.145 33.19 114.445 33.68 113.01 34.17L112.03 34.52L112.975 36.865ZM133.506 32H138.406V11.91H145.406V7.5H126.506V11.91H133.506V32ZM152.252 32.455C157.887 32.455 161.947 28.185 161.947 22.935C161.947 17.685 157.887 13.38 152.252 13.38C146.617 13.38 142.557 17.685 142.557 22.935C142.557 28.185 146.617 32.455 152.252 32.455ZM147.282 22.935C147.282 20.1 149.242 17.685 152.252 17.685C155.262 17.685 157.222 20.1 157.222 22.935C157.222 25.77 155.262 28.15 152.252 28.15C149.242 28.15 147.282 25.77 147.282 22.935ZM173.562 32.455C179.197 32.455 183.257 28.185 183.257 22.935C183.257 17.685 179.197 13.38 173.562 13.38C167.927 13.38 163.867 17.685 163.867 22.935C163.867 28.185 167.927 32.455 173.562 32.455ZM168.592 22.935C168.592 20.1 170.552 17.685 173.562 17.685C176.572 17.685 178.532 20.1 178.532 22.935C178.532 25.77 176.572 28.15 173.562 28.15C170.552 28.15 168.592 25.77 168.592 22.935ZM186.048 32H190.773V6.45H186.048V32ZM200.498 32.455C204.523 32.455 207.568 29.935 207.568 26.575C207.568 23.845 206.343 21.885 201.058 20.52C198.888 19.96 198.608 19.4 198.608 18.77C198.608 17.65 199.588 17.16 200.883 17.16C202.108 17.16 203.228 17.72 204.103 19.12L207.533 16.495C205.678 14.08 203.718 13.345 200.778 13.345C196.508 13.345 193.988 15.725 193.988 18.91C193.988 21.22 194.723 23.425 199.588 24.58C202.458 25.245 202.913 25.77 202.913 26.715C202.913 27.8 202.003 28.605 200.393 28.605C198.853 28.605 197.453 27.87 196.123 26.365L192.938 29.27C194.933 31.405 197.418 32.455 200.498 32.455Z" fill="#1C274C"/>
<rect opacity="0.3" x="229" y="10" width="2" height="15" rx="1" fill="#1C274C"/>
<rect x="251" y="2.29907" width="57.495" height="30.402" rx="15.201" fill="#1C274C"/>
<path d="M266 22.5191H269.654C271.782 22.5191 273.126 21.4551 273.126 19.8171C273.126 18.5991 272.594 17.7311 270.998 17.3531C272.202 16.9051 272.58 16.2331 272.58 15.2951C272.58 13.7691 271.432 12.7191 269.304 12.7191H266V22.5191ZM267.96 20.7551V18.3611H269.472C270.536 18.3611 271.138 18.7951 271.138 19.5091C271.138 20.3631 270.536 20.7551 269.472 20.7551H267.96ZM267.96 16.7651V14.4691H269.122C270.186 14.4691 270.592 14.9311 270.592 15.6031C270.592 16.3871 270.186 16.7651 269.122 16.7651H267.96Z" fill="white"/>
<path d="M277.709 22.7011C279.963 22.7011 281.587 20.9931 281.587 18.8931C281.587 16.7931 279.963 15.0711 277.709 15.0711C275.455 15.0711 273.831 16.7931 273.831 18.8931C273.831 20.9931 275.455 22.7011 277.709 22.7011ZM275.721 18.8931C275.721 17.7591 276.505 16.7931 277.709 16.7931C278.913 16.7931 279.697 17.7591 279.697 18.8931C279.697 20.0271 278.913 20.9791 277.709 20.9791C276.505 20.9791 275.721 20.0271 275.721 18.8931Z" fill="white"/>
<path d="M282.703 22.5191H284.593V12.2991H282.703V22.5191Z" fill="white"/>
<path d="M289.309 22.7011C290.611 22.7011 291.269 22.1551 291.661 21.3291V22.5191H293.495V12.2991H291.605V16.3591C291.213 15.5891 290.555 15.0851 289.309 15.0851C287.307 15.0851 285.711 16.8071 285.711 18.9071C285.711 21.0071 287.307 22.7011 289.309 22.7011ZM287.601 18.8931C287.601 17.7591 288.413 16.7931 289.617 16.7931C290.863 16.7931 291.661 17.7731 291.661 18.9071C291.661 20.0411 290.863 20.9931 289.617 20.9931C288.413 20.9931 287.601 19.9991 287.601 18.8931Z" fill="white"/>
</svg>
