<svg width="466" height="40" viewBox="0 0 466 40" fill="none" xmlns="http://www.w3.org/2000/svg">
<path d="M9.73 32.455C15.295 32.455 18.69 29.445 18.69 25C18.69 19.4 13.65 18.14 10.78 17.23C8.645 16.565 6.895 15.97 6.895 14.15C6.895 12.505 8.33 11.455 10.29 11.455C12.11 11.455 13.23 12.33 14.42 14.22L18.62 11.63C16.8 8.76 14.35 7.08 10.535 7.08C5.355 7.08 1.89 9.985 1.89 14.395C1.89 18.105 4.305 20.31 8.085 21.29C11.095 22.06 13.685 22.83 13.685 25.28C13.685 26.96 12.285 28.08 10.01 28.08C7.875 28.08 5.845 26.995 4.585 24.475L0.35 27.17C2.485 30.915 5.845 32.455 9.73 32.455ZM21.5482 32H26.2732V22.025C26.2732 18.875 28.0582 17.51 30.0532 17.51C32.3982 17.51 33.9732 18.875 33.9732 22.025V32H38.6982V20.87C38.6982 16.285 35.6882 13.38 31.7682 13.38C29.0382 13.38 27.2532 14.36 26.2732 16.32V6.45H21.5482V32ZM51.0333 32.455C56.6683 32.455 60.7283 28.185 60.7283 22.935C60.7283 17.685 56.6683 13.38 51.0333 13.38C45.3983 13.38 41.3383 17.685 41.3383 22.935C41.3383 28.185 45.3983 32.455 51.0333 32.455ZM46.0633 22.935C46.0633 20.1 48.0233 17.685 51.0333 17.685C54.0433 17.685 56.0033 20.1 56.0033 22.935C56.0033 25.77 54.0433 28.15 51.0333 28.15C48.0233 28.15 46.0633 25.77 46.0633 22.935ZM63.5195 39H68.2445V29.305C69.2245 31.195 70.8695 32.455 73.9845 32.455C78.9895 32.455 82.9795 28.22 82.9795 22.97C82.9795 17.72 78.9895 13.415 73.9845 13.415C70.7995 13.415 69.1545 14.745 68.1745 16.74V13.8H63.5195V39ZM68.1045 22.97C68.1045 20.135 70.0995 17.685 73.2145 17.685C76.2245 17.685 78.2545 20.1 78.2545 22.935C78.2545 25.7 76.2245 28.185 73.2145 28.185C70.0995 28.185 68.1045 25.805 68.1045 22.97ZM85.7869 39H90.5119V29.305C91.4919 31.195 93.1369 32.455 96.2519 32.455C101.257 32.455 105.247 28.22 105.247 22.97C105.247 17.72 101.257 13.415 96.2519 13.415C93.0669 13.415 91.4219 14.745 90.4419 16.74V13.8H85.7869V39ZM90.3719 22.97C90.3719 20.135 92.3669 17.685 95.4819 17.685C98.4919 17.685 100.522 20.1 100.522 22.935C100.522 25.7 98.4919 28.185 95.4819 28.185C92.3669 28.185 90.3719 25.805 90.3719 22.97ZM108.054 32H112.779V13.8H108.054V32ZM107.564 9.495C107.564 11.035 108.789 12.295 110.399 12.295C112.044 12.295 113.234 11.07 113.234 9.495C113.234 7.99 112.044 6.73 110.399 6.73C108.789 6.73 107.564 7.99 107.564 9.495ZM116.274 32H120.999V22.025C120.999 18.875 122.784 17.51 124.779 17.51C127.124 17.51 128.699 18.875 128.699 22.025V32H133.424V20.87C133.424 16.285 130.414 13.38 126.494 13.38C123.694 13.38 121.874 14.43 120.929 16.46V13.8H116.274V32ZM145.619 39.455C151.184 39.455 155.104 35.99 155.104 30.39V13.8H150.449V16.285C149.504 14.5 147.894 13.345 144.884 13.345C139.879 13.345 136.064 17.475 136.064 22.725C136.064 27.975 139.879 32.105 144.884 32.105C147.824 32.105 149.399 30.985 150.379 29.305V30.11C150.379 33.015 148.174 35.08 145.654 35.08C143.379 35.08 141.559 34.52 139.844 32.56L136.904 36.025C139.074 38.58 141.944 39.455 145.619 39.455ZM140.789 22.725C140.789 19.89 142.574 17.65 145.654 17.65C148.769 17.65 150.589 19.89 150.589 22.725C150.589 25.56 148.769 27.8 145.654 27.8C142.574 27.8 140.789 25.49 140.789 22.725ZM159.287 36.865L160.267 36.515C162.857 35.605 164.607 33.54 164.607 30.845C164.607 28.325 163.207 26.785 161.107 26.785C159.567 26.785 158.237 28.045 158.237 29.55C158.237 31.09 159.567 32.35 160.967 32.35C161.247 32.35 161.492 32.315 161.772 32.245C161.457 33.19 160.757 33.68 159.322 34.17L158.342 34.52L159.287 36.865ZM174.214 32H188.634V27.59H179.114V21.675H188.389V17.405H179.114V11.91H188.564V7.5H174.214V32ZM200.778 32.455C204.348 32.455 206.868 31.16 208.583 28.955L205.153 25.98C204.208 27.24 203.018 28.15 201.198 28.15C198.188 28.15 196.123 25.735 196.123 22.9C196.123 20.065 198.083 17.65 201.093 17.65C202.703 17.65 204.103 18.455 204.943 19.715L208.583 16.74C207.043 14.605 204.348 13.31 201.023 13.345C195.458 13.38 191.398 17.615 191.398 22.9C191.398 28.185 195.563 32.455 200.778 32.455ZM218.985 32.455C224.62 32.455 228.68 28.185 228.68 22.935C228.68 17.685 224.62 13.38 218.985 13.38C213.35 13.38 209.29 17.685 209.29 22.935C209.29 28.185 213.35 32.455 218.985 32.455ZM214.015 22.935C214.015 20.1 215.975 17.685 218.985 17.685C221.995 17.685 223.955 20.1 223.955 22.935C223.955 25.77 221.995 28.15 218.985 28.15C215.975 28.15 214.015 25.77 214.015 22.935ZM231.472 32H236.197V22.025C236.197 18.875 237.982 17.51 239.977 17.51C242.322 17.51 243.897 18.875 243.897 22.025V32H248.622V22.025C248.622 18.525 250.127 17.51 252.332 17.51C254.467 17.51 255.972 18.875 255.972 22.025V32H260.697V20.87C260.697 16.285 257.687 13.38 253.767 13.38C250.582 13.38 248.832 14.605 247.607 16.81C246.417 14.605 244.247 13.38 241.692 13.38C238.892 13.38 237.072 14.43 236.127 16.46V13.8H231.472V32ZM264.027 32H268.752V22.025C268.752 18.875 270.537 17.51 272.532 17.51C274.877 17.51 276.452 18.875 276.452 22.025V32H281.177V22.025C281.177 18.525 282.682 17.51 284.887 17.51C287.022 17.51 288.527 18.875 288.527 22.025V32H293.252V20.87C293.252 16.285 290.242 13.38 286.322 13.38C283.137 13.38 281.387 14.605 280.162 16.81C278.972 14.605 276.802 13.38 274.247 13.38C271.447 13.38 269.627 14.43 268.682 16.46V13.8H264.027V32ZM305.298 32.455C308.903 32.455 311.948 30.845 313.418 28.57L309.743 25.805C308.903 27.205 307.328 28.255 305.298 28.255C302.918 28.255 301.308 26.75 300.783 24.615H314.398C314.503 24.02 314.538 23.46 314.538 22.935C314.538 17.685 310.758 13.345 305.298 13.345C299.838 13.345 295.883 17.685 295.883 22.935C295.883 28.185 299.663 32.455 305.298 32.455ZM300.783 21.08C301.308 18.91 302.988 17.405 305.228 17.405C307.538 17.405 309.253 19.05 309.778 21.08H300.783ZM317.312 32H322.037V22.69C322.037 19.645 324.137 17.825 326.867 17.825H327.532V13.38C324.382 13.205 322.527 14.64 321.897 17.265V13.8H317.312V32ZM337.595 32.455C341.165 32.455 343.685 31.16 345.4 28.955L341.97 25.98C341.025 27.24 339.835 28.15 338.015 28.15C335.005 28.15 332.94 25.735 332.94 22.9C332.94 20.065 334.9 17.65 337.91 17.65C339.52 17.65 340.92 18.455 341.76 19.715L345.4 16.74C343.86 14.605 341.165 13.31 337.84 13.345C332.275 13.38 328.215 17.615 328.215 22.9C328.215 28.185 332.38 32.455 337.595 32.455ZM355.523 32.455C359.128 32.455 362.173 30.845 363.643 28.57L359.968 25.805C359.128 27.205 357.553 28.255 355.523 28.255C353.143 28.255 351.533 26.75 351.008 24.615H364.623C364.728 24.02 364.763 23.46 364.763 22.935C364.763 17.685 360.983 13.345 355.523 13.345C350.063 13.345 346.108 17.685 346.108 22.935C346.108 28.185 349.888 32.455 355.523 32.455ZM351.008 21.08C351.533 18.91 353.213 17.405 355.453 17.405C357.763 17.405 359.478 19.05 360.003 21.08H351.008Z" fill="#1C274C"/>
<rect opacity="0.3" x="386" y="10" width="2" height="15" rx="1" fill="#1C274C"/>
<rect x="408" y="2.299" width="57.495" height="30.402" rx="15.201" fill="#1C274C"/>
<path d="M423 22.519H426.654C428.782 22.519 430.126 21.455 430.126 19.817C430.126 18.599 429.594 17.731 427.998 17.353C429.202 16.905 429.58 16.233 429.58 15.295C429.58 13.769 428.432 12.719 426.304 12.719H423V22.519ZM424.96 20.755V18.361H426.472C427.536 18.361 428.138 18.795 428.138 19.509C428.138 20.363 427.536 20.755 426.472 20.755H424.96ZM424.96 16.765V14.469H426.122C427.186 14.469 427.592 14.931 427.592 15.603C427.592 16.387 427.186 16.765 426.122 16.765H424.96Z" fill="white"/>
<path d="M434.709 22.701C436.963 22.701 438.587 20.993 438.587 18.893C438.587 16.793 436.963 15.071 434.709 15.071C432.455 15.071 430.831 16.793 430.831 18.893C430.831 20.993 432.455 22.701 434.709 22.701ZM432.721 18.893C432.721 17.759 433.505 16.793 434.709 16.793C435.913 16.793 436.697 17.759 436.697 18.893C436.697 20.027 435.913 20.979 434.709 20.979C433.505 20.979 432.721 20.027 432.721 18.893Z" fill="white"/>
<path d="M439.703 22.519H441.593V12.299H439.703V22.519Z" fill="white"/>
<path d="M446.309 22.701C447.611 22.701 448.269 22.155 448.661 21.329V22.519H450.495V12.299H448.605V16.359C448.213 15.589 447.555 15.085 446.309 15.085C444.307 15.085 442.711 16.807 442.711 18.907C442.711 21.007 444.307 22.701 446.309 22.701ZM444.601 18.893C444.601 17.759 445.413 16.793 446.617 16.793C447.863 16.793 448.661 17.773 448.661 18.907C448.661 20.041 447.863 20.993 446.617 20.993C445.413 20.993 444.601 19.999 444.601 18.893Z" fill="white"/>
</svg>
