<svg width="305" height="35" viewBox="0 0 305 35" fill="none" xmlns="http://www.w3.org/2000/svg">
<path d="M1.75 32H6.3V19.225C6.3 17.79 6.265 16.285 6.125 15.235C6.615 15.97 7.175 16.635 7.735 17.265L20.125 32H23.31V7.5H18.83V19.715C18.83 21.15 18.865 22.655 19.005 23.705C18.515 22.97 17.955 22.305 17.395 21.675L5.46 7.5H1.75V32ZM36.1487 32.455C41.7837 32.455 45.8437 28.185 45.8437 22.935C45.8437 17.685 41.7837 13.38 36.1487 13.38C30.5137 13.38 26.4537 17.685 26.4537 22.935C26.4537 28.185 30.5137 32.455 36.1487 32.455ZM31.1787 22.935C31.1787 20.1 33.1387 17.685 36.1487 17.685C39.1587 17.685 41.1187 20.1 41.1187 22.935C41.1187 25.77 39.1587 28.15 36.1487 28.15C33.1387 28.15 31.1787 25.77 31.1787 22.935ZM54.5388 32H57.1288V27.8H55.1688C54.2588 27.8 53.6988 27.275 53.6988 26.12V17.825H57.5488V13.8H53.6988V9.635L48.9738 10.125V13.8H46.4188V17.825H48.9738V26.365C48.9738 30.32 50.9338 32 54.5388 32ZM59.8281 32H64.5531V13.8H59.8281V32ZM59.3381 9.495C59.3381 11.035 60.5631 12.295 62.1731 12.295C63.8181 12.295 65.0081 11.07 65.0081 9.495C65.0081 7.99 63.8181 6.73 62.1731 6.73C60.5631 6.73 59.3381 7.99 59.3381 9.495ZM69.3777 12.575V13.8H66.8227V17.825H69.3777V32H74.1027V17.825H77.8127V13.8H74.1027V12.645C74.1027 11.21 74.7677 10.475 76.1677 10.475H77.3927V6.45H75.4327C71.7577 6.45 69.3777 8.9 69.3777 12.575ZM80.0953 32H84.8203V13.8H80.0953V32ZM79.6053 9.495C79.6053 11.035 80.8303 12.295 82.4403 12.295C84.0853 12.295 85.2753 11.07 85.2753 9.495C85.2753 7.99 84.0853 6.73 82.4403 6.73C80.8303 6.73 79.6053 7.99 79.6053 9.495ZM96.9948 32.455C100.565 32.455 103.085 31.16 104.8 28.955L101.37 25.98C100.425 27.24 99.2348 28.15 97.4148 28.15C94.4048 28.15 92.3398 25.735 92.3398 22.9C92.3398 20.065 94.2998 17.65 97.3098 17.65C98.9198 17.65 100.32 18.455 101.16 19.715L104.8 16.74C103.26 14.605 100.565 13.31 97.2398 13.345C91.6748 13.38 87.6148 17.615 87.6148 22.9C87.6148 28.185 91.7798 32.455 96.9948 32.455ZM114.502 32.455C117.757 32.455 119.402 31.09 120.382 29.025V32H124.967V13.8H120.277V16.67C119.297 14.71 117.652 13.415 114.502 13.415C109.497 13.415 105.507 17.72 105.507 22.97C105.507 28.22 109.497 32.455 114.502 32.455ZM110.232 22.935C110.232 20.1 112.262 17.685 115.272 17.685C118.387 17.685 120.382 20.135 120.382 22.97C120.382 25.805 118.387 28.185 115.272 28.185C112.262 28.185 110.232 25.7 110.232 22.935ZM135.37 32H137.96V27.8H136C135.09 27.8 134.53 27.275 134.53 26.12V17.825H138.38V13.8H134.53V9.635L129.805 10.125V13.8H127.25V17.825H129.805V26.365C129.805 30.32 131.765 32 135.37 32ZM140.659 32H145.384V13.8H140.659V32ZM140.169 9.495C140.169 11.035 141.394 12.295 143.004 12.295C144.649 12.295 145.839 11.07 145.839 9.495C145.839 7.99 144.649 6.73 143.004 6.73C141.394 6.73 140.169 7.99 140.169 9.495ZM157.874 32.455C163.509 32.455 167.569 28.185 167.569 22.935C167.569 17.685 163.509 13.38 157.874 13.38C152.239 13.38 148.179 17.685 148.179 22.935C148.179 28.185 152.239 32.455 157.874 32.455ZM152.904 22.935C152.904 20.1 154.864 17.685 157.874 17.685C160.884 17.685 162.844 20.1 162.844 22.935C162.844 25.77 160.884 28.15 157.874 28.15C154.864 28.15 152.904 25.77 152.904 22.935ZM170.36 32H175.085V22.025C175.085 18.875 176.87 17.51 178.865 17.51C181.21 17.51 182.785 18.875 182.785 22.025V32H187.51V20.87C187.51 16.285 184.5 13.38 180.58 13.38C177.78 13.38 175.96 14.43 175.015 16.46V13.8H170.36V32ZM197.08 32.455C201.105 32.455 204.15 29.935 204.15 26.575C204.15 23.845 202.925 21.885 197.64 20.52C195.47 19.96 195.19 19.4 195.19 18.77C195.19 17.65 196.17 17.16 197.465 17.16C198.69 17.16 199.81 17.72 200.685 19.12L204.115 16.495C202.26 14.08 200.3 13.345 197.36 13.345C193.09 13.345 190.57 15.725 190.57 18.91C190.57 21.22 191.305 23.425 196.17 24.58C199.04 25.245 199.495 25.77 199.495 26.715C199.495 27.8 198.585 28.605 196.975 28.605C195.435 28.605 194.035 27.87 192.705 26.365L189.52 29.27C191.515 31.405 194 32.455 197.08 32.455Z" fill="#1C274C"/>
<rect opacity="0.3" x="225" y="10" width="2" height="15" rx="1" fill="#1C274C"/>
<rect x="247" y="2.29883" width="57.495" height="30.402" rx="15.201" fill="#1C274C"/>
<path d="M262 22.5188H265.654C267.782 22.5188 269.126 21.4548 269.126 19.8168C269.126 18.5988 268.594 17.7308 266.998 17.3528C268.202 16.9048 268.58 16.2328 268.58 15.2948C268.58 13.7688 267.432 12.7188 265.304 12.7188H262V22.5188ZM263.96 20.7548V18.3608H265.472C266.536 18.3608 267.138 18.7948 267.138 19.5088C267.138 20.3628 266.536 20.7548 265.472 20.7548H263.96ZM263.96 16.7648V14.4688H265.122C266.186 14.4688 266.592 14.9308 266.592 15.6028C266.592 16.3868 266.186 16.7648 265.122 16.7648H263.96Z" fill="white"/>
<path d="M273.709 22.7008C275.963 22.7008 277.587 20.9928 277.587 18.8928C277.587 16.7928 275.963 15.0708 273.709 15.0708C271.455 15.0708 269.831 16.7928 269.831 18.8928C269.831 20.9928 271.455 22.7008 273.709 22.7008ZM271.721 18.8928C271.721 17.7588 272.505 16.7928 273.709 16.7928C274.913 16.7928 275.697 17.7588 275.697 18.8928C275.697 20.0268 274.913 20.9788 273.709 20.9788C272.505 20.9788 271.721 20.0268 271.721 18.8928Z" fill="white"/>
<path d="M278.703 22.5188H280.593V12.2988H278.703V22.5188Z" fill="white"/>
<path d="M285.309 22.7008C286.611 22.7008 287.269 22.1548 287.661 21.3288V22.5188H289.495V12.2988H287.605V16.3588C287.213 15.5888 286.555 15.0848 285.309 15.0848C283.307 15.0848 281.711 16.8068 281.711 18.9068C281.711 21.0068 283.307 22.7008 285.309 22.7008ZM283.601 18.8928C283.601 17.7588 284.413 16.7928 285.617 16.7928C286.863 16.7928 287.661 17.7728 287.661 18.9068C287.661 20.0408 286.863 20.9928 285.617 20.9928C284.413 20.9928 283.601 19.9988 283.601 18.8928Z" fill="white"/>
</svg>
