<svg width="213" height="35" viewBox="0 0 213 35" fill="none" xmlns="http://www.w3.org/2000/svg">
<path d="M0.335 32H5.655L7.335 27.345H17.555L19.235 32H24.555L14.58 7.5H10.345L0.335 32ZM8.945 23.11L11.57 16.425C11.92 15.55 12.2 14.57 12.445 13.625C12.655 14.57 12.97 15.515 13.32 16.425L15.945 23.11H8.945ZM26.0004 32H30.7254V22.69C30.7254 19.645 32.8254 17.825 35.5554 17.825H36.2204V13.38C33.0704 13.205 31.2154 14.64 30.5854 17.265V13.8H26.0004V32ZM38.4924 32H43.2174V22.69C43.2174 19.645 45.3174 17.825 48.0474 17.825H48.7124V13.38C45.5624 13.205 43.7074 14.64 43.0774 17.265V13.8H38.4924V32ZM59.0907 32.455C64.7257 32.455 68.7857 28.185 68.7857 22.935C68.7857 17.685 64.7257 13.38 59.0907 13.38C53.4557 13.38 49.3957 17.685 49.3957 22.935C49.3957 28.185 53.4557 32.455 59.0907 32.455ZM54.1207 22.935C54.1207 20.1 56.0807 17.685 59.0907 17.685C62.1007 17.685 64.0607 20.1 64.0607 22.935C64.0607 25.77 62.1007 28.15 59.0907 28.15C56.0807 28.15 54.1207 25.77 54.1207 22.935ZM74.7084 32H80.1334L82.8634 21.64C83.1084 20.765 83.2834 19.82 83.4234 18.91C83.5634 19.82 83.7734 20.765 84.0534 21.64L87.0284 32H92.1384L97.8084 13.8H92.6634L90.1434 24.125C89.9334 25 89.7234 25.98 89.5834 26.89C89.4434 25.98 89.2334 24.965 88.9884 24.09L86.1534 13.8H80.7284L78.0684 24.09C77.8234 24.965 77.6134 25.98 77.4734 26.89C77.3334 25.98 77.1234 25 76.9134 24.125L74.5684 13.8H69.0384L74.7084 32ZM104.689 32.455C108.714 32.455 111.759 29.935 111.759 26.575C111.759 23.845 110.534 21.885 105.249 20.52C103.079 19.96 102.799 19.4 102.799 18.77C102.799 17.65 103.779 17.16 105.074 17.16C106.299 17.16 107.419 17.72 108.294 19.12L111.724 16.495C109.869 14.08 107.909 13.345 104.969 13.345C100.699 13.345 98.1786 15.725 98.1786 18.91C98.1786 21.22 98.9136 23.425 103.779 24.58C106.649 25.245 107.104 25.77 107.104 26.715C107.104 27.8 106.194 28.605 104.584 28.605C103.044 28.605 101.644 27.87 100.314 26.365L97.1286 29.27C99.1236 31.405 101.609 32.455 104.689 32.455Z" fill="#1C274C"/>
<rect opacity="0.3" x="133" y="10" width="2" height="15" rx="1" fill="#1C274C"/>
<rect x="155" y="2.29883" width="57.495" height="30.402" rx="15.201" fill="#1C274C"/>
<path d="M170 22.5188H173.654C175.782 22.5188 177.126 21.4548 177.126 19.8168C177.126 18.5988 176.594 17.7308 174.998 17.3528C176.202 16.9048 176.58 16.2328 176.58 15.2948C176.58 13.7688 175.432 12.7188 173.304 12.7188H170V22.5188ZM171.96 20.7548V18.3608H173.472C174.536 18.3608 175.138 18.7948 175.138 19.5088C175.138 20.3628 174.536 20.7548 173.472 20.7548H171.96ZM171.96 16.7648V14.4688H173.122C174.186 14.4688 174.592 14.9308 174.592 15.6028C174.592 16.3868 174.186 16.7648 173.122 16.7648H171.96Z" fill="white"/>
<path d="M181.709 22.7008C183.963 22.7008 185.587 20.9928 185.587 18.8928C185.587 16.7928 183.963 15.0708 181.709 15.0708C179.455 15.0708 177.831 16.7928 177.831 18.8928C177.831 20.9928 179.455 22.7008 181.709 22.7008ZM179.721 18.8928C179.721 17.7588 180.505 16.7928 181.709 16.7928C182.913 16.7928 183.697 17.7588 183.697 18.8928C183.697 20.0268 182.913 20.9788 181.709 20.9788C180.505 20.9788 179.721 20.0268 179.721 18.8928Z" fill="white"/>
<path d="M186.703 22.5188H188.593V12.2988H186.703V22.5188Z" fill="white"/>
<path d="M193.309 22.7008C194.611 22.7008 195.269 22.1548 195.661 21.3288V22.5188H197.495V12.2988H195.605V16.3588C195.213 15.5888 194.555 15.0848 193.309 15.0848C191.307 15.0848 189.711 16.8068 189.711 18.9068C189.711 21.0068 191.307 22.7008 193.309 22.7008ZM191.601 18.8928C191.601 17.7588 192.413 16.7928 193.617 16.7928C194.863 16.7928 195.661 17.7728 195.661 18.9068C195.661 20.0408 194.863 20.9928 193.617 20.9928C192.413 20.9928 191.601 19.9988 191.601 18.8928Z" fill="white"/>
</svg>
