<svg width="205" height="35" viewBox="0 0 205 35" fill="none" xmlns="http://www.w3.org/2000/svg">
<path d="M1.75 32H6.65V21.78H16.8V32H21.7V7.5H16.8V17.37H6.65V7.5H1.75V32ZM33.8423 32.455C37.0973 32.455 38.7423 31.09 39.7223 29.025V32H44.3073V13.8H39.6173V16.67C38.6373 14.71 36.9923 13.415 33.8423 13.415C28.8373 13.415 24.8473 17.72 24.8473 22.97C24.8473 28.22 28.8373 32.455 33.8423 32.455ZM29.5723 22.935C29.5723 20.1 31.6023 17.685 34.6123 17.685C37.7273 17.685 39.7223 20.135 39.7223 22.97C39.7223 25.805 37.7273 28.185 34.6123 28.185C31.6023 28.185 29.5723 25.7 29.5723 22.935ZM47.8147 32H52.5397V22.025C52.5397 18.875 54.3247 17.51 56.3197 17.51C58.6647 17.51 60.2397 18.875 60.2397 22.025V32H64.9647V20.87C64.9647 16.285 61.9547 13.38 58.0347 13.38C55.2347 13.38 53.4147 14.43 52.4697 16.46V13.8H47.8147V32ZM76.5997 32.455C79.8547 32.455 81.4997 31.09 82.4797 29.025V32H87.0647V6.45H82.3397V16.6C81.3597 14.675 79.7147 13.415 76.5997 13.415C71.5947 13.415 67.6047 17.72 67.6047 22.97C67.6047 28.22 71.5947 32.455 76.5997 32.455ZM72.3297 22.935C72.3297 20.1 74.3597 17.685 77.3697 17.685C80.4847 17.685 82.4797 20.135 82.4797 22.97C82.4797 25.805 80.4847 28.185 77.3697 28.185C74.3597 28.185 72.3297 25.7 72.3297 22.935ZM96.8021 32.455C100.827 32.455 103.872 29.935 103.872 26.575C103.872 23.845 102.647 21.885 97.3621 20.52C95.1921 19.96 94.9121 19.4 94.9121 18.77C94.9121 17.65 95.8921 17.16 97.1871 17.16C98.4121 17.16 99.5321 17.72 100.407 19.12L103.837 16.495C101.982 14.08 100.022 13.345 97.0821 13.345C92.8121 13.345 90.2921 15.725 90.2921 18.91C90.2921 21.22 91.0271 23.425 95.8921 24.58C98.7621 25.245 99.2171 25.77 99.2171 26.715C99.2171 27.8 98.3071 28.605 96.6971 28.605C95.1571 28.605 93.7571 27.87 92.4271 26.365L89.2421 29.27C91.2371 31.405 93.7221 32.455 96.8021 32.455Z" fill="#1C274C"/>
<rect opacity="0.3" x="125" y="10" width="2" height="15" rx="1" fill="#1C274C"/>
<rect x="147" y="2.29883" width="57.495" height="30.402" rx="15.201" fill="#1C274C"/>
<path d="M162 22.5188H165.654C167.782 22.5188 169.126 21.4548 169.126 19.8168C169.126 18.5988 168.594 17.7308 166.998 17.3528C168.202 16.9048 168.58 16.2328 168.58 15.2948C168.58 13.7688 167.432 12.7188 165.304 12.7188H162V22.5188ZM163.96 20.7548V18.3608H165.472C166.536 18.3608 167.138 18.7948 167.138 19.5088C167.138 20.3628 166.536 20.7548 165.472 20.7548H163.96ZM163.96 16.7648V14.4688H165.122C166.186 14.4688 166.592 14.9308 166.592 15.6028C166.592 16.3868 166.186 16.7648 165.122 16.7648H163.96Z" fill="white"/>
<path d="M173.709 22.7008C175.963 22.7008 177.587 20.9928 177.587 18.8928C177.587 16.7928 175.963 15.0708 173.709 15.0708C171.455 15.0708 169.831 16.7928 169.831 18.8928C169.831 20.9928 171.455 22.7008 173.709 22.7008ZM171.721 18.8928C171.721 17.7588 172.505 16.7928 173.709 16.7928C174.913 16.7928 175.697 17.7588 175.697 18.8928C175.697 20.0268 174.913 20.9788 173.709 20.9788C172.505 20.9788 171.721 20.0268 171.721 18.8928Z" fill="white"/>
<path d="M178.703 22.5188H180.593V12.2988H178.703V22.5188Z" fill="white"/>
<path d="M185.309 22.7008C186.611 22.7008 187.269 22.1548 187.661 21.3288V22.5188H189.495V12.2988H187.605V16.3588C187.213 15.5888 186.555 15.0848 185.309 15.0848C183.307 15.0848 181.711 16.8068 181.711 18.9068C181.711 21.0068 183.307 22.7008 185.309 22.7008ZM183.601 18.8928C183.601 17.7588 184.413 16.7928 185.617 16.7928C186.863 16.7928 187.661 17.7728 187.661 18.9068C187.661 20.0408 186.863 20.9928 185.617 20.9928C184.413 20.9928 183.601 19.9988 183.601 18.8928Z" fill="white"/>
</svg>
