<svg width="465" height="40" viewBox="0 0 465 40" fill="none" xmlns="http://www.w3.org/2000/svg">
<path d="M1.75 32H10.885C16.205 32 19.565 29.34 19.565 25.245C19.565 22.2 18.235 20.03 14.245 19.085C17.255 17.965 18.2 16.285 18.2 13.94C18.2 10.125 15.33 7.5 10.01 7.5H1.75V32ZM6.65 27.59V21.605H10.43C13.09 21.605 14.595 22.69 14.595 24.475C14.595 26.61 13.09 27.59 10.43 27.59H6.65ZM6.65 17.615V11.875H9.555C12.215 11.875 13.23 13.03 13.23 14.71C13.23 16.67 12.215 17.615 9.555 17.615H6.65ZM28.9527 32.42C31.7877 32.42 33.4327 31.37 34.3077 29.27V32H38.8927V13.8H34.1677V23.775C34.1677 26.925 32.3827 28.29 30.3877 28.29C28.0427 28.29 26.7477 26.925 26.7477 23.775V13.8H22.0227V24.93C22.0227 29.515 25.0327 32.42 28.9527 32.42ZM42.3801 32H47.1051V13.8H42.3801V32ZM41.8901 9.495C41.8901 11.035 43.1151 12.295 44.7251 12.295C46.3701 12.295 47.5601 11.07 47.5601 9.495C47.5601 7.99 46.3701 6.73 44.7251 6.73C43.1151 6.73 41.8901 7.99 41.8901 9.495ZM50.5996 32H55.3246V6.45H50.5996V32ZM67.1141 32.455C70.3691 32.455 72.0141 31.09 72.9941 29.025V32H77.5791V6.45H72.8541V16.6C71.8741 14.675 70.2291 13.415 67.1141 13.415C62.1091 13.415 58.1191 17.72 58.1191 22.97C58.1191 28.22 62.1091 32.455 67.1141 32.455ZM62.8441 22.935C62.8441 20.1 64.8741 17.685 67.8841 17.685C70.9991 17.685 72.9941 20.135 72.9941 22.97C72.9941 25.805 70.9991 28.185 67.8841 28.185C64.8741 28.185 62.8441 25.7 62.8441 22.935ZM81.0865 32H85.8115V13.8H81.0865V32ZM80.5965 9.495C80.5965 11.035 81.8215 12.295 83.4315 12.295C85.0765 12.295 86.2665 11.07 86.2665 9.495C86.2665 7.99 85.0765 6.73 83.4315 6.73C81.8215 6.73 80.5965 7.99 80.5965 9.495ZM89.3061 32H94.0311V22.025C94.0311 18.875 95.8161 17.51 97.8111 17.51C100.156 17.51 101.731 18.875 101.731 22.025V32H106.456V20.87C106.456 16.285 103.446 13.38 99.5261 13.38C96.7261 13.38 94.9061 14.43 93.9611 16.46V13.8H89.3061V32ZM118.651 39.455C124.216 39.455 128.136 35.99 128.136 30.39V13.8H123.481V16.285C122.536 14.5 120.926 13.345 117.916 13.345C112.911 13.345 109.096 17.475 109.096 22.725C109.096 27.975 112.911 32.105 117.916 32.105C120.856 32.105 122.431 30.985 123.411 29.305V30.11C123.411 33.015 121.206 35.08 118.686 35.08C116.411 35.08 114.591 34.52 112.876 32.56L109.936 36.025C112.106 38.58 114.976 39.455 118.651 39.455ZM113.821 22.725C113.821 19.89 115.606 17.65 118.686 17.65C121.801 17.65 123.621 19.89 123.621 22.725C123.621 25.56 121.801 27.8 118.686 27.8C115.606 27.8 113.821 25.49 113.821 22.725ZM132.319 36.865L133.299 36.515C135.889 35.605 137.639 33.54 137.639 30.845C137.639 28.325 136.239 26.785 134.139 26.785C132.599 26.785 131.269 28.045 131.269 29.55C131.269 31.09 132.599 32.35 133.999 32.35C134.279 32.35 134.524 32.315 134.804 32.245C134.489 33.19 133.789 33.68 132.354 34.17L131.374 34.52L132.319 36.865ZM147.246 32H152.146V7.5H147.246V32ZM156.004 32H160.729V22.025C160.729 18.875 162.514 17.51 164.509 17.51C166.854 17.51 168.429 18.875 168.429 22.025V32H173.154V20.87C173.154 16.285 170.144 13.38 166.224 13.38C163.424 13.38 161.604 14.43 160.659 16.46V13.8H156.004V32ZM177.483 12.575V13.8H174.928V17.825H177.483V32H182.208V17.825H185.918V13.8H182.208V12.645C182.208 11.21 182.873 10.475 184.273 10.475H185.498V6.45H183.538C179.863 6.45 177.483 8.9 177.483 12.575ZM188.2 32H192.925V22.69C192.925 19.645 195.025 17.825 197.755 17.825H198.42V13.38C195.27 13.205 193.415 14.64 192.785 17.265V13.8H188.2V32ZM208.099 32.455C211.354 32.455 212.999 31.09 213.979 29.025V32H218.564V13.8H213.874V16.67C212.894 14.71 211.249 13.415 208.099 13.415C203.094 13.415 199.104 17.72 199.104 22.97C199.104 28.22 203.094 32.455 208.099 32.455ZM203.829 22.935C203.829 20.1 205.859 17.685 208.869 17.685C211.984 17.685 213.979 20.135 213.979 22.97C213.979 25.805 211.984 28.185 208.869 28.185C205.859 28.185 203.829 25.7 203.829 22.935ZM228.301 32.455C232.326 32.455 235.371 29.935 235.371 26.575C235.371 23.845 234.146 21.885 228.861 20.52C226.691 19.96 226.411 19.4 226.411 18.77C226.411 17.65 227.391 17.16 228.686 17.16C229.911 17.16 231.031 17.72 231.906 19.12L235.336 16.495C233.481 14.08 231.521 13.345 228.581 13.345C224.311 13.345 221.791 15.725 221.791 18.91C221.791 21.22 222.526 23.425 227.391 24.58C230.261 25.245 230.716 25.77 230.716 26.715C230.716 27.8 229.806 28.605 228.196 28.605C226.656 28.605 225.256 27.87 223.926 26.365L220.741 29.27C222.736 31.405 225.221 32.455 228.301 32.455ZM244.5 32H247.09V27.8H245.13C244.22 27.8 243.66 27.275 243.66 26.12V17.825H247.51V13.8H243.66V9.635L238.935 10.125V13.8H236.38V17.825H238.935V26.365C238.935 30.32 240.895 32 244.5 32ZM249.789 32H254.514V22.69C254.514 19.645 256.614 17.825 259.344 17.825H260.009V13.38C256.859 13.205 255.004 14.64 254.374 17.265V13.8H249.789V32ZM269.036 32.42C271.871 32.42 273.516 31.37 274.391 29.27V32H278.976V13.8H274.251V23.775C274.251 26.925 272.466 28.29 270.471 28.29C268.126 28.29 266.831 26.925 266.831 23.775V13.8H262.106V24.93C262.106 29.515 265.116 32.42 269.036 32.42ZM291.144 32.455C294.714 32.455 297.234 31.16 298.949 28.955L295.519 25.98C294.574 27.24 293.384 28.15 291.564 28.15C288.554 28.15 286.489 25.735 286.489 22.9C286.489 20.065 288.449 17.65 291.459 17.65C293.069 17.65 294.469 18.455 295.309 19.715L298.949 16.74C297.409 14.605 294.714 13.31 291.389 13.345C285.824 13.38 281.764 17.615 281.764 22.9C281.764 28.185 285.929 32.455 291.144 32.455ZM308.413 32H311.003V27.8H309.043C308.133 27.8 307.573 27.275 307.573 26.12V17.825H311.423V13.8H307.573V9.635L302.848 10.125V13.8H300.293V17.825H302.848V26.365C302.848 30.32 304.808 32 308.413 32ZM320.458 32.42C323.293 32.42 324.938 31.37 325.813 29.27V32H330.398V13.8H325.673V23.775C325.673 26.925 323.888 28.29 321.893 28.29C319.548 28.29 318.253 26.925 318.253 23.775V13.8H313.528V24.93C313.528 29.515 316.538 32.42 320.458 32.42ZM333.885 32H338.61V22.69C338.61 19.645 340.71 17.825 343.44 17.825H344.105V13.38C340.955 13.205 339.1 14.64 338.47 17.265V13.8H333.885V32ZM354.203 32.455C357.808 32.455 360.853 30.845 362.323 28.57L358.648 25.805C357.808 27.205 356.233 28.255 354.203 28.255C351.823 28.255 350.213 26.75 349.688 24.615H363.303C363.408 24.02 363.443 23.46 363.443 22.935C363.443 17.685 359.663 13.345 354.203 13.345C348.743 13.345 344.788 17.685 344.788 22.935C344.788 28.185 348.568 32.455 354.203 32.455ZM349.688 21.08C350.213 18.91 351.893 17.405 354.133 17.405C356.443 17.405 358.158 19.05 358.683 21.08H349.688Z" fill="#1C274C"/>
<rect opacity="0.3" x="385" y="10" width="2" height="15" rx="1" fill="#1C274C"/>
<rect x="407" y="2.29895" width="57.495" height="30.402" rx="15.201" fill="#1C274C"/>
<path d="M422 22.519H425.654C427.782 22.519 429.126 21.455 429.126 19.817C429.126 18.599 428.594 17.731 426.998 17.353C428.202 16.905 428.58 16.2329 428.58 15.295C428.58 13.769 427.432 12.7189 425.304 12.7189H422V22.519ZM423.96 20.755V18.3609H425.472C426.536 18.3609 427.138 18.795 427.138 19.509C427.138 20.363 426.536 20.755 425.472 20.755H423.96ZM423.96 16.765V14.4689H425.122C426.186 14.4689 426.592 14.9309 426.592 15.603C426.592 16.387 426.186 16.765 425.122 16.765H423.96Z" fill="white"/>
<path d="M433.709 22.701C435.963 22.701 437.587 20.993 437.587 18.893C437.587 16.793 435.963 15.071 433.709 15.071C431.455 15.071 429.831 16.793 429.831 18.893C429.831 20.993 431.455 22.701 433.709 22.701ZM431.721 18.893C431.721 17.759 432.505 16.793 433.709 16.793C434.913 16.793 435.697 17.759 435.697 18.893C435.697 20.027 434.913 20.979 433.709 20.979C432.505 20.979 431.721 20.027 431.721 18.893Z" fill="white"/>
<path d="M438.703 22.519H440.593V12.299H438.703V22.519Z" fill="white"/>
<path d="M445.309 22.701C446.611 22.701 447.269 22.155 447.661 21.329V22.519H449.495V12.299H447.605V16.359C447.213 15.589 446.555 15.085 445.309 15.085C443.307 15.085 441.711 16.8069 441.711 18.9069C441.711 21.007 443.307 22.701 445.309 22.701ZM443.601 18.893C443.601 17.759 444.413 16.793 445.617 16.793C446.863 16.793 447.661 17.773 447.661 18.9069C447.661 20.041 446.863 20.993 445.617 20.993C444.413 20.993 443.601 19.999 443.601 18.893Z" fill="white"/>
</svg>
