<svg width="188" height="35" viewBox="0 0 188 35" fill="none" xmlns="http://www.w3.org/2000/svg">
<path d="M11.305 32.455C17.29 32.455 21.21 28.535 21.21 22.935V7.5H16.31V22.41C16.31 25.875 14.665 27.975 11.305 27.975C7.945 27.975 6.3 25.875 6.3 22.41V7.5H1.4V22.935C1.4 28.535 5.32 32.455 11.305 32.455ZM30.957 32.455C34.982 32.455 38.027 29.935 38.027 26.575C38.027 23.845 36.802 21.885 31.517 20.52C29.347 19.96 29.067 19.4 29.067 18.77C29.067 17.65 30.047 17.16 31.342 17.16C32.567 17.16 33.687 17.72 34.562 19.12L37.992 16.495C36.137 14.08 34.177 13.345 31.237 13.345C26.967 13.345 24.447 15.725 24.447 18.91C24.447 21.22 25.182 23.425 30.047 24.58C32.917 25.245 33.372 25.77 33.372 26.715C33.372 27.8 32.462 28.605 30.852 28.605C29.312 28.605 27.912 27.87 26.582 26.365L23.397 29.27C25.392 31.405 27.877 32.455 30.957 32.455ZM49.2836 32.455C52.8886 32.455 55.9336 30.845 57.4036 28.57L53.7286 25.805C52.8886 27.205 51.3136 28.255 49.2836 28.255C46.9036 28.255 45.2936 26.75 44.7686 24.615H58.3836C58.4886 24.02 58.5236 23.46 58.5236 22.935C58.5236 17.685 54.7436 13.345 49.2836 13.345C43.8236 13.345 39.8686 17.685 39.8686 22.935C39.8686 28.185 43.6486 32.455 49.2836 32.455ZM44.7686 21.08C45.2936 18.91 46.9736 17.405 49.2136 17.405C51.5236 17.405 53.2386 19.05 53.7636 21.08H44.7686ZM61.2979 32H66.0229V22.69C66.0229 19.645 68.1229 17.825 70.8529 17.825H71.5179V13.38C68.3679 13.205 66.5129 14.64 65.8829 17.265V13.8H61.2979V32ZM79.5755 32.455C83.6005 32.455 86.6455 29.935 86.6455 26.575C86.6455 23.845 85.4205 21.885 80.1355 20.52C77.9655 19.96 77.6855 19.4 77.6855 18.77C77.6855 17.65 78.6655 17.16 79.9605 17.16C81.1855 17.16 82.3055 17.72 83.1805 19.12L86.6105 16.495C84.7555 14.08 82.7955 13.345 79.8555 13.345C75.5855 13.345 73.0655 15.725 73.0655 18.91C73.0655 21.22 73.8005 23.425 78.6655 24.58C81.5355 25.245 81.9905 25.77 81.9905 26.715C81.9905 27.8 81.0805 28.605 79.4705 28.605C77.9305 28.605 76.5305 27.87 75.2005 26.365L72.0155 29.27C74.0105 31.405 76.4955 32.455 79.5755 32.455Z" fill="#1C274C"/>
<rect opacity="0.3" x="108" y="10" width="2" height="15" rx="1" fill="#1C274C"/>
<rect x="130" y="2.29901" width="57.495" height="30.402" rx="15.201" fill="#1C274C"/>
<path d="M145 22.519H148.654C150.782 22.519 152.126 21.455 152.126 19.817C152.126 18.599 151.594 17.731 149.998 17.353C151.202 16.905 151.58 16.233 151.58 15.295C151.58 13.769 150.432 12.719 148.304 12.719H145V22.519ZM146.96 20.755V18.361H148.472C149.536 18.361 150.138 18.795 150.138 19.509C150.138 20.363 149.536 20.755 148.472 20.755H146.96ZM146.96 16.765V14.469H148.122C149.186 14.469 149.592 14.931 149.592 15.603C149.592 16.387 149.186 16.765 148.122 16.765H146.96Z" fill="white"/>
<path d="M156.709 22.701C158.963 22.701 160.587 20.993 160.587 18.893C160.587 16.793 158.963 15.071 156.709 15.071C154.455 15.071 152.831 16.793 152.831 18.893C152.831 20.993 154.455 22.701 156.709 22.701ZM154.721 18.893C154.721 17.759 155.505 16.793 156.709 16.793C157.913 16.793 158.697 17.759 158.697 18.893C158.697 20.027 157.913 20.979 156.709 20.979C155.505 20.979 154.721 20.027 154.721 18.893Z" fill="white"/>
<path d="M161.703 22.519H163.593V12.299H161.703V22.519Z" fill="white"/>
<path d="M168.309 22.701C169.611 22.701 170.269 22.155 170.661 21.329V22.519H172.495V12.299H170.605V16.359C170.213 15.589 169.555 15.085 168.309 15.085C166.307 15.085 164.711 16.807 164.711 18.907C164.711 21.007 166.307 22.701 168.309 22.701ZM166.601 18.893C166.601 17.759 167.413 16.793 168.617 16.793C169.863 16.793 170.661 17.773 170.661 18.907C170.661 20.041 169.863 20.993 168.617 20.993C167.413 20.993 166.601 19.999 166.601 18.893Z" fill="white"/>
</svg>
