<svg width="182" height="35" viewBox="0 0 182 35" fill="none" xmlns="http://www.w3.org/2000/svg">
<path d="M7.525 32H12.425V11.91H19.425V7.5H0.525V11.91H7.525V32ZM22.0609 32H26.7859V13.8H22.0609V32ZM21.5709 9.495C21.5709 11.035 22.7959 12.295 24.4059 12.295C26.0509 12.295 27.2409 11.07 27.2409 9.495C27.2409 7.99 26.0509 6.73 24.4059 6.73C22.7959 6.73 21.5709 7.99 21.5709 9.495ZM30.2805 32H35.0055V22.025C35.0055 18.875 36.7905 17.51 38.7855 17.51C41.1305 17.51 42.7055 18.875 42.7055 22.025V32H47.4305V22.025C47.4305 18.525 48.9355 17.51 51.1405 17.51C53.2755 17.51 54.7805 18.875 54.7805 22.025V32H59.5055V20.87C59.5055 16.285 56.4955 13.38 52.5755 13.38C49.3905 13.38 47.6405 14.605 46.4155 16.81C45.2255 14.605 43.0555 13.38 40.5005 13.38C37.7005 13.38 35.8805 14.43 34.9355 16.46V13.8H30.2805V32ZM71.5509 32.455C75.1559 32.455 78.2009 30.845 79.6709 28.57L75.9959 25.805C75.1559 27.205 73.5809 28.255 71.5509 28.255C69.1709 28.255 67.5609 26.75 67.0359 24.615H80.6509C80.7559 24.02 80.7909 23.46 80.7909 22.935C80.7909 17.685 77.0109 13.345 71.5509 13.345C66.0909 13.345 62.1359 17.685 62.1359 22.935C62.1359 28.185 65.9159 32.455 71.5509 32.455ZM67.0359 21.08C67.5609 18.91 69.2409 17.405 71.4809 17.405C73.7909 17.405 75.5059 19.05 76.0309 21.08H67.0359Z" fill="#1C274C"/>
<rect opacity="0.3" x="102" y="10" width="2" height="15" rx="1" fill="#1C274C"/>
<rect x="124" y="2.29883" width="57.495" height="30.402" rx="15.201" fill="#1C274C"/>
<path d="M139 22.5188H142.654C144.782 22.5188 146.126 21.4548 146.126 19.8168C146.126 18.5988 145.594 17.7308 143.998 17.3528C145.202 16.9048 145.58 16.2328 145.58 15.2948C145.58 13.7688 144.432 12.7188 142.304 12.7188H139V22.5188ZM140.96 20.7548V18.3608H142.472C143.536 18.3608 144.138 18.7948 144.138 19.5088C144.138 20.3628 143.536 20.7548 142.472 20.7548H140.96ZM140.96 16.7648V14.4688H142.122C143.186 14.4688 143.592 14.9308 143.592 15.6028C143.592 16.3868 143.186 16.7648 142.122 16.7648H140.96Z" fill="white"/>
<path d="M150.709 22.7008C152.963 22.7008 154.587 20.9928 154.587 18.8928C154.587 16.7928 152.963 15.0708 150.709 15.0708C148.455 15.0708 146.831 16.7928 146.831 18.8928C146.831 20.9928 148.455 22.7008 150.709 22.7008ZM148.721 18.8928C148.721 17.7588 149.505 16.7928 150.709 16.7928C151.913 16.7928 152.697 17.7588 152.697 18.8928C152.697 20.0268 151.913 20.9788 150.709 20.9788C149.505 20.9788 148.721 20.0268 148.721 18.8928Z" fill="white"/>
<path d="M155.703 22.5188H157.593V12.2988H155.703V22.5188Z" fill="white"/>
<path d="M162.309 22.7008C163.611 22.7008 164.269 22.1548 164.661 21.3288V22.5188H166.495V12.2988H164.605V16.3588C164.213 15.5888 163.555 15.0848 162.309 15.0848C160.307 15.0848 158.711 16.8068 158.711 18.9068C158.711 21.0068 160.307 22.7008 162.309 22.7008ZM160.601 18.8928C160.601 17.7588 161.413 16.7928 162.617 16.7928C163.863 16.7928 164.661 17.7728 164.661 18.9068C164.661 20.0408 163.863 20.9928 162.617 20.9928C161.413 20.9928 160.601 19.9988 160.601 18.8928Z" fill="white"/>
</svg>
