<svg width="210" height="35" viewBox="0 0 210 35" fill="none" xmlns="http://www.w3.org/2000/svg">
<path d="M9.73 32.455C15.295 32.455 18.69 29.445 18.69 25C18.69 19.4 13.65 18.14 10.78 17.23C8.645 16.565 6.895 15.97 6.895 14.15C6.895 12.505 8.33 11.455 10.29 11.455C12.11 11.455 13.23 12.33 14.42 14.22L18.62 11.63C16.8 8.76 14.35 7.08 10.535 7.08C5.355 7.08 1.89 9.985 1.89 14.395C1.89 18.105 4.305 20.31 8.085 21.29C11.095 22.06 13.685 22.83 13.685 25.28C13.685 26.96 12.285 28.08 10.01 28.08C7.875 28.08 5.845 26.995 4.585 24.475L0.35 27.17C2.485 30.915 5.845 32.455 9.73 32.455ZM30.0573 32.455C33.6273 32.455 36.1473 31.16 37.8623 28.955L34.4323 25.98C33.4873 27.24 32.2973 28.15 30.4773 28.15C27.4673 28.15 25.4023 25.735 25.4023 22.9C25.4023 20.065 27.3623 17.65 30.3723 17.65C31.9823 17.65 33.3823 18.455 34.2223 19.715L37.8623 16.74C36.3223 14.605 33.6273 13.31 30.3023 13.345C24.7373 13.38 20.6773 17.615 20.6773 22.9C20.6773 28.185 24.8423 32.455 30.0573 32.455ZM40.4318 32H45.1568V22.025C45.1568 18.875 46.9418 17.51 48.9368 17.51C51.2818 17.51 52.8568 18.875 52.8568 22.025V32H57.5818V20.87C57.5818 16.285 54.5718 13.38 50.6518 13.38C47.9218 13.38 46.1368 14.36 45.1568 16.32V6.45H40.4318V32ZM69.9169 32.455C75.5519 32.455 79.6119 28.185 79.6119 22.935C79.6119 17.685 75.5519 13.38 69.9169 13.38C64.2819 13.38 60.2219 17.685 60.2219 22.935C60.2219 28.185 64.2819 32.455 69.9169 32.455ZM64.9469 22.935C64.9469 20.1 66.9069 17.685 69.9169 17.685C72.9269 17.685 74.8869 20.1 74.8869 22.935C74.8869 25.77 72.9269 28.15 69.9169 28.15C66.9069 28.15 64.9469 25.77 64.9469 22.935ZM91.2272 32.455C96.8622 32.455 100.922 28.185 100.922 22.935C100.922 17.685 96.8622 13.38 91.2272 13.38C85.5922 13.38 81.5322 17.685 81.5322 22.935C81.5322 28.185 85.5922 32.455 91.2272 32.455ZM86.2572 22.935C86.2572 20.1 88.2172 17.685 91.2272 17.685C94.2372 17.685 96.1972 20.1 96.1972 22.935C96.1972 25.77 94.2372 28.15 91.2272 28.15C88.2172 28.15 86.2572 25.77 86.2572 22.935ZM103.713 32H108.438V6.45H103.713V32Z" fill="#1C274C"/>
<rect opacity="0.3" x="130" y="10" width="2" height="15" rx="1" fill="#1C274C"/>
<rect x="152" y="2.29895" width="57.495" height="30.402" rx="15.201" fill="#1C274C"/>
<path d="M167 22.519H170.654C172.782 22.519 174.126 21.455 174.126 19.817C174.126 18.599 173.594 17.731 171.998 17.353C173.202 16.905 173.58 16.2329 173.58 15.295C173.58 13.769 172.432 12.7189 170.304 12.7189H167V22.519ZM168.96 20.755V18.3609H170.472C171.536 18.3609 172.138 18.795 172.138 19.509C172.138 20.363 171.536 20.755 170.472 20.755H168.96ZM168.96 16.765V14.4689H170.122C171.186 14.4689 171.592 14.9309 171.592 15.603C171.592 16.387 171.186 16.765 170.122 16.765H168.96Z" fill="white"/>
<path d="M178.709 22.701C180.963 22.701 182.587 20.993 182.587 18.893C182.587 16.793 180.963 15.071 178.709 15.071C176.455 15.071 174.831 16.793 174.831 18.893C174.831 20.993 176.455 22.701 178.709 22.701ZM176.721 18.893C176.721 17.759 177.505 16.793 178.709 16.793C179.913 16.793 180.697 17.759 180.697 18.893C180.697 20.027 179.913 20.979 178.709 20.979C177.505 20.979 176.721 20.027 176.721 18.893Z" fill="white"/>
<path d="M183.703 22.519H185.593V12.299H183.703V22.519Z" fill="white"/>
<path d="M190.309 22.701C191.611 22.701 192.269 22.155 192.661 21.329V22.519H194.495V12.299H192.605V16.359C192.213 15.589 191.555 15.085 190.309 15.085C188.307 15.085 186.711 16.8069 186.711 18.9069C186.711 21.007 188.307 22.701 190.309 22.701ZM188.601 18.893C188.601 17.759 189.413 16.793 190.617 16.793C191.863 16.793 192.661 17.773 192.661 18.9069C192.661 20.041 191.863 20.993 190.617 20.993C189.413 20.993 188.601 19.999 188.601 18.893Z" fill="white"/>
</svg>
