<svg width="331" height="37" viewBox="0 0 331 37" fill="none" xmlns="http://www.w3.org/2000/svg">
<path d="M1.75 32H16.17V27.59H6.65V21.675H15.925V17.405H6.65V11.91H16.1V7.5H1.75V32ZM25.8642 32.455C29.8892 32.455 32.9342 29.935 32.9342 26.575C32.9342 23.845 31.7092 21.885 26.4242 20.52C24.2542 19.96 23.9742 19.4 23.9742 18.77C23.9742 17.65 24.9542 17.16 26.2492 17.16C27.4742 17.16 28.5942 17.72 29.4692 19.12L32.8992 16.495C31.0442 14.08 29.0842 13.345 26.1442 13.345C21.8742 13.345 19.3542 15.725 19.3542 18.91C19.3542 21.22 20.0892 23.425 24.9542 24.58C27.8242 25.245 28.2792 25.77 28.2792 26.715C28.2792 27.8 27.3692 28.605 25.7592 28.605C24.2192 28.605 22.8192 27.87 21.4892 26.365L18.3042 29.27C20.2992 31.405 22.7842 32.455 25.8642 32.455ZM41.7058 32.455C45.7308 32.455 48.7758 29.935 48.7758 26.575C48.7758 23.845 47.5508 21.885 42.2658 20.52C40.0958 19.96 39.8158 19.4 39.8158 18.77C39.8158 17.65 40.7958 17.16 42.0908 17.16C43.3158 17.16 44.4358 17.72 45.3108 19.12L48.7408 16.495C46.8858 14.08 44.9258 13.345 41.9858 13.345C37.7158 13.345 35.1958 15.725 35.1958 18.91C35.1958 21.22 35.9308 23.425 40.7958 24.58C43.6658 25.245 44.1208 25.77 44.1208 26.715C44.1208 27.8 43.2108 28.605 41.6008 28.605C40.0608 28.605 38.6608 27.87 37.3308 26.365L34.1458 29.27C36.1408 31.405 38.6258 32.455 41.7058 32.455ZM60.0324 32.455C63.6374 32.455 66.6824 30.845 68.1524 28.57L64.4774 25.805C63.6374 27.205 62.0624 28.255 60.0324 28.255C57.6524 28.255 56.0424 26.75 55.5174 24.615H69.1324C69.2374 24.02 69.2724 23.46 69.2724 22.935C69.2724 17.685 65.4924 13.345 60.0324 13.345C54.5724 13.345 50.6174 17.685 50.6174 22.935C50.6174 28.185 54.3974 32.455 60.0324 32.455ZM55.5174 21.08C56.0424 18.91 57.7224 17.405 59.9624 17.405C62.2724 17.405 63.9874 19.05 64.5124 21.08H55.5174ZM72.0467 32H76.7717V22.025C76.7717 18.875 78.5567 17.51 80.5517 17.51C82.8967 17.51 84.4717 18.875 84.4717 22.025V32H89.1967V20.87C89.1967 16.285 86.1867 13.38 82.2667 13.38C79.4667 13.38 77.6467 14.43 76.7017 16.46V13.8H72.0467V32ZM99.1241 32H101.714V27.8H99.7541C98.8441 27.8 98.2841 27.275 98.2841 26.12V17.825H102.134V13.8H98.2841V9.635L93.5591 10.125V13.8H91.0041V17.825H93.5591V26.365C93.5591 30.32 95.5191 32 99.1241 32ZM104.413 32H109.138V13.8H104.413V32ZM103.923 9.495C103.923 11.035 105.148 12.295 106.758 12.295C108.403 12.295 109.593 11.07 109.593 9.495C109.593 7.99 108.403 6.73 106.758 6.73C105.148 6.73 103.923 7.99 103.923 9.495ZM121.628 32.455C127.263 32.455 131.323 28.185 131.323 22.935C131.323 17.685 127.263 13.38 121.628 13.38C115.993 13.38 111.933 17.685 111.933 22.935C111.933 28.185 115.993 32.455 121.628 32.455ZM116.658 22.935C116.658 20.1 118.618 17.685 121.628 17.685C124.638 17.685 126.598 20.1 126.598 22.935C126.598 25.77 124.638 28.15 121.628 28.15C118.618 28.15 116.658 25.77 116.658 22.935ZM134.114 32H138.839V22.025C138.839 18.875 140.624 17.51 142.619 17.51C144.964 17.51 146.539 18.875 146.539 22.025V32H151.264V20.87C151.264 16.285 148.254 13.38 144.334 13.38C141.534 13.38 139.714 14.43 138.769 16.46V13.8H134.114V32ZM162.899 32.455C166.154 32.455 167.799 31.09 168.779 29.025V32H173.364V13.8H168.674V16.67C167.694 14.71 166.049 13.415 162.899 13.415C157.894 13.415 153.904 17.72 153.904 22.97C153.904 28.22 157.894 32.455 162.899 32.455ZM158.629 22.935C158.629 20.1 160.659 17.685 163.669 17.685C166.784 17.685 168.779 20.135 168.779 22.97C168.779 25.805 166.784 28.185 163.669 28.185C160.659 28.185 158.629 25.7 158.629 22.935ZM176.872 32H181.597V6.45H176.872V32ZM185.791 36.865L186.771 36.515C189.361 35.605 191.111 33.54 191.111 30.845C191.111 28.325 189.711 26.785 187.611 26.785C186.071 26.785 184.741 28.045 184.741 29.55C184.741 31.09 186.071 32.35 187.471 32.35C187.751 32.35 187.996 32.315 188.276 32.245C187.961 33.19 187.261 33.68 185.826 34.17L184.846 34.52L185.791 36.865ZM210.273 32.455C216.258 32.455 220.178 28.535 220.178 22.935V7.5H215.278V22.41C215.278 25.875 213.633 27.975 210.273 27.975C206.913 27.975 205.268 25.875 205.268 22.41V7.5H200.368V22.935C200.368 28.535 204.288 32.455 210.273 32.455ZM224.045 32H228.945V7.5H224.045V32Z" fill="#1C274C"/>
<rect opacity="0.3" x="251" y="10" width="2" height="15" rx="1" fill="#1C274C"/>
<rect x="273" y="2.29883" width="57.495" height="30.402" rx="15.201" fill="#1C274C"/>
<path d="M288 22.5188H291.654C293.782 22.5188 295.126 21.4548 295.126 19.8168C295.126 18.5988 294.594 17.7308 292.998 17.3528C294.202 16.9048 294.58 16.2328 294.58 15.2948C294.58 13.7688 293.432 12.7188 291.304 12.7188H288V22.5188ZM289.96 20.7548V18.3608H291.472C292.536 18.3608 293.138 18.7948 293.138 19.5088C293.138 20.3628 292.536 20.7548 291.472 20.7548H289.96ZM289.96 16.7648V14.4688H291.122C292.186 14.4688 292.592 14.9308 292.592 15.6028C292.592 16.3868 292.186 16.7648 291.122 16.7648H289.96Z" fill="white"/>
<path d="M299.709 22.7008C301.963 22.7008 303.587 20.9928 303.587 18.8928C303.587 16.7928 301.963 15.0708 299.709 15.0708C297.455 15.0708 295.831 16.7928 295.831 18.8928C295.831 20.9928 297.455 22.7008 299.709 22.7008ZM297.721 18.8928C297.721 17.7588 298.505 16.7928 299.709 16.7928C300.913 16.7928 301.697 17.7588 301.697 18.8928C301.697 20.0268 300.913 20.9788 299.709 20.9788C298.505 20.9788 297.721 20.0268 297.721 18.8928Z" fill="white"/>
<path d="M304.703 22.5188H306.593V12.2988H304.703V22.5188Z" fill="white"/>
<path d="M311.309 22.7008C312.611 22.7008 313.269 22.1548 313.661 21.3288V22.5188H315.495V12.2988H313.605V16.3588C313.213 15.5888 312.555 15.0848 311.309 15.0848C309.307 15.0848 307.711 16.8068 307.711 18.9068C307.711 21.0068 309.307 22.7008 311.309 22.7008ZM309.601 18.8928C309.601 17.7588 310.413 16.7928 311.617 16.7928C312.863 16.7928 313.661 17.7728 313.661 18.9068C313.661 20.0408 312.863 20.9928 311.617 20.9928C310.413 20.9928 309.601 19.9988 309.601 18.8928Z" fill="white"/>
</svg>
