<svg width="355" height="40" viewBox="0 0 355 40" fill="none" xmlns="http://www.w3.org/2000/svg">
<path d="M7.525 32H12.425V11.91H19.425V7.5H0.525V11.91H7.525V32ZM25.9908 32.455C29.5958 32.455 32.6408 30.845 34.1108 28.57L30.4358 25.805C29.5958 27.205 28.0208 28.255 25.9908 28.255C23.6108 28.255 22.0008 26.75 21.4758 24.615H35.0908C35.1958 24.02 35.2308 23.46 35.2308 22.935C35.2308 17.685 31.4508 13.345 25.9908 13.345C20.5308 13.345 16.5758 17.685 16.5758 22.935C16.5758 28.185 20.3558 32.455 25.9908 32.455ZM21.4758 21.08C22.0008 18.91 23.6808 17.405 25.9208 17.405C28.2308 17.405 29.9458 19.05 30.4708 21.08H21.4758ZM34.5119 32H40.1469L44.2419 26.19L48.1969 32H53.9369L47.1119 22.97L53.5869 13.8H48.0569L44.2069 19.575L40.4969 13.8H34.8619L41.3369 22.9L34.5119 32ZM62.5874 32H65.1774V27.8H63.2174C62.3074 27.8 61.7474 27.275 61.7474 26.12V17.825H65.5974V13.8H61.7474V9.635L57.0224 10.125V13.8H54.4674V17.825H57.0224V26.365C57.0224 30.32 58.9824 32 62.5874 32ZM74.6689 32H79.5689V21.99H88.8789V17.65H79.5689V11.91H89.0539V7.5H74.6689V32ZM101.377 32.455C107.012 32.455 111.072 28.185 111.072 22.935C111.072 17.685 107.012 13.38 101.377 13.38C95.7422 13.38 91.6822 17.685 91.6822 22.935C91.6822 28.185 95.7422 32.455 101.377 32.455ZM96.4072 22.935C96.4072 20.1 98.3672 17.685 101.377 17.685C104.387 17.685 106.347 20.1 106.347 22.935C106.347 25.77 104.387 28.15 101.377 28.15C98.3672 28.15 96.4072 25.77 96.4072 22.935ZM113.863 32H118.588V22.69C118.588 19.645 120.688 17.825 123.418 17.825H124.083V13.38C120.933 13.205 119.078 14.64 118.448 17.265V13.8H113.863V32ZM126.355 32H131.08V22.025C131.08 18.875 132.865 17.51 134.86 17.51C137.205 17.51 138.78 18.875 138.78 22.025V32H143.505V22.025C143.505 18.525 145.01 17.51 147.215 17.51C149.35 17.51 150.855 18.875 150.855 22.025V32H155.58V20.87C155.58 16.285 152.57 13.38 148.65 13.38C145.465 13.38 143.715 14.605 142.49 16.81C141.3 14.605 139.13 13.38 136.575 13.38C133.775 13.38 131.955 14.43 131.01 16.46V13.8H126.355V32ZM167.206 32.455C170.461 32.455 172.106 31.09 173.086 29.025V32H177.671V13.8H172.981V16.67C172.001 14.71 170.356 13.415 167.206 13.415C162.201 13.415 158.211 17.72 158.211 22.97C158.211 28.22 162.201 32.455 167.206 32.455ZM162.936 22.935C162.936 20.1 164.966 17.685 167.976 17.685C171.091 17.685 173.086 20.135 173.086 22.97C173.086 25.805 171.091 28.185 167.976 28.185C164.966 28.185 162.936 25.7 162.936 22.935ZM188.073 32H190.663V27.8H188.703C187.793 27.8 187.233 27.275 187.233 26.12V17.825H191.083V13.8H187.233V9.635L182.508 10.125V13.8H179.953V17.825H182.508V26.365C182.508 30.32 184.468 32 188.073 32ZM200.599 32H203.189V27.8H201.229C200.319 27.8 199.759 27.275 199.759 26.12V17.825H203.609V13.8H199.759V9.635L195.034 10.125V13.8H192.479V17.825H195.034V26.365C195.034 30.32 196.994 32 200.599 32ZM205.889 32H210.614V13.8H205.889V32ZM205.399 9.495C205.399 11.035 206.624 12.295 208.234 12.295C209.879 12.295 211.069 11.07 211.069 9.495C211.069 7.99 209.879 6.73 208.234 6.73C206.624 6.73 205.399 7.99 205.399 9.495ZM214.108 32H218.833V22.025C218.833 18.875 220.618 17.51 222.613 17.51C224.958 17.51 226.533 18.875 226.533 22.025V32H231.258V20.87C231.258 16.285 228.248 13.38 224.328 13.38C221.528 13.38 219.708 14.43 218.763 16.46V13.8H214.108V32ZM243.453 39.455C249.018 39.455 252.938 35.99 252.938 30.39V13.8H248.283V16.285C247.338 14.5 245.728 13.345 242.718 13.345C237.713 13.345 233.898 17.475 233.898 22.725C233.898 27.975 237.713 32.105 242.718 32.105C245.658 32.105 247.233 30.985 248.213 29.305V30.11C248.213 33.015 246.008 35.08 243.488 35.08C241.213 35.08 239.393 34.52 237.678 32.56L234.738 36.025C236.908 38.58 239.778 39.455 243.453 39.455ZM238.623 22.725C238.623 19.89 240.408 17.65 243.488 17.65C246.603 17.65 248.423 19.89 248.423 22.725C248.423 25.56 246.603 27.8 243.488 27.8C240.408 27.8 238.623 25.49 238.623 22.725Z" fill="#1C274C"/>
<rect opacity="0.3" x="275" y="10" width="2" height="15" rx="1" fill="#1C274C"/>
<rect x="297" y="2.29895" width="57.495" height="30.402" rx="15.201" fill="#1C274C"/>
<path d="M312 22.519H315.654C317.782 22.519 319.126 21.455 319.126 19.817C319.126 18.599 318.594 17.731 316.998 17.353C318.202 16.905 318.58 16.2329 318.58 15.295C318.58 13.769 317.432 12.7189 315.304 12.7189H312V22.519ZM313.96 20.755V18.3609H315.472C316.536 18.3609 317.138 18.795 317.138 19.509C317.138 20.363 316.536 20.755 315.472 20.755H313.96ZM313.96 16.765V14.4689H315.122C316.186 14.4689 316.592 14.9309 316.592 15.603C316.592 16.387 316.186 16.765 315.122 16.765H313.96Z" fill="white"/>
<path d="M323.709 22.701C325.963 22.701 327.587 20.993 327.587 18.893C327.587 16.793 325.963 15.071 323.709 15.071C321.455 15.071 319.831 16.793 319.831 18.893C319.831 20.993 321.455 22.701 323.709 22.701ZM321.721 18.893C321.721 17.759 322.505 16.793 323.709 16.793C324.913 16.793 325.697 17.759 325.697 18.893C325.697 20.027 324.913 20.979 323.709 20.979C322.505 20.979 321.721 20.027 321.721 18.893Z" fill="white"/>
<path d="M328.703 22.519H330.593V12.299H328.703V22.519Z" fill="white"/>
<path d="M335.309 22.701C336.611 22.701 337.269 22.155 337.661 21.329V22.519H339.495V12.299H337.605V16.359C337.213 15.589 336.555 15.085 335.309 15.085C333.307 15.085 331.711 16.8069 331.711 18.9069C331.711 21.007 333.307 22.701 335.309 22.701ZM333.601 18.893C333.601 17.759 334.413 16.793 335.617 16.793C336.863 16.793 337.661 17.773 337.661 18.9069C337.661 20.041 336.863 20.993 335.617 20.993C334.413 20.993 333.601 19.999 333.601 18.893Z" fill="white"/>
</svg>
