<svg width="352" height="39" viewBox="0 0 352 39" fill="none" xmlns="http://www.w3.org/2000/svg">
<path d="M1.75 32H6.545V22.095C6.545 18.77 6.44 17.125 6.195 14.99L14.35 32H16.73L24.885 14.99C24.64 17.125 24.535 18.77 24.535 22.095V32H29.33V7.5H23.45L18.34 18.315C16.555 22.095 15.96 23.67 15.645 24.86C15.295 23.67 14.7 22.095 12.915 18.315L7.84 7.5H1.75V32ZM41.4643 32.455C44.7193 32.455 46.3643 31.09 47.3443 29.025V32H51.9293V13.8H47.2393V16.67C46.2593 14.71 44.6143 13.415 41.4643 13.415C36.4593 13.415 32.4693 17.72 32.4693 22.97C32.4693 28.22 36.4593 32.455 41.4643 32.455ZM37.1943 22.935C37.1943 20.1 39.2243 17.685 42.2343 17.685C45.3493 17.685 47.3443 20.135 47.3443 22.97C47.3443 25.805 45.3493 28.185 42.2343 28.185C39.2243 28.185 37.1943 25.7 37.1943 22.935ZM55.4367 39H60.1617V29.305C61.1417 31.195 62.7867 32.455 65.9017 32.455C70.9067 32.455 74.8967 28.22 74.8967 22.97C74.8967 17.72 70.9067 13.415 65.9017 13.415C62.7167 13.415 61.0717 14.745 60.0917 16.74V13.8H55.4367V39ZM60.0217 22.97C60.0217 20.135 62.0167 17.685 65.1317 17.685C68.1417 17.685 70.1717 20.1 70.1717 22.935C70.1717 25.7 68.1417 28.185 65.1317 28.185C62.0167 28.185 60.0217 25.805 60.0217 22.97ZM91.3637 32.455C93.8137 32.455 96.1587 31.3 97.1037 30.495L97.9787 29.725L99.6237 32H105.014L101.059 27.1L104.314 24.51L101.759 21.255L98.4687 23.95L94.5487 19.12L95.9487 18.175C98.5387 16.46 98.9937 14.885 98.9937 12.96C98.9937 9.425 95.8087 7.045 92.3787 7.045C88.7037 7.045 85.6937 9.425 85.6937 12.96C85.6937 14.885 86.3237 16.11 87.5837 17.615L88.0737 18.21L87.5487 18.525C85.3437 19.82 83.4887 22.06 83.4887 25.21C83.4887 29.095 86.3237 32.455 91.3637 32.455ZM88.2837 24.965C88.2837 23.705 88.9487 22.795 89.9987 22.095L90.8387 21.535L95.0037 26.61L94.7937 26.785C93.4987 27.765 92.6937 28.15 91.2937 28.15C89.4037 28.15 88.2837 26.575 88.2837 24.965ZM90.3137 12.925C90.3137 11.735 91.2587 10.895 92.5187 10.895C93.6387 10.895 94.5487 11.735 94.5487 12.925C94.5487 14.01 94.0937 14.745 92.3787 15.725L91.9937 15.97L91.2237 15.025C90.4537 14.08 90.3137 13.59 90.3137 12.925ZM113.377 32H127.412V27.59H118.277V7.5H113.377V32ZM138.308 32.455C143.943 32.455 148.003 28.185 148.003 22.935C148.003 17.685 143.943 13.38 138.308 13.38C132.673 13.38 128.613 17.685 128.613 22.935C128.613 28.185 132.673 32.455 138.308 32.455ZM133.338 22.935C133.338 20.1 135.298 17.685 138.308 17.685C141.318 17.685 143.278 20.1 143.278 22.935C143.278 25.77 141.318 28.15 138.308 28.15C135.298 28.15 133.338 25.77 133.338 22.935ZM159.303 32.455C162.873 32.455 165.393 31.16 167.108 28.955L163.678 25.98C162.733 27.24 161.543 28.15 159.723 28.15C156.713 28.15 154.648 25.735 154.648 22.9C154.648 20.065 156.608 17.65 159.618 17.65C161.228 17.65 162.628 18.455 163.468 19.715L167.108 16.74C165.568 14.605 162.873 13.31 159.548 13.345C153.983 13.38 149.923 17.615 149.923 22.9C149.923 28.185 154.088 32.455 159.303 32.455ZM176.81 32.455C180.065 32.455 181.71 31.09 182.69 29.025V32H187.275V13.8H182.585V16.67C181.605 14.71 179.96 13.415 176.81 13.415C171.805 13.415 167.815 17.72 167.815 22.97C167.815 28.22 171.805 32.455 176.81 32.455ZM172.54 22.935C172.54 20.1 174.57 17.685 177.58 17.685C180.695 17.685 182.69 20.135 182.69 22.97C182.69 25.805 180.695 28.185 177.58 28.185C174.57 28.185 172.54 25.7 172.54 22.935ZM197.678 32H200.268V27.8H198.308C197.398 27.8 196.838 27.275 196.838 26.12V17.825H200.688V13.8H196.838V9.635L192.113 10.125V13.8H189.558V17.825H192.113V26.365C192.113 30.32 194.073 32 197.678 32ZM202.967 32H207.692V13.8H202.967V32ZM202.477 9.495C202.477 11.035 203.702 12.295 205.312 12.295C206.957 12.295 208.147 11.07 208.147 9.495C208.147 7.99 206.957 6.73 205.312 6.73C203.702 6.73 202.477 7.99 202.477 9.495ZM220.182 32.455C225.817 32.455 229.877 28.185 229.877 22.935C229.877 17.685 225.817 13.38 220.182 13.38C214.547 13.38 210.487 17.685 210.487 22.935C210.487 28.185 214.547 32.455 220.182 32.455ZM215.212 22.935C215.212 20.1 217.172 17.685 220.182 17.685C223.192 17.685 225.152 20.1 225.152 22.935C225.152 25.77 223.192 28.15 220.182 28.15C217.172 28.15 215.212 25.77 215.212 22.935ZM232.668 32H237.393V22.025C237.393 18.875 239.178 17.51 241.173 17.51C243.518 17.51 245.093 18.875 245.093 22.025V32H249.818V20.87C249.818 16.285 246.808 13.38 242.888 13.38C240.088 13.38 238.268 14.43 237.323 16.46V13.8H232.668V32Z" fill="#1C274C"/>
<rect opacity="0.3" x="272" y="10" width="2" height="15" rx="1" fill="#1C274C"/>
<rect x="294" y="2.29883" width="57.495" height="30.402" rx="15.201" fill="#1C274C"/>
<path d="M309 22.5188H312.654C314.782 22.5188 316.126 21.4548 316.126 19.8168C316.126 18.5988 315.594 17.7308 313.998 17.3528C315.202 16.9048 315.58 16.2328 315.58 15.2948C315.58 13.7688 314.432 12.7188 312.304 12.7188H309V22.5188ZM310.96 20.7548V18.3608H312.472C313.536 18.3608 314.138 18.7948 314.138 19.5088C314.138 20.3628 313.536 20.7548 312.472 20.7548H310.96ZM310.96 16.7648V14.4688H312.122C313.186 14.4688 313.592 14.9308 313.592 15.6028C313.592 16.3868 313.186 16.7648 312.122 16.7648H310.96Z" fill="white"/>
<path d="M320.709 22.7008C322.963 22.7008 324.587 20.9928 324.587 18.8928C324.587 16.7928 322.963 15.0708 320.709 15.0708C318.455 15.0708 316.831 16.7928 316.831 18.8928C316.831 20.9928 318.455 22.7008 320.709 22.7008ZM318.721 18.8928C318.721 17.7588 319.505 16.7928 320.709 16.7928C321.913 16.7928 322.697 17.7588 322.697 18.8928C322.697 20.0268 321.913 20.9788 320.709 20.9788C319.505 20.9788 318.721 20.0268 318.721 18.8928Z" fill="white"/>
<path d="M325.703 22.5188H327.593V12.2988H325.703V22.5188Z" fill="white"/>
<path d="M332.309 22.7008C333.611 22.7008 334.269 22.1548 334.661 21.3288V22.5188H336.495V12.2988H334.605V16.3588C334.213 15.5888 333.555 15.0848 332.309 15.0848C330.307 15.0848 328.711 16.8068 328.711 18.9068C328.711 21.0068 330.307 22.7008 332.309 22.7008ZM330.601 18.8928C330.601 17.7588 331.413 16.7928 332.617 16.7928C333.863 16.7928 334.661 17.7728 334.661 18.9068C334.661 20.0408 333.863 20.9928 332.617 20.9928C331.413 20.9928 330.601 19.9988 330.601 18.8928Z" fill="white"/>
</svg>
