<svg width="381" height="37" viewBox="0 0 381 37" fill="none" xmlns="http://www.w3.org/2000/svg">
<path d="M1.75 32H10.885C16.205 32 19.565 29.34 19.565 25.245C19.565 22.2 18.235 20.03 14.245 19.085C17.255 17.965 18.2 16.285 18.2 13.94C18.2 10.125 15.33 7.5 10.01 7.5H1.75V32ZM6.65 27.59V21.605H10.43C13.09 21.605 14.595 22.69 14.595 24.475C14.595 26.61 13.09 27.59 10.43 27.59H6.65ZM6.65 17.615V11.875H9.555C12.215 11.875 13.23 13.03 13.23 14.71C13.23 16.67 12.215 17.615 9.555 17.615H6.65ZM28.9527 32.42C31.7877 32.42 33.4327 31.37 34.3077 29.27V32H38.8927V13.8H34.1677V23.775C34.1677 26.925 32.3827 28.29 30.3877 28.29C28.0427 28.29 26.7477 26.925 26.7477 23.775V13.8H22.0227V24.93C22.0227 29.515 25.0327 32.42 28.9527 32.42ZM48.6101 32.455C52.6351 32.455 55.6801 29.935 55.6801 26.575C55.6801 23.845 54.4551 21.885 49.1701 20.52C47.0001 19.96 46.7201 19.4 46.7201 18.77C46.7201 17.65 47.7001 17.16 48.9951 17.16C50.2201 17.16 51.3401 17.72 52.2151 19.12L55.6451 16.495C53.7901 14.08 51.8301 13.345 48.8901 13.345C44.6201 13.345 42.1001 15.725 42.1001 18.91C42.1001 21.22 42.8351 23.425 47.7001 24.58C50.5701 25.245 51.0251 25.77 51.0251 26.715C51.0251 27.8 50.1151 28.605 48.5051 28.605C46.9651 28.605 45.5651 27.87 44.2351 26.365L41.0501 29.27C43.0451 31.405 45.5301 32.455 48.6101 32.455ZM58.2217 32H62.9467V13.8H58.2217V32ZM57.7317 9.495C57.7317 11.035 58.9567 12.295 60.5667 12.295C62.2117 12.295 63.4017 11.07 63.4017 9.495C63.4017 7.99 62.2117 6.73 60.5667 6.73C58.9567 6.73 57.7317 7.99 57.7317 9.495ZM66.4412 32H71.1662V22.025C71.1662 18.875 72.9512 17.51 74.9462 17.51C77.2912 17.51 78.8662 18.875 78.8662 22.025V32H83.5912V20.87C83.5912 16.285 80.5812 13.38 76.6612 13.38C73.8612 13.38 72.0412 14.43 71.0962 16.46V13.8H66.4412V32ZM95.6463 32.455C99.2513 32.455 102.296 30.845 103.766 28.57L100.091 25.805C99.2513 27.205 97.6763 28.255 95.6463 28.255C93.2663 28.255 91.6563 26.75 91.1313 24.615H104.746C104.851 24.02 104.886 23.46 104.886 22.935C104.886 17.685 101.106 13.345 95.6463 13.345C90.1863 13.345 86.2313 17.685 86.2313 22.935C86.2313 28.185 90.0113 32.455 95.6463 32.455ZM91.1313 21.08C91.6563 18.91 93.3363 17.405 95.5763 17.405C97.8863 17.405 99.6013 19.05 100.126 21.08H91.1313ZM113.378 32.455C117.403 32.455 120.448 29.935 120.448 26.575C120.448 23.845 119.223 21.885 113.938 20.52C111.768 19.96 111.488 19.4 111.488 18.77C111.488 17.65 112.468 17.16 113.763 17.16C114.988 17.16 116.108 17.72 116.983 19.12L120.413 16.495C118.558 14.08 116.598 13.345 113.658 13.345C109.388 13.345 106.868 15.725 106.868 18.91C106.868 21.22 107.603 23.425 112.468 24.58C115.338 25.245 115.793 25.77 115.793 26.715C115.793 27.8 114.883 28.605 113.273 28.605C111.733 28.605 110.333 27.87 109.003 26.365L105.818 29.27C107.813 31.405 110.298 32.455 113.378 32.455ZM129.219 32.455C133.244 32.455 136.289 29.935 136.289 26.575C136.289 23.845 135.064 21.885 129.779 20.52C127.609 19.96 127.329 19.4 127.329 18.77C127.329 17.65 128.309 17.16 129.604 17.16C130.829 17.16 131.949 17.72 132.824 19.12L136.254 16.495C134.399 14.08 132.439 13.345 129.499 13.345C125.229 13.345 122.709 15.725 122.709 18.91C122.709 21.22 123.444 23.425 128.309 24.58C131.179 25.245 131.634 25.77 131.634 26.715C131.634 27.8 130.724 28.605 129.114 28.605C127.574 28.605 126.174 27.87 124.844 26.365L121.659 29.27C123.654 31.405 126.139 32.455 129.219 32.455ZM139.121 36.865L140.101 36.515C142.691 35.605 144.441 33.54 144.441 30.845C144.441 28.325 143.041 26.785 140.941 26.785C139.401 26.785 138.071 28.045 138.071 29.55C138.071 31.09 139.401 32.35 140.801 32.35C141.081 32.35 141.326 32.315 141.606 32.245C141.291 33.19 140.591 33.68 139.156 34.17L138.176 34.52L139.121 36.865ZM161.618 32.455C167.183 32.455 170.578 29.445 170.578 25C170.578 19.4 165.538 18.14 162.668 17.23C160.533 16.565 158.783 15.97 158.783 14.15C158.783 12.505 160.218 11.455 162.178 11.455C163.998 11.455 165.118 12.33 166.308 14.22L170.508 11.63C168.688 8.76 166.238 7.08 162.423 7.08C157.243 7.08 153.778 9.985 153.778 14.395C153.778 18.105 156.193 20.31 159.973 21.29C162.983 22.06 165.573 22.83 165.573 25.28C165.573 26.96 164.173 28.08 161.898 28.08C159.763 28.08 157.733 26.995 156.473 24.475L152.238 27.17C154.373 30.915 157.733 32.455 161.618 32.455ZM179.989 32H182.579V27.8H180.619C179.709 27.8 179.149 27.275 179.149 26.12V17.825H182.999V13.8H179.149V9.635L174.424 10.125V13.8H171.869V17.825H174.424V26.365C174.424 30.32 176.384 32 179.989 32ZM193.095 32.455C196.35 32.455 197.995 31.09 198.975 29.025V32H203.56V13.8H198.87V16.67C197.89 14.71 196.245 13.415 193.095 13.415C188.09 13.415 184.1 17.72 184.1 22.97C184.1 28.22 188.09 32.455 193.095 32.455ZM188.825 22.935C188.825 20.1 190.855 17.685 193.865 17.685C196.98 17.685 198.975 20.135 198.975 22.97C198.975 25.805 196.98 28.185 193.865 28.185C190.855 28.185 188.825 25.7 188.825 22.935ZM213.962 32H216.552V27.8H214.592C213.682 27.8 213.122 27.275 213.122 26.12V17.825H216.972V13.8H213.122V9.635L208.397 10.125V13.8H205.842V17.825H208.397V26.365C208.397 30.32 210.357 32 213.962 32ZM219.252 32H223.977V13.8H219.252V32ZM218.762 9.495C218.762 11.035 219.987 12.295 221.597 12.295C223.242 12.295 224.432 11.07 224.432 9.495C224.432 7.99 223.242 6.73 221.597 6.73C219.987 6.73 218.762 7.99 218.762 9.495ZM233.701 32.455C237.726 32.455 240.771 29.935 240.771 26.575C240.771 23.845 239.546 21.885 234.261 20.52C232.091 19.96 231.811 19.4 231.811 18.77C231.811 17.65 232.791 17.16 234.086 17.16C235.311 17.16 236.431 17.72 237.306 19.12L240.736 16.495C238.881 14.08 236.921 13.345 233.981 13.345C229.711 13.345 227.191 15.725 227.191 18.91C227.191 21.22 227.926 23.425 232.791 24.58C235.661 25.245 236.116 25.77 236.116 26.715C236.116 27.8 235.206 28.605 233.596 28.605C232.056 28.605 230.656 27.87 229.326 26.365L226.141 29.27C228.136 31.405 230.621 32.455 233.701 32.455ZM249.9 32H252.49V27.8H250.53C249.62 27.8 249.06 27.275 249.06 26.12V17.825H252.91V13.8H249.06V9.635L244.335 10.125V13.8H241.78V17.825H244.335V26.365C244.335 30.32 246.295 32 249.9 32ZM255.19 32H259.915V13.8H255.19V32ZM254.7 9.495C254.7 11.035 255.925 12.295 257.535 12.295C259.18 12.295 260.37 11.07 260.37 9.495C260.37 7.99 259.18 6.73 257.535 6.73C255.925 6.73 254.7 7.99 254.7 9.495ZM272.089 32.455C275.659 32.455 278.179 31.16 279.894 28.955L276.464 25.98C275.519 27.24 274.329 28.15 272.509 28.15C269.499 28.15 267.434 25.735 267.434 22.9C267.434 20.065 269.394 17.65 272.404 17.65C274.014 17.65 275.414 18.455 276.254 19.715L279.894 16.74C278.354 14.605 275.659 13.31 272.334 13.345C266.769 13.38 262.709 17.615 262.709 22.9C262.709 28.185 266.874 32.455 272.089 32.455Z" fill="#1C274C"/>
<rect opacity="0.3" x="301" y="10" width="2" height="15" rx="1" fill="#1C274C"/>
<rect x="323" y="2.29901" width="57.495" height="30.402" rx="15.201" fill="#1C274C"/>
<path d="M338 22.519H341.654C343.782 22.519 345.126 21.455 345.126 19.817C345.126 18.599 344.594 17.731 342.998 17.353C344.202 16.905 344.58 16.233 344.58 15.295C344.58 13.769 343.432 12.719 341.304 12.719H338V22.519ZM339.96 20.755V18.361H341.472C342.536 18.361 343.138 18.795 343.138 19.509C343.138 20.363 342.536 20.755 341.472 20.755H339.96ZM339.96 16.765V14.469H341.122C342.186 14.469 342.592 14.931 342.592 15.603C342.592 16.387 342.186 16.765 341.122 16.765H339.96Z" fill="white"/>
<path d="M349.709 22.701C351.963 22.701 353.587 20.993 353.587 18.893C353.587 16.793 351.963 15.071 349.709 15.071C347.455 15.071 345.831 16.793 345.831 18.893C345.831 20.993 347.455 22.701 349.709 22.701ZM347.721 18.893C347.721 17.759 348.505 16.793 349.709 16.793C350.913 16.793 351.697 17.759 351.697 18.893C351.697 20.027 350.913 20.979 349.709 20.979C348.505 20.979 347.721 20.027 347.721 18.893Z" fill="white"/>
<path d="M354.703 22.519H356.593V12.299H354.703V22.519Z" fill="white"/>
<path d="M361.309 22.701C362.611 22.701 363.269 22.155 363.661 21.329V22.519H365.495V12.299H363.605V16.359C363.213 15.589 362.555 15.085 361.309 15.085C359.307 15.085 357.711 16.807 357.711 18.907C357.711 21.007 359.307 22.701 361.309 22.701ZM359.601 18.893C359.601 17.759 360.413 16.793 361.617 16.793C362.863 16.793 363.661 17.773 363.661 18.907C363.661 20.041 362.863 20.993 361.617 20.993C360.413 20.993 359.601 19.999 359.601 18.893Z" fill="white"/>
</svg>
