<svg width="426" height="37" viewBox="0 0 426 37" fill="none" xmlns="http://www.w3.org/2000/svg">
<path d="M10.17 32H14.895L24.59 7.5H19.025L13.425 23.075C13.075 24.055 12.76 25.105 12.55 26.155C12.34 25.14 12.025 24.09 11.675 23.075L6.075 7.5H0.405L10.17 32ZM26.2738 32H30.9988V13.8H26.2738V32ZM25.7838 9.495C25.7838 11.035 27.0088 12.295 28.6188 12.295C30.2638 12.295 31.4538 11.07 31.4538 9.495C31.4538 7.99 30.2638 6.73 28.6188 6.73C27.0088 6.73 25.7838 7.99 25.7838 9.495ZM42.7884 32.455C46.0434 32.455 47.6884 31.09 48.6684 29.025V32H53.2534V6.45H48.5284V16.6C47.5484 14.675 45.9034 13.415 42.7884 13.415C37.7834 13.415 33.7934 17.72 33.7934 22.97C33.7934 28.22 37.7834 32.455 42.7884 32.455ZM38.5184 22.935C38.5184 20.1 40.5484 17.685 43.5584 17.685C46.6734 17.685 48.6684 20.135 48.6684 22.97C48.6684 25.805 46.6734 28.185 43.5584 28.185C40.5484 28.185 38.5184 25.7 38.5184 22.935ZM65.4757 32.455C69.0807 32.455 72.1257 30.845 73.5957 28.57L69.9207 25.805C69.0807 27.205 67.5057 28.255 65.4757 28.255C63.0957 28.255 61.4857 26.75 60.9607 24.615H74.5757C74.6807 24.02 74.7157 23.46 74.7157 22.935C74.7157 17.685 70.9357 13.345 65.4757 13.345C60.0157 13.345 56.0607 17.685 56.0607 22.935C56.0607 28.185 59.8407 32.455 65.4757 32.455ZM60.9607 21.08C61.4857 18.91 63.1657 17.405 65.4057 17.405C67.7157 17.405 69.4307 19.05 69.9557 21.08H60.9607ZM86.2458 32.455C91.8808 32.455 95.9408 28.185 95.9408 22.935C95.9408 17.685 91.8808 13.38 86.2458 13.38C80.6108 13.38 76.5508 17.685 76.5508 22.935C76.5508 28.185 80.6108 32.455 86.2458 32.455ZM81.2758 22.935C81.2758 20.1 83.2358 17.685 86.2458 17.685C89.2558 17.685 91.2158 20.1 91.2158 22.935C91.2158 25.77 89.2558 28.15 86.2458 28.15C83.2358 28.15 81.2758 25.77 81.2758 22.935ZM98.7484 36.865L99.7284 36.515C102.318 35.605 104.068 33.54 104.068 30.845C104.068 28.325 102.668 26.785 100.568 26.785C99.0284 26.785 97.6984 28.045 97.6984 29.55C97.6984 31.09 99.0284 32.35 100.428 32.35C100.708 32.35 100.953 32.315 101.233 32.245C100.918 33.19 100.218 33.68 98.7834 34.17L97.8034 34.52L98.7484 36.865ZM111.26 32H116.58L118.26 27.345H128.48L130.16 32H135.48L125.505 7.5H121.27L111.26 32ZM119.87 23.11L122.495 16.425C122.845 15.55 123.125 14.57 123.37 13.625C123.58 14.57 123.895 15.515 124.245 16.425L126.87 23.11H119.87ZM143.442 32.42C146.277 32.42 147.922 31.37 148.797 29.27V32H153.382V13.8H148.657V23.775C148.657 26.925 146.872 28.29 144.877 28.29C142.532 28.29 141.237 26.925 141.237 23.775V13.8H136.512V24.93C136.512 29.515 139.522 32.42 143.442 32.42ZM165.164 32.455C168.419 32.455 170.064 31.09 171.044 29.025V32H175.629V6.45H170.904V16.6C169.924 14.675 168.279 13.415 165.164 13.415C160.159 13.415 156.169 17.72 156.169 22.97C156.169 28.22 160.159 32.455 165.164 32.455ZM160.894 22.935C160.894 20.1 162.924 17.685 165.934 17.685C169.049 17.685 171.044 20.135 171.044 22.97C171.044 25.805 169.049 28.185 165.934 28.185C162.924 28.185 160.894 25.7 160.894 22.935ZM179.136 32H183.861V13.8H179.136V32ZM178.646 9.495C178.646 11.035 179.871 12.295 181.481 12.295C183.126 12.295 184.316 11.07 184.316 9.495C184.316 7.99 183.126 6.73 181.481 6.73C179.871 6.73 178.646 7.99 178.646 9.495ZM196.351 32.455C201.986 32.455 206.046 28.185 206.046 22.935C206.046 17.685 201.986 13.38 196.351 13.38C190.716 13.38 186.656 17.685 186.656 22.935C186.656 28.185 190.716 32.455 196.351 32.455ZM191.381 22.935C191.381 20.1 193.341 17.685 196.351 17.685C199.361 17.685 201.321 20.1 201.321 22.935C201.321 25.77 199.361 28.15 196.351 28.15C193.341 28.15 191.381 25.77 191.381 22.935ZM208.854 36.865L209.834 36.515C212.424 35.605 214.174 33.54 214.174 30.845C214.174 28.325 212.774 26.785 210.674 26.785C209.134 26.785 207.804 28.045 207.804 29.55C207.804 31.09 209.134 32.35 210.534 32.35C210.814 32.35 211.059 32.315 211.339 32.245C211.024 33.19 210.324 33.68 208.889 34.17L207.909 34.52L208.854 36.865ZM231.35 32.455C236.915 32.455 240.31 29.445 240.31 25C240.31 19.4 235.27 18.14 232.4 17.23C230.265 16.565 228.515 15.97 228.515 14.15C228.515 12.505 229.95 11.455 231.91 11.455C233.73 11.455 234.85 12.33 236.04 14.22L240.24 11.63C238.42 8.76 235.97 7.08 232.155 7.08C226.975 7.08 223.51 9.985 223.51 14.395C223.51 18.105 225.925 20.31 229.705 21.29C232.715 22.06 235.305 22.83 235.305 25.28C235.305 26.96 233.905 28.08 231.63 28.08C229.495 28.08 227.465 26.995 226.205 24.475L221.97 27.17C224.105 30.915 227.465 32.455 231.35 32.455ZM251.993 32.455C257.628 32.455 261.688 28.185 261.688 22.935C261.688 17.685 257.628 13.38 251.993 13.38C246.358 13.38 242.298 17.685 242.298 22.935C242.298 28.185 246.358 32.455 251.993 32.455ZM247.023 22.935C247.023 20.1 248.983 17.685 251.993 17.685C255.003 17.685 256.963 20.1 256.963 22.935C256.963 25.77 255.003 28.15 251.993 28.15C248.983 28.15 247.023 25.77 247.023 22.935ZM271.234 32.42C274.069 32.42 275.714 31.37 276.589 29.27V32H281.174V13.8H276.449V23.775C276.449 26.925 274.664 28.29 272.669 28.29C270.324 28.29 269.029 26.925 269.029 23.775V13.8H264.304V24.93C264.304 29.515 267.314 32.42 271.234 32.42ZM284.661 32H289.386V22.025C289.386 18.875 291.171 17.51 293.166 17.51C295.511 17.51 297.086 18.875 297.086 22.025V32H301.811V20.87C301.811 16.285 298.801 13.38 294.881 13.38C292.081 13.38 290.261 14.43 289.316 16.46V13.8H284.661V32ZM313.446 32.455C316.701 32.455 318.346 31.09 319.326 29.025V32H323.911V6.45H319.186V16.6C318.206 14.675 316.561 13.415 313.446 13.415C308.441 13.415 304.451 17.72 304.451 22.97C304.451 28.22 308.441 32.455 313.446 32.455ZM309.176 22.935C309.176 20.1 311.206 17.685 314.216 17.685C317.331 17.685 319.326 20.135 319.326 22.97C319.326 25.805 317.331 28.185 314.216 28.185C311.206 28.185 309.176 25.7 309.176 22.935Z" fill="#1C274C"/>
<rect opacity="0.3" x="346" y="10" width="2" height="15" rx="1" fill="#1C274C"/>
<rect x="368" y="2.29883" width="57.495" height="30.402" rx="15.201" fill="#1C274C"/>
<path d="M383 22.5188H386.654C388.782 22.5188 390.126 21.4548 390.126 19.8168C390.126 18.5988 389.594 17.7308 387.998 17.3528C389.202 16.9048 389.58 16.2328 389.58 15.2948C389.58 13.7688 388.432 12.7188 386.304 12.7188H383V22.5188ZM384.96 20.7548V18.3608H386.472C387.536 18.3608 388.138 18.7948 388.138 19.5088C388.138 20.3628 387.536 20.7548 386.472 20.7548H384.96ZM384.96 16.7648V14.4688H386.122C387.186 14.4688 387.592 14.9308 387.592 15.6028C387.592 16.3868 387.186 16.7648 386.122 16.7648H384.96Z" fill="white"/>
<path d="M394.709 22.7008C396.963 22.7008 398.587 20.9928 398.587 18.8928C398.587 16.7928 396.963 15.0708 394.709 15.0708C392.455 15.0708 390.831 16.7928 390.831 18.8928C390.831 20.9928 392.455 22.7008 394.709 22.7008ZM392.721 18.8928C392.721 17.7588 393.505 16.7928 394.709 16.7928C395.913 16.7928 396.697 17.7588 396.697 18.8928C396.697 20.0268 395.913 20.9788 394.709 20.9788C393.505 20.9788 392.721 20.0268 392.721 18.8928Z" fill="white"/>
<path d="M399.703 22.5188H401.593V12.2988H399.703V22.5188Z" fill="white"/>
<path d="M406.309 22.7008C407.611 22.7008 408.269 22.1548 408.661 21.3288V22.5188H410.495V12.2988H408.605V16.3588C408.213 15.5888 407.555 15.0848 406.309 15.0848C404.307 15.0848 402.711 16.8068 402.711 18.9068C402.711 21.0068 404.307 22.7008 406.309 22.7008ZM404.601 18.8928C404.601 17.7588 405.413 16.7928 406.617 16.7928C407.863 16.7928 408.661 17.7728 408.661 18.9068C408.661 20.0408 407.863 20.9928 406.617 20.9928C405.413 20.9928 404.601 19.9988 404.601 18.8928Z" fill="white"/>
</svg>
