<svg width="204" height="39" viewBox="0 0 204 39" fill="none" xmlns="http://www.w3.org/2000/svg">
<path d="M9.73 32.455C15.295 32.455 18.69 29.445 18.69 25C18.69 19.4 13.65 18.14 10.78 17.23C8.645 16.565 6.895 15.97 6.895 14.15C6.895 12.505 8.33 11.455 10.29 11.455C12.11 11.455 13.23 12.33 14.42 14.22L18.62 11.63C16.8 8.76 14.35 7.08 10.535 7.08C5.355 7.08 1.89 9.985 1.89 14.395C1.89 18.105 4.305 20.31 8.085 21.29C11.095 22.06 13.685 22.83 13.685 25.28C13.685 26.96 12.285 28.08 10.01 28.08C7.875 28.08 5.845 26.995 4.585 24.475L0.35 27.17C2.485 30.915 5.845 32.455 9.73 32.455ZM21.5482 39H26.2732V29.305C27.2532 31.195 28.8982 32.455 32.0132 32.455C37.0182 32.455 41.0082 28.22 41.0082 22.97C41.0082 17.72 37.0182 13.415 32.0132 13.415C28.8282 13.415 27.1832 14.745 26.2032 16.74V13.8H21.5482V39ZM26.1332 22.97C26.1332 20.135 28.1282 17.685 31.2432 17.685C34.2532 17.685 36.2832 20.1 36.2832 22.935C36.2832 25.7 34.2532 28.185 31.2432 28.185C28.1282 28.185 26.1332 25.805 26.1332 22.97ZM52.6397 32.455C58.2747 32.455 62.3347 28.185 62.3347 22.935C62.3347 17.685 58.2747 13.38 52.6397 13.38C47.0047 13.38 42.9447 17.685 42.9447 22.935C42.9447 28.185 47.0047 32.455 52.6397 32.455ZM47.6697 22.935C47.6697 20.1 49.6297 17.685 52.6397 17.685C55.6497 17.685 57.6097 20.1 57.6097 22.935C57.6097 25.77 55.6497 28.15 52.6397 28.15C49.6297 28.15 47.6697 25.77 47.6697 22.935ZM65.126 32H69.851V22.69C69.851 19.645 71.951 17.825 74.681 17.825H75.346V13.38C72.196 13.205 70.341 14.64 69.711 17.265V13.8H65.126V32ZM84.9231 32H87.5131V27.8H85.5531C84.6431 27.8 84.0831 27.275 84.0831 26.12V17.825H87.9331V13.8H84.0831V9.635L79.3581 10.125V13.8H76.8031V17.825H79.3581V26.365C79.3581 30.32 81.3181 32 84.9231 32ZM96.2716 32.455C100.297 32.455 103.342 29.935 103.342 26.575C103.342 23.845 102.117 21.885 96.8316 20.52C94.6616 19.96 94.3816 19.4 94.3816 18.77C94.3816 17.65 95.3616 17.16 96.6566 17.16C97.8816 17.16 99.0016 17.72 99.8766 19.12L103.307 16.495C101.452 14.08 99.4916 13.345 96.5516 13.345C92.2816 13.345 89.7616 15.725 89.7616 18.91C89.7616 21.22 90.4966 23.425 95.3616 24.58C98.2316 25.245 98.6866 25.77 98.6866 26.715C98.6866 27.8 97.7766 28.605 96.1666 28.605C94.6266 28.605 93.2266 27.87 91.8966 26.365L88.7116 29.27C90.7066 31.405 93.1916 32.455 96.2716 32.455Z" fill="#1C274C"/>
<rect opacity="0.3" x="124" y="10" width="2" height="15" rx="1" fill="#1C274C"/>
<rect x="146" y="2.29883" width="57.495" height="30.402" rx="15.201" fill="#1C274C"/>
<path d="M161 22.5188H164.654C166.782 22.5188 168.126 21.4548 168.126 19.8168C168.126 18.5988 167.594 17.7308 165.998 17.3528C167.202 16.9048 167.58 16.2328 167.58 15.2948C167.58 13.7688 166.432 12.7188 164.304 12.7188H161V22.5188ZM162.96 20.7548V18.3608H164.472C165.536 18.3608 166.138 18.7948 166.138 19.5088C166.138 20.3628 165.536 20.7548 164.472 20.7548H162.96ZM162.96 16.7648V14.4688H164.122C165.186 14.4688 165.592 14.9308 165.592 15.6028C165.592 16.3868 165.186 16.7648 164.122 16.7648H162.96Z" fill="white"/>
<path d="M172.709 22.7008C174.963 22.7008 176.587 20.9928 176.587 18.8928C176.587 16.7928 174.963 15.0708 172.709 15.0708C170.455 15.0708 168.831 16.7928 168.831 18.8928C168.831 20.9928 170.455 22.7008 172.709 22.7008ZM170.721 18.8928C170.721 17.7588 171.505 16.7928 172.709 16.7928C173.913 16.7928 174.697 17.7588 174.697 18.8928C174.697 20.0268 173.913 20.9788 172.709 20.9788C171.505 20.9788 170.721 20.0268 170.721 18.8928Z" fill="white"/>
<path d="M177.703 22.5188H179.593V12.2988H177.703V22.5188Z" fill="white"/>
<path d="M184.309 22.7008C185.611 22.7008 186.269 22.1548 186.661 21.3288V22.5188H188.495V12.2988H186.605V16.3588C186.213 15.5888 185.555 15.0848 184.309 15.0848C182.307 15.0848 180.711 16.8068 180.711 18.9068C180.711 21.0068 182.307 22.7008 184.309 22.7008ZM182.601 18.8928C182.601 17.7588 183.413 16.7928 184.617 16.7928C185.863 16.7928 186.661 17.7728 186.661 18.9068C186.661 20.0408 185.863 20.9928 184.617 20.9928C183.413 20.9928 182.601 19.9988 182.601 18.8928Z" fill="white"/>
</svg>
