<svg width="323" height="35" viewBox="0 0 323 35" fill="none" xmlns="http://www.w3.org/2000/svg">
<path d="M0.335 32H5.655L7.335 27.345H17.555L19.235 32H24.555L14.58 7.5H10.345L0.335 32ZM8.945 23.11L11.57 16.425C11.92 15.55 12.2 14.57 12.445 13.625C12.655 14.57 12.97 15.515 13.32 16.425L15.945 23.11H8.945ZM26.0004 32H30.7254V22.69C30.7254 19.645 32.8254 17.825 35.5554 17.825H36.2204V13.38C33.0704 13.205 31.2154 14.64 30.5854 17.265V13.8H26.0004V32ZM38.4924 32H43.2174V22.69C43.2174 19.645 45.3174 17.825 48.0474 17.825H48.7124V13.38C45.5624 13.205 43.7074 14.64 43.0774 17.265V13.8H38.4924V32ZM59.0907 32.455C64.7257 32.455 68.7857 28.185 68.7857 22.935C68.7857 17.685 64.7257 13.38 59.0907 13.38C53.4557 13.38 49.3957 17.685 49.3957 22.935C49.3957 28.185 53.4557 32.455 59.0907 32.455ZM54.1207 22.935C54.1207 20.1 56.0807 17.685 59.0907 17.685C62.1007 17.685 64.0607 20.1 64.0607 22.935C64.0607 25.77 62.1007 28.15 59.0907 28.15C56.0807 28.15 54.1207 25.77 54.1207 22.935ZM74.7084 32H80.1334L82.8634 21.64C83.1084 20.765 83.2834 19.82 83.4234 18.91C83.5634 19.82 83.7734 20.765 84.0534 21.64L87.0284 32H92.1384L97.8084 13.8H92.6634L90.1434 24.125C89.9334 25 89.7234 25.98 89.5834 26.89C89.4434 25.98 89.2334 24.965 88.9884 24.09L86.1534 13.8H80.7284L78.0684 24.09C77.8234 24.965 77.6134 25.98 77.4734 26.89C77.3334 25.98 77.1234 25 76.9134 24.125L74.5684 13.8H69.0384L74.7084 32ZM104.689 32.455C108.714 32.455 111.759 29.935 111.759 26.575C111.759 23.845 110.534 21.885 105.249 20.52C103.079 19.96 102.799 19.4 102.799 18.77C102.799 17.65 103.779 17.16 105.074 17.16C106.299 17.16 107.419 17.72 108.294 19.12L111.724 16.495C109.869 14.08 107.909 13.345 104.969 13.345C100.699 13.345 98.1786 15.725 98.1786 18.91C98.1786 21.22 98.9136 23.425 103.779 24.58C106.649 25.245 107.104 25.77 107.104 26.715C107.104 27.8 106.194 28.605 104.584 28.605C103.044 28.605 101.644 27.87 100.314 26.365L97.1286 29.27C99.1236 31.405 101.609 32.455 104.689 32.455ZM118.677 32H123.997L125.677 27.345H135.897L137.577 32H142.897L132.922 7.5H128.687L118.677 32ZM127.287 23.11L129.912 16.425C130.262 15.55 130.542 14.57 130.787 13.625C130.997 14.57 131.312 15.515 131.662 16.425L134.287 23.11H127.287ZM152.339 32.455C155.909 32.455 158.429 31.16 160.144 28.955L156.714 25.98C155.769 27.24 154.579 28.15 152.759 28.15C149.749 28.15 147.684 25.735 147.684 22.9C147.684 20.065 149.644 17.65 152.654 17.65C154.264 17.65 155.664 18.455 156.504 19.715L160.144 16.74C158.604 14.605 155.909 13.31 152.584 13.345C147.019 13.38 142.959 17.615 142.959 22.9C142.959 28.185 147.124 32.455 152.339 32.455ZM169.609 32H172.199V27.8H170.239C169.329 27.8 168.769 27.275 168.769 26.12V17.825H172.619V13.8H168.769V9.635L164.044 10.125V13.8H161.489V17.825H164.044V26.365C164.044 30.32 166.004 32 169.609 32ZM174.898 32H179.623V13.8H174.898V32ZM174.408 9.495C174.408 11.035 175.633 12.295 177.243 12.295C178.888 12.295 180.078 11.07 180.078 9.495C180.078 7.99 178.888 6.73 177.243 6.73C175.633 6.73 174.408 7.99 174.408 9.495ZM192.113 32.455C197.748 32.455 201.808 28.185 201.808 22.935C201.808 17.685 197.748 13.38 192.113 13.38C186.478 13.38 182.418 17.685 182.418 22.935C182.418 28.185 186.478 32.455 192.113 32.455ZM187.143 22.935C187.143 20.1 189.103 17.685 192.113 17.685C195.123 17.685 197.083 20.1 197.083 22.935C197.083 25.77 195.123 28.15 192.113 28.15C189.103 28.15 187.143 25.77 187.143 22.935ZM204.599 32H209.324V22.025C209.324 18.875 211.109 17.51 213.104 17.51C215.449 17.51 217.024 18.875 217.024 22.025V32H221.749V20.87C221.749 16.285 218.739 13.38 214.819 13.38C212.019 13.38 210.199 14.43 209.254 16.46V13.8H204.599V32Z" fill="#1C274C"/>
<rect opacity="0.3" x="243" y="10" width="2" height="15" rx="1" fill="#1C274C"/>
<rect x="265" y="2.29907" width="57.495" height="30.402" rx="15.201" fill="#1C274C"/>
<path d="M280 22.5191H283.654C285.782 22.5191 287.126 21.4551 287.126 19.8171C287.126 18.5991 286.594 17.7311 284.998 17.3531C286.202 16.9051 286.58 16.2331 286.58 15.2951C286.58 13.7691 285.432 12.7191 283.304 12.7191H280V22.5191ZM281.96 20.7551V18.3611H283.472C284.536 18.3611 285.138 18.7951 285.138 19.5091C285.138 20.3631 284.536 20.7551 283.472 20.7551H281.96ZM281.96 16.7651V14.4691H283.122C284.186 14.4691 284.592 14.9311 284.592 15.6031C284.592 16.3871 284.186 16.7651 283.122 16.7651H281.96Z" fill="white"/>
<path d="M291.709 22.7011C293.963 22.7011 295.587 20.9931 295.587 18.8931C295.587 16.7931 293.963 15.0711 291.709 15.0711C289.455 15.0711 287.831 16.7931 287.831 18.8931C287.831 20.9931 289.455 22.7011 291.709 22.7011ZM289.721 18.8931C289.721 17.7591 290.505 16.7931 291.709 16.7931C292.913 16.7931 293.697 17.7591 293.697 18.8931C293.697 20.0271 292.913 20.9791 291.709 20.9791C290.505 20.9791 289.721 20.0271 289.721 18.8931Z" fill="white"/>
<path d="M296.703 22.5191H298.593V12.2991H296.703V22.5191Z" fill="white"/>
<path d="M303.309 22.7011C304.611 22.7011 305.269 22.1551 305.661 21.3291V22.5191H307.495V12.2991H305.605V16.3591C305.213 15.5891 304.555 15.0851 303.309 15.0851C301.307 15.0851 299.711 16.8071 299.711 18.9071C299.711 21.0071 301.307 22.7011 303.309 22.7011ZM301.601 18.8931C301.601 17.7591 302.413 16.7931 303.617 16.7931C304.863 16.7931 305.661 17.7731 305.661 18.9071C305.661 20.0411 304.863 20.9931 303.617 20.9931C302.413 20.9931 301.601 19.9991 301.601 18.8931Z" fill="white"/>
</svg>
