<svg width="278" height="40" viewBox="0 0 278 40" fill="none" xmlns="http://www.w3.org/2000/svg">
<path d="M0.335 32H5.655L7.335 27.345H17.555L19.235 32H24.555L14.58 7.5H10.345L0.335 32ZM8.945 23.11L11.57 16.425C11.92 15.55 12.2 14.57 12.445 13.625C12.655 14.57 12.97 15.515 13.32 16.425L15.945 23.11H8.945ZM32.2304 32.455C36.2554 32.455 39.3004 29.935 39.3004 26.575C39.3004 23.845 38.0754 21.885 32.7904 20.52C30.6204 19.96 30.3404 19.4 30.3404 18.77C30.3404 17.65 31.3204 17.16 32.6154 17.16C33.8404 17.16 34.9604 17.72 35.8354 19.12L39.2654 16.495C37.4104 14.08 35.4504 13.345 32.5104 13.345C28.2404 13.345 25.7204 15.725 25.7204 18.91C25.7204 21.22 26.4554 23.425 31.3204 24.58C34.1904 25.245 34.6454 25.77 34.6454 26.715C34.6454 27.8 33.7354 28.605 32.1254 28.605C30.5854 28.605 29.1854 27.87 27.8554 26.365L24.6704 29.27C26.6654 31.405 29.1504 32.455 32.2304 32.455ZM48.4294 32H51.0194V27.8H49.0594C48.1494 27.8 47.5894 27.275 47.5894 26.12V17.825H51.4394V13.8H47.5894V9.635L42.8644 10.125V13.8H40.3094V17.825H42.8644V26.365C42.8644 30.32 44.8244 32 48.4294 32ZM53.7187 32H58.4437V22.69C58.4437 19.645 60.5437 17.825 63.2737 17.825H63.9387V13.38C60.7887 13.205 58.9337 14.64 58.3037 17.265V13.8H53.7187V32ZM74.3171 32.455C79.9521 32.455 84.0121 28.185 84.0121 22.935C84.0121 17.685 79.9521 13.38 74.3171 13.38C68.6821 13.38 64.6221 17.685 64.6221 22.935C64.6221 28.185 68.6821 32.455 74.3171 32.455ZM69.3471 22.935C69.3471 20.1 71.3071 17.685 74.3171 17.685C77.3271 17.685 79.2871 20.1 79.2871 22.935C79.2871 25.77 77.3271 28.15 74.3171 28.15C71.3071 28.15 69.3471 25.77 69.3471 22.935ZM86.8033 32H91.5283V22.025C91.5283 18.875 93.3133 17.51 95.3083 17.51C97.6533 17.51 99.2283 18.875 99.2283 22.025V32H103.953V20.87C103.953 16.285 100.943 13.38 97.0233 13.38C94.2233 13.38 92.4033 14.43 91.4583 16.46V13.8H86.8033V32ZM116.288 32.455C121.923 32.455 125.983 28.185 125.983 22.935C125.983 17.685 121.923 13.38 116.288 13.38C110.653 13.38 106.593 17.685 106.593 22.935C106.593 28.185 110.653 32.455 116.288 32.455ZM111.318 22.935C111.318 20.1 113.278 17.685 116.288 17.685C119.298 17.685 121.258 20.1 121.258 22.935C121.258 25.77 119.298 28.15 116.288 28.15C113.278 28.15 111.318 25.77 111.318 22.935ZM128.775 32H133.5V22.025C133.5 18.875 135.285 17.51 137.28 17.51C139.625 17.51 141.2 18.875 141.2 22.025V32H145.925V22.025C145.925 18.525 147.43 17.51 149.635 17.51C151.77 17.51 153.275 18.875 153.275 22.025V32H158V20.87C158 16.285 154.99 13.38 151.07 13.38C147.885 13.38 146.135 14.605 144.91 16.81C143.72 14.605 141.55 13.38 138.995 13.38C136.195 13.38 134.375 14.43 133.43 16.46V13.8H128.775V32ZM162.296 39.315C166.566 39.315 168.841 36.83 170.381 33.155L178.431 13.8H172.831L169.296 24.195C168.981 25.07 168.701 26.155 168.526 27.1C168.351 26.155 168.071 25.07 167.756 24.195L164.221 13.8H158.516L165.726 31.16L165.481 31.93C164.956 33.54 163.801 34.695 161.981 34.695C161.211 34.695 160.546 34.625 159.846 34.45L159.146 38.965C160.091 39.245 161.351 39.315 162.296 39.315Z" fill="#1C274C"/>
<rect opacity="0.3" x="198" y="10" width="2" height="15" rx="1" fill="#1C274C"/>
<rect x="220" y="2.29883" width="57.495" height="30.402" rx="15.201" fill="#1C274C"/>
<path d="M235 22.5188H238.654C240.782 22.5188 242.126 21.4548 242.126 19.8168C242.126 18.5988 241.594 17.7308 239.998 17.3528C241.202 16.9048 241.58 16.2328 241.58 15.2948C241.58 13.7688 240.432 12.7188 238.304 12.7188H235V22.5188ZM236.96 20.7548V18.3608H238.472C239.536 18.3608 240.138 18.7948 240.138 19.5088C240.138 20.3628 239.536 20.7548 238.472 20.7548H236.96ZM236.96 16.7648V14.4688H238.122C239.186 14.4688 239.592 14.9308 239.592 15.6028C239.592 16.3868 239.186 16.7648 238.122 16.7648H236.96Z" fill="white"/>
<path d="M246.709 22.7008C248.963 22.7008 250.587 20.9928 250.587 18.8928C250.587 16.7928 248.963 15.0708 246.709 15.0708C244.455 15.0708 242.831 16.7928 242.831 18.8928C242.831 20.9928 244.455 22.7008 246.709 22.7008ZM244.721 18.8928C244.721 17.7588 245.505 16.7928 246.709 16.7928C247.913 16.7928 248.697 17.7588 248.697 18.8928C248.697 20.0268 247.913 20.9788 246.709 20.9788C245.505 20.9788 244.721 20.0268 244.721 18.8928Z" fill="white"/>
<path d="M251.703 22.5188H253.593V12.2988H251.703V22.5188Z" fill="white"/>
<path d="M258.309 22.7008C259.611 22.7008 260.269 22.1548 260.661 21.3288V22.5188H262.495V12.2988H260.605V16.3588C260.213 15.5888 259.555 15.0848 258.309 15.0848C256.307 15.0848 254.711 16.8068 254.711 18.9068C254.711 21.0068 256.307 22.7008 258.309 22.7008ZM256.601 18.8928C256.601 17.7588 257.413 16.7928 258.617 16.7928C259.863 16.7928 260.661 17.7728 260.661 18.9068C260.661 20.0408 259.863 20.9928 258.617 20.9928C257.413 20.9928 256.601 19.9988 256.601 18.8928Z" fill="white"/>
</svg>
