<svg width="245" height="35" viewBox="0 0 245 35" fill="none" xmlns="http://www.w3.org/2000/svg">
<path d="M8.875 32H13.285L18.255 18.175C18.71 16.88 19.06 15.48 19.27 14.15C19.48 15.48 19.83 16.88 20.285 18.175L25.255 32H29.665L37.855 7.5H32.255L28.335 21.36C27.95 22.76 27.6 24.195 27.425 25.56C27.215 24.195 26.83 22.725 26.34 21.36L21.475 7.5H17.065L12.2 21.36C11.71 22.725 11.36 24.195 11.185 25.56C10.975 24.195 10.59 22.76 10.205 21.36L6.285 7.5H0.685L8.875 32ZM46.1314 32.455C49.7364 32.455 52.7814 30.845 54.2514 28.57L50.5764 25.805C49.7364 27.205 48.1614 28.255 46.1314 28.255C43.7514 28.255 42.1414 26.75 41.6164 24.615H55.2314C55.3364 24.02 55.3714 23.46 55.3714 22.935C55.3714 17.685 51.5914 13.345 46.1314 13.345C40.6714 13.345 36.7164 17.685 36.7164 22.935C36.7164 28.185 40.4964 32.455 46.1314 32.455ZM41.6164 21.08C42.1414 18.91 43.8214 17.405 46.0614 17.405C48.3714 17.405 50.0864 19.05 50.6114 21.08H41.6164ZM66.2014 32.455C69.4564 32.455 71.1014 31.09 72.0814 29.025V32H76.6664V13.8H71.9764V16.67C70.9964 14.71 69.3514 13.415 66.2014 13.415C61.1964 13.415 57.2064 17.72 57.2064 22.97C57.2064 28.22 61.1964 32.455 66.2014 32.455ZM61.9314 22.935C61.9314 20.1 63.9614 17.685 66.9714 17.685C70.0864 17.685 72.0814 20.135 72.0814 22.97C72.0814 25.805 70.0864 28.185 66.9714 28.185C63.9614 28.185 61.9314 25.7 61.9314 22.935ZM87.0688 32H89.6588V27.8H87.6988C86.7888 27.8 86.2288 27.275 86.2288 26.12V17.825H90.0788V13.8H86.2288V9.635L81.5038 10.125V13.8H78.9488V17.825H81.5038V26.365C81.5038 30.32 83.4638 32 87.0688 32ZM92.3582 32H97.0832V22.025C97.0832 18.875 98.8682 17.51 100.863 17.51C103.208 17.51 104.783 18.875 104.783 22.025V32H109.508V20.87C109.508 16.285 106.498 13.38 102.578 13.38C99.8482 13.38 98.0632 14.36 97.0832 16.32V6.45H92.3582V32ZM121.563 32.455C125.168 32.455 128.213 30.845 129.683 28.57L126.008 25.805C125.168 27.205 123.593 28.255 121.563 28.255C119.183 28.255 117.573 26.75 117.048 24.615H130.663C130.768 24.02 130.803 23.46 130.803 22.935C130.803 17.685 127.023 13.345 121.563 13.345C116.103 13.345 112.148 17.685 112.148 22.935C112.148 28.185 115.928 32.455 121.563 32.455ZM117.048 21.08C117.573 18.91 119.253 17.405 121.493 17.405C123.803 17.405 125.518 19.05 126.043 21.08H117.048ZM133.578 32H138.303V22.69C138.303 19.645 140.403 17.825 143.133 17.825H143.798V13.38C140.648 13.205 138.793 14.64 138.163 17.265V13.8H133.578V32Z" fill="#1C274C"/>
<rect opacity="0.3" x="165" y="10" width="2" height="15" rx="1" fill="#1C274C"/>
<rect x="187" y="2.29883" width="57.495" height="30.402" rx="15.201" fill="#1C274C"/>
<path d="M202 22.5188H205.654C207.782 22.5188 209.126 21.4548 209.126 19.8168C209.126 18.5988 208.594 17.7308 206.998 17.3528C208.202 16.9048 208.58 16.2328 208.58 15.2948C208.58 13.7688 207.432 12.7188 205.304 12.7188H202V22.5188ZM203.96 20.7548V18.3608H205.472C206.536 18.3608 207.138 18.7948 207.138 19.5088C207.138 20.3628 206.536 20.7548 205.472 20.7548H203.96ZM203.96 16.7648V14.4688H205.122C206.186 14.4688 206.592 14.9308 206.592 15.6028C206.592 16.3868 206.186 16.7648 205.122 16.7648H203.96Z" fill="white"/>
<path d="M213.709 22.7008C215.963 22.7008 217.587 20.9928 217.587 18.8928C217.587 16.7928 215.963 15.0708 213.709 15.0708C211.455 15.0708 209.831 16.7928 209.831 18.8928C209.831 20.9928 211.455 22.7008 213.709 22.7008ZM211.721 18.8928C211.721 17.7588 212.505 16.7928 213.709 16.7928C214.913 16.7928 215.697 17.7588 215.697 18.8928C215.697 20.0268 214.913 20.9788 213.709 20.9788C212.505 20.9788 211.721 20.0268 211.721 18.8928Z" fill="white"/>
<path d="M218.703 22.5188H220.593V12.2988H218.703V22.5188Z" fill="white"/>
<path d="M225.309 22.7008C226.611 22.7008 227.269 22.1548 227.661 21.3288V22.5188H229.495V12.2988H227.605V16.3588C227.213 15.5888 226.555 15.0848 225.309 15.0848C223.307 15.0848 221.711 16.8068 221.711 18.9068C221.711 21.0068 223.307 22.7008 225.309 22.7008ZM223.601 18.8928C223.601 17.7588 224.413 16.7928 225.617 16.7928C226.863 16.7928 227.661 17.7728 227.661 18.9068C227.661 20.0408 226.863 20.9928 225.617 20.9928C224.413 20.9928 223.601 19.9988 223.601 18.8928Z" fill="white"/>
</svg>
