<svg width="170" height="35" viewBox="0 0 170 35" fill="none" xmlns="http://www.w3.org/2000/svg">
<path d="M1.75 32H6.65V21.99H15.96V17.65H6.65V11.91H16.135V7.5H1.75V32ZM19.4633 32H24.1883V13.8H19.4633V32ZM18.9733 9.495C18.9733 11.035 20.1983 12.295 21.8083 12.295C23.4533 12.295 24.6433 11.07 24.6433 9.495C24.6433 7.99 23.4533 6.73 21.8083 6.73C20.1983 6.73 18.9733 7.99 18.9733 9.495ZM27.6828 32H32.4078V6.45H27.6828V32ZM44.6173 32.455C48.2223 32.455 51.2673 30.845 52.7373 28.57L49.0623 25.805C48.2223 27.205 46.6473 28.255 44.6173 28.255C42.2373 28.255 40.6273 26.75 40.1023 24.615H53.7173C53.8223 24.02 53.8573 23.46 53.8573 22.935C53.8573 17.685 50.0773 13.345 44.6173 13.345C39.1573 13.345 35.2023 17.685 35.2023 22.935C35.2023 28.185 38.9823 32.455 44.6173 32.455ZM40.1023 21.08C40.6273 18.91 42.3073 17.405 44.5473 17.405C46.8573 17.405 48.5723 19.05 49.0973 21.08H40.1023ZM62.3489 32.455C66.3739 32.455 69.4189 29.935 69.4189 26.575C69.4189 23.845 68.1939 21.885 62.9089 20.52C60.7389 19.96 60.4589 19.4 60.4589 18.77C60.4589 17.65 61.4389 17.16 62.7339 17.16C63.9589 17.16 65.0789 17.72 65.9539 19.12L69.3839 16.495C67.5289 14.08 65.5689 13.345 62.6289 13.345C58.3589 13.345 55.8389 15.725 55.8389 18.91C55.8389 21.22 56.5739 23.425 61.4389 24.58C64.3089 25.245 64.7639 25.77 64.7639 26.715C64.7639 27.8 63.8539 28.605 62.2439 28.605C60.7039 28.605 59.3039 27.87 57.9739 26.365L54.7889 29.27C56.7839 31.405 59.2689 32.455 62.3489 32.455Z" fill="#1C274C"/>
<rect opacity="0.3" x="90" y="10" width="2" height="15" rx="1" fill="#1C274C"/>
<rect x="112" y="2.29883" width="57.495" height="30.402" rx="15.201" fill="#1C274C"/>
<path d="M127 22.5188H130.654C132.782 22.5188 134.126 21.4548 134.126 19.8168C134.126 18.5988 133.594 17.7308 131.998 17.3528C133.202 16.9048 133.58 16.2328 133.58 15.2948C133.58 13.7688 132.432 12.7188 130.304 12.7188H127V22.5188ZM128.96 20.7548V18.3608H130.472C131.536 18.3608 132.138 18.7948 132.138 19.5088C132.138 20.3628 131.536 20.7548 130.472 20.7548H128.96ZM128.96 16.7648V14.4688H130.122C131.186 14.4688 131.592 14.9308 131.592 15.6028C131.592 16.3868 131.186 16.7648 130.122 16.7648H128.96Z" fill="white"/>
<path d="M138.709 22.7008C140.963 22.7008 142.587 20.9928 142.587 18.8928C142.587 16.7928 140.963 15.0708 138.709 15.0708C136.455 15.0708 134.831 16.7928 134.831 18.8928C134.831 20.9928 136.455 22.7008 138.709 22.7008ZM136.721 18.8928C136.721 17.7588 137.505 16.7928 138.709 16.7928C139.913 16.7928 140.697 17.7588 140.697 18.8928C140.697 20.0268 139.913 20.9788 138.709 20.9788C137.505 20.9788 136.721 20.0268 136.721 18.8928Z" fill="white"/>
<path d="M143.703 22.5188H145.593V12.2988H143.703V22.5188Z" fill="white"/>
<path d="M150.309 22.7008C151.611 22.7008 152.269 22.1548 152.661 21.3288V22.5188H154.495V12.2988H152.605V16.3588C152.213 15.5888 151.555 15.0848 150.309 15.0848C148.307 15.0848 146.711 16.8068 146.711 18.9068C146.711 21.0068 148.307 22.7008 150.309 22.7008ZM148.601 18.8928C148.601 17.7588 149.413 16.7928 150.617 16.7928C151.863 16.7928 152.661 17.7728 152.661 18.9068C152.661 20.0408 151.863 20.9928 150.617 20.9928C149.413 20.9928 148.601 19.9988 148.601 18.8928Z" fill="white"/>
</svg>
