<svg width="218" height="35" viewBox="0 0 218 35" fill="none" xmlns="http://www.w3.org/2000/svg">
<path d="M1.75 32H6.65V21.99H15.96V17.65H6.65V11.91H16.135V7.5H1.75V32ZM28.4583 32.455C34.0933 32.455 38.1533 28.185 38.1533 22.935C38.1533 17.685 34.0933 13.38 28.4583 13.38C22.8233 13.38 18.7633 17.685 18.7633 22.935C18.7633 28.185 22.8233 32.455 28.4583 32.455ZM23.4883 22.935C23.4883 20.1 25.4483 17.685 28.4583 17.685C31.4683 17.685 33.4283 20.1 33.4283 22.935C33.4283 25.77 31.4683 28.15 28.4583 28.15C25.4483 28.15 23.4883 25.77 23.4883 22.935ZM40.9445 32H45.6695V6.45H40.9445V32ZM57.4591 32.455C60.7141 32.455 62.3591 31.09 63.3391 29.025V32H67.9241V6.45H63.1991V16.6C62.2191 14.675 60.5741 13.415 57.4591 13.415C52.4541 13.415 48.4641 17.72 48.4641 22.97C48.4641 28.22 52.4541 32.455 57.4591 32.455ZM53.1891 22.935C53.1891 20.1 55.2191 17.685 58.2291 17.685C61.3441 17.685 63.3391 20.135 63.3391 22.97C63.3391 25.805 61.3441 28.185 58.2291 28.185C55.2191 28.185 53.1891 25.7 53.1891 22.935ZM80.1464 32.455C83.7514 32.455 86.7964 30.845 88.2664 28.57L84.5914 25.805C83.7514 27.205 82.1764 28.255 80.1464 28.255C77.7664 28.255 76.1564 26.75 75.6314 24.615H89.2464C89.3514 24.02 89.3864 23.46 89.3864 22.935C89.3864 17.685 85.6064 13.345 80.1464 13.345C74.6864 13.345 70.7314 17.685 70.7314 22.935C70.7314 28.185 74.5114 32.455 80.1464 32.455ZM75.6314 21.08C76.1564 18.91 77.8364 17.405 80.0764 17.405C82.3864 17.405 84.1014 19.05 84.6264 21.08H75.6314ZM92.1607 32H96.8857V22.69C96.8857 19.645 98.9857 17.825 101.716 17.825H102.381V13.38C99.2307 13.205 97.3757 14.64 96.7457 17.265V13.8H92.1607V32ZM110.438 32.455C114.463 32.455 117.508 29.935 117.508 26.575C117.508 23.845 116.283 21.885 110.998 20.52C108.828 19.96 108.548 19.4 108.548 18.77C108.548 17.65 109.528 17.16 110.823 17.16C112.048 17.16 113.168 17.72 114.043 19.12L117.473 16.495C115.618 14.08 113.658 13.345 110.718 13.345C106.448 13.345 103.928 15.725 103.928 18.91C103.928 21.22 104.663 23.425 109.528 24.58C112.398 25.245 112.853 25.77 112.853 26.715C112.853 27.8 111.943 28.605 110.333 28.605C108.793 28.605 107.393 27.87 106.063 26.365L102.878 29.27C104.873 31.405 107.358 32.455 110.438 32.455Z" fill="#1C274C"/>
<rect opacity="0.3" x="138" y="10" width="2" height="15" rx="1" fill="#1C274C"/>
<rect x="160" y="2.29883" width="57.495" height="30.402" rx="15.201" fill="#1C274C"/>
<path d="M175 22.5188H178.654C180.782 22.5188 182.126 21.4548 182.126 19.8168C182.126 18.5988 181.594 17.7308 179.998 17.3528C181.202 16.9048 181.58 16.2328 181.58 15.2948C181.58 13.7688 180.432 12.7188 178.304 12.7188H175V22.5188ZM176.96 20.7548V18.3608H178.472C179.536 18.3608 180.138 18.7948 180.138 19.5088C180.138 20.3628 179.536 20.7548 178.472 20.7548H176.96ZM176.96 16.7648V14.4688H178.122C179.186 14.4688 179.592 14.9308 179.592 15.6028C179.592 16.3868 179.186 16.7648 178.122 16.7648H176.96Z" fill="white"/>
<path d="M186.709 22.7008C188.963 22.7008 190.587 20.9928 190.587 18.8928C190.587 16.7928 188.963 15.0708 186.709 15.0708C184.455 15.0708 182.831 16.7928 182.831 18.8928C182.831 20.9928 184.455 22.7008 186.709 22.7008ZM184.721 18.8928C184.721 17.7588 185.505 16.7928 186.709 16.7928C187.913 16.7928 188.697 17.7588 188.697 18.8928C188.697 20.0268 187.913 20.9788 186.709 20.9788C185.505 20.9788 184.721 20.0268 184.721 18.8928Z" fill="white"/>
<path d="M191.703 22.5188H193.593V12.2988H191.703V22.5188Z" fill="white"/>
<path d="M198.309 22.7008C199.611 22.7008 200.269 22.1548 200.661 21.3288V22.5188H202.495V12.2988H200.605V16.3588C200.213 15.5888 199.555 15.0848 198.309 15.0848C196.307 15.0848 194.711 16.8068 194.711 18.9068C194.711 21.0068 196.307 22.7008 198.309 22.7008ZM196.601 18.8928C196.601 17.7588 197.413 16.7928 198.617 16.7928C199.863 16.7928 200.661 17.7728 200.661 18.9068C200.661 20.0408 199.863 20.9928 198.617 20.9928C197.413 20.9928 196.601 19.9988 196.601 18.8928Z" fill="white"/>
</svg>
