<svg width="164" height="35" viewBox="0 0 164 35" fill="none" xmlns="http://www.w3.org/2000/svg">
<path d="M1.75 32H15.785V27.59H6.65V7.5H1.75V32ZM18.7455 32H23.4705V13.8H18.7455V32ZM18.2555 9.495C18.2555 11.035 19.4805 12.295 21.0905 12.295C22.7355 12.295 23.9255 11.07 23.9255 9.495C23.9255 7.99 22.7355 6.73 21.0905 6.73C19.4805 6.73 18.2555 7.99 18.2555 9.495ZM39.005 32H45.27L36.66 22.27L45.235 13.8H38.515L31.69 21.15V6.45H26.965V32H31.69V23.355L39.005 32ZM53.6066 32.455C57.2116 32.455 60.2566 30.845 61.7266 28.57L58.0516 25.805C57.2116 27.205 55.6366 28.255 53.6066 28.255C51.2266 28.255 49.6166 26.75 49.0916 24.615H62.7066C62.8116 24.02 62.8466 23.46 62.8466 22.935C62.8466 17.685 59.0666 13.345 53.6066 13.345C48.1466 13.345 44.1916 17.685 44.1916 22.935C44.1916 28.185 47.9716 32.455 53.6066 32.455ZM49.0916 21.08C49.6166 18.91 51.2966 17.405 53.5366 17.405C55.8466 17.405 57.5616 19.05 58.0866 21.08H49.0916Z" fill="#1C274C"/>
<rect opacity="0.3" x="84" y="10" width="2" height="15" rx="1" fill="#1C274C"/>
<rect x="106" y="2.29907" width="57.495" height="30.402" rx="15.201" fill="#1C274C"/>
<path d="M121 22.5191H124.654C126.782 22.5191 128.126 21.4551 128.126 19.8171C128.126 18.5991 127.594 17.7311 125.998 17.3531C127.202 16.9051 127.58 16.2331 127.58 15.2951C127.58 13.7691 126.432 12.7191 124.304 12.7191H121V22.5191ZM122.96 20.7551V18.3611H124.472C125.536 18.3611 126.138 18.7951 126.138 19.5091C126.138 20.3631 125.536 20.7551 124.472 20.7551H122.96ZM122.96 16.7651V14.4691H124.122C125.186 14.4691 125.592 14.9311 125.592 15.6031C125.592 16.3871 125.186 16.7651 124.122 16.7651H122.96Z" fill="white"/>
<path d="M132.709 22.7011C134.963 22.7011 136.587 20.9931 136.587 18.8931C136.587 16.7931 134.963 15.0711 132.709 15.0711C130.455 15.0711 128.831 16.7931 128.831 18.8931C128.831 20.9931 130.455 22.7011 132.709 22.7011ZM130.721 18.8931C130.721 17.7591 131.505 16.7931 132.709 16.7931C133.913 16.7931 134.697 17.7591 134.697 18.8931C134.697 20.0271 133.913 20.9791 132.709 20.9791C131.505 20.9791 130.721 20.0271 130.721 18.8931Z" fill="white"/>
<path d="M137.703 22.5191H139.593V12.2991H137.703V22.5191Z" fill="white"/>
<path d="M144.309 22.7011C145.611 22.7011 146.269 22.1551 146.661 21.3291V22.5191H148.495V12.2991H146.605V16.3591C146.213 15.5891 145.555 15.0851 144.309 15.0851C142.307 15.0851 140.711 16.8071 140.711 18.9071C140.711 21.0071 142.307 22.7011 144.309 22.7011ZM142.601 18.8931C142.601 17.7591 143.413 16.7931 144.617 16.7931C145.863 16.7931 146.661 17.7731 146.661 18.9071C146.661 20.0411 145.863 20.9931 144.617 20.9931C143.413 20.9931 142.601 19.9991 142.601 18.8931Z" fill="white"/>
</svg>
