<svg width="153" height="35" viewBox="0 0 153 35" fill="none" xmlns="http://www.w3.org/2000/svg">
<path d="M1.75 32H15.785V27.59H6.65V7.5H1.75V32ZM18.7455 32H23.4705V13.8H18.7455V32ZM18.2555 9.495C18.2555 11.035 19.4805 12.295 21.0905 12.295C22.7355 12.295 23.9255 11.07 23.9255 9.495C23.9255 7.99 22.7355 6.73 21.0905 6.73C19.4805 6.73 18.2555 7.99 18.2555 9.495ZM33.195 32.455C37.22 32.455 40.265 29.935 40.265 26.575C40.265 23.845 39.04 21.885 33.755 20.52C31.585 19.96 31.305 19.4 31.305 18.77C31.305 17.65 32.285 17.16 33.58 17.16C34.805 17.16 35.925 17.72 36.8 19.12L40.23 16.495C38.375 14.08 36.415 13.345 33.475 13.345C29.205 13.345 26.685 15.725 26.685 18.91C26.685 21.22 27.42 23.425 32.285 24.58C35.155 25.245 35.61 25.77 35.61 26.715C35.61 27.8 34.7 28.605 33.09 28.605C31.55 28.605 30.15 27.87 28.82 26.365L25.635 29.27C27.63 31.405 30.115 32.455 33.195 32.455ZM49.394 32H51.984V27.8H50.024C49.114 27.8 48.554 27.275 48.554 26.12V17.825H52.404V13.8H48.554V9.635L43.829 10.125V13.8H41.274V17.825H43.829V26.365C43.829 30.32 45.789 32 49.394 32Z" fill="#1C274C"/>
<rect opacity="0.3" x="73" y="10" width="2" height="15" rx="1" fill="#1C274C"/>
<rect x="95" y="2.29883" width="57.495" height="30.402" rx="15.201" fill="#1C274C"/>
<path d="M110 22.5188H113.654C115.782 22.5188 117.126 21.4548 117.126 19.8168C117.126 18.5988 116.594 17.7308 114.998 17.3528C116.202 16.9048 116.58 16.2328 116.58 15.2948C116.58 13.7688 115.432 12.7188 113.304 12.7188H110V22.5188ZM111.96 20.7548V18.3608H113.472C114.536 18.3608 115.138 18.7948 115.138 19.5088C115.138 20.3628 114.536 20.7548 113.472 20.7548H111.96ZM111.96 16.7648V14.4688H113.122C114.186 14.4688 114.592 14.9308 114.592 15.6028C114.592 16.3868 114.186 16.7648 113.122 16.7648H111.96Z" fill="white"/>
<path d="M121.709 22.7008C123.963 22.7008 125.587 20.9928 125.587 18.8928C125.587 16.7928 123.963 15.0708 121.709 15.0708C119.455 15.0708 117.831 16.7928 117.831 18.8928C117.831 20.9928 119.455 22.7008 121.709 22.7008ZM119.721 18.8928C119.721 17.7588 120.505 16.7928 121.709 16.7928C122.913 16.7928 123.697 17.7588 123.697 18.8928C123.697 20.0268 122.913 20.9788 121.709 20.9788C120.505 20.9788 119.721 20.0268 119.721 18.8928Z" fill="white"/>
<path d="M126.703 22.5188H128.593V12.2988H126.703V22.5188Z" fill="white"/>
<path d="M133.309 22.7008C134.611 22.7008 135.269 22.1548 135.661 21.3288V22.5188H137.495V12.2988H135.605V16.3588C135.213 15.5888 134.555 15.0848 133.309 15.0848C131.307 15.0848 129.711 16.8068 129.711 18.9068C129.711 21.0068 131.307 22.7008 133.309 22.7008ZM131.601 18.8928C131.601 17.7588 132.413 16.7928 133.617 16.7928C134.863 16.7928 135.661 17.7728 135.661 18.9068C135.661 20.0408 134.863 20.9928 133.617 20.9928C132.413 20.9928 131.601 19.9988 131.601 18.8928Z" fill="white"/>
</svg>
