<svg width="499" height="37" viewBox="0 0 499 37" fill="none" xmlns="http://www.w3.org/2000/svg">
<path d="M1.75 32H6.65V21.99H15.96V17.65H6.65V11.91H16.135V7.5H1.75V32ZM27.7583 32.455C31.0133 32.455 32.6583 31.09 33.6383 29.025V32H38.2233V13.8H33.5333V16.67C32.5533 14.71 30.9083 13.415 27.7583 13.415C22.7533 13.415 18.7633 17.72 18.7633 22.97C18.7633 28.22 22.7533 32.455 27.7583 32.455ZM23.4883 22.935C23.4883 20.1 25.5183 17.685 28.5283 17.685C31.6433 17.685 33.6383 20.135 33.6383 22.97C33.6383 25.805 31.6433 28.185 28.5283 28.185C25.5183 28.185 23.4883 25.7 23.4883 22.935ZM50.4107 32.455C53.9807 32.455 56.5007 31.16 58.2157 28.955L54.7857 25.98C53.8407 27.24 52.6507 28.15 50.8307 28.15C47.8207 28.15 45.7557 25.735 45.7557 22.9C45.7557 20.065 47.7157 17.65 50.7257 17.65C52.3357 17.65 53.7357 18.455 54.5757 19.715L58.2157 16.74C56.6757 14.605 53.9807 13.31 50.6557 13.345C45.0907 13.38 41.0307 17.615 41.0307 22.9C41.0307 28.185 45.1957 32.455 50.4107 32.455ZM68.338 32.455C71.943 32.455 74.988 30.845 76.458 28.57L72.783 25.805C71.943 27.205 70.368 28.255 68.338 28.255C65.958 28.255 64.348 26.75 63.823 24.615H77.438C77.543 24.02 77.578 23.46 77.578 22.935C77.578 17.685 73.798 13.345 68.338 13.345C62.878 13.345 58.923 17.685 58.923 22.935C58.923 28.185 62.703 32.455 68.338 32.455ZM63.823 21.08C64.348 18.91 66.028 17.405 68.268 17.405C70.578 17.405 72.293 19.05 72.818 21.08H63.823ZM86.0697 32.455C90.0947 32.455 93.1397 29.935 93.1397 26.575C93.1397 23.845 91.9147 21.885 86.6297 20.52C84.4597 19.96 84.1797 19.4 84.1797 18.77C84.1797 17.65 85.1597 17.16 86.4547 17.16C87.6797 17.16 88.7997 17.72 89.6747 19.12L93.1047 16.495C91.2497 14.08 89.2897 13.345 86.3497 13.345C82.0797 13.345 79.5597 15.725 79.5597 18.91C79.5597 21.22 80.2947 23.425 85.1597 24.58C88.0297 25.245 88.4847 25.77 88.4847 26.715C88.4847 27.8 87.5747 28.605 85.9647 28.605C84.4247 28.605 83.0247 27.87 81.6947 26.365L78.5097 29.27C80.5047 31.405 82.9897 32.455 86.0697 32.455ZM95.9711 36.865L96.9511 36.515C99.5411 35.605 101.291 33.54 101.291 30.845C101.291 28.325 99.8911 26.785 97.7911 26.785C96.2511 26.785 94.9211 28.045 94.9211 29.55C94.9211 31.09 96.2511 32.35 97.6511 32.35C97.9311 32.35 98.1761 32.315 98.4561 32.245C98.1411 33.19 97.4411 33.68 96.0061 34.17L95.0261 34.52L95.9711 36.865ZM110.898 32H125.318V27.59H115.798V21.675H125.073V17.405H115.798V11.91H125.248V7.5H110.898V32ZM128.782 32H133.507V22.025C133.507 18.875 135.292 17.51 137.287 17.51C139.632 17.51 141.207 18.875 141.207 22.025V32H145.932V22.025C145.932 18.525 147.437 17.51 149.642 17.51C151.777 17.51 153.282 18.875 153.282 22.025V32H158.007V20.87C158.007 16.285 154.997 13.38 151.077 13.38C147.892 13.38 146.142 14.605 144.917 16.81C143.727 14.605 141.557 13.38 139.002 13.38C136.202 13.38 134.382 14.43 133.437 16.46V13.8H128.782V32ZM170.333 32.455C175.968 32.455 180.028 28.185 180.028 22.935C180.028 17.685 175.968 13.38 170.333 13.38C164.698 13.38 160.638 17.685 160.638 22.935C160.638 28.185 164.698 32.455 170.333 32.455ZM165.363 22.935C165.363 20.1 167.323 17.685 170.333 17.685C173.343 17.685 175.303 20.1 175.303 22.935C175.303 25.77 173.343 28.15 170.333 28.15C167.323 28.15 165.363 25.77 165.363 22.935ZM188.723 32H191.313V27.8H189.353C188.443 27.8 187.883 27.275 187.883 26.12V17.825H191.733V13.8H187.883V9.635L183.158 10.125V13.8H180.603V17.825H183.158V26.365C183.158 30.32 185.118 32 188.723 32ZM194.012 32H198.737V13.8H194.012V32ZM193.522 9.495C193.522 11.035 194.747 12.295 196.357 12.295C198.002 12.295 199.192 11.07 199.192 9.495C199.192 7.99 198.002 6.73 196.357 6.73C194.747 6.73 193.522 7.99 193.522 9.495ZM211.227 32.455C216.862 32.455 220.922 28.185 220.922 22.935C220.922 17.685 216.862 13.38 211.227 13.38C205.592 13.38 201.532 17.685 201.532 22.935C201.532 28.185 205.592 32.455 211.227 32.455ZM206.257 22.935C206.257 20.1 208.217 17.685 211.227 17.685C214.237 17.685 216.197 20.1 216.197 22.935C216.197 25.77 214.237 28.15 211.227 28.15C208.217 28.15 206.257 25.77 206.257 22.935ZM223.713 32H228.438V22.025C228.438 18.875 230.223 17.51 232.218 17.51C234.563 17.51 236.138 18.875 236.138 22.025V32H240.863V20.87C240.863 16.285 237.853 13.38 233.933 13.38C231.133 13.38 229.313 14.43 228.368 16.46V13.8H223.713V32ZM250.433 32.455C254.458 32.455 257.503 29.935 257.503 26.575C257.503 23.845 256.278 21.885 250.993 20.52C248.823 19.96 248.543 19.4 248.543 18.77C248.543 17.65 249.523 17.16 250.818 17.16C252.043 17.16 253.163 17.72 254.038 19.12L257.468 16.495C255.613 14.08 253.653 13.345 250.713 13.345C246.443 13.345 243.923 15.725 243.923 18.91C243.923 21.22 244.658 23.425 249.523 24.58C252.393 25.245 252.848 25.77 252.848 26.715C252.848 27.8 251.938 28.605 250.328 28.605C248.788 28.605 247.388 27.87 246.058 26.365L242.873 29.27C244.868 31.405 247.353 32.455 250.433 32.455ZM260.334 36.865L261.314 36.515C263.904 35.605 265.654 33.54 265.654 30.845C265.654 28.325 264.254 26.785 262.154 26.785C260.614 26.785 259.284 28.045 259.284 29.55C259.284 31.09 260.614 32.35 262.014 32.35C262.294 32.35 262.539 32.315 262.819 32.245C262.504 33.19 261.804 33.68 260.369 34.17L259.389 34.52L260.334 36.865ZM282.831 32.455C288.396 32.455 291.791 29.445 291.791 25C291.791 19.4 286.751 18.14 283.881 17.23C281.746 16.565 279.996 15.97 279.996 14.15C279.996 12.505 281.431 11.455 283.391 11.455C285.211 11.455 286.331 12.33 287.521 14.22L291.721 11.63C289.901 8.76 287.451 7.08 283.636 7.08C278.456 7.08 274.991 9.985 274.991 14.395C274.991 18.105 277.406 20.31 281.186 21.29C284.196 22.06 286.786 22.83 286.786 25.28C286.786 26.96 285.386 28.08 283.111 28.08C280.976 28.08 278.946 26.995 277.686 24.475L273.451 27.17C275.586 30.915 278.946 32.455 282.831 32.455ZM301.203 32H303.793V27.8H301.833C300.923 27.8 300.363 27.275 300.363 26.12V17.825H304.213V13.8H300.363V9.635L295.638 10.125V13.8H293.083V17.825H295.638V26.365C295.638 30.32 297.598 32 301.203 32ZM306.492 32H311.217V13.8H306.492V32ZM306.002 9.495C306.002 11.035 307.227 12.295 308.837 12.295C310.482 12.295 311.672 11.07 311.672 9.495C311.672 7.99 310.482 6.73 308.837 6.73C307.227 6.73 306.002 7.99 306.002 9.495ZM323.392 32.455C326.962 32.455 329.482 31.16 331.197 28.955L327.767 25.98C326.822 27.24 325.632 28.15 323.812 28.15C320.802 28.15 318.737 25.735 318.737 22.9C318.737 20.065 320.697 17.65 323.707 17.65C325.317 17.65 326.717 18.455 327.557 19.715L331.197 16.74C329.657 14.605 326.962 13.31 323.637 13.345C318.072 13.38 314.012 17.615 314.012 22.9C314.012 28.185 318.177 32.455 323.392 32.455ZM345.806 32H352.071L343.461 22.27L352.036 13.8H345.316L338.491 21.15V6.45H333.766V32H338.491V23.355L345.806 32ZM360.408 32.455C364.013 32.455 367.058 30.845 368.528 28.57L364.853 25.805C364.013 27.205 362.438 28.255 360.408 28.255C358.028 28.255 356.418 26.75 355.893 24.615H369.508C369.613 24.02 369.648 23.46 369.648 22.935C369.648 17.685 365.868 13.345 360.408 13.345C354.948 13.345 350.993 17.685 350.993 22.935C350.993 28.185 354.773 32.455 360.408 32.455ZM355.893 21.08C356.418 18.91 358.098 17.405 360.338 17.405C362.648 17.405 364.363 19.05 364.888 21.08H355.893ZM372.422 32H377.147V22.69C377.147 19.645 379.247 17.825 381.977 17.825H382.642V13.38C379.492 13.205 377.637 14.64 377.007 17.265V13.8H372.422V32ZM390.7 32.455C394.725 32.455 397.77 29.935 397.77 26.575C397.77 23.845 396.545 21.885 391.26 20.52C389.09 19.96 388.81 19.4 388.81 18.77C388.81 17.65 389.79 17.16 391.085 17.16C392.31 17.16 393.43 17.72 394.305 19.12L397.735 16.495C395.88 14.08 393.92 13.345 390.98 13.345C386.71 13.345 384.19 15.725 384.19 18.91C384.19 21.22 384.925 23.425 389.79 24.58C392.66 25.245 393.115 25.77 393.115 26.715C393.115 27.8 392.205 28.605 390.595 28.605C389.055 28.605 387.655 27.87 386.325 26.365L383.14 29.27C385.135 31.405 387.62 32.455 390.7 32.455Z" fill="#1C274C"/>
<rect opacity="0.3" x="419" y="10" width="2" height="15" rx="1" fill="#1C274C"/>
<rect x="441" y="2.29883" width="57.495" height="30.402" rx="15.201" fill="#1C274C"/>
<path d="M456 22.5188H459.654C461.782 22.5188 463.126 21.4548 463.126 19.8168C463.126 18.5988 462.594 17.7308 460.998 17.3528C462.202 16.9048 462.58 16.2328 462.58 15.2948C462.58 13.7688 461.432 12.7188 459.304 12.7188H456V22.5188ZM457.96 20.7548V18.3608H459.472C460.536 18.3608 461.138 18.7948 461.138 19.5088C461.138 20.3628 460.536 20.7548 459.472 20.7548H457.96ZM457.96 16.7648V14.4688H459.122C460.186 14.4688 460.592 14.9308 460.592 15.6028C460.592 16.3868 460.186 16.7648 459.122 16.7648H457.96Z" fill="white"/>
<path d="M467.709 22.7008C469.963 22.7008 471.587 20.9928 471.587 18.8928C471.587 16.7928 469.963 15.0708 467.709 15.0708C465.455 15.0708 463.831 16.7928 463.831 18.8928C463.831 20.9928 465.455 22.7008 467.709 22.7008ZM465.721 18.8928C465.721 17.7588 466.505 16.7928 467.709 16.7928C468.913 16.7928 469.697 17.7588 469.697 18.8928C469.697 20.0268 468.913 20.9788 467.709 20.9788C466.505 20.9788 465.721 20.0268 465.721 18.8928Z" fill="white"/>
<path d="M472.703 22.5188H474.593V12.2988H472.703V22.5188Z" fill="white"/>
<path d="M479.309 22.7008C480.611 22.7008 481.269 22.1548 481.661 21.3288V22.5188H483.495V12.2988H481.605V16.3588C481.213 15.5888 480.555 15.0848 479.309 15.0848C477.307 15.0848 475.711 16.8068 475.711 18.9068C475.711 21.0068 477.307 22.7008 479.309 22.7008ZM477.601 18.8928C477.601 17.7588 478.413 16.7928 479.617 16.7928C480.863 16.7928 481.661 17.7728 481.661 18.9068C481.661 20.0408 480.863 20.9928 479.617 20.9928C478.413 20.9928 477.601 19.9988 477.601 18.8928Z" fill="white"/>
</svg>
