<svg width="232" height="40" viewBox="0 0 232 40" fill="none" xmlns="http://www.w3.org/2000/svg">
<path d="M9.73 32.455C15.295 32.455 18.69 29.445 18.69 25C18.69 19.4 13.65 18.14 10.78 17.23C8.645 16.565 6.895 15.97 6.895 14.15C6.895 12.505 8.33 11.455 10.29 11.455C12.11 11.455 13.23 12.33 14.42 14.22L18.62 11.63C16.8 8.76 14.35 7.08 10.535 7.08C5.355 7.08 1.89 9.985 1.89 14.395C1.89 18.105 4.305 20.31 8.085 21.29C11.095 22.06 13.685 22.83 13.685 25.28C13.685 26.96 12.285 28.08 10.01 28.08C7.875 28.08 5.845 26.995 4.585 24.475L0.35 27.17C2.485 30.915 5.845 32.455 9.73 32.455ZM30.0923 32.455C33.6973 32.455 36.7423 30.845 38.2123 28.57L34.5373 25.805C33.6973 27.205 32.1223 28.255 30.0923 28.255C27.7123 28.255 26.1023 26.75 25.5773 24.615H39.1923C39.2973 24.02 39.3323 23.46 39.3323 22.935C39.3323 17.685 35.5523 13.345 30.0923 13.345C24.6323 13.345 20.6773 17.685 20.6773 22.935C20.6773 28.185 24.4573 32.455 30.0923 32.455ZM25.5773 21.08C26.1023 18.91 27.7823 17.405 30.0223 17.405C32.3323 17.405 34.0473 19.05 34.5723 21.08H25.5773ZM50.5474 32.455C54.1174 32.455 56.6374 31.16 58.3524 28.955L54.9224 25.98C53.9774 27.24 52.7874 28.15 50.9674 28.15C47.9574 28.15 45.8924 25.735 45.8924 22.9C45.8924 20.065 47.8524 17.65 50.8624 17.65C52.4724 17.65 53.8724 18.455 54.7124 19.715L58.3524 16.74C56.8124 14.605 54.1174 13.31 50.7924 13.345C45.2274 13.38 41.1674 17.615 41.1674 22.9C41.1674 28.185 45.3324 32.455 50.5474 32.455ZM67.4718 32.42C70.3068 32.42 71.9518 31.37 72.8268 29.27V32H77.4118V13.8H72.6868V23.775C72.6868 26.925 70.9018 28.29 68.9068 28.29C66.5618 28.29 65.2668 26.925 65.2668 23.775V13.8H60.5418V24.93C60.5418 29.515 63.5518 32.42 67.4718 32.42ZM80.8992 32H85.6242V22.69C85.6242 19.645 87.7242 17.825 90.4542 17.825H91.1192V13.38C87.9692 13.205 86.1142 14.64 85.4842 17.265V13.8H80.8992V32ZM93.3912 32H98.1162V13.8H93.3912V32ZM92.9012 9.495C92.9012 11.035 94.1262 12.295 95.7362 12.295C97.3812 12.295 98.5712 11.07 98.5712 9.495C98.5712 7.99 97.3812 6.73 95.7362 6.73C94.1262 6.73 92.9012 7.99 92.9012 9.495ZM108.506 32H111.096V27.8H109.136C108.226 27.8 107.666 27.275 107.666 26.12V17.825H111.516V13.8H107.666V9.635L102.941 10.125V13.8H100.386V17.825H102.941V26.365C102.941 30.32 104.901 32 108.506 32ZM116.231 39.315C120.501 39.315 122.776 36.83 124.316 33.155L132.366 13.8H126.766L123.231 24.195C122.916 25.07 122.636 26.155 122.461 27.1C122.286 26.155 122.006 25.07 121.691 24.195L118.156 13.8H112.451L119.661 31.16L119.416 31.93C118.891 33.54 117.736 34.695 115.916 34.695C115.146 34.695 114.481 34.625 113.781 34.45L113.081 38.965C114.026 39.245 115.286 39.315 116.231 39.315Z" fill="#1C274C"/>
<rect opacity="0.3" x="152" y="10" width="2" height="15" rx="1" fill="#1C274C"/>
<rect x="174" y="2.29883" width="57.495" height="30.402" rx="15.201" fill="#1C274C"/>
<path d="M189 22.5188H192.654C194.782 22.5188 196.126 21.4548 196.126 19.8168C196.126 18.5988 195.594 17.7308 193.998 17.3528C195.202 16.9048 195.58 16.2328 195.58 15.2948C195.58 13.7688 194.432 12.7188 192.304 12.7188H189V22.5188ZM190.96 20.7548V18.3608H192.472C193.536 18.3608 194.138 18.7948 194.138 19.5088C194.138 20.3628 193.536 20.7548 192.472 20.7548H190.96ZM190.96 16.7648V14.4688H192.122C193.186 14.4688 193.592 14.9308 193.592 15.6028C193.592 16.3868 193.186 16.7648 192.122 16.7648H190.96Z" fill="white"/>
<path d="M200.709 22.7008C202.963 22.7008 204.587 20.9928 204.587 18.8928C204.587 16.7928 202.963 15.0708 200.709 15.0708C198.455 15.0708 196.831 16.7928 196.831 18.8928C196.831 20.9928 198.455 22.7008 200.709 22.7008ZM198.721 18.8928C198.721 17.7588 199.505 16.7928 200.709 16.7928C201.913 16.7928 202.697 17.7588 202.697 18.8928C202.697 20.0268 201.913 20.9788 200.709 20.9788C199.505 20.9788 198.721 20.0268 198.721 18.8928Z" fill="white"/>
<path d="M205.703 22.5188H207.593V12.2988H205.703V22.5188Z" fill="white"/>
<path d="M212.309 22.7008C213.611 22.7008 214.269 22.1548 214.661 21.3288V22.5188H216.495V12.2988H214.605V16.3588C214.213 15.5888 213.555 15.0848 212.309 15.0848C210.307 15.0848 208.711 16.8068 208.711 18.9068C208.711 21.0068 210.307 22.7008 212.309 22.7008ZM210.601 18.8928C210.601 17.7588 211.413 16.7928 212.617 16.7928C213.863 16.7928 214.661 17.7728 214.661 18.9068C214.661 20.0408 213.863 20.9928 212.617 20.9928C211.413 20.9928 210.601 19.9988 210.601 18.8928Z" fill="white"/>
</svg>
