<svg width="326" height="37" viewBox="0 0 326 37" fill="none" xmlns="http://www.w3.org/2000/svg">
<path d="M1.75 32H6.3V19.225C6.3 17.79 6.265 16.285 6.125 15.235C6.615 15.97 7.175 16.635 7.735 17.265L20.125 32H23.31V7.5H18.83V19.715C18.83 21.15 18.865 22.655 19.005 23.705C18.515 22.97 17.955 22.305 17.395 21.675L5.46 7.5H1.75V32ZM35.4487 32.455C38.7037 32.455 40.3487 31.09 41.3287 29.025V32H45.9137V13.8H41.2237V16.67C40.2437 14.71 38.5987 13.415 35.4487 13.415C30.4437 13.415 26.4537 17.72 26.4537 22.97C26.4537 28.22 30.4437 32.455 35.4487 32.455ZM31.1787 22.935C31.1787 20.1 33.2087 17.685 36.2187 17.685C39.3337 17.685 41.3287 20.135 41.3287 22.97C41.3287 25.805 39.3337 28.185 36.2187 28.185C33.2087 28.185 31.1787 25.7 31.1787 22.935ZM56.3161 32H58.9061V27.8H56.9461C56.0361 27.8 55.4761 27.275 55.4761 26.12V17.825H59.3261V13.8H55.4761V9.635L50.7511 10.125V13.8H48.1961V17.825H50.7511V26.365C50.7511 30.32 52.7111 32 56.3161 32ZM68.3605 32.42C71.1955 32.42 72.8405 31.37 73.7155 29.27V32H78.3005V13.8H73.5755V23.775C73.5755 26.925 71.7905 28.29 69.7955 28.29C67.4505 28.29 66.1555 26.925 66.1555 23.775V13.8H61.4305V24.93C61.4305 29.515 64.4405 32.42 68.3605 32.42ZM81.7879 32H86.5129V22.69C86.5129 19.645 88.6129 17.825 91.3429 17.825H92.0079V13.38C88.8579 13.205 87.0029 14.64 86.3729 17.265V13.8H81.7879V32ZM102.106 32.455C105.711 32.455 108.756 30.845 110.226 28.57L106.551 25.805C105.711 27.205 104.136 28.255 102.106 28.255C99.7262 28.255 98.1162 26.75 97.5912 24.615H111.206C111.311 24.02 111.346 23.46 111.346 22.935C111.346 17.685 107.566 13.345 102.106 13.345C96.6462 13.345 92.6912 17.685 92.6912 22.935C92.6912 28.185 96.4712 32.455 102.106 32.455ZM97.5912 21.08C98.1162 18.91 99.7962 17.405 102.036 17.405C104.346 17.405 106.061 19.05 106.586 21.08H97.5912ZM114.137 36.865L115.117 36.515C117.707 35.605 119.457 33.54 119.457 30.845C119.457 28.325 118.057 26.785 115.957 26.785C114.417 26.785 113.087 28.045 113.087 29.55C113.087 31.09 114.417 32.35 115.817 32.35C116.097 32.35 116.342 32.315 116.622 32.245C116.307 33.19 115.607 33.68 114.172 34.17L113.192 34.52L114.137 36.865ZM134.668 32H139.568V11.91H146.568V7.5H127.668V11.91H134.668V32ZM146.059 32H150.784V22.69C150.784 19.645 152.884 17.825 155.614 17.825H156.279V13.38C153.129 13.205 151.274 14.64 150.644 17.265V13.8H146.059V32ZM165.958 32.455C169.213 32.455 170.858 31.09 171.838 29.025V32H176.423V13.8H171.733V16.67C170.753 14.71 169.108 13.415 165.958 13.415C160.953 13.415 156.963 17.72 156.963 22.97C156.963 28.22 160.953 32.455 165.958 32.455ZM161.688 22.935C161.688 20.1 163.718 17.685 166.728 17.685C169.843 17.685 171.838 20.135 171.838 22.97C171.838 25.805 169.843 28.185 166.728 28.185C163.718 28.185 161.688 25.7 161.688 22.935ZM185.6 32H190.36L197.92 13.8H192.425L188.785 24.195C188.47 25.07 188.19 26.155 188.015 27.1C187.84 26.155 187.56 25.07 187.245 24.195L183.605 13.8H178.005L185.6 32ZM207.05 32.455C210.655 32.455 213.7 30.845 215.17 28.57L211.495 25.805C210.655 27.205 209.08 28.255 207.05 28.255C204.67 28.255 203.06 26.75 202.535 24.615H216.15C216.255 24.02 216.29 23.46 216.29 22.935C216.29 17.685 212.51 13.345 207.05 13.345C201.59 13.345 197.635 17.685 197.635 22.935C197.635 28.185 201.415 32.455 207.05 32.455ZM202.535 21.08C203.06 18.91 204.74 17.405 206.98 17.405C209.29 17.405 211.005 19.05 211.53 21.08H202.535ZM219.064 32H223.789V6.45H219.064V32Z" fill="#1C274C"/>
<rect opacity="0.3" x="246" y="10" width="2" height="15" rx="1" fill="#1C274C"/>
<rect x="268" y="2.29901" width="57.495" height="30.402" rx="15.201" fill="#1C274C"/>
<path d="M283 22.519H286.654C288.782 22.519 290.126 21.455 290.126 19.817C290.126 18.599 289.594 17.731 287.998 17.353C289.202 16.905 289.58 16.233 289.58 15.295C289.58 13.769 288.432 12.719 286.304 12.719H283V22.519ZM284.96 20.755V18.361H286.472C287.536 18.361 288.138 18.795 288.138 19.509C288.138 20.363 287.536 20.755 286.472 20.755H284.96ZM284.96 16.765V14.469H286.122C287.186 14.469 287.592 14.931 287.592 15.603C287.592 16.387 287.186 16.765 286.122 16.765H284.96Z" fill="white"/>
<path d="M294.709 22.701C296.963 22.701 298.587 20.993 298.587 18.893C298.587 16.793 296.963 15.071 294.709 15.071C292.455 15.071 290.831 16.793 290.831 18.893C290.831 20.993 292.455 22.701 294.709 22.701ZM292.721 18.893C292.721 17.759 293.505 16.793 294.709 16.793C295.913 16.793 296.697 17.759 296.697 18.893C296.697 20.027 295.913 20.979 294.709 20.979C293.505 20.979 292.721 20.027 292.721 18.893Z" fill="white"/>
<path d="M299.703 22.519H301.593V12.299H299.703V22.519Z" fill="white"/>
<path d="M306.309 22.701C307.611 22.701 308.269 22.155 308.661 21.329V22.519H310.495V12.299H308.605V16.359C308.213 15.589 307.555 15.085 306.309 15.085C304.307 15.085 302.711 16.807 302.711 18.907C302.711 21.007 304.307 22.701 306.309 22.701ZM304.601 18.893C304.601 17.759 305.413 16.793 306.617 16.793C307.863 16.793 308.661 17.773 308.661 18.907C308.661 20.041 307.863 20.993 306.617 20.993C305.413 20.993 304.601 19.999 304.601 18.893Z" fill="white"/>
</svg>
