<svg width="214" height="35" viewBox="0 0 214 35" fill="none" xmlns="http://www.w3.org/2000/svg">
<path d="M9.73 32.455C15.295 32.455 18.69 29.445 18.69 25C18.69 19.4 13.65 18.14 10.78 17.23C8.645 16.565 6.895 15.97 6.895 14.15C6.895 12.505 8.33 11.455 10.29 11.455C12.11 11.455 13.23 12.33 14.42 14.22L18.62 11.63C16.8 8.76 14.35 7.08 10.535 7.08C5.355 7.08 1.89 9.985 1.89 14.395C1.89 18.105 4.305 20.31 8.085 21.29C11.095 22.06 13.685 22.83 13.685 25.28C13.685 26.96 12.285 28.08 10.01 28.08C7.875 28.08 5.845 26.995 4.585 24.475L0.35 27.17C2.485 30.915 5.845 32.455 9.73 32.455ZM30.0923 32.455C33.6973 32.455 36.7423 30.845 38.2123 28.57L34.5373 25.805C33.6973 27.205 32.1223 28.255 30.0923 28.255C27.7123 28.255 26.1023 26.75 25.5773 24.615H39.1923C39.2973 24.02 39.3323 23.46 39.3323 22.935C39.3323 17.685 35.5523 13.345 30.0923 13.345C24.6323 13.345 20.6773 17.685 20.6773 22.935C20.6773 28.185 24.4573 32.455 30.0923 32.455ZM25.5773 21.08C26.1023 18.91 27.7823 17.405 30.0223 17.405C32.3323 17.405 34.0473 19.05 34.5723 21.08H25.5773ZM50.1624 32.455C53.4174 32.455 55.0624 31.09 56.0424 29.025V32H60.6274V13.8H55.9374V16.67C54.9574 14.71 53.3124 13.415 50.1624 13.415C45.1574 13.415 41.1674 17.72 41.1674 22.97C41.1674 28.22 45.1574 32.455 50.1624 32.455ZM45.8924 22.935C45.8924 20.1 47.9224 17.685 50.9324 17.685C54.0474 17.685 56.0424 20.135 56.0424 22.97C56.0424 25.805 54.0474 28.185 50.9324 28.185C47.9224 28.185 45.8924 25.7 45.8924 22.935ZM64.1348 32H68.8598V22.69C68.8598 19.645 70.9598 17.825 73.6898 17.825H74.3548V13.38C71.2048 13.205 69.3498 14.64 68.7198 17.265V13.8H64.1348V32ZM84.4181 32.455C87.9881 32.455 90.5081 31.16 92.2231 28.955L88.7931 25.98C87.8481 27.24 86.6581 28.15 84.8381 28.15C81.8281 28.15 79.7631 25.735 79.7631 22.9C79.7631 20.065 81.7231 17.65 84.7331 17.65C86.3431 17.65 87.7431 18.455 88.5831 19.715L92.2231 16.74C90.6831 14.605 87.9881 13.31 84.6631 13.345C79.0981 13.38 75.0381 17.615 75.0381 22.9C75.0381 28.185 79.2031 32.455 84.4181 32.455ZM94.7926 32H99.5176V22.025C99.5176 18.875 101.303 17.51 103.298 17.51C105.643 17.51 107.218 18.875 107.218 22.025V32H111.943V20.87C111.943 16.285 108.933 13.38 105.013 13.38C102.283 13.38 100.498 14.36 99.5176 16.32V6.45H94.7926V32Z" fill="#1C274C"/>
<rect opacity="0.3" x="134" y="10" width="2" height="15" rx="1" fill="#1C274C"/>
<rect x="156" y="2.29883" width="57.495" height="30.402" rx="15.201" fill="#1C274C"/>
<path d="M171 22.5188H174.654C176.782 22.5188 178.126 21.4548 178.126 19.8168C178.126 18.5988 177.594 17.7308 175.998 17.3528C177.202 16.9048 177.58 16.2328 177.58 15.2948C177.58 13.7688 176.432 12.7188 174.304 12.7188H171V22.5188ZM172.96 20.7548V18.3608H174.472C175.536 18.3608 176.138 18.7948 176.138 19.5088C176.138 20.3628 175.536 20.7548 174.472 20.7548H172.96ZM172.96 16.7648V14.4688H174.122C175.186 14.4688 175.592 14.9308 175.592 15.6028C175.592 16.3868 175.186 16.7648 174.122 16.7648H172.96Z" fill="white"/>
<path d="M182.709 22.7008C184.963 22.7008 186.587 20.9928 186.587 18.8928C186.587 16.7928 184.963 15.0708 182.709 15.0708C180.455 15.0708 178.831 16.7928 178.831 18.8928C178.831 20.9928 180.455 22.7008 182.709 22.7008ZM180.721 18.8928C180.721 17.7588 181.505 16.7928 182.709 16.7928C183.913 16.7928 184.697 17.7588 184.697 18.8928C184.697 20.0268 183.913 20.9788 182.709 20.9788C181.505 20.9788 180.721 20.0268 180.721 18.8928Z" fill="white"/>
<path d="M187.703 22.5188H189.593V12.2988H187.703V22.5188Z" fill="white"/>
<path d="M194.309 22.7008C195.611 22.7008 196.269 22.1548 196.661 21.3288V22.5188H198.495V12.2988H196.605V16.3588C196.213 15.5888 195.555 15.0848 194.309 15.0848C192.307 15.0848 190.711 16.8068 190.711 18.9068C190.711 21.0068 192.307 22.7008 194.309 22.7008ZM192.601 18.8928C192.601 17.7588 193.413 16.7928 194.617 16.7928C195.863 16.7928 196.661 17.7728 196.661 18.9068C196.661 20.0408 195.863 20.9928 194.617 20.9928C193.413 20.9928 192.601 19.9988 192.601 18.8928Z" fill="white"/>
</svg>
