<svg width="65" height="30" viewBox="0 0 65 30" fill="none" xmlns="http://www.w3.org/2000/svg">
<path d="M5.5 8C5.5 6.61929 6.61929 5.5 8 5.5H11C12.3807 5.5 13.5 6.61929 13.5 8V11C13.5 12.3807 12.3807 13.5 11 13.5H8C6.61929 13.5 5.5 12.3807 5.5 11V8Z" stroke="#2684FC" stroke-width="1.5"/>
<path d="M5.5 19C5.5 17.6193 6.61929 16.5 8 16.5H11C12.3807 16.5 13.5 17.6193 13.5 19V22C13.5 23.3807 12.3807 24.5 11 24.5H8C6.61929 24.5 5.5 23.3807 5.5 22V19Z" stroke="#2684FC" stroke-width="1.5"/>
<path d="M16.5 8C16.5 6.61929 17.6193 5.5 19 5.5H22C23.3807 5.5 24.5 6.61929 24.5 8V11C24.5 12.3807 23.3807 13.5 22 13.5H19C17.6193 13.5 16.5 12.3807 16.5 11V8Z" stroke="#2684FC" stroke-width="1.5"/>
<path d="M16.5 19C16.5 17.6193 17.6193 16.5 19 16.5H22C23.3807 16.5 24.5 17.6193 24.5 19V22C24.5 23.3807 23.3807 24.5 22 24.5H19C17.6193 24.5 16.5 23.3807 16.5 22V19Z" stroke="#2684FC" stroke-width="1.5"/>
<path d="M45.88 22.14C45.2267 22.14 44.6 22.0733 44 21.94C43.4 21.7933 42.86 21.5733 42.38 21.28C41.9133 20.9733 41.5133 20.58 41.18 20.1C40.86 19.62 40.6533 19.04 40.56 18.36H42.9C43.0067 18.7067 43.1667 18.9867 43.38 19.2C43.5933 19.4133 43.8333 19.5867 44.1 19.72C44.38 19.8533 44.6733 19.9467 44.98 20C45.2867 20.04 45.5867 20.06 45.88 20.06C46.1867 20.06 46.5067 20.0333 46.84 19.98C47.1733 19.9133 47.4733 19.8 47.74 19.64C48.02 19.48 48.2467 19.26 48.42 18.98C48.6067 18.6867 48.7 18.3067 48.7 17.84C48.7 17.4133 48.6133 17.0667 48.44 16.8C48.28 16.5333 48.06 16.3267 47.78 16.18C47.5133 16.0333 47.2067 15.9333 46.86 15.88C46.5267 15.8267 46.1867 15.8 45.84 15.8H44.44V13.84H45.26C45.58 13.84 45.9133 13.8067 46.26 13.74C46.6067 13.6733 46.92 13.56 47.2 13.4C47.4933 13.24 47.7267 13.0267 47.9 12.76C48.0867 12.4933 48.18 12.16 48.18 11.76C48.18 11.3733 48.1133 11.0533 47.98 10.8C47.8467 10.5333 47.6667 10.3267 47.44 10.18C47.2133 10.02 46.9533 9.91333 46.66 9.86C46.38 9.79333 46.08 9.76 45.76 9.76C45.2133 9.76 44.7 9.88667 44.22 10.14C43.74 10.38 43.4267 10.8067 43.28 11.42H41C41.08 10.7667 41.26 10.2067 41.54 9.74C41.82 9.26 42.18 8.87333 42.62 8.58C43.06 8.27333 43.5533 8.04667 44.1 7.9C44.66 7.75333 45.2467 7.68 45.86 7.68C46.46 7.68 47.0333 7.74667 47.58 7.88C48.14 8.01333 48.6333 8.22667 49.06 8.52C49.4867 8.81333 49.8267 9.2 50.08 9.68C50.3333 10.1467 50.46 10.72 50.46 11.4C50.46 11.96 50.32 12.5133 50.04 13.06C49.7733 13.6067 49.2733 14.0667 48.54 14.44C49.38 14.6667 50.0067 15.08 50.42 15.68C50.8333 16.2667 51.04 16.98 51.04 17.82C51.04 18.5933 50.8933 19.2533 50.6 19.8C50.32 20.3333 49.9467 20.78 49.48 21.14C49.0267 21.4867 48.4867 21.74 47.86 21.9C47.2333 22.06 46.5733 22.14 45.88 22.14ZM58.3503 22.14C57.697 22.14 57.0703 22.0733 56.4703 21.94C55.8703 21.7933 55.3303 21.5733 54.8503 21.28C54.3836 20.9733 53.9836 20.58 53.6503 20.1C53.3303 19.62 53.1236 19.04 53.0303 18.36H55.3703C55.477 18.7067 55.637 18.9867 55.8503 19.2C56.0636 19.4133 56.3036 19.5867 56.5703 19.72C56.8503 19.8533 57.1436 19.9467 57.4503 20C57.757 20.04 58.057 20.06 58.3503 20.06C58.657 20.06 58.977 20.0333 59.3103 19.98C59.6436 19.9133 59.9436 19.8 60.2103 19.64C60.4903 19.48 60.717 19.26 60.8903 18.98C61.077 18.6867 61.1703 18.3067 61.1703 17.84C61.1703 17.4133 61.0836 17.0667 60.9103 16.8C60.7503 16.5333 60.5303 16.3267 60.2503 16.18C59.9836 16.0333 59.677 15.9333 59.3303 15.88C58.997 15.8267 58.657 15.8 58.3103 15.8H56.9103V13.84H57.7303C58.0503 13.84 58.3836 13.8067 58.7303 13.74C59.077 13.6733 59.3903 13.56 59.6703 13.4C59.9636 13.24 60.197 13.0267 60.3703 12.76C60.557 12.4933 60.6503 12.16 60.6503 11.76C60.6503 11.3733 60.5836 11.0533 60.4503 10.8C60.317 10.5333 60.137 10.3267 59.9103 10.18C59.6836 10.02 59.4236 9.91333 59.1303 9.86C58.8503 9.79333 58.5503 9.76 58.2303 9.76C57.6836 9.76 57.1703 9.88667 56.6903 10.14C56.2103 10.38 55.897 10.8067 55.7503 11.42H53.4703C53.5503 10.7667 53.7303 10.2067 54.0103 9.74C54.2903 9.26 54.6503 8.87333 55.0903 8.58C55.5303 8.27333 56.0236 8.04667 56.5703 7.9C57.1303 7.75333 57.717 7.68 58.3303 7.68C58.9303 7.68 59.5036 7.74667 60.0503 7.88C60.6103 8.01333 61.1036 8.22667 61.5303 8.52C61.957 8.81333 62.297 9.2 62.5503 9.68C62.8036 10.1467 62.9303 10.72 62.9303 11.4C62.9303 11.96 62.7903 12.5133 62.5103 13.06C62.2436 13.6067 61.7436 14.0667 61.0103 14.44C61.8503 14.6667 62.477 15.08 62.8903 15.68C63.3036 16.2667 63.5103 16.98 63.5103 17.82C63.5103 18.5933 63.3636 19.2533 63.0703 19.8C62.7903 20.3333 62.417 20.78 61.9503 21.14C61.497 21.4867 60.957 21.74 60.3303 21.9C59.7036 22.06 59.0436 22.14 58.3503 22.14Z" fill="#2684FC"/>
</svg>
