<svg width="60" height="30" viewBox="0 0 60 30" fill="none" xmlns="http://www.w3.org/2000/svg">
<path d="M5.5 8C5.5 6.61929 6.61929 5.5 8 5.5H11C12.3807 5.5 13.5 6.61929 13.5 8V11C13.5 12.3807 12.3807 13.5 11 13.5H8C6.61929 13.5 5.5 12.3807 5.5 11V8Z" stroke="#2684FC" stroke-width="1.5"/>
<path d="M5.5 19C5.5 17.6193 6.61929 16.5 8 16.5H11C12.3807 16.5 13.5 17.6193 13.5 19V22C13.5 23.3807 12.3807 24.5 11 24.5H8C6.61929 24.5 5.5 23.3807 5.5 22V19Z" stroke="#2684FC" stroke-width="1.5"/>
<path d="M16.5 8C16.5 6.61929 17.6193 5.5 19 5.5H22C23.3807 5.5 24.5 6.61929 24.5 8V11C24.5 12.3807 23.3807 13.5 22 13.5H19C17.6193 13.5 16.5 12.3807 16.5 11V8Z" stroke="#2684FC" stroke-width="1.5"/>
<path d="M16.5 19C16.5 17.6193 17.6193 16.5 19 16.5H22C23.3807 16.5 24.5 17.6193 24.5 19V22C24.5 23.3807 23.3807 24.5 22 24.5H19C17.6193 24.5 16.5 23.3807 16.5 22V19Z" stroke="#2684FC" stroke-width="1.5"/>
<path d="M45.6 22H43.28V11.12H40.4V9.54C41.1867 9.51333 41.88 9.38667 42.48 9.16C43.08 8.92 43.5533 8.48667 43.9 7.86H45.6V22ZM52.4367 16.72C52.7567 16.44 53.1101 16.1333 53.4967 15.8C53.8967 15.4667 54.2701 15.12 54.6167 14.76C54.9767 14.3867 55.2701 13.9867 55.4967 13.56C55.7367 13.1333 55.8567 12.6733 55.8567 12.18C55.8567 11.46 55.6434 10.88 55.2167 10.44C54.7901 10 54.1767 9.78 53.3767 9.78C52.7367 9.78 52.1967 9.92667 51.7567 10.22C51.3167 10.5133 51.0434 10.9067 50.9367 11.4H48.6567C48.7101 10.7867 48.8767 10.24 49.1567 9.76C49.4501 9.28 49.8167 8.88667 50.2567 8.58C50.6967 8.27333 51.1767 8.05333 51.6967 7.92C52.2301 7.77333 52.8367 7.7 53.5167 7.7C54.1567 7.7 54.7567 7.78667 55.3167 7.96C55.8767 8.13333 56.3634 8.39333 56.7767 8.74C57.2034 9.08667 57.5367 9.52667 57.7767 10.06C58.0301 10.58 58.1567 11.1933 58.1567 11.9C58.1567 12.46 58.0834 12.9733 57.9367 13.44C57.7901 13.9067 57.5901 14.34 57.3367 14.74C57.0834 15.14 56.7901 15.5133 56.4567 15.86C56.1367 16.2067 55.7967 16.5333 55.4367 16.84C54.9567 17.2533 54.5301 17.6133 54.1567 17.92C53.7967 18.2133 53.4701 18.48 53.1767 18.72C52.8834 18.96 52.6167 19.18 52.3767 19.38C52.1367 19.5667 51.9101 19.7533 51.6967 19.94H58.1567V22H48.5367V20.1L52.4367 16.72Z" fill="#2684FC"/>
</svg>
