<svg width="64" height="30" viewBox="0 0 64 30" fill="none" xmlns="http://www.w3.org/2000/svg">
<path d="M5.5 8C5.5 6.61929 6.61929 5.5 8 5.5H11C12.3807 5.5 13.5 6.61929 13.5 8V11C13.5 12.3807 12.3807 13.5 11 13.5H8C6.61929 13.5 5.5 12.3807 5.5 11V8Z" stroke="#2684FC" stroke-width="1.5"/>
<path d="M5.5 19C5.5 17.6193 6.61929 16.5 8 16.5H11C12.3807 16.5 13.5 17.6193 13.5 19V22C13.5 23.3807 12.3807 24.5 11 24.5H8C6.61929 24.5 5.5 23.3807 5.5 22V19Z" stroke="#2684FC" stroke-width="1.5"/>
<path d="M16.5 8C16.5 6.61929 17.6193 5.5 19 5.5H22C23.3807 5.5 24.5 6.61929 24.5 8V11C24.5 12.3807 23.3807 13.5 22 13.5H19C17.6193 13.5 16.5 12.3807 16.5 11V8Z" stroke="#2684FC" stroke-width="1.5"/>
<path d="M16.5 19C16.5 17.6193 17.6193 16.5 19 16.5H22C23.3807 16.5 24.5 17.6193 24.5 19V22C24.5 23.3807 23.3807 24.5 22 24.5H19C17.6193 24.5 16.5 23.3807 16.5 22V19Z" stroke="#2684FC" stroke-width="1.5"/>
<path d="M44.4 16.72C44.72 16.44 45.0733 16.1333 45.46 15.8C45.86 15.4667 46.2333 15.12 46.58 14.76C46.94 14.3867 47.2333 13.9867 47.46 13.56C47.7 13.1333 47.82 12.6733 47.82 12.18C47.82 11.46 47.6067 10.88 47.18 10.44C46.7533 10 46.14 9.78 45.34 9.78C44.7 9.78 44.16 9.92667 43.72 10.22C43.28 10.5133 43.0067 10.9067 42.9 11.4H40.62C40.6733 10.7867 40.84 10.24 41.12 9.76C41.4133 9.28 41.78 8.88667 42.22 8.58C42.66 8.27333 43.14 8.05333 43.66 7.92C44.1933 7.77333 44.8 7.7 45.48 7.7C46.12 7.7 46.72 7.78667 47.28 7.96C47.84 8.13333 48.3267 8.39333 48.74 8.74C49.1667 9.08667 49.5 9.52667 49.74 10.06C49.9933 10.58 50.12 11.1933 50.12 11.9C50.12 12.46 50.0467 12.9733 49.9 13.44C49.7533 13.9067 49.5533 14.34 49.3 14.74C49.0467 15.14 48.7533 15.5133 48.42 15.86C48.1 16.2067 47.76 16.5333 47.4 16.84C46.92 17.2533 46.4933 17.6133 46.12 17.92C45.76 18.2133 45.4333 18.48 45.14 18.72C44.8467 18.96 44.58 19.18 44.34 19.38C44.1 19.5667 43.8733 19.7533 43.66 19.94H50.12V22H40.5V20.1L44.4 16.72ZM54.6756 14.52C55.1156 13.96 55.6423 13.5467 56.2556 13.28C56.869 13.0133 57.5223 12.88 58.2156 12.88C58.909 12.88 59.5423 12.9867 60.1156 13.2C60.689 13.4133 61.1756 13.7133 61.5756 14.1C61.9756 14.4867 62.2823 14.9667 62.4956 15.54C62.7223 16.1 62.8356 16.7267 62.8356 17.42C62.8356 18.1267 62.709 18.7667 62.4556 19.34C62.2156 19.9133 61.8756 20.4067 61.4356 20.82C60.9956 21.2333 60.4823 21.5533 59.8956 21.78C59.309 22.0067 58.6756 22.12 57.9956 22.12C56.9823 22.12 56.1223 21.94 55.4156 21.58C54.7223 21.2067 54.1556 20.72 53.7156 20.12C53.289 19.5067 52.9756 18.8 52.7756 18C52.589 17.1867 52.489 16.34 52.4756 15.46C52.4756 14.86 52.509 14.26 52.5756 13.66C52.6556 13.06 52.7756 12.4867 52.9356 11.94C53.109 11.38 53.329 10.8533 53.5956 10.36C53.8756 9.86667 54.2156 9.42667 54.6156 9.04C55.0423 8.62667 55.5556 8.3 56.1556 8.06C56.7556 7.82 57.4423 7.7 58.2156 7.7C59.3756 7.7 60.369 7.98667 61.1956 8.56C62.0223 9.13333 62.549 10.0133 62.7756 11.2H60.4556C60.269 10.7067 59.9623 10.3467 59.5356 10.12C59.109 9.88 58.6423 9.76 58.1356 9.76C57.709 9.76 57.3156 9.83333 56.9556 9.98C56.609 10.1267 56.3023 10.3333 56.0356 10.6C55.7956 10.84 55.589 11.1133 55.4156 11.42C55.2423 11.7267 55.1023 12.0533 54.9956 12.4C54.889 12.7467 54.809 13.1 54.7556 13.46C54.7023 13.82 54.6756 14.1733 54.6756 14.52ZM60.5156 17.58C60.5156 16.78 60.2756 16.14 59.7956 15.66C59.329 15.1667 58.6956 14.92 57.8956 14.92C57.5223 14.92 57.169 14.9867 56.8356 15.12C56.5156 15.24 56.229 15.4133 55.9756 15.64C55.7356 15.8667 55.5423 16.14 55.3956 16.46C55.2623 16.78 55.1956 17.1267 55.1956 17.5C55.1956 17.8467 55.2623 18.18 55.3956 18.5C55.529 18.8067 55.7156 19.08 55.9556 19.32C56.1956 19.5467 56.4756 19.7333 56.7956 19.88C57.129 20.0133 57.489 20.08 57.8756 20.08C58.649 20.08 59.2823 19.8533 59.7756 19.4C60.269 18.9333 60.5156 18.3267 60.5156 17.58Z" fill="#2684FC"/>
</svg>
