<svg width="53" height="30" viewBox="0 0 53 30" fill="none" xmlns="http://www.w3.org/2000/svg">
<path d="M5.5 8C5.5 6.61929 6.61929 5.5 8 5.5H11C12.3807 5.5 13.5 6.61929 13.5 8V11C13.5 12.3807 12.3807 13.5 11 13.5H8C6.61929 13.5 5.5 12.3807 5.5 11V8Z" stroke="#2684FC" stroke-width="1.5"/>
<path d="M5.5 19C5.5 17.6193 6.61929 16.5 8 16.5H11C12.3807 16.5 13.5 17.6193 13.5 19V22C13.5 23.3807 12.3807 24.5 11 24.5H8C6.61929 24.5 5.5 23.3807 5.5 22V19Z" stroke="#2684FC" stroke-width="1.5"/>
<path d="M16.5 8C16.5 6.61929 17.6193 5.5 19 5.5H22C23.3807 5.5 24.5 6.61929 24.5 8V11C24.5 12.3807 23.3807 13.5 22 13.5H19C17.6193 13.5 16.5 12.3807 16.5 11V8Z" stroke="#2684FC" stroke-width="1.5"/>
<path d="M16.5 19C16.5 17.6193 17.6193 16.5 19 16.5H22C23.3807 16.5 24.5 17.6193 24.5 19V22C24.5 23.3807 23.3807 24.5 22 24.5H19C17.6193 24.5 16.5 23.3807 16.5 22V19Z" stroke="#2684FC" stroke-width="1.5"/>
<path d="M41.46 15.78L42.22 7.86H50.74V9.92H44.16L43.76 13.6C44.1467 13.3467 44.56 13.1533 45 13.02C45.4533 12.8733 45.9933 12.8 46.62 12.8C47.3267 12.8 47.9667 12.9067 48.54 13.12C49.1133 13.32 49.6067 13.6133 50.02 14C50.4333 14.3867 50.7467 14.86 50.96 15.42C51.1867 15.98 51.3 16.6133 51.3 17.32C51.3 18.08 51.1667 18.76 50.9 19.36C50.6333 19.96 50.2667 20.4667 49.8 20.88C49.3333 21.2933 48.7867 21.6133 48.16 21.84C47.5333 22.0533 46.8533 22.16 46.12 22.16C45.4933 22.16 44.9 22.0867 44.34 21.94C43.7933 21.7933 43.2933 21.5667 42.84 21.26C42.4 20.9533 42.0267 20.56 41.72 20.08C41.4267 19.5867 41.2333 19.0067 41.14 18.34H43.44C43.52 18.62 43.6467 18.8667 43.82 19.08C44.0067 19.2933 44.22 19.4733 44.46 19.62C44.7 19.7667 44.96 19.88 45.24 19.96C45.52 20.0267 45.8 20.06 46.08 20.06C46.48 20.06 46.8533 20.0133 47.2 19.92C47.5467 19.8133 47.8467 19.6533 48.1 19.44C48.3667 19.2267 48.5733 18.96 48.72 18.64C48.8667 18.3067 48.94 17.9067 48.94 17.44C48.94 16.5867 48.6867 15.9333 48.18 15.48C47.6867 15.0267 47.0333 14.8 46.22 14.8C45.7133 14.8 45.2533 14.8867 44.84 15.06C44.4267 15.2333 44.0533 15.4733 43.72 15.78H41.46Z" fill="#2684FC"/>
</svg>
