<svg width="65" height="30" viewBox="0 0 65 30" fill="none" xmlns="http://www.w3.org/2000/svg">
<path d="M5.5 8C5.5 6.61929 6.61929 5.5 8 5.5H11C12.3807 5.5 13.5 6.61929 13.5 8V11C13.5 12.3807 12.3807 13.5 11 13.5H8C6.61929 13.5 5.5 12.3807 5.5 11V8Z" stroke="#2684FC" stroke-width="1.5"/>
<path d="M5.5 19C5.5 17.6193 6.61929 16.5 8 16.5H11C12.3807 16.5 13.5 17.6193 13.5 19V22C13.5 23.3807 12.3807 24.5 11 24.5H8C6.61929 24.5 5.5 23.3807 5.5 22V19Z" stroke="#2684FC" stroke-width="1.5"/>
<path d="M16.5 8C16.5 6.61929 17.6193 5.5 19 5.5H22C23.3807 5.5 24.5 6.61929 24.5 8V11C24.5 12.3807 23.3807 13.5 22 13.5H19C17.6193 13.5 16.5 12.3807 16.5 11V8Z" stroke="#2684FC" stroke-width="1.5"/>
<path d="M16.5 19C16.5 17.6193 17.6193 16.5 19 16.5H22C23.3807 16.5 24.5 17.6193 24.5 19V22C24.5 23.3807 23.3807 24.5 22 24.5H19C17.6193 24.5 16.5 23.3807 16.5 22V19Z" stroke="#2684FC" stroke-width="1.5"/>
<path d="M45.88 22.14C45.2267 22.14 44.6 22.0733 44 21.94C43.4 21.7933 42.86 21.5733 42.38 21.28C41.9133 20.9733 41.5133 20.58 41.18 20.1C40.86 19.62 40.6533 19.04 40.56 18.36H42.9C43.0067 18.7067 43.1667 18.9867 43.38 19.2C43.5933 19.4133 43.8333 19.5867 44.1 19.72C44.38 19.8533 44.6733 19.9467 44.98 20C45.2867 20.04 45.5867 20.06 45.88 20.06C46.1867 20.06 46.5067 20.0333 46.84 19.98C47.1733 19.9133 47.4733 19.8 47.74 19.64C48.02 19.48 48.2467 19.26 48.42 18.98C48.6067 18.6867 48.7 18.3067 48.7 17.84C48.7 17.4133 48.6133 17.0667 48.44 16.8C48.28 16.5333 48.06 16.3267 47.78 16.18C47.5133 16.0333 47.2067 15.9333 46.86 15.88C46.5267 15.8267 46.1867 15.8 45.84 15.8H44.44V13.84H45.26C45.58 13.84 45.9133 13.8067 46.26 13.74C46.6067 13.6733 46.92 13.56 47.2 13.4C47.4933 13.24 47.7267 13.0267 47.9 12.76C48.0867 12.4933 48.18 12.16 48.18 11.76C48.18 11.3733 48.1133 11.0533 47.98 10.8C47.8467 10.5333 47.6667 10.3267 47.44 10.18C47.2133 10.02 46.9533 9.91333 46.66 9.86C46.38 9.79333 46.08 9.76 45.76 9.76C45.2133 9.76 44.7 9.88667 44.22 10.14C43.74 10.38 43.4267 10.8067 43.28 11.42H41C41.08 10.7667 41.26 10.2067 41.54 9.74C41.82 9.26 42.18 8.87333 42.62 8.58C43.06 8.27333 43.5533 8.04667 44.1 7.9C44.66 7.75333 45.2467 7.68 45.86 7.68C46.46 7.68 47.0333 7.74667 47.58 7.88C48.14 8.01333 48.6333 8.22667 49.06 8.52C49.4867 8.81333 49.8267 9.2 50.08 9.68C50.3333 10.1467 50.46 10.72 50.46 11.4C50.46 11.96 50.32 12.5133 50.04 13.06C49.7733 13.6067 49.2733 14.0667 48.54 14.44C49.38 14.6667 50.0067 15.08 50.42 15.68C50.8333 16.2667 51.04 16.98 51.04 17.82C51.04 18.5933 50.8933 19.2533 50.6 19.8C50.32 20.3333 49.9467 20.78 49.48 21.14C49.0267 21.4867 48.4867 21.74 47.86 21.9C47.2333 22.06 46.5733 22.14 45.88 22.14ZM55.7303 14.52C56.1703 13.96 56.697 13.5467 57.3103 13.28C57.9236 13.0133 58.577 12.88 59.2703 12.88C59.9636 12.88 60.597 12.9867 61.1703 13.2C61.7436 13.4133 62.2303 13.7133 62.6303 14.1C63.0303 14.4867 63.337 14.9667 63.5503 15.54C63.777 16.1 63.8903 16.7267 63.8903 17.42C63.8903 18.1267 63.7636 18.7667 63.5103 19.34C63.2703 19.9133 62.9303 20.4067 62.4903 20.82C62.0503 21.2333 61.537 21.5533 60.9503 21.78C60.3636 22.0067 59.7303 22.12 59.0503 22.12C58.037 22.12 57.177 21.94 56.4703 21.58C55.777 21.2067 55.2103 20.72 54.7703 20.12C54.3436 19.5067 54.0303 18.8 53.8303 18C53.6436 17.1867 53.5436 16.34 53.5303 15.46C53.5303 14.86 53.5636 14.26 53.6303 13.66C53.7103 13.06 53.8303 12.4867 53.9903 11.94C54.1636 11.38 54.3836 10.8533 54.6503 10.36C54.9303 9.86667 55.2703 9.42667 55.6703 9.04C56.097 8.62667 56.6103 8.3 57.2103 8.06C57.8103 7.82 58.497 7.7 59.2703 7.7C60.4303 7.7 61.4236 7.98667 62.2503 8.56C63.077 9.13333 63.6036 10.0133 63.8303 11.2H61.5103C61.3236 10.7067 61.017 10.3467 60.5903 10.12C60.1636 9.88 59.697 9.76 59.1903 9.76C58.7636 9.76 58.3703 9.83333 58.0103 9.98C57.6636 10.1267 57.357 10.3333 57.0903 10.6C56.8503 10.84 56.6436 11.1133 56.4703 11.42C56.297 11.7267 56.157 12.0533 56.0503 12.4C55.9436 12.7467 55.8636 13.1 55.8103 13.46C55.757 13.82 55.7303 14.1733 55.7303 14.52ZM61.5703 17.58C61.5703 16.78 61.3303 16.14 60.8503 15.66C60.3836 15.1667 59.7503 14.92 58.9503 14.92C58.577 14.92 58.2236 14.9867 57.8903 15.12C57.5703 15.24 57.2836 15.4133 57.0303 15.64C56.7903 15.8667 56.597 16.14 56.4503 16.46C56.317 16.78 56.2503 17.1267 56.2503 17.5C56.2503 17.8467 56.317 18.18 56.4503 18.5C56.5836 18.8067 56.7703 19.08 57.0103 19.32C57.2503 19.5467 57.5303 19.7333 57.8503 19.88C58.1836 20.0133 58.5436 20.08 58.9303 20.08C59.7036 20.08 60.337 19.8533 60.8303 19.4C61.3236 18.9333 61.5703 18.3267 61.5703 17.58Z" fill="#2684FC"/>
</svg>
