<svg width="61" height="30" viewBox="0 0 61 30" fill="none" xmlns="http://www.w3.org/2000/svg">
<path d="M5.5 8C5.5 6.61929 6.61929 5.5 8 5.5H11C12.3807 5.5 13.5 6.61929 13.5 8V11C13.5 12.3807 12.3807 13.5 11 13.5H8C6.61929 13.5 5.5 12.3807 5.5 11V8Z" stroke="#2684FC" stroke-width="1.5"/>
<path d="M5.5 19C5.5 17.6193 6.61929 16.5 8 16.5H11C12.3807 16.5 13.5 17.6193 13.5 19V22C13.5 23.3807 12.3807 24.5 11 24.5H8C6.61929 24.5 5.5 23.3807 5.5 22V19Z" stroke="#2684FC" stroke-width="1.5"/>
<path d="M16.5 8C16.5 6.61929 17.6193 5.5 19 5.5H22C23.3807 5.5 24.5 6.61929 24.5 8V11C24.5 12.3807 23.3807 13.5 22 13.5H19C17.6193 13.5 16.5 12.3807 16.5 11V8Z" stroke="#2684FC" stroke-width="1.5"/>
<path d="M16.5 19C16.5 17.6193 17.6193 16.5 19 16.5H22C23.3807 16.5 24.5 17.6193 24.5 19V22C24.5 23.3807 23.3807 24.5 22 24.5H19C17.6193 24.5 16.5 23.3807 16.5 22V19Z" stroke="#2684FC" stroke-width="1.5"/>
<path d="M45.6 22H43.28V11.12H40.4V9.54C41.1867 9.51333 41.88 9.38667 42.48 9.16C43.08 8.92 43.5533 8.48667 43.9 7.86H45.6V22ZM49.4967 15.78L50.2567 7.86H58.7767V9.92H52.1967L51.7967 13.6C52.1834 13.3467 52.5967 13.1533 53.0367 13.02C53.4901 12.8733 54.0301 12.8 54.6567 12.8C55.3634 12.8 56.0034 12.9067 56.5767 13.12C57.1501 13.32 57.6434 13.6133 58.0567 14C58.4701 14.3867 58.7834 14.86 58.9967 15.42C59.2234 15.98 59.3367 16.6133 59.3367 17.32C59.3367 18.08 59.2034 18.76 58.9367 19.36C58.6701 19.96 58.3034 20.4667 57.8367 20.88C57.3701 21.2933 56.8234 21.6133 56.1967 21.84C55.5701 22.0533 54.8901 22.16 54.1567 22.16C53.5301 22.16 52.9367 22.0867 52.3767 21.94C51.8301 21.7933 51.3301 21.5667 50.8767 21.26C50.4367 20.9533 50.0634 20.56 49.7567 20.08C49.4634 19.5867 49.2701 19.0067 49.1767 18.34H51.4767C51.5567 18.62 51.6834 18.8667 51.8567 19.08C52.0434 19.2933 52.2567 19.4733 52.4967 19.62C52.7367 19.7667 52.9967 19.88 53.2767 19.96C53.5567 20.0267 53.8367 20.06 54.1167 20.06C54.5167 20.06 54.8901 20.0133 55.2367 19.92C55.5834 19.8133 55.8834 19.6533 56.1367 19.44C56.4034 19.2267 56.6101 18.96 56.7567 18.64C56.9034 18.3067 56.9767 17.9067 56.9767 17.44C56.9767 16.5867 56.7234 15.9333 56.2167 15.48C55.7234 15.0267 55.0701 14.8 54.2567 14.8C53.7501 14.8 53.2901 14.8867 52.8767 15.06C52.4634 15.2333 52.0901 15.4733 51.7567 15.78H49.4967Z" fill="#2684FC"/>
</svg>
