<svg width="74" height="30" viewBox="0 0 74 30" fill="none" xmlns="http://www.w3.org/2000/svg">
<path d="M5.5 8C5.5 6.61929 6.61929 5.5 8 5.5H11C12.3807 5.5 13.5 6.61929 13.5 8V11C13.5 12.3807 12.3807 13.5 11 13.5H8C6.61929 13.5 5.5 12.3807 5.5 11V8Z" stroke="#2684FC" stroke-width="1.5"/>
<path d="M5.5 19C5.5 17.6193 6.61929 16.5 8 16.5H11C12.3807 16.5 13.5 17.6193 13.5 19V22C13.5 23.3807 12.3807 24.5 11 24.5H8C6.61929 24.5 5.5 23.3807 5.5 22V19Z" stroke="#2684FC" stroke-width="1.5"/>
<path d="M16.5 8C16.5 6.61929 17.6193 5.5 19 5.5H22C23.3807 5.5 24.5 6.61929 24.5 8V11C24.5 12.3807 23.3807 13.5 22 13.5H19C17.6193 13.5 16.5 12.3807 16.5 11V8Z" stroke="#2684FC" stroke-width="1.5"/>
<path d="M16.5 19C16.5 17.6193 17.6193 16.5 19 16.5H22C23.3807 16.5 24.5 17.6193 24.5 19V22C24.5 23.3807 23.3807 24.5 22 24.5H19C17.6193 24.5 16.5 23.3807 16.5 22V19Z" stroke="#2684FC" stroke-width="1.5"/>
<path d="M45.6 22H43.28V11.12H40.4V9.54C41.1867 9.51333 41.88 9.38667 42.48 9.16C43.08 8.92 43.5533 8.48667 43.9 7.86H45.6V22ZM60.1567 14.92C60.1567 16 60.0434 16.9867 59.8167 17.88C59.6034 18.76 59.2634 19.5133 58.7967 20.14C58.3434 20.7667 57.7701 21.2533 57.0767 21.6C56.3834 21.9467 55.5634 22.12 54.6167 22.12C53.6701 22.12 52.8501 21.9533 52.1567 21.62C51.4634 21.2733 50.8901 20.7933 50.4367 20.18C49.9834 19.5667 49.6434 18.8267 49.4167 17.96C49.1901 17.0933 49.0767 16.1267 49.0767 15.06C49.0767 13.9667 49.1834 12.9667 49.3967 12.06C49.6101 11.1533 49.9434 10.3733 50.3967 9.72C50.8501 9.06667 51.4234 8.56667 52.1167 8.22C52.8234 7.86 53.6567 7.68 54.6167 7.68C55.5501 7.68 56.3634 7.85333 57.0567 8.2C57.7501 8.54667 58.3234 9.04 58.7767 9.68C59.2434 10.32 59.5901 11.0867 59.8167 11.98C60.0434 12.86 60.1567 13.84 60.1567 14.92ZM51.3767 14.92C51.3767 15.6533 51.4301 16.3333 51.5367 16.96C51.6434 17.5867 51.8234 18.1333 52.0767 18.6C52.3301 19.0533 52.6634 19.4133 53.0767 19.68C53.4901 19.9333 54.0034 20.06 54.6167 20.06C55.2167 20.06 55.7234 19.9333 56.1367 19.68C56.5501 19.4133 56.8834 19.0533 57.1367 18.6C57.3901 18.1333 57.5701 17.5867 57.6767 16.96C57.7834 16.3333 57.8367 15.6533 57.8367 14.92C57.8367 14.2 57.7834 13.5267 57.6767 12.9C57.5701 12.26 57.3901 11.7133 57.1367 11.26C56.8834 10.7933 56.5501 10.4267 56.1367 10.16C55.7234 9.89333 55.2167 9.76 54.6167 9.76C54.0034 9.76 53.4901 9.89333 53.0767 10.16C52.6634 10.4267 52.3301 10.7933 52.0767 11.26C51.8234 11.7133 51.6434 12.26 51.5367 12.9C51.4301 13.5267 51.3767 14.2 51.3767 14.92ZM67.4612 22.14C66.8079 22.14 66.1812 22.0733 65.5812 21.94C64.9812 21.7933 64.4412 21.5733 63.9612 21.28C63.4946 20.9733 63.0946 20.58 62.7612 20.1C62.4412 19.62 62.2346 19.04 62.1412 18.36H64.4812C64.5879 18.7067 64.7479 18.9867 64.9612 19.2C65.1746 19.4133 65.4146 19.5867 65.6812 19.72C65.9612 19.8533 66.2546 19.9467 66.5612 20C66.8679 20.04 67.1679 20.06 67.4612 20.06C67.7679 20.06 68.0879 20.0333 68.4212 19.98C68.7546 19.9133 69.0546 19.8 69.3212 19.64C69.6012 19.48 69.8279 19.26 70.0012 18.98C70.1879 18.6867 70.2812 18.3067 70.2812 17.84C70.2812 17.4133 70.1946 17.0667 70.0212 16.8C69.8612 16.5333 69.6412 16.3267 69.3612 16.18C69.0946 16.0333 68.7879 15.9333 68.4412 15.88C68.1079 15.8267 67.7679 15.8 67.4212 15.8H66.0212V13.84H66.8412C67.1612 13.84 67.4946 13.8067 67.8412 13.74C68.1879 13.6733 68.5012 13.56 68.7812 13.4C69.0746 13.24 69.3079 13.0267 69.4812 12.76C69.6679 12.4933 69.7612 12.16 69.7612 11.76C69.7612 11.3733 69.6946 11.0533 69.5612 10.8C69.4279 10.5333 69.2479 10.3267 69.0212 10.18C68.7946 10.02 68.5346 9.91333 68.2412 9.86C67.9612 9.79333 67.6612 9.76 67.3412 9.76C66.7946 9.76 66.2812 9.88667 65.8012 10.14C65.3212 10.38 65.0079 10.8067 64.8612 11.42H62.5812C62.6612 10.7667 62.8412 10.2067 63.1212 9.74C63.4012 9.26 63.7612 8.87333 64.2012 8.58C64.6412 8.27333 65.1346 8.04667 65.6812 7.9C66.2412 7.75333 66.8279 7.68 67.4412 7.68C68.0412 7.68 68.6146 7.74667 69.1612 7.88C69.7212 8.01333 70.2146 8.22667 70.6412 8.52C71.0679 8.81333 71.4079 9.2 71.6612 9.68C71.9146 10.1467 72.0412 10.72 72.0412 11.4C72.0412 11.96 71.9012 12.5133 71.6212 13.06C71.3546 13.6067 70.8546 14.0667 70.1212 14.44C70.9612 14.6667 71.5879 15.08 72.0012 15.68C72.4146 16.2667 72.6213 16.98 72.6213 17.82C72.6213 18.5933 72.4746 19.2533 72.1812 19.8C71.9012 20.3333 71.5279 20.78 71.0612 21.14C70.6079 21.4867 70.0679 21.74 69.4412 21.9C68.8146 22.06 68.1546 22.14 67.4612 22.14Z" fill="#2684FC"/>
</svg>
