<svg width="64" height="30" viewBox="0 0 64 30" fill="none" xmlns="http://www.w3.org/2000/svg">
<path d="M5.5 8C5.5 6.61929 6.61929 5.5 8 5.5H11C12.3807 5.5 13.5 6.61929 13.5 8V11C13.5 12.3807 12.3807 13.5 11 13.5H8C6.61929 13.5 5.5 12.3807 5.5 11V8Z" stroke="#2684FC" stroke-width="1.5"/>
<path d="M5.5 19C5.5 17.6193 6.61929 16.5 8 16.5H11C12.3807 16.5 13.5 17.6193 13.5 19V22C13.5 23.3807 12.3807 24.5 11 24.5H8C6.61929 24.5 5.5 23.3807 5.5 22V19Z" stroke="#2684FC" stroke-width="1.5"/>
<path d="M16.5 8C16.5 6.61929 17.6193 5.5 19 5.5H22C23.3807 5.5 24.5 6.61929 24.5 8V11C24.5 12.3807 23.3807 13.5 22 13.5H19C17.6193 13.5 16.5 12.3807 16.5 11V8Z" stroke="#2684FC" stroke-width="1.5"/>
<path d="M16.5 19C16.5 17.6193 17.6193 16.5 19 16.5H22C23.3807 16.5 24.5 17.6193 24.5 19V22C24.5 23.3807 23.3807 24.5 22 24.5H19C17.6193 24.5 16.5 23.3807 16.5 22V19Z" stroke="#2684FC" stroke-width="1.5"/>
<path d="M44.4 16.72C44.72 16.44 45.0733 16.1333 45.46 15.8C45.86 15.4667 46.2333 15.12 46.58 14.76C46.94 14.3867 47.2333 13.9867 47.46 13.56C47.7 13.1333 47.82 12.6733 47.82 12.18C47.82 11.46 47.6067 10.88 47.18 10.44C46.7533 10 46.14 9.78 45.34 9.78C44.7 9.78 44.16 9.92667 43.72 10.22C43.28 10.5133 43.0067 10.9067 42.9 11.4H40.62C40.6733 10.7867 40.84 10.24 41.12 9.76C41.4133 9.28 41.78 8.88667 42.22 8.58C42.66 8.27333 43.14 8.05333 43.66 7.92C44.1933 7.77333 44.8 7.7 45.48 7.7C46.12 7.7 46.72 7.78667 47.28 7.96C47.84 8.13333 48.3267 8.39333 48.74 8.74C49.1667 9.08667 49.5 9.52667 49.74 10.06C49.9933 10.58 50.12 11.1933 50.12 11.9C50.12 12.46 50.0467 12.9733 49.9 13.44C49.7533 13.9067 49.5533 14.34 49.3 14.74C49.0467 15.14 48.7533 15.5133 48.42 15.86C48.1 16.2067 47.76 16.5333 47.4 16.84C46.92 17.2533 46.4933 17.6133 46.12 17.92C45.76 18.2133 45.4333 18.48 45.14 18.72C44.8467 18.96 44.58 19.18 44.34 19.38C44.1 19.5667 43.8733 19.7533 43.66 19.94H50.12V22H40.5V20.1L44.4 16.72ZM62.7956 18.04C62.7956 18.8133 62.6423 19.4667 62.3356 20C62.0423 20.52 61.649 20.94 61.1556 21.26C60.6756 21.58 60.129 21.8133 59.5156 21.96C58.9023 22.0933 58.2756 22.16 57.6356 22.16C56.9823 22.16 56.3423 22.0867 55.7156 21.94C55.1023 21.7933 54.549 21.56 54.0556 21.24C53.5756 20.9067 53.189 20.48 52.8956 19.96C52.6023 19.44 52.4556 18.8 52.4556 18.04C52.4556 17.2267 52.6356 16.52 52.9956 15.92C53.369 15.32 53.9556 14.8667 54.7556 14.56C54.409 14.3867 54.1156 14.18 53.8756 13.94C53.649 13.7 53.4623 13.4467 53.3156 13.18C53.1823 12.9 53.0823 12.6133 53.0156 12.32C52.9623 12.0267 52.9356 11.7467 52.9356 11.48C52.9356 10.8 53.0623 10.22 53.3156 9.74C53.5823 9.26 53.9356 8.86667 54.3756 8.56C54.8156 8.25333 55.3156 8.03333 55.8756 7.9C56.449 7.75333 57.0423 7.68 57.6556 7.68C58.2556 7.68 58.8356 7.75333 59.3956 7.9C59.969 8.03333 60.469 8.25333 60.8956 8.56C61.3356 8.86667 61.6823 9.26 61.9356 9.74C62.2023 10.22 62.3356 10.8 62.3356 11.48C62.3356 11.7467 62.3023 12.0267 62.2356 12.32C62.169 12.6133 62.0623 12.8933 61.9156 13.16C61.7823 13.4267 61.5956 13.68 61.3556 13.92C61.1156 14.16 60.829 14.36 60.4956 14.52C61.2956 14.8267 61.8756 15.2867 62.2356 15.9C62.609 16.5133 62.7956 17.2267 62.7956 18.04ZM57.6356 9.72C57.3156 9.72 57.009 9.76 56.7156 9.84C56.4223 9.90667 56.1623 10.02 55.9356 10.18C55.7223 10.34 55.549 10.5533 55.4156 10.82C55.2956 11.0733 55.2356 11.38 55.2356 11.74C55.2356 12.46 55.4623 12.9933 55.9156 13.34C56.3823 13.6733 56.9556 13.84 57.6356 13.84C57.9556 13.84 58.2623 13.8 58.5556 13.72C58.849 13.64 59.1023 13.52 59.3156 13.36C59.529 13.1867 59.6956 12.9733 59.8156 12.72C59.949 12.4667 60.0156 12.1667 60.0156 11.82C60.0156 11.4467 59.949 11.1267 59.8156 10.86C59.6956 10.5933 59.529 10.3733 59.3156 10.2C59.1023 10.0267 58.849 9.90667 58.5556 9.84C58.2623 9.76 57.9556 9.72 57.6356 9.72ZM57.6156 15.7C57.2556 15.7 56.9023 15.74 56.5556 15.82C56.2223 15.9 55.9223 16.0267 55.6556 16.2C55.389 16.3733 55.1756 16.6 55.0156 16.88C54.8556 17.16 54.7756 17.5 54.7756 17.9C54.7756 18.34 54.869 18.7067 55.0556 19C55.2423 19.28 55.4756 19.5067 55.7556 19.68C56.0356 19.84 56.3423 19.9533 56.6756 20.02C57.009 20.0867 57.329 20.12 57.6356 20.12C57.9423 20.12 58.2623 20.0867 58.5956 20.02C58.929 19.9533 59.229 19.84 59.4956 19.68C59.7756 19.5067 60.0023 19.28 60.1756 19C60.3623 18.7067 60.4556 18.34 60.4556 17.9C60.4556 17.5 60.3756 17.16 60.2156 16.88C60.0556 16.6 59.8423 16.3733 59.5756 16.2C59.309 16.0267 59.0023 15.9 58.6556 15.82C58.3223 15.74 57.9756 15.7 57.6156 15.7Z" fill="#2684FC"/>
</svg>
