<svg width="66" height="30" viewBox="0 0 66 30" fill="none" xmlns="http://www.w3.org/2000/svg">
<path d="M5.5 8C5.5 6.61929 6.61929 5.5 8 5.5H11C12.3807 5.5 13.5 6.61929 13.5 8V11C13.5 12.3807 12.3807 13.5 11 13.5H8C6.61929 13.5 5.5 12.3807 5.5 11V8Z" stroke="#2684FC" stroke-width="1.5"/>
<path d="M5.5 19C5.5 17.6193 6.61929 16.5 8 16.5H11C12.3807 16.5 13.5 17.6193 13.5 19V22C13.5 23.3807 12.3807 24.5 11 24.5H8C6.61929 24.5 5.5 23.3807 5.5 22V19Z" stroke="#2684FC" stroke-width="1.5"/>
<path d="M16.5 8C16.5 6.61929 17.6193 5.5 19 5.5H22C23.3807 5.5 24.5 6.61929 24.5 8V11C24.5 12.3807 23.3807 13.5 22 13.5H19C17.6193 13.5 16.5 12.3807 16.5 11V8Z" stroke="#2684FC" stroke-width="1.5"/>
<path d="M16.5 19C16.5 17.6193 17.6193 16.5 19 16.5H22C23.3807 16.5 24.5 17.6193 24.5 19V22C24.5 23.3807 23.3807 24.5 22 24.5H19C17.6193 24.5 16.5 23.3807 16.5 22V19Z" stroke="#2684FC" stroke-width="1.5"/>
<path d="M45.88 22.14C45.2267 22.14 44.6 22.0733 44 21.94C43.4 21.7933 42.86 21.5733 42.38 21.28C41.9133 20.9733 41.5133 20.58 41.18 20.1C40.86 19.62 40.6533 19.04 40.56 18.36H42.9C43.0067 18.7067 43.1667 18.9867 43.38 19.2C43.5933 19.4133 43.8333 19.5867 44.1 19.72C44.38 19.8533 44.6733 19.9467 44.98 20C45.2867 20.04 45.5867 20.06 45.88 20.06C46.1867 20.06 46.5067 20.0333 46.84 19.98C47.1733 19.9133 47.4733 19.8 47.74 19.64C48.02 19.48 48.2467 19.26 48.42 18.98C48.6067 18.6867 48.7 18.3067 48.7 17.84C48.7 17.4133 48.6133 17.0667 48.44 16.8C48.28 16.5333 48.06 16.3267 47.78 16.18C47.5133 16.0333 47.2067 15.9333 46.86 15.88C46.5267 15.8267 46.1867 15.8 45.84 15.8H44.44V13.84H45.26C45.58 13.84 45.9133 13.8067 46.26 13.74C46.6067 13.6733 46.92 13.56 47.2 13.4C47.4933 13.24 47.7267 13.0267 47.9 12.76C48.0867 12.4933 48.18 12.16 48.18 11.76C48.18 11.3733 48.1133 11.0533 47.98 10.8C47.8467 10.5333 47.6667 10.3267 47.44 10.18C47.2133 10.02 46.9533 9.91333 46.66 9.86C46.38 9.79333 46.08 9.76 45.76 9.76C45.2133 9.76 44.7 9.88667 44.22 10.14C43.74 10.38 43.4267 10.8067 43.28 11.42H41C41.08 10.7667 41.26 10.2067 41.54 9.74C41.82 9.26 42.18 8.87333 42.62 8.58C43.06 8.27333 43.5533 8.04667 44.1 7.9C44.66 7.75333 45.2467 7.68 45.86 7.68C46.46 7.68 47.0333 7.74667 47.58 7.88C48.14 8.01333 48.6333 8.22667 49.06 8.52C49.4867 8.81333 49.8267 9.2 50.08 9.68C50.3333 10.1467 50.46 10.72 50.46 11.4C50.46 11.96 50.32 12.5133 50.04 13.06C49.7733 13.6067 49.2733 14.0667 48.54 14.44C49.38 14.6667 50.0067 15.08 50.42 15.68C50.8333 16.2667 51.04 16.98 51.04 17.82C51.04 18.5933 50.8933 19.2533 50.6 19.8C50.32 20.3333 49.9467 20.78 49.48 21.14C49.0267 21.4867 48.4867 21.74 47.86 21.9C47.2333 22.06 46.5733 22.14 45.88 22.14ZM64.5903 14.92C64.5903 16 64.477 16.9867 64.2503 17.88C64.037 18.76 63.697 19.5133 63.2303 20.14C62.777 20.7667 62.2036 21.2533 61.5103 21.6C60.817 21.9467 59.997 22.12 59.0503 22.12C58.1036 22.12 57.2836 21.9533 56.5903 21.62C55.897 21.2733 55.3236 20.7933 54.8703 20.18C54.417 19.5667 54.077 18.8267 53.8503 17.96C53.6236 17.0933 53.5103 16.1267 53.5103 15.06C53.5103 13.9667 53.617 12.9667 53.8303 12.06C54.0436 11.1533 54.377 10.3733 54.8303 9.72C55.2836 9.06667 55.857 8.56667 56.5503 8.22C57.257 7.86 58.0903 7.68 59.0503 7.68C59.9836 7.68 60.797 7.85333 61.4903 8.2C62.1836 8.54667 62.757 9.04 63.2103 9.68C63.677 10.32 64.0236 11.0867 64.2503 11.98C64.477 12.86 64.5903 13.84 64.5903 14.92ZM55.8103 14.92C55.8103 15.6533 55.8636 16.3333 55.9703 16.96C56.077 17.5867 56.257 18.1333 56.5103 18.6C56.7636 19.0533 57.097 19.4133 57.5103 19.68C57.9236 19.9333 58.437 20.06 59.0503 20.06C59.6503 20.06 60.157 19.9333 60.5703 19.68C60.9836 19.4133 61.317 19.0533 61.5703 18.6C61.8236 18.1333 62.0036 17.5867 62.1103 16.96C62.217 16.3333 62.2703 15.6533 62.2703 14.92C62.2703 14.2 62.217 13.5267 62.1103 12.9C62.0036 12.26 61.8236 11.7133 61.5703 11.26C61.317 10.7933 60.9836 10.4267 60.5703 10.16C60.157 9.89333 59.6503 9.76 59.0503 9.76C58.437 9.76 57.9236 9.89333 57.5103 10.16C57.097 10.4267 56.7636 10.7933 56.5103 11.26C56.257 11.7133 56.077 12.26 55.9703 12.9C55.8636 13.5267 55.8103 14.2 55.8103 14.92Z" fill="#2684FC"/>
</svg>
