<svg width="61" height="30" viewBox="0 0 61 30" fill="none" xmlns="http://www.w3.org/2000/svg">
<path d="M5.5 8C5.5 6.61929 6.61929 5.5 8 5.5H11C12.3807 5.5 13.5 6.61929 13.5 8V11C13.5 12.3807 12.3807 13.5 11 13.5H8C6.61929 13.5 5.5 12.3807 5.5 11V8Z" stroke="#2684FC" stroke-width="1.5"/>
<path d="M5.5 19C5.5 17.6193 6.61929 16.5 8 16.5H11C12.3807 16.5 13.5 17.6193 13.5 19V22C13.5 23.3807 12.3807 24.5 11 24.5H8C6.61929 24.5 5.5 23.3807 5.5 22V19Z" stroke="#2684FC" stroke-width="1.5"/>
<path d="M16.5 8C16.5 6.61929 17.6193 5.5 19 5.5H22C23.3807 5.5 24.5 6.61929 24.5 8V11C24.5 12.3807 23.3807 13.5 22 13.5H19C17.6193 13.5 16.5 12.3807 16.5 11V8Z" stroke="#2684FC" stroke-width="1.5"/>
<path d="M16.5 19C16.5 17.6193 17.6193 16.5 19 16.5H22C23.3807 16.5 24.5 17.6193 24.5 19V22C24.5 23.3807 23.3807 24.5 22 24.5H19C17.6193 24.5 16.5 23.3807 16.5 22V19Z" stroke="#2684FC" stroke-width="1.5"/>
<path d="M45.6 22H43.28V11.12H40.4V9.54C41.1867 9.51333 41.88 9.38667 42.48 9.16C43.08 8.92 43.5533 8.48667 43.9 7.86H45.6V22ZM59.4167 18.04C59.4167 18.8133 59.2634 19.4667 58.9567 20C58.6634 20.52 58.2701 20.94 57.7767 21.26C57.2967 21.58 56.7501 21.8133 56.1367 21.96C55.5234 22.0933 54.8967 22.16 54.2567 22.16C53.6034 22.16 52.9634 22.0867 52.3367 21.94C51.7234 21.7933 51.1701 21.56 50.6767 21.24C50.1967 20.9067 49.8101 20.48 49.5167 19.96C49.2234 19.44 49.0767 18.8 49.0767 18.04C49.0767 17.2267 49.2567 16.52 49.6167 15.92C49.9901 15.32 50.5767 14.8667 51.3767 14.56C51.0301 14.3867 50.7367 14.18 50.4967 13.94C50.2701 13.7 50.0834 13.4467 49.9367 13.18C49.8034 12.9 49.7034 12.6133 49.6367 12.32C49.5834 12.0267 49.5567 11.7467 49.5567 11.48C49.5567 10.8 49.6834 10.22 49.9367 9.74C50.2034 9.26 50.5567 8.86667 50.9967 8.56C51.4367 8.25333 51.9367 8.03333 52.4967 7.9C53.0701 7.75333 53.6634 7.68 54.2767 7.68C54.8767 7.68 55.4567 7.75333 56.0167 7.9C56.5901 8.03333 57.0901 8.25333 57.5167 8.56C57.9567 8.86667 58.3034 9.26 58.5567 9.74C58.8234 10.22 58.9567 10.8 58.9567 11.48C58.9567 11.7467 58.9234 12.0267 58.8567 12.32C58.7901 12.6133 58.6834 12.8933 58.5367 13.16C58.4034 13.4267 58.2167 13.68 57.9767 13.92C57.7367 14.16 57.4501 14.36 57.1167 14.52C57.9167 14.8267 58.4967 15.2867 58.8567 15.9C59.2301 16.5133 59.4167 17.2267 59.4167 18.04ZM54.2567 9.72C53.9367 9.72 53.6301 9.76 53.3367 9.84C53.0434 9.90667 52.7834 10.02 52.5567 10.18C52.3434 10.34 52.1701 10.5533 52.0367 10.82C51.9167 11.0733 51.8567 11.38 51.8567 11.74C51.8567 12.46 52.0834 12.9933 52.5367 13.34C53.0034 13.6733 53.5767 13.84 54.2567 13.84C54.5767 13.84 54.8834 13.8 55.1767 13.72C55.4701 13.64 55.7234 13.52 55.9367 13.36C56.1501 13.1867 56.3167 12.9733 56.4367 12.72C56.5701 12.4667 56.6367 12.1667 56.6367 11.82C56.6367 11.4467 56.5701 11.1267 56.4367 10.86C56.3167 10.5933 56.1501 10.3733 55.9367 10.2C55.7234 10.0267 55.4701 9.90667 55.1767 9.84C54.8834 9.76 54.5767 9.72 54.2567 9.72ZM54.2367 15.7C53.8767 15.7 53.5234 15.74 53.1767 15.82C52.8434 15.9 52.5434 16.0267 52.2767 16.2C52.0101 16.3733 51.7967 16.6 51.6367 16.88C51.4767 17.16 51.3967 17.5 51.3967 17.9C51.3967 18.34 51.4901 18.7067 51.6767 19C51.8634 19.28 52.0967 19.5067 52.3767 19.68C52.6567 19.84 52.9634 19.9533 53.2967 20.02C53.6301 20.0867 53.9501 20.12 54.2567 20.12C54.5634 20.12 54.8834 20.0867 55.2167 20.02C55.5501 19.9533 55.8501 19.84 56.1167 19.68C56.3967 19.5067 56.6234 19.28 56.7967 19C56.9834 18.7067 57.0767 18.34 57.0767 17.9C57.0767 17.5 56.9967 17.16 56.8367 16.88C56.6767 16.6 56.4634 16.3733 56.1967 16.2C55.9301 16.0267 55.6234 15.9 55.2767 15.82C54.9434 15.74 54.5967 15.7 54.2367 15.7Z" fill="#2684FC"/>
</svg>
