<svg width="66" height="30" viewBox="0 0 66 30" fill="none" xmlns="http://www.w3.org/2000/svg">
<path d="M5.5 8C5.5 6.61929 6.61929 5.5 8 5.5H11C12.3807 5.5 13.5 6.61929 13.5 8V11C13.5 12.3807 12.3807 13.5 11 13.5H8C6.61929 13.5 5.5 12.3807 5.5 11V8Z" stroke="#2684FC" stroke-width="1.5"/>
<path d="M5.5 19C5.5 17.6193 6.61929 16.5 8 16.5H11C12.3807 16.5 13.5 17.6193 13.5 19V22C13.5 23.3807 12.3807 24.5 11 24.5H8C6.61929 24.5 5.5 23.3807 5.5 22V19Z" stroke="#2684FC" stroke-width="1.5"/>
<path d="M16.5 8C16.5 6.61929 17.6193 5.5 19 5.5H22C23.3807 5.5 24.5 6.61929 24.5 8V11C24.5 12.3807 23.3807 13.5 22 13.5H19C17.6193 13.5 16.5 12.3807 16.5 11V8Z" stroke="#2684FC" stroke-width="1.5"/>
<path d="M16.5 19C16.5 17.6193 17.6193 16.5 19 16.5H22C23.3807 16.5 24.5 17.6193 24.5 19V22C24.5 23.3807 23.3807 24.5 22 24.5H19C17.6193 24.5 16.5 23.3807 16.5 22V19Z" stroke="#2684FC" stroke-width="1.5"/>
<path d="M41.46 15.78L42.22 7.86H50.74V9.92H44.16L43.76 13.6C44.1467 13.3467 44.56 13.1533 45 13.02C45.4533 12.8733 45.9933 12.8 46.62 12.8C47.3267 12.8 47.9667 12.9067 48.54 13.12C49.1133 13.32 49.6067 13.6133 50.02 14C50.4333 14.3867 50.7467 14.86 50.96 15.42C51.1867 15.98 51.3 16.6133 51.3 17.32C51.3 18.08 51.1667 18.76 50.9 19.36C50.6333 19.96 50.2667 20.4667 49.8 20.88C49.3333 21.2933 48.7867 21.6133 48.16 21.84C47.5333 22.0533 46.8533 22.16 46.12 22.16C45.4933 22.16 44.9 22.0867 44.34 21.94C43.7933 21.7933 43.2933 21.5667 42.84 21.26C42.4 20.9533 42.0267 20.56 41.72 20.08C41.4267 19.5867 41.2333 19.0067 41.14 18.34H43.44C43.52 18.62 43.6467 18.8667 43.82 19.08C44.0067 19.2933 44.22 19.4733 44.46 19.62C44.7 19.7667 44.96 19.88 45.24 19.96C45.52 20.0267 45.8 20.06 46.08 20.06C46.48 20.06 46.8533 20.0133 47.2 19.92C47.5467 19.8133 47.8467 19.6533 48.1 19.44C48.3667 19.2267 48.5733 18.96 48.72 18.64C48.8667 18.3067 48.94 17.9067 48.94 17.44C48.94 16.5867 48.6867 15.9333 48.18 15.48C47.6867 15.0267 47.0333 14.8 46.22 14.8C45.7133 14.8 45.2533 14.8867 44.84 15.06C44.4267 15.2333 44.0533 15.4733 43.72 15.78H41.46ZM64.0652 18.04C64.0652 18.8133 63.9118 19.4667 63.6052 20C63.3118 20.52 62.9185 20.94 62.4252 21.26C61.9452 21.58 61.3985 21.8133 60.7852 21.96C60.1718 22.0933 59.5452 22.16 58.9052 22.16C58.2518 22.16 57.6118 22.0867 56.9852 21.94C56.3718 21.7933 55.8185 21.56 55.3252 21.24C54.8452 20.9067 54.4585 20.48 54.1652 19.96C53.8718 19.44 53.7252 18.8 53.7252 18.04C53.7252 17.2267 53.9052 16.52 54.2652 15.92C54.6385 15.32 55.2252 14.8667 56.0252 14.56C55.6785 14.3867 55.3852 14.18 55.1452 13.94C54.9185 13.7 54.7318 13.4467 54.5852 13.18C54.4518 12.9 54.3518 12.6133 54.2852 12.32C54.2318 12.0267 54.2052 11.7467 54.2052 11.48C54.2052 10.8 54.3318 10.22 54.5852 9.74C54.8518 9.26 55.2052 8.86667 55.6452 8.56C56.0852 8.25333 56.5852 8.03333 57.1452 7.9C57.7185 7.75333 58.3118 7.68 58.9252 7.68C59.5252 7.68 60.1052 7.75333 60.6652 7.9C61.2385 8.03333 61.7385 8.25333 62.1652 8.56C62.6052 8.86667 62.9518 9.26 63.2052 9.74C63.4718 10.22 63.6052 10.8 63.6052 11.48C63.6052 11.7467 63.5718 12.0267 63.5052 12.32C63.4385 12.6133 63.3318 12.8933 63.1852 13.16C63.0518 13.4267 62.8652 13.68 62.6252 13.92C62.3852 14.16 62.0985 14.36 61.7652 14.52C62.5652 14.8267 63.1452 15.2867 63.5052 15.9C63.8785 16.5133 64.0652 17.2267 64.0652 18.04ZM58.9052 9.72C58.5852 9.72 58.2785 9.76 57.9852 9.84C57.6918 9.90667 57.4318 10.02 57.2052 10.18C56.9918 10.34 56.8185 10.5533 56.6852 10.82C56.5652 11.0733 56.5052 11.38 56.5052 11.74C56.5052 12.46 56.7318 12.9933 57.1852 13.34C57.6518 13.6733 58.2252 13.84 58.9052 13.84C59.2252 13.84 59.5318 13.8 59.8252 13.72C60.1185 13.64 60.3718 13.52 60.5852 13.36C60.7985 13.1867 60.9652 12.9733 61.0852 12.72C61.2185 12.4667 61.2852 12.1667 61.2852 11.82C61.2852 11.4467 61.2185 11.1267 61.0852 10.86C60.9652 10.5933 60.7985 10.3733 60.5852 10.2C60.3718 10.0267 60.1185 9.90667 59.8252 9.84C59.5318 9.76 59.2252 9.72 58.9052 9.72ZM58.8852 15.7C58.5252 15.7 58.1718 15.74 57.8252 15.82C57.4918 15.9 57.1918 16.0267 56.9252 16.2C56.6585 16.3733 56.4452 16.6 56.2852 16.88C56.1252 17.16 56.0452 17.5 56.0452 17.9C56.0452 18.34 56.1385 18.7067 56.3252 19C56.5118 19.28 56.7452 19.5067 57.0252 19.68C57.3052 19.84 57.6118 19.9533 57.9452 20.02C58.2785 20.0867 58.5985 20.12 58.9052 20.12C59.2118 20.12 59.5318 20.0867 59.8652 20.02C60.1985 19.9533 60.4985 19.84 60.7652 19.68C61.0452 19.5067 61.2718 19.28 61.4452 19C61.6318 18.7067 61.7252 18.34 61.7252 17.9C61.7252 17.5 61.6452 17.16 61.4852 16.88C61.3252 16.6 61.1118 16.3733 60.8452 16.2C60.5785 16.0267 60.2718 15.9 59.9252 15.82C59.5918 15.74 59.2452 15.7 58.8852 15.7Z" fill="#2684FC"/>
</svg>
