<svg width="63" height="30" viewBox="0 0 63 30" fill="none" xmlns="http://www.w3.org/2000/svg">
<path d="M5.5 8C5.5 6.61929 6.61929 5.5 8 5.5H11C12.3807 5.5 13.5 6.61929 13.5 8V11C13.5 12.3807 12.3807 13.5 11 13.5H8C6.61929 13.5 5.5 12.3807 5.5 11V8Z" stroke="#2684FC" stroke-width="1.5"/>
<path d="M5.5 19C5.5 17.6193 6.61929 16.5 8 16.5H11C12.3807 16.5 13.5 17.6193 13.5 19V22C13.5 23.3807 12.3807 24.5 11 24.5H8C6.61929 24.5 5.5 23.3807 5.5 22V19Z" stroke="#2684FC" stroke-width="1.5"/>
<path d="M16.5 8C16.5 6.61929 17.6193 5.5 19 5.5H22C23.3807 5.5 24.5 6.61929 24.5 8V11C24.5 12.3807 23.3807 13.5 22 13.5H19C17.6193 13.5 16.5 12.3807 16.5 11V8Z" stroke="#2684FC" stroke-width="1.5"/>
<path d="M16.5 19C16.5 17.6193 17.6193 16.5 19 16.5H22C23.3807 16.5 24.5 17.6193 24.5 19V22C24.5 23.3807 23.3807 24.5 22 24.5H19C17.6193 24.5 16.5 23.3807 16.5 22V19Z" stroke="#2684FC" stroke-width="1.5"/>
<path d="M43.26 14.52C43.7 13.96 44.2267 13.5467 44.84 13.28C45.4533 13.0133 46.1067 12.88 46.8 12.88C47.4933 12.88 48.1267 12.9867 48.7 13.2C49.2733 13.4133 49.76 13.7133 50.16 14.1C50.56 14.4867 50.8667 14.9667 51.08 15.54C51.3067 16.1 51.42 16.7267 51.42 17.42C51.42 18.1267 51.2933 18.7667 51.04 19.34C50.8 19.9133 50.46 20.4067 50.02 20.82C49.58 21.2333 49.0667 21.5533 48.48 21.78C47.8933 22.0067 47.26 22.12 46.58 22.12C45.5667 22.12 44.7067 21.94 44 21.58C43.3067 21.2067 42.74 20.72 42.3 20.12C41.8733 19.5067 41.56 18.8 41.36 18C41.1733 17.1867 41.0733 16.34 41.06 15.46C41.06 14.86 41.0933 14.26 41.16 13.66C41.24 13.06 41.36 12.4867 41.52 11.94C41.6933 11.38 41.9133 10.8533 42.18 10.36C42.46 9.86667 42.8 9.42667 43.2 9.04C43.6267 8.62667 44.14 8.3 44.74 8.06C45.34 7.82 46.0267 7.7 46.8 7.7C47.96 7.7 48.9533 7.98667 49.78 8.56C50.6067 9.13333 51.1333 10.0133 51.36 11.2H49.04C48.8533 10.7067 48.5467 10.3467 48.12 10.12C47.6933 9.88 47.2267 9.76 46.72 9.76C46.2933 9.76 45.9 9.83333 45.54 9.98C45.1933 10.1267 44.8867 10.3333 44.62 10.6C44.38 10.84 44.1733 11.1133 44 11.42C43.8267 11.7267 43.6867 12.0533 43.58 12.4C43.4733 12.7467 43.3933 13.1 43.34 13.46C43.2867 13.82 43.26 14.1733 43.26 14.52ZM49.1 17.58C49.1 16.78 48.86 16.14 48.38 15.66C47.9133 15.1667 47.28 14.92 46.48 14.92C46.1067 14.92 45.7533 14.9867 45.42 15.12C45.1 15.24 44.8133 15.4133 44.56 15.64C44.32 15.8667 44.1267 16.14 43.98 16.46C43.8467 16.78 43.78 17.1267 43.78 17.5C43.78 17.8467 43.8467 18.18 43.98 18.5C44.1133 18.8067 44.3 19.08 44.54 19.32C44.78 19.5467 45.06 19.7333 45.38 19.88C45.7133 20.0133 46.0733 20.08 46.46 20.08C47.2333 20.08 47.8667 19.8533 48.36 19.4C48.8533 18.9333 49.1 18.3267 49.1 17.58ZM54.5023 22L59.9623 9.94H52.9423V7.86H62.5823V9.66L57.0823 22H54.5023Z" fill="#2684FC"/>
</svg>
