<svg width="64" height="30" viewBox="0 0 64 30" fill="none" xmlns="http://www.w3.org/2000/svg">
<path d="M5.5 8C5.5 6.61929 6.61929 5.5 8 5.5H11C12.3807 5.5 13.5 6.61929 13.5 8V11C13.5 12.3807 12.3807 13.5 11 13.5H8C6.61929 13.5 5.5 12.3807 5.5 11V8Z" stroke="#2684FC" stroke-width="1.5"/>
<path d="M5.5 19C5.5 17.6193 6.61929 16.5 8 16.5H11C12.3807 16.5 13.5 17.6193 13.5 19V22C13.5 23.3807 12.3807 24.5 11 24.5H8C6.61929 24.5 5.5 23.3807 5.5 22V19Z" stroke="#2684FC" stroke-width="1.5"/>
<path d="M16.5 8C16.5 6.61929 17.6193 5.5 19 5.5H22C23.3807 5.5 24.5 6.61929 24.5 8V11C24.5 12.3807 23.3807 13.5 22 13.5H19C17.6193 13.5 16.5 12.3807 16.5 11V8Z" stroke="#2684FC" stroke-width="1.5"/>
<path d="M16.5 19C16.5 17.6193 17.6193 16.5 19 16.5H22C23.3807 16.5 24.5 17.6193 24.5 19V22C24.5 23.3807 23.3807 24.5 22 24.5H19C17.6193 24.5 16.5 23.3807 16.5 22V19Z" stroke="#2684FC" stroke-width="1.5"/>
<path d="M44.4 16.72C44.72 16.44 45.0733 16.1333 45.46 15.8C45.86 15.4667 46.2333 15.12 46.58 14.76C46.94 14.3867 47.2333 13.9867 47.46 13.56C47.7 13.1333 47.82 12.6733 47.82 12.18C47.82 11.46 47.6067 10.88 47.18 10.44C46.7533 10 46.14 9.78 45.34 9.78C44.7 9.78 44.16 9.92667 43.72 10.22C43.28 10.5133 43.0067 10.9067 42.9 11.4H40.62C40.6733 10.7867 40.84 10.24 41.12 9.76C41.4133 9.28 41.78 8.88667 42.22 8.58C42.66 8.27333 43.14 8.05333 43.66 7.92C44.1933 7.77333 44.8 7.7 45.48 7.7C46.12 7.7 46.72 7.78667 47.28 7.96C47.84 8.13333 48.3267 8.39333 48.74 8.74C49.1667 9.08667 49.5 9.52667 49.74 10.06C49.9933 10.58 50.12 11.1933 50.12 11.9C50.12 12.46 50.0467 12.9733 49.9 13.44C49.7533 13.9067 49.5533 14.34 49.3 14.74C49.0467 15.14 48.7533 15.5133 48.42 15.86C48.1 16.2067 47.76 16.5333 47.4 16.84C46.92 17.2533 46.4933 17.6133 46.12 17.92C45.76 18.2133 45.4333 18.48 45.14 18.72C44.8467 18.96 44.58 19.18 44.34 19.38C44.1 19.5667 43.8733 19.7533 43.66 19.94H50.12V22H40.5V20.1L44.4 16.72ZM60.5756 15.24C60.3756 15.5467 60.1423 15.8067 59.8756 16.02C59.609 16.2333 59.3156 16.4133 58.9956 16.56C58.689 16.6933 58.3623 16.7933 58.0156 16.86C57.669 16.9267 57.3223 16.96 56.9756 16.96C56.309 16.96 55.6956 16.86 55.1356 16.66C54.589 16.4467 54.109 16.1467 53.6956 15.76C53.2823 15.3733 52.9623 14.9 52.7356 14.34C52.509 13.78 52.3956 13.1467 52.3956 12.44C52.3956 11.72 52.5223 11.0667 52.7756 10.48C53.0423 9.89333 53.3956 9.4 53.8356 9C54.289 8.58667 54.8156 8.27333 55.4156 8.06C56.029 7.83333 56.689 7.72 57.3956 7.72C58.3823 7.70667 59.2356 7.92667 59.9556 8.38C60.689 8.82 61.249 9.38 61.6356 10.06C62.0356 10.7267 62.3156 11.4933 62.4756 12.36C62.649 13.2133 62.749 14.0733 62.7756 14.94C62.7756 15.8467 62.689 16.7333 62.5156 17.6C62.3423 18.4667 62.0423 19.24 61.6156 19.92C61.2023 20.5867 60.6423 21.1267 59.9356 21.54C59.229 21.94 58.3423 22.14 57.2756 22.14C56.689 22.14 56.129 22.0733 55.5956 21.94C55.0756 21.7933 54.6023 21.58 54.1756 21.3C53.749 21.0067 53.389 20.6467 53.0956 20.22C52.8023 19.78 52.609 19.26 52.5156 18.66H54.8956C55.069 19.14 55.3823 19.5 55.8356 19.74C56.289 19.9667 56.769 20.08 57.2756 20.08C57.6756 20.08 58.029 20.0267 58.3356 19.92C58.6423 19.8 58.9156 19.6467 59.1556 19.46C59.3956 19.2733 59.6023 19.0533 59.7756 18.8C59.949 18.5333 60.089 18.2533 60.1956 17.96C60.369 17.52 60.4756 17.0733 60.5156 16.62C60.5556 16.1533 60.5756 15.6933 60.5756 15.24ZM54.7156 12.3C54.7156 13.1133 54.949 13.7533 55.4156 14.22C55.8956 14.6867 56.5356 14.92 57.3356 14.92C57.6956 14.92 58.0356 14.8667 58.3556 14.76C58.689 14.64 58.9756 14.48 59.2156 14.28C59.4556 14.0667 59.6423 13.8133 59.7756 13.52C59.9223 13.2133 60.0023 12.88 60.0156 12.52C60.0156 12.1467 59.9556 11.7933 59.8356 11.46C59.7156 11.1267 59.5423 10.84 59.3156 10.6C59.089 10.3467 58.809 10.1467 58.4756 10C58.1556 9.85333 57.7956 9.78 57.3956 9.78C56.6223 9.78 55.9823 10.0067 55.4756 10.46C54.9823 10.9133 54.729 11.5267 54.7156 12.3Z" fill="#2684FC"/>
</svg>
