<svg width="64" height="30" viewBox="0 0 64 30" fill="none" xmlns="http://www.w3.org/2000/svg">
<path d="M5.5 8C5.5 6.61929 6.61929 5.5 8 5.5H11C12.3807 5.5 13.5 6.61929 13.5 8V11C13.5 12.3807 12.3807 13.5 11 13.5H8C6.61929 13.5 5.5 12.3807 5.5 11V8Z" stroke="#2684FC" stroke-width="1.5"/>
<path d="M5.5 19C5.5 17.6193 6.61929 16.5 8 16.5H11C12.3807 16.5 13.5 17.6193 13.5 19V22C13.5 23.3807 12.3807 24.5 11 24.5H8C6.61929 24.5 5.5 23.3807 5.5 22V19Z" stroke="#2684FC" stroke-width="1.5"/>
<path d="M16.5 8C16.5 6.61929 17.6193 5.5 19 5.5H22C23.3807 5.5 24.5 6.61929 24.5 8V11C24.5 12.3807 23.3807 13.5 22 13.5H19C17.6193 13.5 16.5 12.3807 16.5 11V8Z" stroke="#2684FC" stroke-width="1.5"/>
<path d="M16.5 19C16.5 17.6193 17.6193 16.5 19 16.5H22C23.3807 16.5 24.5 17.6193 24.5 19V22C24.5 23.3807 23.3807 24.5 22 24.5H19C17.6193 24.5 16.5 23.3807 16.5 22V19Z" stroke="#2684FC" stroke-width="1.5"/>
<path d="M44.4 16.72C44.72 16.44 45.0733 16.1333 45.46 15.8C45.86 15.4667 46.2333 15.12 46.58 14.76C46.94 14.3867 47.2333 13.9867 47.46 13.56C47.7 13.1333 47.82 12.6733 47.82 12.18C47.82 11.46 47.6067 10.88 47.18 10.44C46.7533 10 46.14 9.78 45.34 9.78C44.7 9.78 44.16 9.92667 43.72 10.22C43.28 10.5133 43.0067 10.9067 42.9 11.4H40.62C40.6733 10.7867 40.84 10.24 41.12 9.76C41.4133 9.28 41.78 8.88667 42.22 8.58C42.66 8.27333 43.14 8.05333 43.66 7.92C44.1933 7.77333 44.8 7.7 45.48 7.7C46.12 7.7 46.72 7.78667 47.28 7.96C47.84 8.13333 48.3267 8.39333 48.74 8.74C49.1667 9.08667 49.5 9.52667 49.74 10.06C49.9933 10.58 50.12 11.1933 50.12 11.9C50.12 12.46 50.0467 12.9733 49.9 13.44C49.7533 13.9067 49.5533 14.34 49.3 14.74C49.0467 15.14 48.7533 15.5133 48.42 15.86C48.1 16.2067 47.76 16.5333 47.4 16.84C46.92 17.2533 46.4933 17.6133 46.12 17.92C45.76 18.2133 45.4333 18.48 45.14 18.72C44.8467 18.96 44.58 19.18 44.34 19.38C44.1 19.5667 43.8733 19.7533 43.66 19.94H50.12V22H40.5V20.1L44.4 16.72ZM57.2956 22.14C56.6423 22.14 56.0156 22.0733 55.4156 21.94C54.8156 21.7933 54.2756 21.5733 53.7956 21.28C53.329 20.9733 52.929 20.58 52.5956 20.1C52.2756 19.62 52.069 19.04 51.9756 18.36H54.3156C54.4223 18.7067 54.5823 18.9867 54.7956 19.2C55.009 19.4133 55.249 19.5867 55.5156 19.72C55.7956 19.8533 56.089 19.9467 56.3956 20C56.7023 20.04 57.0023 20.06 57.2956 20.06C57.6023 20.06 57.9223 20.0333 58.2556 19.98C58.589 19.9133 58.889 19.8 59.1556 19.64C59.4356 19.48 59.6623 19.26 59.8356 18.98C60.0223 18.6867 60.1156 18.3067 60.1156 17.84C60.1156 17.4133 60.029 17.0667 59.8556 16.8C59.6956 16.5333 59.4756 16.3267 59.1956 16.18C58.929 16.0333 58.6223 15.9333 58.2756 15.88C57.9423 15.8267 57.6023 15.8 57.2556 15.8H55.8556V13.84H56.6756C56.9956 13.84 57.329 13.8067 57.6756 13.74C58.0223 13.6733 58.3356 13.56 58.6156 13.4C58.909 13.24 59.1423 13.0267 59.3156 12.76C59.5023 12.4933 59.5956 12.16 59.5956 11.76C59.5956 11.3733 59.529 11.0533 59.3956 10.8C59.2623 10.5333 59.0823 10.3267 58.8556 10.18C58.629 10.02 58.369 9.91333 58.0756 9.86C57.7956 9.79333 57.4956 9.76 57.1756 9.76C56.629 9.76 56.1156 9.88667 55.6356 10.14C55.1556 10.38 54.8423 10.8067 54.6956 11.42H52.4156C52.4956 10.7667 52.6756 10.2067 52.9556 9.74C53.2356 9.26 53.5956 8.87333 54.0356 8.58C54.4756 8.27333 54.969 8.04667 55.5156 7.9C56.0756 7.75333 56.6623 7.68 57.2756 7.68C57.8756 7.68 58.449 7.74667 58.9956 7.88C59.5556 8.01333 60.049 8.22667 60.4756 8.52C60.9023 8.81333 61.2423 9.2 61.4956 9.68C61.749 10.1467 61.8756 10.72 61.8756 11.4C61.8756 11.96 61.7356 12.5133 61.4556 13.06C61.189 13.6067 60.689 14.0667 59.9556 14.44C60.7956 14.6667 61.4223 15.08 61.8356 15.68C62.249 16.2667 62.4556 16.98 62.4556 17.82C62.4556 18.5933 62.309 19.2533 62.0156 19.8C61.7356 20.3333 61.3623 20.78 60.8956 21.14C60.4423 21.4867 59.9023 21.74 59.2756 21.9C58.649 22.06 57.989 22.14 57.2956 22.14Z" fill="#2684FC"/>
</svg>
