<svg width="53" height="30" viewBox="0 0 53 30" fill="none" xmlns="http://www.w3.org/2000/svg">
<path d="M5.5 8C5.5 6.61929 6.61929 5.5 8 5.5H11C12.3807 5.5 13.5 6.61929 13.5 8V11C13.5 12.3807 12.3807 13.5 11 13.5H8C6.61929 13.5 5.5 12.3807 5.5 11V8Z" stroke="#2684FC" stroke-width="1.5"/>
<path d="M5.5 19C5.5 17.6193 6.61929 16.5 8 16.5H11C12.3807 16.5 13.5 17.6193 13.5 19V22C13.5 23.3807 12.3807 24.5 11 24.5H8C6.61929 24.5 5.5 23.3807 5.5 22V19Z" stroke="#2684FC" stroke-width="1.5"/>
<path d="M16.5 8C16.5 6.61929 17.6193 5.5 19 5.5H22C23.3807 5.5 24.5 6.61929 24.5 8V11C24.5 12.3807 23.3807 13.5 22 13.5H19C17.6193 13.5 16.5 12.3807 16.5 11V8Z" stroke="#2684FC" stroke-width="1.5"/>
<path d="M16.5 19C16.5 17.6193 17.6193 16.5 19 16.5H22C23.3807 16.5 24.5 17.6193 24.5 19V22C24.5 23.3807 23.3807 24.5 22 24.5H19C17.6193 24.5 16.5 23.3807 16.5 22V19Z" stroke="#2684FC" stroke-width="1.5"/>
<path d="M49.16 15.24C48.96 15.5467 48.7267 15.8067 48.46 16.02C48.1933 16.2333 47.9 16.4133 47.58 16.56C47.2733 16.6933 46.9467 16.7933 46.6 16.86C46.2533 16.9267 45.9067 16.96 45.56 16.96C44.8933 16.96 44.28 16.86 43.72 16.66C43.1733 16.4467 42.6933 16.1467 42.28 15.76C41.8667 15.3733 41.5467 14.9 41.32 14.34C41.0933 13.78 40.98 13.1467 40.98 12.44C40.98 11.72 41.1067 11.0667 41.36 10.48C41.6267 9.89333 41.98 9.4 42.42 9C42.8733 8.58667 43.4 8.27333 44 8.06C44.6133 7.83333 45.2733 7.72 45.98 7.72C46.9667 7.70667 47.82 7.92667 48.54 8.38C49.2733 8.82 49.8333 9.38 50.22 10.06C50.62 10.7267 50.9 11.4933 51.06 12.36C51.2333 13.2133 51.3333 14.0733 51.36 14.94C51.36 15.8467 51.2733 16.7333 51.1 17.6C50.9267 18.4667 50.6267 19.24 50.2 19.92C49.7867 20.5867 49.2267 21.1267 48.52 21.54C47.8133 21.94 46.9267 22.14 45.86 22.14C45.2733 22.14 44.7133 22.0733 44.18 21.94C43.66 21.7933 43.1867 21.58 42.76 21.3C42.3333 21.0067 41.9733 20.6467 41.68 20.22C41.3867 19.78 41.1933 19.26 41.1 18.66H43.48C43.6533 19.14 43.9667 19.5 44.42 19.74C44.8733 19.9667 45.3533 20.08 45.86 20.08C46.26 20.08 46.6133 20.0267 46.92 19.92C47.2267 19.8 47.5 19.6467 47.74 19.46C47.98 19.2733 48.1867 19.0533 48.36 18.8C48.5333 18.5333 48.6733 18.2533 48.78 17.96C48.9533 17.52 49.06 17.0733 49.1 16.62C49.14 16.1533 49.16 15.6933 49.16 15.24ZM43.3 12.3C43.3 13.1133 43.5333 13.7533 44 14.22C44.48 14.6867 45.12 14.92 45.92 14.92C46.28 14.92 46.62 14.8667 46.94 14.76C47.2733 14.64 47.56 14.48 47.8 14.28C48.04 14.0667 48.2267 13.8133 48.36 13.52C48.5067 13.2133 48.5867 12.88 48.6 12.52C48.6 12.1467 48.54 11.7933 48.42 11.46C48.3 11.1267 48.1267 10.84 47.9 10.6C47.6733 10.3467 47.3933 10.1467 47.06 10C46.74 9.85333 46.38 9.78 45.98 9.78C45.2067 9.78 44.5667 10.0067 44.06 10.46C43.5667 10.9133 43.3133 11.5267 43.3 12.3Z" fill="#2684FC"/>
</svg>
