<svg width="61" height="30" viewBox="0 0 61 30" fill="none" xmlns="http://www.w3.org/2000/svg">
<path d="M5.5 8C5.5 6.61929 6.61929 5.5 8 5.5H11C12.3807 5.5 13.5 6.61929 13.5 8V11C13.5 12.3807 12.3807 13.5 11 13.5H8C6.61929 13.5 5.5 12.3807 5.5 11V8Z" stroke="#2684FC" stroke-width="1.5"/>
<path d="M5.5 19C5.5 17.6193 6.61929 16.5 8 16.5H11C12.3807 16.5 13.5 17.6193 13.5 19V22C13.5 23.3807 12.3807 24.5 11 24.5H8C6.61929 24.5 5.5 23.3807 5.5 22V19Z" stroke="#2684FC" stroke-width="1.5"/>
<path d="M16.5 8C16.5 6.61929 17.6193 5.5 19 5.5H22C23.3807 5.5 24.5 6.61929 24.5 8V11C24.5 12.3807 23.3807 13.5 22 13.5H19C17.6193 13.5 16.5 12.3807 16.5 11V8Z" stroke="#2684FC" stroke-width="1.5"/>
<path d="M16.5 19C16.5 17.6193 17.6193 16.5 19 16.5H22C23.3807 16.5 24.5 17.6193 24.5 19V22C24.5 23.3807 23.3807 24.5 22 24.5H19C17.6193 24.5 16.5 23.3807 16.5 22V19Z" stroke="#2684FC" stroke-width="1.5"/>
<path d="M45.6 22H43.28V11.12H40.4V9.54C41.1867 9.51333 41.88 9.38667 42.48 9.16C43.08 8.92 43.5533 8.48667 43.9 7.86H45.6V22ZM57.1967 15.24C56.9967 15.5467 56.7634 15.8067 56.4967 16.02C56.2301 16.2333 55.9367 16.4133 55.6167 16.56C55.3101 16.6933 54.9834 16.7933 54.6367 16.86C54.2901 16.9267 53.9434 16.96 53.5967 16.96C52.9301 16.96 52.3167 16.86 51.7567 16.66C51.2101 16.4467 50.7301 16.1467 50.3167 15.76C49.9034 15.3733 49.5834 14.9 49.3567 14.34C49.1301 13.78 49.0167 13.1467 49.0167 12.44C49.0167 11.72 49.1434 11.0667 49.3967 10.48C49.6634 9.89333 50.0167 9.4 50.4567 9C50.9101 8.58667 51.4367 8.27333 52.0367 8.06C52.6501 7.83333 53.3101 7.72 54.0167 7.72C55.0034 7.70667 55.8567 7.92667 56.5767 8.38C57.3101 8.82 57.8701 9.38 58.2567 10.06C58.6567 10.7267 58.9367 11.4933 59.0967 12.36C59.2701 13.2133 59.3701 14.0733 59.3967 14.94C59.3967 15.8467 59.3101 16.7333 59.1367 17.6C58.9634 18.4667 58.6634 19.24 58.2367 19.92C57.8234 20.5867 57.2634 21.1267 56.5567 21.54C55.8501 21.94 54.9634 22.14 53.8967 22.14C53.3101 22.14 52.7501 22.0733 52.2167 21.94C51.6967 21.7933 51.2234 21.58 50.7967 21.3C50.3701 21.0067 50.0101 20.6467 49.7167 20.22C49.4234 19.78 49.2301 19.26 49.1367 18.66H51.5167C51.6901 19.14 52.0034 19.5 52.4567 19.74C52.9101 19.9667 53.3901 20.08 53.8967 20.08C54.2967 20.08 54.6501 20.0267 54.9567 19.92C55.2634 19.8 55.5367 19.6467 55.7767 19.46C56.0167 19.2733 56.2234 19.0533 56.3967 18.8C56.5701 18.5333 56.7101 18.2533 56.8167 17.96C56.9901 17.52 57.0967 17.0733 57.1367 16.62C57.1767 16.1533 57.1967 15.6933 57.1967 15.24ZM51.3367 12.3C51.3367 13.1133 51.5701 13.7533 52.0367 14.22C52.5167 14.6867 53.1567 14.92 53.9567 14.92C54.3167 14.92 54.6567 14.8667 54.9767 14.76C55.3101 14.64 55.5967 14.48 55.8367 14.28C56.0767 14.0667 56.2634 13.8133 56.3967 13.52C56.5434 13.2133 56.6234 12.88 56.6367 12.52C56.6367 12.1467 56.5767 11.7933 56.4567 11.46C56.3367 11.1267 56.1634 10.84 55.9367 10.6C55.7101 10.3467 55.4301 10.1467 55.0967 10C54.7767 9.85333 54.4167 9.78 54.0167 9.78C53.2434 9.78 52.6034 10.0067 52.0967 10.46C51.6034 10.9133 51.3501 11.5267 51.3367 12.3Z" fill="#2684FC"/>
</svg>
