<svg width="63" height="30" viewBox="0 0 63 30" fill="none" xmlns="http://www.w3.org/2000/svg">
<path d="M5.5 8C5.5 6.61929 6.61929 5.5 8 5.5H11C12.3807 5.5 13.5 6.61929 13.5 8V11C13.5 12.3807 12.3807 13.5 11 13.5H8C6.61929 13.5 5.5 12.3807 5.5 11V8Z" stroke="#2684FC" stroke-width="1.5"/>
<path d="M5.5 19C5.5 17.6193 6.61929 16.5 8 16.5H11C12.3807 16.5 13.5 17.6193 13.5 19V22C13.5 23.3807 12.3807 24.5 11 24.5H8C6.61929 24.5 5.5 23.3807 5.5 22V19Z" stroke="#2684FC" stroke-width="1.5"/>
<path d="M16.5 8C16.5 6.61929 17.6193 5.5 19 5.5H22C23.3807 5.5 24.5 6.61929 24.5 8V11C24.5 12.3807 23.3807 13.5 22 13.5H19C17.6193 13.5 16.5 12.3807 16.5 11V8Z" stroke="#2684FC" stroke-width="1.5"/>
<path d="M16.5 19C16.5 17.6193 17.6193 16.5 19 16.5H22C23.3807 16.5 24.5 17.6193 24.5 19V22C24.5 23.3807 23.3807 24.5 22 24.5H19C17.6193 24.5 16.5 23.3807 16.5 22V19Z" stroke="#2684FC" stroke-width="1.5"/>
<path d="M44.4 16.72C44.72 16.44 45.0733 16.1333 45.46 15.8C45.86 15.4667 46.2333 15.12 46.58 14.76C46.94 14.3867 47.2333 13.9867 47.46 13.56C47.7 13.1333 47.82 12.6733 47.82 12.18C47.82 11.46 47.6067 10.88 47.18 10.44C46.7533 10 46.14 9.78 45.34 9.78C44.7 9.78 44.16 9.92667 43.72 10.22C43.28 10.5133 43.0067 10.9067 42.9 11.4H40.62C40.6733 10.7867 40.84 10.24 41.12 9.76C41.4133 9.28 41.78 8.88667 42.22 8.58C42.66 8.27333 43.14 8.05333 43.66 7.92C44.1933 7.77333 44.8 7.7 45.48 7.7C46.12 7.7 46.72 7.78667 47.28 7.96C47.84 8.13333 48.3267 8.39333 48.74 8.74C49.1667 9.08667 49.5 9.52667 49.74 10.06C49.9933 10.58 50.12 11.1933 50.12 11.9C50.12 12.46 50.0467 12.9733 49.9 13.44C49.7533 13.9067 49.5533 14.34 49.3 14.74C49.0467 15.14 48.7533 15.5133 48.42 15.86C48.1 16.2067 47.76 16.5333 47.4 16.84C46.92 17.2533 46.4933 17.6133 46.12 17.92C45.76 18.2133 45.4333 18.48 45.14 18.72C44.8467 18.96 44.58 19.18 44.34 19.38C44.1 19.5667 43.8733 19.7533 43.66 19.94H50.12V22H40.5V20.1L44.4 16.72ZM56.1086 16.72C56.4286 16.44 56.7819 16.1333 57.1686 15.8C57.5686 15.4667 57.9419 15.12 58.2886 14.76C58.6486 14.3867 58.9419 13.9867 59.1686 13.56C59.4086 13.1333 59.5286 12.6733 59.5286 12.18C59.5286 11.46 59.3153 10.88 58.8886 10.44C58.4619 10 57.8486 9.78 57.0486 9.78C56.4086 9.78 55.8686 9.92667 55.4286 10.22C54.9886 10.5133 54.7153 10.9067 54.6086 11.4H52.3286C52.3819 10.7867 52.5486 10.24 52.8286 9.76C53.1219 9.28 53.4886 8.88667 53.9286 8.58C54.3686 8.27333 54.8486 8.05333 55.3686 7.92C55.9019 7.77333 56.5086 7.7 57.1886 7.7C57.8286 7.7 58.4286 7.78667 58.9886 7.96C59.5486 8.13333 60.0353 8.39333 60.4486 8.74C60.8753 9.08667 61.2086 9.52667 61.4486 10.06C61.7019 10.58 61.8286 11.1933 61.8286 11.9C61.8286 12.46 61.7553 12.9733 61.6086 13.44C61.4619 13.9067 61.2619 14.34 61.0086 14.74C60.7553 15.14 60.4619 15.5133 60.1286 15.86C59.8086 16.2067 59.4686 16.5333 59.1086 16.84C58.6286 17.2533 58.2019 17.6133 57.8286 17.92C57.4686 18.2133 57.1419 18.48 56.8486 18.72C56.5553 18.96 56.2886 19.18 56.0486 19.38C55.8086 19.5667 55.5819 19.7533 55.3686 19.94H61.8286V22H52.2086V20.1L56.1086 16.72Z" fill="#2684FC"/>
</svg>
