<svg width="66" height="30" viewBox="0 0 66 30" fill="none" xmlns="http://www.w3.org/2000/svg">
<path d="M5.5 8C5.5 6.61929 6.61929 5.5 8 5.5H11C12.3807 5.5 13.5 6.61929 13.5 8V11C13.5 12.3807 12.3807 13.5 11 13.5H8C6.61929 13.5 5.5 12.3807 5.5 11V8Z" stroke="#2684FC" stroke-width="1.5"/>
<path d="M5.5 19C5.5 17.6193 6.61929 16.5 8 16.5H11C12.3807 16.5 13.5 17.6193 13.5 19V22C13.5 23.3807 12.3807 24.5 11 24.5H8C6.61929 24.5 5.5 23.3807 5.5 22V19Z" stroke="#2684FC" stroke-width="1.5"/>
<path d="M16.5 8C16.5 6.61929 17.6193 5.5 19 5.5H22C23.3807 5.5 24.5 6.61929 24.5 8V11C24.5 12.3807 23.3807 13.5 22 13.5H19C17.6193 13.5 16.5 12.3807 16.5 11V8Z" stroke="#2684FC" stroke-width="1.5"/>
<path d="M16.5 19C16.5 17.6193 17.6193 16.5 19 16.5H22C23.3807 16.5 24.5 17.6193 24.5 19V22C24.5 23.3807 23.3807 24.5 22 24.5H19C17.6193 24.5 16.5 23.3807 16.5 22V19Z" stroke="#2684FC" stroke-width="1.5"/>
<path d="M50.34 7.86V17.24H51.96V19.28H50.34V22H48.04V19.28H40.74V17.62L47.36 7.86H50.34ZM43.42 17.24H48.04V10.32L43.42 17.24ZM64.3777 18.04C64.3777 18.8133 64.2243 19.4667 63.9177 20C63.6243 20.52 63.231 20.94 62.7377 21.26C62.2577 21.58 61.711 21.8133 61.0977 21.96C60.4843 22.0933 59.8577 22.16 59.2177 22.16C58.5643 22.16 57.9243 22.0867 57.2977 21.94C56.6843 21.7933 56.131 21.56 55.6377 21.24C55.1577 20.9067 54.771 20.48 54.4777 19.96C54.1843 19.44 54.0377 18.8 54.0377 18.04C54.0377 17.2267 54.2177 16.52 54.5777 15.92C54.951 15.32 55.5377 14.8667 56.3377 14.56C55.991 14.3867 55.6977 14.18 55.4577 13.94C55.231 13.7 55.0443 13.4467 54.8977 13.18C54.7643 12.9 54.6643 12.6133 54.5977 12.32C54.5443 12.0267 54.5177 11.7467 54.5177 11.48C54.5177 10.8 54.6443 10.22 54.8977 9.74C55.1643 9.26 55.5177 8.86667 55.9577 8.56C56.3977 8.25333 56.8977 8.03333 57.4577 7.9C58.031 7.75333 58.6243 7.68 59.2377 7.68C59.8377 7.68 60.4177 7.75333 60.9777 7.9C61.551 8.03333 62.051 8.25333 62.4777 8.56C62.9177 8.86667 63.2643 9.26 63.5177 9.74C63.7843 10.22 63.9177 10.8 63.9177 11.48C63.9177 11.7467 63.8843 12.0267 63.8177 12.32C63.751 12.6133 63.6443 12.8933 63.4977 13.16C63.3643 13.4267 63.1777 13.68 62.9377 13.92C62.6977 14.16 62.411 14.36 62.0777 14.52C62.8777 14.8267 63.4577 15.2867 63.8177 15.9C64.191 16.5133 64.3777 17.2267 64.3777 18.04ZM59.2177 9.72C58.8977 9.72 58.591 9.76 58.2977 9.84C58.0043 9.90667 57.7443 10.02 57.5177 10.18C57.3043 10.34 57.131 10.5533 56.9977 10.82C56.8777 11.0733 56.8177 11.38 56.8177 11.74C56.8177 12.46 57.0443 12.9933 57.4977 13.34C57.9643 13.6733 58.5377 13.84 59.2177 13.84C59.5377 13.84 59.8443 13.8 60.1377 13.72C60.431 13.64 60.6843 13.52 60.8977 13.36C61.111 13.1867 61.2777 12.9733 61.3977 12.72C61.531 12.4667 61.5977 12.1667 61.5977 11.82C61.5977 11.4467 61.531 11.1267 61.3977 10.86C61.2777 10.5933 61.111 10.3733 60.8977 10.2C60.6843 10.0267 60.431 9.90667 60.1377 9.84C59.8443 9.76 59.5377 9.72 59.2177 9.72ZM59.1977 15.7C58.8377 15.7 58.4843 15.74 58.1377 15.82C57.8043 15.9 57.5043 16.0267 57.2377 16.2C56.971 16.3733 56.7577 16.6 56.5977 16.88C56.4377 17.16 56.3577 17.5 56.3577 17.9C56.3577 18.34 56.451 18.7067 56.6377 19C56.8243 19.28 57.0577 19.5067 57.3377 19.68C57.6177 19.84 57.9243 19.9533 58.2577 20.02C58.591 20.0867 58.911 20.12 59.2177 20.12C59.5243 20.12 59.8443 20.0867 60.1777 20.02C60.511 19.9533 60.811 19.84 61.0777 19.68C61.3577 19.5067 61.5843 19.28 61.7577 19C61.9443 18.7067 62.0377 18.34 62.0377 17.9C62.0377 17.5 61.9577 17.16 61.7977 16.88C61.6377 16.6 61.4243 16.3733 61.1577 16.2C60.891 16.0267 60.5843 15.9 60.2377 15.82C59.9043 15.74 59.5577 15.7 59.1977 15.7Z" fill="#2684FC"/>
</svg>
