<svg width="73" height="30" viewBox="0 0 73 30" fill="none" xmlns="http://www.w3.org/2000/svg">
<path d="M5.5 8C5.5 6.61929 6.61929 5.5 8 5.5H11C12.3807 5.5 13.5 6.61929 13.5 8V11C13.5 12.3807 12.3807 13.5 11 13.5H8C6.61929 13.5 5.5 12.3807 5.5 11V8Z" stroke="#2684FC" stroke-width="1.5"/>
<path d="M5.5 19C5.5 17.6193 6.61929 16.5 8 16.5H11C12.3807 16.5 13.5 17.6193 13.5 19V22C13.5 23.3807 12.3807 24.5 11 24.5H8C6.61929 24.5 5.5 23.3807 5.5 22V19Z" stroke="#2684FC" stroke-width="1.5"/>
<path d="M16.5 8C16.5 6.61929 17.6193 5.5 19 5.5H22C23.3807 5.5 24.5 6.61929 24.5 8V11C24.5 12.3807 23.3807 13.5 22 13.5H19C17.6193 13.5 16.5 12.3807 16.5 11V8Z" stroke="#2684FC" stroke-width="1.5"/>
<path d="M16.5 19C16.5 17.6193 17.6193 16.5 19 16.5H22C23.3807 16.5 24.5 17.6193 24.5 19V22C24.5 23.3807 23.3807 24.5 22 24.5H19C17.6193 24.5 16.5 23.3807 16.5 22V19Z" stroke="#2684FC" stroke-width="1.5"/>
<path d="M45.6 22H43.28V11.12H40.4V9.54C41.1867 9.51333 41.88 9.38667 42.48 9.16C43.08 8.92 43.5533 8.48667 43.9 7.86H45.6V22ZM53.9167 22.14C53.2634 22.14 52.6367 22.0733 52.0367 21.94C51.4367 21.7933 50.8967 21.5733 50.4167 21.28C49.9501 20.9733 49.5501 20.58 49.2167 20.1C48.8967 19.62 48.6901 19.04 48.5967 18.36H50.9367C51.0434 18.7067 51.2034 18.9867 51.4167 19.2C51.6301 19.4133 51.8701 19.5867 52.1367 19.72C52.4167 19.8533 52.7101 19.9467 53.0167 20C53.3234 20.04 53.6234 20.06 53.9167 20.06C54.2234 20.06 54.5434 20.0333 54.8767 19.98C55.2101 19.9133 55.5101 19.8 55.7767 19.64C56.0567 19.48 56.2834 19.26 56.4567 18.98C56.6434 18.6867 56.7367 18.3067 56.7367 17.84C56.7367 17.4133 56.6501 17.0667 56.4767 16.8C56.3167 16.5333 56.0967 16.3267 55.8167 16.18C55.5501 16.0333 55.2434 15.9333 54.8967 15.88C54.5634 15.8267 54.2234 15.8 53.8767 15.8H52.4767V13.84H53.2967C53.6167 13.84 53.9501 13.8067 54.2967 13.74C54.6434 13.6733 54.9567 13.56 55.2367 13.4C55.5301 13.24 55.7634 13.0267 55.9367 12.76C56.1234 12.4933 56.2167 12.16 56.2167 11.76C56.2167 11.3733 56.1501 11.0533 56.0167 10.8C55.8834 10.5333 55.7034 10.3267 55.4767 10.18C55.2501 10.02 54.9901 9.91333 54.6967 9.86C54.4167 9.79333 54.1167 9.76 53.7967 9.76C53.2501 9.76 52.7367 9.88667 52.2567 10.14C51.7767 10.38 51.4634 10.8067 51.3167 11.42H49.0367C49.1167 10.7667 49.2967 10.2067 49.5767 9.74C49.8567 9.26 50.2167 8.87333 50.6567 8.58C51.0967 8.27333 51.5901 8.04667 52.1367 7.9C52.6967 7.75333 53.2834 7.68 53.8967 7.68C54.4967 7.68 55.0701 7.74667 55.6167 7.88C56.1767 8.01333 56.6701 8.22667 57.0967 8.52C57.5234 8.81333 57.8634 9.2 58.1167 9.68C58.3701 10.1467 58.4967 10.72 58.4967 11.4C58.4967 11.96 58.3567 12.5133 58.0767 13.06C57.8101 13.6067 57.3101 14.0667 56.5767 14.44C57.4167 14.6667 58.0434 15.08 58.4567 15.68C58.8701 16.2667 59.0767 16.98 59.0767 17.82C59.0767 18.5933 58.9301 19.2533 58.6367 19.8C58.3567 20.3333 57.9834 20.78 57.5167 21.14C57.0634 21.4867 56.5234 21.74 55.8967 21.9C55.2701 22.06 54.6101 22.14 53.9167 22.14ZM69.667 15.24C69.467 15.5467 69.2337 15.8067 68.967 16.02C68.7004 16.2333 68.407 16.4133 68.087 16.56C67.7804 16.6933 67.4537 16.7933 67.107 16.86C66.7604 16.9267 66.4137 16.96 66.067 16.96C65.4004 16.96 64.787 16.86 64.227 16.66C63.6804 16.4467 63.2004 16.1467 62.787 15.76C62.3737 15.3733 62.0537 14.9 61.827 14.34C61.6004 13.78 61.487 13.1467 61.487 12.44C61.487 11.72 61.6137 11.0667 61.867 10.48C62.1337 9.89333 62.487 9.4 62.927 9C63.3804 8.58667 63.907 8.27333 64.507 8.06C65.1204 7.83333 65.7804 7.72 66.487 7.72C67.4737 7.70667 68.327 7.92667 69.047 8.38C69.7804 8.82 70.3404 9.38 70.727 10.06C71.127 10.7267 71.407 11.4933 71.567 12.36C71.7404 13.2133 71.8404 14.0733 71.867 14.94C71.867 15.8467 71.7804 16.7333 71.607 17.6C71.4337 18.4667 71.1337 19.24 70.707 19.92C70.2937 20.5867 69.7337 21.1267 69.027 21.54C68.3204 21.94 67.4337 22.14 66.367 22.14C65.7804 22.14 65.2204 22.0733 64.687 21.94C64.167 21.7933 63.6937 21.58 63.267 21.3C62.8404 21.0067 62.4804 20.6467 62.187 20.22C61.8937 19.78 61.7004 19.26 61.607 18.66H63.987C64.1604 19.14 64.4737 19.5 64.927 19.74C65.3804 19.9667 65.8604 20.08 66.367 20.08C66.767 20.08 67.1204 20.0267 67.427 19.92C67.7337 19.8 68.007 19.6467 68.247 19.46C68.487 19.2733 68.6937 19.0533 68.867 18.8C69.0404 18.5333 69.1804 18.2533 69.287 17.96C69.4604 17.52 69.567 17.0733 69.607 16.62C69.647 16.1533 69.667 15.6933 69.667 15.24ZM63.807 12.3C63.807 13.1133 64.0404 13.7533 64.507 14.22C64.987 14.6867 65.627 14.92 66.427 14.92C66.787 14.92 67.127 14.8667 67.447 14.76C67.7804 14.64 68.067 14.48 68.307 14.28C68.547 14.0667 68.7337 13.8133 68.867 13.52C69.0137 13.2133 69.0937 12.88 69.107 12.52C69.107 12.1467 69.047 11.7933 68.927 11.46C68.807 11.1267 68.6337 10.84 68.407 10.6C68.1804 10.3467 67.9004 10.1467 67.567 10C67.247 9.85333 66.887 9.78 66.487 9.78C65.7137 9.78 65.0737 10.0067 64.567 10.46C64.0737 10.9133 63.8204 11.5267 63.807 12.3Z" fill="#2684FC"/>
</svg>
