<svg width="66" height="30" viewBox="0 0 66 30" fill="none" xmlns="http://www.w3.org/2000/svg">
<path d="M5.5 8C5.5 6.61929 6.61929 5.5 8 5.5H11C12.3807 5.5 13.5 6.61929 13.5 8V11C13.5 12.3807 12.3807 13.5 11 13.5H8C6.61929 13.5 5.5 12.3807 5.5 11V8Z" stroke="#2684FC" stroke-width="1.5"/>
<path d="M5.5 19C5.5 17.6193 6.61929 16.5 8 16.5H11C12.3807 16.5 13.5 17.6193 13.5 19V22C13.5 23.3807 12.3807 24.5 11 24.5H8C6.61929 24.5 5.5 23.3807 5.5 22V19Z" stroke="#2684FC" stroke-width="1.5"/>
<path d="M16.5 8C16.5 6.61929 17.6193 5.5 19 5.5H22C23.3807 5.5 24.5 6.61929 24.5 8V11C24.5 12.3807 23.3807 13.5 22 13.5H19C17.6193 13.5 16.5 12.3807 16.5 11V8Z" stroke="#2684FC" stroke-width="1.5"/>
<path d="M16.5 19C16.5 17.6193 17.6193 16.5 19 16.5H22C23.3807 16.5 24.5 17.6193 24.5 19V22C24.5 23.3807 23.3807 24.5 22 24.5H19C17.6193 24.5 16.5 23.3807 16.5 22V19Z" stroke="#2684FC" stroke-width="1.5"/>
<path d="M51.38 18.04C51.38 18.8133 51.2267 19.4667 50.92 20C50.6267 20.52 50.2333 20.94 49.74 21.26C49.26 21.58 48.7133 21.8133 48.1 21.96C47.4867 22.0933 46.86 22.16 46.22 22.16C45.5667 22.16 44.9267 22.0867 44.3 21.94C43.6867 21.7933 43.1333 21.56 42.64 21.24C42.16 20.9067 41.7733 20.48 41.48 19.96C41.1867 19.44 41.04 18.8 41.04 18.04C41.04 17.2267 41.22 16.52 41.58 15.92C41.9533 15.32 42.54 14.8667 43.34 14.56C42.9933 14.3867 42.7 14.18 42.46 13.94C42.2333 13.7 42.0467 13.4467 41.9 13.18C41.7667 12.9 41.6667 12.6133 41.6 12.32C41.5467 12.0267 41.52 11.7467 41.52 11.48C41.52 10.8 41.6467 10.22 41.9 9.74C42.1667 9.26 42.52 8.86667 42.96 8.56C43.4 8.25333 43.9 8.03333 44.46 7.9C45.0333 7.75333 45.6267 7.68 46.24 7.68C46.84 7.68 47.42 7.75333 47.98 7.9C48.5533 8.03333 49.0533 8.25333 49.48 8.56C49.92 8.86667 50.2667 9.26 50.52 9.74C50.7867 10.22 50.92 10.8 50.92 11.48C50.92 11.7467 50.8867 12.0267 50.82 12.32C50.7533 12.6133 50.6467 12.8933 50.5 13.16C50.3667 13.4267 50.18 13.68 49.94 13.92C49.7 14.16 49.4133 14.36 49.08 14.52C49.88 14.8267 50.46 15.2867 50.82 15.9C51.1933 16.5133 51.38 17.2267 51.38 18.04ZM46.22 9.72C45.9 9.72 45.5933 9.76 45.3 9.84C45.0067 9.90667 44.7467 10.02 44.52 10.18C44.3067 10.34 44.1333 10.5533 44 10.82C43.88 11.0733 43.82 11.38 43.82 11.74C43.82 12.46 44.0467 12.9933 44.5 13.34C44.9667 13.6733 45.54 13.84 46.22 13.84C46.54 13.84 46.8467 13.8 47.14 13.72C47.4333 13.64 47.6867 13.52 47.9 13.36C48.1133 13.1867 48.28 12.9733 48.4 12.72C48.5333 12.4667 48.6 12.1667 48.6 11.82C48.6 11.4467 48.5333 11.1267 48.4 10.86C48.28 10.5933 48.1133 10.3733 47.9 10.2C47.6867 10.0267 47.4333 9.90667 47.14 9.84C46.8467 9.76 46.54 9.72 46.22 9.72ZM46.2 15.7C45.84 15.7 45.4867 15.74 45.14 15.82C44.8067 15.9 44.5067 16.0267 44.24 16.2C43.9733 16.3733 43.76 16.6 43.6 16.88C43.44 17.16 43.36 17.5 43.36 17.9C43.36 18.34 43.4533 18.7067 43.64 19C43.8267 19.28 44.06 19.5067 44.34 19.68C44.62 19.84 44.9267 19.9533 45.26 20.02C45.5933 20.0867 45.9133 20.12 46.22 20.12C46.5267 20.12 46.8467 20.0867 47.18 20.02C47.5133 19.9533 47.8133 19.84 48.08 19.68C48.36 19.5067 48.5867 19.28 48.76 19C48.9467 18.7067 49.04 18.34 49.04 17.9C49.04 17.5 48.96 17.16 48.8 16.88C48.64 16.6 48.4267 16.3733 48.16 16.2C47.8933 16.0267 47.5867 15.9 47.24 15.82C46.9067 15.74 46.56 15.7 46.2 15.7ZM61.9819 15.24C61.7819 15.5467 61.5485 15.8067 61.2819 16.02C61.0152 16.2333 60.7219 16.4133 60.4019 16.56C60.0952 16.6933 59.7685 16.7933 59.4219 16.86C59.0752 16.9267 58.7285 16.96 58.3819 16.96C57.7152 16.96 57.1019 16.86 56.5419 16.66C55.9952 16.4467 55.5152 16.1467 55.1019 15.76C54.6885 15.3733 54.3685 14.9 54.1419 14.34C53.9152 13.78 53.8019 13.1467 53.8019 12.44C53.8019 11.72 53.9285 11.0667 54.1819 10.48C54.4485 9.89333 54.8019 9.4 55.2419 9C55.6952 8.58667 56.2219 8.27333 56.8219 8.06C57.4352 7.83333 58.0952 7.72 58.8019 7.72C59.7885 7.70667 60.6419 7.92667 61.3619 8.38C62.0952 8.82 62.6552 9.38 63.0419 10.06C63.4419 10.7267 63.7219 11.4933 63.8819 12.36C64.0552 13.2133 64.1552 14.0733 64.1819 14.94C64.1819 15.8467 64.0952 16.7333 63.9219 17.6C63.7485 18.4667 63.4485 19.24 63.0219 19.92C62.6085 20.5867 62.0485 21.1267 61.3419 21.54C60.6352 21.94 59.7485 22.14 58.6819 22.14C58.0952 22.14 57.5352 22.0733 57.0019 21.94C56.4819 21.7933 56.0085 21.58 55.5819 21.3C55.1552 21.0067 54.7952 20.6467 54.5019 20.22C54.2085 19.78 54.0152 19.26 53.9219 18.66H56.3019C56.4752 19.14 56.7885 19.5 57.2419 19.74C57.6952 19.9667 58.1752 20.08 58.6819 20.08C59.0819 20.08 59.4352 20.0267 59.7419 19.92C60.0485 19.8 60.3219 19.6467 60.5619 19.46C60.8019 19.2733 61.0085 19.0533 61.1819 18.8C61.3552 18.5333 61.4952 18.2533 61.6019 17.96C61.7752 17.52 61.8819 17.0733 61.9219 16.62C61.9619 16.1533 61.9819 15.6933 61.9819 15.24ZM56.1219 12.3C56.1219 13.1133 56.3552 13.7533 56.8219 14.22C57.3019 14.6867 57.9419 14.92 58.7419 14.92C59.1019 14.92 59.4419 14.8667 59.7619 14.76C60.0952 14.64 60.3819 14.48 60.6219 14.28C60.8619 14.0667 61.0485 13.8133 61.1819 13.52C61.3285 13.2133 61.4085 12.88 61.4219 12.52C61.4219 12.1467 61.3619 11.7933 61.2419 11.46C61.1219 11.1267 60.9485 10.84 60.7219 10.6C60.4952 10.3467 60.2152 10.1467 59.8819 10C59.5619 9.85333 59.2019 9.78 58.8019 9.78C58.0285 9.78 57.3885 10.0067 56.8819 10.46C56.3885 10.9133 56.1352 11.5267 56.1219 12.3Z" fill="#2684FC"/>
</svg>
