<svg width="66" height="30" viewBox="0 0 66 30" fill="none" xmlns="http://www.w3.org/2000/svg">
<path d="M5.5 8C5.5 6.61929 6.61929 5.5 8 5.5H11C12.3807 5.5 13.5 6.61929 13.5 8V11C13.5 12.3807 12.3807 13.5 11 13.5H8C6.61929 13.5 5.5 12.3807 5.5 11V8Z" stroke="#2684FC" stroke-width="1.5"/>
<path d="M5.5 19C5.5 17.6193 6.61929 16.5 8 16.5H11C12.3807 16.5 13.5 17.6193 13.5 19V22C13.5 23.3807 12.3807 24.5 11 24.5H8C6.61929 24.5 5.5 23.3807 5.5 22V19Z" stroke="#2684FC" stroke-width="1.5"/>
<path d="M16.5 8C16.5 6.61929 17.6193 5.5 19 5.5H22C23.3807 5.5 24.5 6.61929 24.5 8V11C24.5 12.3807 23.3807 13.5 22 13.5H19C17.6193 13.5 16.5 12.3807 16.5 11V8Z" stroke="#2684FC" stroke-width="1.5"/>
<path d="M16.5 19C16.5 17.6193 17.6193 16.5 19 16.5H22C23.3807 16.5 24.5 17.6193 24.5 19V22C24.5 23.3807 23.3807 24.5 22 24.5H19C17.6193 24.5 16.5 23.3807 16.5 22V19Z" stroke="#2684FC" stroke-width="1.5"/>
<path d="M50.34 7.86V17.24H51.96V19.28H50.34V22H48.04V19.28H40.74V17.62L47.36 7.86H50.34ZM43.42 17.24H48.04V10.32L43.42 17.24ZM54.4577 15.78L55.2177 7.86H63.7377V9.92H57.1577L56.7577 13.6C57.1443 13.3467 57.5577 13.1533 57.9977 13.02C58.451 12.8733 58.991 12.8 59.6177 12.8C60.3243 12.8 60.9643 12.9067 61.5377 13.12C62.111 13.32 62.6043 13.6133 63.0177 14C63.431 14.3867 63.7443 14.86 63.9577 15.42C64.1843 15.98 64.2977 16.6133 64.2977 17.32C64.2977 18.08 64.1643 18.76 63.8977 19.36C63.631 19.96 63.2643 20.4667 62.7977 20.88C62.331 21.2933 61.7843 21.6133 61.1577 21.84C60.531 22.0533 59.851 22.16 59.1177 22.16C58.491 22.16 57.8977 22.0867 57.3377 21.94C56.791 21.7933 56.291 21.5667 55.8377 21.26C55.3977 20.9533 55.0243 20.56 54.7177 20.08C54.4243 19.5867 54.231 19.0067 54.1377 18.34H56.4377C56.5177 18.62 56.6443 18.8667 56.8177 19.08C57.0043 19.2933 57.2177 19.4733 57.4577 19.62C57.6977 19.7667 57.9577 19.88 58.2377 19.96C58.5177 20.0267 58.7977 20.06 59.0777 20.06C59.4777 20.06 59.851 20.0133 60.1977 19.92C60.5443 19.8133 60.8443 19.6533 61.0977 19.44C61.3643 19.2267 61.571 18.96 61.7177 18.64C61.8643 18.3067 61.9377 17.9067 61.9377 17.44C61.9377 16.5867 61.6843 15.9333 61.1777 15.48C60.6843 15.0267 60.031 14.8 59.2177 14.8C58.711 14.8 58.251 14.8867 57.8377 15.06C57.4243 15.2333 57.051 15.4733 56.7177 15.78H54.4577Z" fill="#2684FC"/>
</svg>
