<svg width="39" height="11" viewBox="0 0 39 11" fill="none" xmlns="http://www.w3.org/2000/svg">
<path d="M0 10.4635H5.614V8.69947H1.96V0.663469H0V10.4635Z" fill="white"/>
<path d="M6.5182 10.4635H8.4082V3.18347H6.5182V10.4635ZM6.3222 1.46147C6.3222 2.07747 6.8122 2.58147 7.4562 2.58147C8.1142 2.58147 8.5902 2.09147 8.5902 1.46147C8.5902 0.859469 8.1142 0.355469 7.4562 0.355469C6.8122 0.355469 6.3222 0.859469 6.3222 1.46147Z" fill="white"/>
<path d="M9.52602 10.4635H11.416V6.47347C11.416 5.21347 12.13 4.66747 12.928 4.66747C13.866 4.66747 14.496 5.21347 14.496 6.47347V10.4635H16.386V6.01147C16.386 4.17747 15.182 3.01547 13.614 3.01547C12.494 3.01547 11.766 3.43547 11.388 4.24747V3.18347H9.52602V10.4635Z" fill="white"/>
<path d="M20.928 10.6455C22.37 10.6455 23.588 10.0015 24.176 9.09147L22.706 7.98547C22.37 8.54547 21.74 8.96547 20.928 8.96547C19.976 8.96547 19.332 8.36347 19.122 7.50947H24.568C24.61 7.27147 24.624 7.04747 24.624 6.83747C24.624 4.73747 23.112 3.00147 20.928 3.00147C18.744 3.00147 17.162 4.73747 17.162 6.83747C17.162 8.93747 18.674 10.6455 20.928 10.6455ZM19.122 6.09547C19.332 5.22747 20.004 4.62547 20.9 4.62547C21.824 4.62547 22.51 5.28347 22.72 6.09547H19.122Z" fill="white"/>
<path d="M28.676 10.6455C29.978 10.6455 30.636 10.0995 31.028 9.27347V10.4635H32.862V3.18347H30.986V4.33147C30.594 3.54747 29.936 3.02947 28.676 3.02947C26.674 3.02947 25.078 4.75147 25.078 6.85147C25.078 8.95147 26.674 10.6455 28.676 10.6455ZM26.968 6.83747C26.968 5.70347 27.78 4.73747 28.984 4.73747C30.23 4.73747 31.028 5.71747 31.028 6.85147C31.028 7.98547 30.23 8.93747 28.984 8.93747C27.78 8.93747 26.968 7.94347 26.968 6.83747Z" fill="white"/>
<path d="M33.985 10.4635H35.875V6.73947C35.875 5.52147 36.715 4.79347 37.807 4.79347H38.073V3.01547C36.813 2.94547 36.071 3.51947 35.819 4.56947V3.18347H33.985V10.4635Z" fill="white"/>
</svg>
