<svg width="39" height="11" viewBox="0 0 39 11" fill="none" xmlns="http://www.w3.org/2000/svg">
<path d="M0 10.463H5.614V8.69898H1.96V0.662981H0V10.463Z" fill="white"/>
<path d="M6.5182 10.463H8.4082V3.18298H6.5182V10.463ZM6.3222 1.46098C6.3222 2.07698 6.8122 2.58098 7.4562 2.58098C8.1142 2.58098 8.5902 2.09098 8.5902 1.46098C8.5902 0.858981 8.1142 0.35498 7.4562 0.35498C6.8122 0.35498 6.3222 0.858981 6.3222 1.46098Z" fill="white"/>
<path d="M9.52602 10.463H11.416V6.47298C11.416 5.21298 12.13 4.66698 12.928 4.66698C13.866 4.66698 14.496 5.21298 14.496 6.47298V10.463H16.386V6.01098C16.386 4.17698 15.182 3.01498 13.614 3.01498C12.494 3.01498 11.766 3.43498 11.388 4.24698V3.18298H9.52602V10.463Z" fill="white"/>
<path d="M20.928 10.645C22.37 10.645 23.588 10.001 24.176 9.09098L22.706 7.98498C22.37 8.54498 21.74 8.96498 20.928 8.96498C19.976 8.96498 19.332 8.36298 19.122 7.50898H24.568C24.61 7.27098 24.624 7.04698 24.624 6.83698C24.624 4.73698 23.112 3.00098 20.928 3.00098C18.744 3.00098 17.162 4.73698 17.162 6.83698C17.162 8.93698 18.674 10.645 20.928 10.645ZM19.122 6.09498C19.332 5.22698 20.004 4.62498 20.9 4.62498C21.824 4.62498 22.51 5.28298 22.72 6.09498H19.122Z" fill="white"/>
<path d="M28.676 10.645C29.978 10.645 30.636 10.099 31.028 9.27298V10.463H32.862V3.18298H30.986V4.33098C30.594 3.54698 29.936 3.02898 28.676 3.02898C26.674 3.02898 25.078 4.75098 25.078 6.85098C25.078 8.95098 26.674 10.645 28.676 10.645ZM26.968 6.83698C26.968 5.70298 27.78 4.73698 28.984 4.73698C30.23 4.73698 31.028 5.71698 31.028 6.85098C31.028 7.98498 30.23 8.93698 28.984 8.93698C27.78 8.93698 26.968 7.94298 26.968 6.83698Z" fill="white"/>
<path d="M33.985 10.463H35.875V6.73898C35.875 5.52098 36.715 4.79298 37.807 4.79298H38.073V3.01498C36.813 2.94498 36.071 3.51898 35.819 4.56898V3.18298H33.985V10.463Z" fill="white"/>
</svg>
