<svg width="39" height="11" viewBox="0 0 39 11" fill="none" xmlns="http://www.w3.org/2000/svg">
<path d="M0 10.463H5.614V8.69901H1.96V0.663011H0V10.463Z" fill="white"/>
<path d="M6.5182 10.463H8.4082V3.18301H6.5182V10.463ZM6.3222 1.46101C6.3222 2.07701 6.8122 2.58101 7.4562 2.58101C8.1142 2.58101 8.5902 2.09101 8.5902 1.46101C8.5902 0.859011 8.1142 0.355011 7.4562 0.355011C6.8122 0.355011 6.3222 0.859011 6.3222 1.46101Z" fill="white"/>
<path d="M9.52602 10.463H11.416V6.47301C11.416 5.21301 12.13 4.66701 12.928 4.66701C13.866 4.66701 14.496 5.21301 14.496 6.47301V10.463H16.386V6.01101C16.386 4.17701 15.182 3.01501 13.614 3.01501C12.494 3.01501 11.766 3.43501 11.388 4.24701V3.18301H9.52602V10.463Z" fill="white"/>
<path d="M20.928 10.645C22.37 10.645 23.588 10.001 24.176 9.09101L22.706 7.98501C22.37 8.54501 21.74 8.96501 20.928 8.96501C19.976 8.96501 19.332 8.36301 19.122 7.50901H24.568C24.61 7.27101 24.624 7.04701 24.624 6.83701C24.624 4.73701 23.112 3.00101 20.928 3.00101C18.744 3.00101 17.162 4.73701 17.162 6.83701C17.162 8.93701 18.674 10.645 20.928 10.645ZM19.122 6.09501C19.332 5.22701 20.004 4.62501 20.9 4.62501C21.824 4.62501 22.51 5.28301 22.72 6.09501H19.122Z" fill="white"/>
<path d="M28.676 10.645C29.978 10.645 30.636 10.099 31.028 9.27301V10.463H32.862V3.18301H30.986V4.33101C30.594 3.54701 29.936 3.02901 28.676 3.02901C26.674 3.02901 25.078 4.75101 25.078 6.85101C25.078 8.95101 26.674 10.645 28.676 10.645ZM26.968 6.83701C26.968 5.70301 27.78 4.73701 28.984 4.73701C30.23 4.73701 31.028 5.71701 31.028 6.85101C31.028 7.98501 30.23 8.93701 28.984 8.93701C27.78 8.93701 26.968 7.94301 26.968 6.83701Z" fill="white"/>
<path d="M33.985 10.463H35.875V6.73901C35.875 5.52101 36.715 4.79301 37.807 4.79301H38.073V3.01501C36.813 2.94501 36.071 3.51901 35.819 4.56901V3.18301H33.985V10.463Z" fill="white"/>
</svg>
