<svg width="39" height="11" viewBox="0 0 39 11" fill="none" xmlns="http://www.w3.org/2000/svg">
<path d="M0 10.463H5.614V8.699H1.96V0.662996H0V10.463Z" fill="white"/>
<path d="M6.5182 10.463H8.4082V3.183H6.5182V10.463ZM6.3222 1.461C6.3222 2.077 6.8122 2.581 7.4562 2.581C8.1142 2.581 8.5902 2.091 8.5902 1.461C8.5902 0.858996 8.1142 0.354996 7.4562 0.354996C6.8122 0.354996 6.3222 0.858996 6.3222 1.461Z" fill="white"/>
<path d="M9.52602 10.463H11.416V6.473C11.416 5.213 12.13 4.667 12.928 4.667C13.866 4.667 14.496 5.213 14.496 6.473V10.463H16.386V6.011C16.386 4.177 15.182 3.015 13.614 3.015C12.494 3.015 11.766 3.435 11.388 4.247V3.183H9.52602V10.463Z" fill="white"/>
<path d="M20.928 10.645C22.37 10.645 23.588 10.001 24.176 9.091L22.706 7.985C22.37 8.545 21.74 8.965 20.928 8.965C19.976 8.965 19.332 8.363 19.122 7.509H24.568C24.61 7.271 24.624 7.047 24.624 6.837C24.624 4.737 23.112 3.001 20.928 3.001C18.744 3.001 17.162 4.737 17.162 6.837C17.162 8.937 18.674 10.645 20.928 10.645ZM19.122 6.095C19.332 5.227 20.004 4.625 20.9 4.625C21.824 4.625 22.51 5.283 22.72 6.095H19.122Z" fill="white"/>
<path d="M28.676 10.645C29.978 10.645 30.636 10.099 31.028 9.273V10.463H32.862V3.183H30.986V4.331C30.594 3.547 29.936 3.029 28.676 3.029C26.674 3.029 25.078 4.751 25.078 6.851C25.078 8.951 26.674 10.645 28.676 10.645ZM26.968 6.837C26.968 5.703 27.78 4.737 28.984 4.737C30.23 4.737 31.028 5.717 31.028 6.851C31.028 7.985 30.23 8.937 28.984 8.937C27.78 8.937 26.968 7.943 26.968 6.837Z" fill="white"/>
<path d="M33.985 10.463H35.875V6.739C35.875 5.521 36.715 4.793 37.807 4.793H38.073V3.015C36.813 2.945 36.071 3.519 35.819 4.569V3.183H33.985V10.463Z" fill="white"/>
</svg>
